<svg width="40" height="40" viewBox="0 0 40 40" fill="none" xmlns="http://www.w3.org/2000/svg">
<path d="M20 35.0005C11.7287 35.0005 5 28.2717 5 20.0005C5 11.7292 11.7287 5.00049 20 5.00049C28.2712 5.00049 35 11.7292 35 20.0005C35 28.2717 28.2712 35.0005 20 35.0005ZM20 6.87549C12.7625 6.87549 6.875 12.763 6.875 20.0005C6.875 27.238 12.7625 33.1255 20 33.1255C27.2375 33.1255 33.125 27.238 33.125 20.0005C33.125 12.763 27.2375 6.87549 20 6.87549Z" fill="#3B414D"/>
<path d="M25.625 26.563C25.375 26.563 25.1388 26.4655 24.9625 26.288L20 21.3255L15.0388 26.288C14.8625 26.4655 14.6263 26.563 14.3763 26.563C14.1263 26.563 13.89 26.4655 13.7138 26.288C13.5363 26.1105 13.4388 25.8755 13.4388 25.6255C13.4388 25.3755 13.5363 25.1392 13.7138 24.963L18.6738 20.0005L13.7113 15.038C13.5338 14.8617 13.4363 14.6255 13.4363 14.3755C13.4363 14.1255 13.5338 13.8892 13.7113 13.713C13.8875 13.5355 14.1238 13.438 14.3738 13.438C14.6238 13.438 14.86 13.5355 15.0363 13.713L19.9988 18.6755L24.96 13.713C25.1375 13.5355 25.3725 13.438 25.6225 13.438C25.8725 13.438 26.1088 13.5355 26.285 13.713C26.4625 13.8892 26.56 14.1255 26.56 14.3755C26.56 14.6255 26.4625 14.8617 26.285 15.038L21.325 20.0005L26.2875 24.963C26.465 25.1405 26.5625 25.3755 26.5625 25.6255C26.5625 25.8755 26.465 26.1117 26.2875 26.288C26.11 26.4642 25.875 26.563 25.625 26.563Z" fill="#3B414D"/>
</svg>
