<?xml version="1.0" encoding="utf-8"?>
<svg xmlns="http://www.w3.org/2000/svg" width="199" height="71" viewBox="0 0 199 71" fill="none">
<g clip-path="url(#clip0_330_910)">
<path d="M8.13837 61.2812C8.13837 61.847 7.67964 62.3058 7.11376 62.3058H1.02462C0.458736 62.3058 0 61.847 0 61.2812V1.98653C0 1.42065 0.458736 0.961914 1.02462 0.961914H37.3191C37.8849 0.961914 38.3437 1.42065 38.3437 1.98653V31.0809C38.3437 31.6468 37.8849 32.1055 37.3191 32.1055H9.16299C8.59711 32.1055 8.13837 32.5642 8.13837 33.1301V61.2812Z" fill="#105091"/>
<path d="M37.2222 45.1533H22.4543C21.794 45.1533 21.2588 45.6886 21.2588 46.3488V61.1109C21.2588 61.7711 21.794 62.3063 22.4543 62.3063H37.2222C37.8824 62.3063 38.4177 61.7711 38.4177 61.1109V46.3488C38.4177 45.6886 37.8824 45.1533 37.2222 45.1533Z" fill="#6EBBE6"/>
<path d="M37.3365 42.8988C37.9341 42.8988 38.4185 42.4144 38.4185 41.8169V35.3817C38.4185 34.7842 37.9341 34.2998 37.3365 34.2998H11.494C10.8965 34.2998 10.4121 34.7842 10.4121 35.3817V61.2242C10.4121 61.8218 10.8965 62.3062 11.4941 62.3062H17.9239C18.5214 62.3062 19.0058 61.8218 19.0058 61.2242V43.9807C19.0058 43.3832 19.4902 42.8988 20.0878 42.8988H37.3365Z" fill="#4099CD"/>
</g>
<mask id="path-5-outside-1_330_910" maskUnits="userSpaceOnUse" x="46.3438" y="33.3062" width="90" height="38" fill="black">
<rect fill="white" x="46.3438" y="33.3062" width="90" height="38"/>
<path d="M47.4001 62.3062V34.7062H56.3284C58.2919 34.7062 59.9282 35.0643 61.2372 35.7805C62.5461 36.4844 63.5341 37.46 64.2009 38.7072C64.8801 39.9545 65.2197 41.3808 65.2197 42.9862C65.2197 44.5915 64.8863 46.0117 64.2194 47.2466C63.5526 48.4691 62.5585 49.4262 61.2372 50.1177C59.9282 50.8093 58.3043 51.155 56.3655 51.155H48.7894V48.8581H56.2914C57.7362 48.8581 58.9341 48.6173 59.8849 48.1357C60.8358 47.6541 61.5459 46.9749 62.0151 46.0981C62.4968 45.2213 62.7376 44.184 62.7376 42.9862C62.7376 41.776 62.4968 40.7201 62.0151 39.8187C61.5335 38.9172 60.8173 38.2195 59.8664 37.7255C58.9155 37.2315 57.7115 36.9846 56.2543 36.9846H49.9193V62.3062H47.4001ZM63.4414 62.3062L56.736 49.8399H59.5886L66.3682 62.3062H63.4414ZM75.4817 62.7692C74.2345 62.7692 73.0922 62.5284 72.0549 62.0468C71.0175 61.5529 70.1902 60.8428 69.5727 59.9166C68.9676 58.9781 68.6651 57.842 68.6651 56.5083C68.6651 55.4833 68.8565 54.6251 69.2393 53.9335C69.6221 53.242 70.1716 52.6739 70.8879 52.2294C71.6041 51.7725 72.4439 51.4144 73.4071 51.155C74.3826 50.8833 75.457 50.6796 76.6302 50.5437C77.791 50.3956 78.7727 50.2721 79.5754 50.1733C80.3781 50.0621 80.9894 49.8893 81.4092 49.6546C81.8291 49.42 82.039 49.0433 82.039 48.5247V48.0431C82.039 46.6229 81.6191 45.5115 80.7794 44.7089C79.9397 43.8938 78.7357 43.4863 77.1673 43.4863C75.6731 43.4863 74.4567 43.8136 73.5182 44.468C72.5797 45.1225 71.9252 45.8944 71.5547 46.7835L69.2578 45.9499C69.7271 44.8262 70.3754 43.9247 71.2028 43.2455C72.0302 42.5663 72.9563 42.0785 73.9813 41.7821C75.0063 41.4734 76.0436 41.3191 77.0932 41.3191C77.8836 41.3191 78.7048 41.424 79.5569 41.634C80.4089 41.8439 81.2055 42.202 81.9464 42.7083C82.6873 43.2146 83.2863 43.9247 83.7432 44.8385C84.2124 45.74 84.4471 46.8823 84.4471 48.2654V62.3062H82.039V59.0275H81.8908C81.6191 59.6326 81.1993 60.2253 80.6312 60.8058C80.0632 61.3738 79.3531 61.8431 78.501 62.2135C77.649 62.584 76.6425 62.7692 75.4817 62.7692ZM75.8151 60.5835C77.0871 60.5835 78.1861 60.3056 79.1123 59.7499C80.0508 59.1819 80.7732 58.4224 81.2796 57.4715C81.7859 56.5207 82.039 55.4833 82.039 54.3596V51.3773C81.8538 51.5502 81.5512 51.7046 81.1314 51.8404C80.7238 51.9762 80.2484 52.0935 79.7051 52.1923C79.1741 52.2911 78.6307 52.3776 78.075 52.4517C77.5316 52.5258 77.05 52.5875 76.6302 52.6369C75.4694 52.7851 74.4691 53.0135 73.6294 53.3223C72.802 53.631 72.166 54.0509 71.7214 54.5819C71.2892 55.1129 71.0731 55.7982 71.0731 56.638C71.0731 57.8852 71.5177 58.8546 72.4068 59.5462C73.3083 60.2377 74.4444 60.5835 75.8151 60.5835ZM89.5966 70.049V41.5969H91.912V45.5609H92.1899C92.4739 44.9435 92.8691 44.3075 93.3754 43.653C93.8817 42.9985 94.5547 42.449 95.3944 42.0044C96.2342 41.5475 97.2838 41.3191 98.5434 41.3191C100.248 41.3191 101.736 41.7698 103.008 42.6713C104.292 43.5604 105.292 44.8076 106.008 46.413C106.725 48.0184 107.083 49.8831 107.083 52.0071C107.083 54.1435 106.725 56.0205 106.008 57.6382C105.304 59.256 104.31 60.5156 103.026 61.417C101.754 62.3062 100.266 62.7507 98.562 62.7507C97.3147 62.7507 96.265 62.5284 95.413 62.0839C94.5732 61.627 93.894 61.0651 93.3754 60.3982C92.8691 59.7314 92.4739 59.0831 92.1899 58.4533H91.9861V70.049H89.5966ZM98.3026 60.5649C99.661 60.5649 100.816 60.1821 101.767 59.4165C102.717 58.6509 103.44 57.6197 103.934 56.3231C104.428 55.0264 104.675 53.5816 104.675 51.9886C104.675 50.3956 104.428 48.9631 103.934 47.6911C103.44 46.4068 102.724 45.388 101.785 44.6348C100.847 43.8815 99.6857 43.5048 98.3026 43.5048C96.9442 43.5048 95.7958 43.8691 94.8573 44.5977C93.9187 45.314 93.2025 46.308 92.7085 47.58C92.2146 48.8519 91.9676 50.3215 91.9676 51.9886C91.9676 53.6433 92.2146 55.119 92.7085 56.4157C93.2025 57.7 93.9187 58.7126 94.8573 59.4535C95.8081 60.1945 96.9566 60.5649 98.3026 60.5649ZM111.158 62.3062V41.5969H113.547V62.3062H111.158ZM112.362 38.0589C111.868 38.0589 111.442 37.8922 111.084 37.5588C110.738 37.213 110.565 36.7993 110.565 36.3177C110.565 35.8485 110.738 35.4471 111.084 35.1137C111.442 34.7803 111.868 34.6136 112.362 34.6136C112.856 34.6136 113.276 34.7803 113.622 35.1137C113.967 35.4471 114.14 35.8485 114.14 36.3177C114.14 36.7993 113.967 37.213 113.622 37.5588C113.276 37.8922 112.856 38.0589 112.362 38.0589ZM126.143 62.7507C124.452 62.7507 122.964 62.3062 121.679 61.417C120.407 60.5156 119.413 59.256 118.697 57.6382C117.993 56.0205 117.641 54.1435 117.641 52.0071C117.641 49.8831 117.999 48.0184 118.715 46.413C119.432 44.8076 120.426 43.5604 121.698 42.6713C122.982 41.7698 124.47 41.3191 126.162 41.3191C127.434 41.3191 128.484 41.5475 129.311 42.0044C130.151 42.449 130.824 42.9985 131.33 43.653C131.849 44.3075 132.244 44.9435 132.515 45.5609H132.719V34.7062H135.109V62.3062H132.793V58.4533H132.515C132.244 59.0831 131.849 59.7314 131.33 60.3982C130.811 61.0651 130.132 61.627 129.292 62.0839C128.453 62.5284 127.403 62.7507 126.143 62.7507ZM126.421 60.5649C127.767 60.5649 128.91 60.1945 129.848 59.4535C130.787 58.7126 131.503 57.7 131.997 56.4157C132.503 55.119 132.756 53.6433 132.756 51.9886C132.756 50.3215 132.509 48.8519 132.015 47.58C131.521 46.308 130.799 45.314 129.848 44.5977C128.91 43.8691 127.767 43.5048 126.421 43.5048C125.051 43.5048 123.89 43.8815 122.939 44.6348C121.988 45.388 121.266 46.4068 120.772 47.6911C120.29 48.9631 120.049 50.3956 120.049 51.9886C120.049 53.5816 120.296 55.0264 120.79 56.3231C121.284 57.6197 122 58.6509 122.939 59.4165C123.89 60.1821 125.051 60.5649 126.421 60.5649Z"/>
</mask>
<path d="M47.4001 62.3062V34.7062H56.3284C58.2919 34.7062 59.9282 35.0643 61.2372 35.7805C62.5461 36.4844 63.5341 37.46 64.2009 38.7072C64.8801 39.9545 65.2197 41.3808 65.2197 42.9862C65.2197 44.5915 64.8863 46.0117 64.2194 47.2466C63.5526 48.4691 62.5585 49.4262 61.2372 50.1177C59.9282 50.8093 58.3043 51.155 56.3655 51.155H48.7894V48.8581H56.2914C57.7362 48.8581 58.9341 48.6173 59.8849 48.1357C60.8358 47.6541 61.5459 46.9749 62.0151 46.0981C62.4968 45.2213 62.7376 44.184 62.7376 42.9862C62.7376 41.776 62.4968 40.7201 62.0151 39.8187C61.5335 38.9172 60.8173 38.2195 59.8664 37.7255C58.9155 37.2315 57.7115 36.9846 56.2543 36.9846H49.9193V62.3062H47.4001ZM63.4414 62.3062L56.736 49.8399H59.5886L66.3682 62.3062H63.4414ZM75.4817 62.7692C74.2345 62.7692 73.0922 62.5284 72.0549 62.0468C71.0175 61.5529 70.1902 60.8428 69.5727 59.9166C68.9676 58.9781 68.6651 57.842 68.6651 56.5083C68.6651 55.4833 68.8565 54.6251 69.2393 53.9335C69.6221 53.242 70.1716 52.6739 70.8879 52.2294C71.6041 51.7725 72.4439 51.4144 73.4071 51.155C74.3826 50.8833 75.457 50.6796 76.6302 50.5437C77.791 50.3956 78.7727 50.2721 79.5754 50.1733C80.3781 50.0621 80.9894 49.8893 81.4092 49.6546C81.8291 49.42 82.039 49.0433 82.039 48.5247V48.0431C82.039 46.6229 81.6191 45.5115 80.7794 44.7089C79.9397 43.8938 78.7357 43.4863 77.1673 43.4863C75.6731 43.4863 74.4567 43.8136 73.5182 44.468C72.5797 45.1225 71.9252 45.8944 71.5547 46.7835L69.2578 45.9499C69.7271 44.8262 70.3754 43.9247 71.2028 43.2455C72.0302 42.5663 72.9563 42.0785 73.9813 41.7821C75.0063 41.4734 76.0436 41.3191 77.0932 41.3191C77.8836 41.3191 78.7048 41.424 79.5569 41.634C80.4089 41.8439 81.2055 42.202 81.9464 42.7083C82.6873 43.2146 83.2863 43.9247 83.7432 44.8385C84.2124 45.74 84.4471 46.8823 84.4471 48.2654V62.3062H82.039V59.0275H81.8908C81.6191 59.6326 81.1993 60.2253 80.6312 60.8058C80.0632 61.3738 79.3531 61.8431 78.501 62.2135C77.649 62.584 76.6425 62.7692 75.4817 62.7692ZM75.8151 60.5835C77.0871 60.5835 78.1861 60.3056 79.1123 59.7499C80.0508 59.1819 80.7732 58.4224 81.2796 57.4715C81.7859 56.5207 82.039 55.4833 82.039 54.3596V51.3773C81.8538 51.5502 81.5512 51.7046 81.1314 51.8404C80.7238 51.9762 80.2484 52.0935 79.7051 52.1923C79.1741 52.2911 78.6307 52.3776 78.075 52.4517C77.5316 52.5258 77.05 52.5875 76.6302 52.6369C75.4694 52.7851 74.4691 53.0135 73.6294 53.3223C72.802 53.631 72.166 54.0509 71.7214 54.5819C71.2892 55.1129 71.0731 55.7982 71.0731 56.638C71.0731 57.8852 71.5177 58.8546 72.4068 59.5462C73.3083 60.2377 74.4444 60.5835 75.8151 60.5835ZM89.5966 70.049V41.5969H91.912V45.5609H92.1899C92.4739 44.9435 92.8691 44.3075 93.3754 43.653C93.8817 42.9985 94.5547 42.449 95.3944 42.0044C96.2342 41.5475 97.2838 41.3191 98.5434 41.3191C100.248 41.3191 101.736 41.7698 103.008 42.6713C104.292 43.5604 105.292 44.8076 106.008 46.413C106.725 48.0184 107.083 49.8831 107.083 52.0071C107.083 54.1435 106.725 56.0205 106.008 57.6382C105.304 59.256 104.31 60.5156 103.026 61.417C101.754 62.3062 100.266 62.7507 98.562 62.7507C97.3147 62.7507 96.265 62.5284 95.413 62.0839C94.5732 61.627 93.894 61.0651 93.3754 60.3982C92.8691 59.7314 92.4739 59.0831 92.1899 58.4533H91.9861V70.049H89.5966ZM98.3026 60.5649C99.661 60.5649 100.816 60.1821 101.767 59.4165C102.717 58.6509 103.44 57.6197 103.934 56.3231C104.428 55.0264 104.675 53.5816 104.675 51.9886C104.675 50.3956 104.428 48.9631 103.934 47.6911C103.44 46.4068 102.724 45.388 101.785 44.6348C100.847 43.8815 99.6857 43.5048 98.3026 43.5048C96.9442 43.5048 95.7958 43.8691 94.8573 44.5977C93.9187 45.314 93.2025 46.308 92.7085 47.58C92.2146 48.8519 91.9676 50.3215 91.9676 51.9886C91.9676 53.6433 92.2146 55.119 92.7085 56.4157C93.2025 57.7 93.9187 58.7126 94.8573 59.4535C95.8081 60.1945 96.9566 60.5649 98.3026 60.5649ZM111.158 62.3062V41.5969H113.547V62.3062H111.158ZM112.362 38.0589C111.868 38.0589 111.442 37.8922 111.084 37.5588C110.738 37.213 110.565 36.7993 110.565 36.3177C110.565 35.8485 110.738 35.4471 111.084 35.1137C111.442 34.7803 111.868 34.6136 112.362 34.6136C112.856 34.6136 113.276 34.7803 113.622 35.1137C113.967 35.4471 114.14 35.8485 114.14 36.3177C114.14 36.7993 113.967 37.213 113.622 37.5588C113.276 37.8922 112.856 38.0589 112.362 38.0589ZM126.143 62.7507C124.452 62.7507 122.964 62.3062 121.679 61.417C120.407 60.5156 119.413 59.256 118.697 57.6382C117.993 56.0205 117.641 54.1435 117.641 52.0071C117.641 49.8831 117.999 48.0184 118.715 46.413C119.432 44.8076 120.426 43.5604 121.698 42.6713C122.982 41.7698 124.47 41.3191 126.162 41.3191C127.434 41.3191 128.484 41.5475 129.311 42.0044C130.151 42.449 130.824 42.9985 131.33 43.653C131.849 44.3075 132.244 44.9435 132.515 45.5609H132.719V34.7062H135.109V62.3062H132.793V58.4533H132.515C132.244 59.0831 131.849 59.7314 131.33 60.3982C130.811 61.0651 130.132 61.627 129.292 62.0839C128.453 62.5284 127.403 62.7507 126.143 62.7507ZM126.421 60.5649C127.767 60.5649 128.91 60.1945 129.848 59.4535C130.787 58.7126 131.503 57.7 131.997 56.4157C132.503 55.119 132.756 53.6433 132.756 51.9886C132.756 50.3215 132.509 48.8519 132.015 47.58C131.521 46.308 130.799 45.314 129.848 44.5977C128.91 43.8691 127.767 43.5048 126.421 43.5048C125.051 43.5048 123.89 43.8815 122.939 44.6348C121.988 45.388 121.266 46.4068 120.772 47.6911C120.29 48.9631 120.049 50.3956 120.049 51.9886C120.049 53.5816 120.296 55.0264 120.79 56.3231C121.284 57.6197 122 58.6509 122.939 59.4165C123.89 60.1821 125.051 60.5649 126.421 60.5649Z" fill="#021824"/>
<path d="M47.4001 62.3062H46.9085C46.9085 62.5777 47.1286 62.7977 47.4001 62.7977V62.3062ZM47.4001 34.7062V34.2146C47.1286 34.2146 46.9085 34.4347 46.9085 34.7062H47.4001ZM61.2372 35.7805L61.0012 36.2118L61.0043 36.2135L61.2372 35.7805ZM64.2009 38.7072L63.7674 38.939L63.7692 38.9424L64.2009 38.7072ZM64.2194 47.2466L64.651 47.482L64.652 47.4801L64.2194 47.2466ZM61.2372 50.1177L61.0092 49.6822L61.0075 49.683L61.2372 50.1177ZM48.7894 51.155H48.2978C48.2978 51.4265 48.5179 51.6466 48.7894 51.6466V51.155ZM48.7894 48.8581V48.3665C48.5179 48.3665 48.2978 48.5866 48.2978 48.8581H48.7894ZM62.0151 46.0981L61.5842 45.8614L61.5817 45.8661L62.0151 46.0981ZM49.9193 36.9846V36.493C49.6478 36.493 49.4277 36.7131 49.4277 36.9846H49.9193ZM49.9193 62.3062V62.7977C50.1908 62.7977 50.4109 62.5777 50.4109 62.3062H49.9193ZM63.4414 62.3062L63.0085 62.539C63.0942 62.6984 63.2605 62.7977 63.4414 62.7977V62.3062ZM56.736 49.8399V49.3483C56.563 49.3483 56.4027 49.4392 56.314 49.5877C56.2252 49.7362 56.2211 49.9204 56.303 50.0727L56.736 49.8399ZM59.5886 49.8399L60.0204 49.605C59.9344 49.4468 59.7687 49.3483 59.5886 49.3483V49.8399ZM66.3682 62.3062V62.7977C66.5415 62.7977 66.7021 62.7064 66.7907 62.5574C66.8793 62.4083 66.8829 62.2236 66.8 62.0713L66.3682 62.3062ZM47.8917 62.3062V34.7062H46.9085V62.3062H47.8917ZM47.4001 35.1978H56.3284V34.2146H47.4001V35.1978ZM56.3284 35.1978C58.2346 35.1978 59.7838 35.5457 61.0012 36.2118L61.4731 35.3493C60.0725 34.5829 58.3492 34.2146 56.3284 34.2146V35.1978ZM61.0043 36.2135C62.2327 36.874 63.1486 37.7816 63.7674 38.939L64.6344 38.4755C63.9196 37.1384 62.8596 36.0949 61.47 35.3476L61.0043 36.2135ZM63.7692 38.9424C64.4042 40.1085 64.7281 41.4521 64.7281 42.9862H65.7113C65.7113 41.3095 65.356 39.8005 64.6326 38.4721L63.7692 38.9424ZM64.7281 42.9862C64.7281 44.5218 64.4097 45.8596 63.7869 47.013L64.652 47.4801C65.3628 46.1637 65.7113 44.6612 65.7113 42.9862H64.7281ZM63.7879 47.0112C63.1709 48.1422 62.2508 49.0324 61.0092 49.6822L61.4651 50.5533C62.8662 49.82 63.9342 48.7961 64.651 47.482L63.7879 47.0112ZM61.0075 49.683C59.7878 50.3274 58.2482 50.6634 56.3655 50.6634V51.6466C58.3604 51.6466 60.0685 51.2911 61.4668 50.5524L61.0075 49.683ZM56.3655 50.6634H48.7894V51.6466H56.3655V50.6634ZM49.281 51.155V48.8581H48.2978V51.155H49.281ZM48.7894 49.3497H56.2914V48.3665H48.7894V49.3497ZM56.2914 49.3497C57.7873 49.3497 59.0673 49.1009 60.1071 48.5742L59.6628 47.6971C58.8008 48.1337 57.6851 48.3665 56.2914 48.3665V49.3497ZM60.1071 48.5742C61.1411 48.0505 61.9282 47.3023 62.4486 46.3301L61.5817 45.8661C61.1635 46.6475 60.5306 47.2576 59.6628 47.6971L60.1071 48.5742ZM62.446 46.3348C62.9746 45.3724 63.2291 44.2505 63.2291 42.9862H62.246C62.246 44.1176 62.0189 45.0702 61.5843 45.8614L62.446 46.3348ZM63.2291 42.9862C63.2291 41.71 62.9749 40.5718 62.4487 39.587L61.5815 40.0503C62.0186 40.8685 62.246 41.8419 62.246 42.9862H63.2291ZM62.4487 39.587C61.918 38.5936 61.1275 37.8266 60.093 37.2893L59.6398 38.1617C60.5071 38.6123 61.149 39.2407 61.5815 40.0503L62.4487 39.587ZM60.093 37.2893C59.0516 36.7482 57.7634 36.493 56.2543 36.493V37.4762C57.6597 37.4762 58.7795 37.7149 59.6398 38.1617L60.093 37.2893ZM56.2543 36.493H49.9193V37.4762H56.2543V36.493ZM49.4277 36.9846V62.3062H50.4109V36.9846H49.4277ZM49.9193 61.8146H47.4001V62.7977H49.9193V61.8146ZM63.8744 62.0733L57.1689 49.607L56.303 50.0727L63.0085 62.539L63.8744 62.0733ZM56.736 50.3314H59.5886V49.3483H56.736V50.3314ZM59.1567 50.0747L65.9363 62.541L66.8 62.0713L60.0204 49.605L59.1567 50.0747ZM66.3682 61.8146H63.4414V62.7977H66.3682V61.8146ZM72.0549 62.0468L71.8435 62.4907L71.8478 62.4927L72.0549 62.0468ZM69.5727 59.9166L69.1595 60.183L69.1637 60.1893L69.5727 59.9166ZM69.2393 53.9335L69.6694 54.1716L69.2393 53.9335ZM70.8879 52.2294L71.1472 52.6471L71.1523 52.6438L70.8879 52.2294ZM73.4071 51.155L73.5349 51.6297L73.539 51.6286L73.4071 51.155ZM76.6302 50.5437L76.6867 51.0321L76.6924 51.0314L76.6302 50.5437ZM79.5754 50.1733L79.6355 50.6612L79.6428 50.6602L79.5754 50.1733ZM80.7794 44.7089L80.437 45.0616L80.4397 45.0642L80.7794 44.7089ZM71.5547 46.7835L71.387 47.2456C71.6339 47.3352 71.9075 47.2149 72.0085 46.9726L71.5547 46.7835ZM69.2578 45.9499L68.8042 45.7605C68.7524 45.8845 68.7536 46.0244 68.8077 46.1475C68.8617 46.2706 68.9638 46.3662 69.0901 46.412L69.2578 45.9499ZM71.2028 43.2455L71.5147 43.6255L71.2028 43.2455ZM73.9813 41.7821L74.1179 42.2544L74.1231 42.2529L73.9813 41.7821ZM83.7432 44.8385L83.3034 45.0584L83.3071 45.0655L83.7432 44.8385ZM84.4471 62.3062V62.7977C84.7186 62.7977 84.9387 62.5777 84.9387 62.3062H84.4471ZM82.039 62.3062H81.5474C81.5474 62.5777 81.7675 62.7977 82.039 62.7977V62.3062ZM82.039 59.0275H82.5306C82.5306 58.756 82.3105 58.5359 82.039 58.5359V59.0275ZM81.8908 59.0275V58.5359C81.6972 58.5359 81.5217 58.6495 81.4424 58.8261L81.8908 59.0275ZM80.6312 60.8058L80.9789 61.1534L80.9826 61.1496L80.6312 60.8058ZM79.1123 59.7499L79.3652 60.1715L79.3669 60.1705L79.1123 59.7499ZM81.2796 57.4715L80.8456 57.2405L81.2796 57.4715ZM82.039 51.3773H82.5306C82.5306 51.1816 82.4145 51.0045 82.2349 50.9264C82.0554 50.8484 81.8467 50.8844 81.7036 51.0179L82.039 51.3773ZM81.1314 51.8404L80.98 51.3727L80.9759 51.374L81.1314 51.8404ZM79.7051 52.1923L79.6171 51.7087L79.6151 51.709L79.7051 52.1923ZM78.075 52.4517L78.01 51.9644L78.0086 51.9646L78.075 52.4517ZM76.6302 52.6369L76.5727 52.1487L76.5679 52.1493L76.6302 52.6369ZM73.6294 53.3223L73.4597 52.8609L73.4575 52.8617L73.6294 53.3223ZM71.7214 54.5819L71.3445 54.2663L71.3402 54.2715L71.7214 54.5819ZM72.4068 59.5462L72.105 59.9342L72.1076 59.9362L72.4068 59.5462ZM75.4817 62.2776C74.2994 62.2776 73.2286 62.0498 72.2619 61.6009L71.8478 62.4927C72.9557 63.0071 74.1695 63.2608 75.4817 63.2608V62.2776ZM72.2662 61.603C71.3063 61.1459 70.5483 60.4938 69.9817 59.6439L69.1637 60.1893C69.832 61.1918 70.7288 61.9598 71.8435 62.4907L72.2662 61.603ZM69.9859 59.6502C69.4412 58.8054 69.1567 57.7661 69.1567 56.5083H68.1735C68.1735 57.9179 68.494 59.1508 69.1596 60.183L69.9859 59.6502ZM69.1567 56.5083C69.1567 55.5426 69.3371 54.7718 69.6694 54.1716L68.8092 53.6955C68.3758 54.4783 68.1735 55.4241 68.1735 56.5083H69.1567ZM69.6694 54.1716C70.0088 53.5584 70.4973 53.0504 71.1471 52.6471L70.6286 51.8117C69.8459 52.2975 69.2354 52.9256 68.8092 53.6955L69.6694 54.1716ZM71.1523 52.6438C71.8197 52.218 72.6118 51.8782 73.5349 51.6297L73.2793 50.6803C72.2759 50.9505 71.3885 51.3269 70.6235 51.8149L71.1523 52.6438ZM73.539 51.6286C74.4862 51.3648 75.5349 51.1654 76.6867 51.0321L76.5736 50.0554C75.3791 50.1937 74.2791 50.4019 73.2752 50.6814L73.539 51.6286ZM76.6924 51.0314C77.8528 50.8833 78.8337 50.7599 79.6354 50.6612L79.5153 49.6854C78.7117 49.7843 77.7292 49.9079 76.5679 50.0561L76.6924 51.0314ZM79.6428 50.6602C80.4703 50.5456 81.1514 50.3618 81.649 50.0838L81.1694 49.2255C80.8273 49.4167 80.2858 49.5786 79.508 49.6863L79.6428 50.6602ZM81.649 50.0838C82.2387 49.7542 82.5306 49.2043 82.5306 48.5247H81.5474C81.5474 48.8824 81.4194 49.0858 81.1694 49.2255L81.649 50.0838ZM82.5306 48.5247V48.0431H81.5474V48.5247H82.5306ZM82.5306 48.0431C82.5306 46.5207 82.0768 45.2689 81.1191 44.3535L80.4397 45.0642C81.1615 45.7541 81.5474 46.7252 81.5474 48.0431H82.5306ZM81.1218 44.3561C80.1626 43.4251 78.8189 42.9947 77.1673 42.9947V43.9779C78.6525 43.9779 79.7167 44.3625 80.437 45.0616L81.1218 44.3561ZM77.1673 42.9947C75.6031 42.9947 74.2799 43.3375 73.237 44.0648L73.7994 44.8713C74.6335 44.2896 75.7432 43.9779 77.1673 43.9779V42.9947ZM73.237 44.0648C72.2364 44.7626 71.5137 45.6038 71.101 46.5944L72.0085 46.9726C72.3367 46.1849 72.923 45.4824 73.7994 44.8713L73.237 44.0648ZM71.7224 46.3214L69.4255 45.4878L69.0901 46.412L71.387 47.2456L71.7224 46.3214ZM69.7115 46.1394C70.1541 45.0794 70.7575 44.247 71.5147 43.6255L70.8909 42.8655C69.9933 43.6024 69.3001 44.5729 68.8042 45.7605L69.7115 46.1394ZM71.5147 43.6255C72.2907 42.9885 73.1572 42.5322 74.1179 42.2544L73.8448 41.3099C72.7555 41.6249 71.7697 42.1441 70.8909 42.8655L71.5147 43.6255ZM74.1231 42.2529C75.103 41.9577 76.0926 41.8107 77.0932 41.8107V40.8275C75.9946 40.8275 74.9096 40.9891 73.8395 41.3114L74.1231 42.2529ZM77.0932 41.8107C77.8399 41.8107 78.6215 41.9098 79.4393 42.1113L79.6745 41.1566C78.7881 40.9383 77.9273 40.8275 77.0932 40.8275V41.8107ZM79.4393 42.1113C80.233 42.3068 80.9755 42.6403 81.669 43.1142L82.2238 42.3024C81.4354 41.7637 80.5849 41.381 79.6745 41.1566L79.4393 42.1113ZM81.669 43.1142C82.3318 43.5671 82.8787 44.2088 83.3035 45.0584L84.1829 44.6187C83.6938 43.6405 83.0428 42.8621 82.2238 42.3024L81.669 43.1142ZM83.3071 45.0655C83.7291 45.8762 83.9555 46.9342 83.9555 48.2654H84.9387C84.9387 46.8304 84.6957 45.6038 84.1792 44.6115L83.3071 45.0655ZM83.9555 48.2654V62.3062H84.9387V48.2654H83.9555ZM84.4471 61.8146H82.039V62.7977H84.4471V61.8146ZM82.5306 62.3062V59.0275H81.5474V62.3062H82.5306ZM82.039 58.5359H81.8908V59.5191H82.039V58.5359ZM81.4424 58.8261C81.1991 59.368 80.8162 59.9139 80.2799 60.4619L80.9826 61.1496C81.5823 60.5368 82.0392 59.8972 82.3393 59.2288L81.4424 58.8261ZM80.2836 60.4581C79.7654 60.9763 79.1093 61.413 78.305 61.7627L78.697 62.6644C79.5969 62.2731 80.3609 61.7713 80.9788 61.1534L80.2836 60.4581ZM78.305 61.7627C77.5282 62.1005 76.5914 62.2776 75.4817 62.2776V63.2608C76.6937 63.2608 77.7697 63.0675 78.697 62.6644L78.305 61.7627ZM75.8151 61.0751C77.1602 61.0751 78.35 60.7806 79.3652 60.1714L78.8594 59.3284C78.0222 59.8307 77.014 60.0919 75.8151 60.0919V61.0751ZM79.3669 60.1705C80.3797 59.5574 81.1647 58.7331 81.7135 57.7026L80.8456 57.2405C80.3818 58.1117 79.722 58.8063 78.8578 59.3294L79.3669 60.1705ZM81.7135 57.7026C82.2593 56.6775 82.5306 55.5603 82.5306 54.3596H81.5474C81.5474 55.4064 81.3124 56.3638 80.8456 57.2405L81.7135 57.7026ZM82.5306 54.3596V51.3773H81.5474V54.3596H82.5306ZM81.7036 51.0179C81.5966 51.1178 81.3749 51.2449 80.98 51.3727L81.2827 52.3081C81.7275 52.1642 82.111 51.9826 82.3744 51.7367L81.7036 51.0179ZM80.9759 51.374C80.5957 51.5008 80.1437 51.6129 79.6171 51.7087L79.793 52.676C80.3531 52.5742 80.852 52.4517 81.2868 52.3068L80.9759 51.374ZM79.6151 51.709C79.0927 51.8062 78.5577 51.8914 78.01 51.9644L78.14 52.9389C78.7037 52.8638 79.2554 52.776 79.795 52.6756L79.6151 51.709ZM78.0086 51.9646C77.4674 52.0384 76.9889 52.0997 76.5727 52.1487L76.6876 53.1251C77.1112 53.0753 77.5959 53.0131 78.1414 52.9387L78.0086 51.9646ZM76.5679 52.1493C75.381 52.3008 74.3429 52.5362 73.4597 52.8609L73.799 53.7837C74.5953 53.4909 75.5577 53.2694 76.6924 53.1245L76.5679 52.1493ZM73.4575 52.8617C72.5719 53.1922 71.8568 53.6544 71.3445 54.2663L72.0984 54.8974C72.4752 54.4473 73.0321 54.0698 73.8012 53.7828L73.4575 52.8617ZM71.3402 54.2715C70.8215 54.9087 70.5815 55.7116 70.5815 56.638H71.5647C71.5647 55.8849 71.7569 55.317 72.1027 54.8922L71.3402 54.2715ZM70.5815 56.638C70.5815 58.0183 71.0822 59.1386 72.105 59.9342L72.7086 59.1581C71.9532 58.5706 71.5647 57.7521 71.5647 56.638H70.5815ZM72.1076 59.9362C73.1115 60.7063 74.3592 61.0751 75.8151 61.0751V60.0919C74.5296 60.0919 73.505 59.7691 72.706 59.1561L72.1076 59.9362ZM89.5966 70.049H89.105C89.105 70.3205 89.3251 70.5406 89.5966 70.5406V70.049ZM89.5966 41.5969V41.1053C89.3251 41.1053 89.105 41.3254 89.105 41.5969H89.5966ZM91.912 41.5969H92.4036C92.4036 41.3254 92.1835 41.1053 91.912 41.1053V41.5969ZM91.912 45.5609H91.4204C91.4204 45.8324 91.6405 46.0525 91.912 46.0525V45.5609ZM92.1899 45.5609V46.0525C92.3818 46.0525 92.5563 45.9408 92.6365 45.7664L92.1899 45.5609ZM93.3754 43.653L92.9865 43.3522L93.3754 43.653ZM95.3944 42.0044L95.6245 42.4389L95.6294 42.4362L95.3944 42.0044ZM103.008 42.6713L102.723 43.0724L102.728 43.0755L103.008 42.6713ZM106.008 46.413L105.559 46.6133L106.008 46.413ZM106.008 57.6382L105.559 57.4392L105.558 57.4421L106.008 57.6382ZM103.026 61.417L103.308 61.8199L103.309 61.8194L103.026 61.417ZM95.413 62.0839L95.178 62.5157L95.1856 62.5197L95.413 62.0839ZM93.3754 60.3982L92.9838 60.6955L92.9873 60.7L93.3754 60.3982ZM92.1899 58.4533L92.638 58.2512C92.5585 58.075 92.3832 57.9617 92.1899 57.9617V58.4533ZM91.9861 58.4533V57.9617C91.7146 57.9617 91.4945 58.1818 91.4945 58.4533H91.9861ZM91.9861 70.049V70.5406C92.2576 70.5406 92.4777 70.3205 92.4777 70.049H91.9861ZM103.934 47.6911L103.475 47.8676L103.476 47.8691L103.934 47.6911ZM94.8573 44.5977L95.1555 44.9885L95.1587 44.986L94.8573 44.5977ZM92.7085 56.4157L92.2491 56.5907L92.2497 56.5922L92.7085 56.4157ZM94.8573 59.4535L94.5526 59.8394L94.5551 59.8413L94.8573 59.4535ZM90.0882 70.049V41.5969H89.105V70.049H90.0882ZM89.5966 42.0885H91.912V41.1053H89.5966V42.0885ZM91.4204 41.5969V45.5609H92.4036V41.5969H91.4204ZM91.912 46.0525H92.1899V45.0693H91.912V46.0525ZM92.6365 45.7664C92.902 45.1892 93.276 44.5849 93.7642 43.9538L92.9865 43.3522C92.4622 44.0301 92.0458 44.6978 91.7433 45.3555L92.6365 45.7664ZM93.7642 43.9538C94.2218 43.3623 94.8374 42.8555 95.6244 42.4389L95.1644 41.57C94.272 42.0424 93.5416 42.6347 92.9865 43.3522L93.7642 43.9538ZM95.6294 42.4362C96.3777 42.029 97.3407 41.8107 98.5434 41.8107V40.8275C97.2269 40.8275 96.0906 41.066 95.1595 41.5726L95.6294 42.4362ZM98.5434 41.8107C100.156 41.8107 101.542 42.2353 102.723 43.0723L103.292 42.2702C101.929 41.3043 100.339 40.8275 98.5434 40.8275V41.8107ZM102.728 43.0755C103.929 43.9072 104.875 45.0795 105.559 46.6133L106.457 46.2127C105.709 44.5358 104.655 43.2136 103.287 42.2671L102.728 43.0755ZM105.559 46.6133C106.242 48.1439 106.591 49.938 106.591 52.0071H107.574C107.574 49.8282 107.207 47.8928 106.457 46.2127L105.559 46.6133ZM106.591 52.0071C106.591 54.0889 106.242 55.8958 105.559 57.4392L106.458 57.8373C107.207 56.1453 107.574 54.1981 107.574 52.0071H106.591ZM105.558 57.4421C104.885 58.9875 103.945 60.1714 102.744 61.0147L103.309 61.8194C104.676 60.8597 105.724 59.5244 106.459 57.8344L105.558 57.4421ZM102.744 61.0141C101.563 61.8399 100.176 62.2591 98.562 62.2591V63.2423C100.357 63.2423 101.945 62.7724 103.308 61.8199L102.744 61.0141ZM98.562 62.2591C97.3711 62.2591 96.4045 62.0467 95.6404 61.648L95.1856 62.5197C96.1256 63.0102 97.2583 63.2423 98.562 63.2423V62.2591ZM95.6479 61.6521C94.8598 61.2232 94.2354 60.7033 93.7634 60.0964L92.9873 60.7C93.5527 61.4269 94.2867 62.0307 95.178 62.5157L95.6479 61.6521ZM93.7669 60.101C93.2785 59.4576 92.904 58.841 92.638 58.2512L91.7417 58.6554C92.0438 59.3251 92.4597 60.0051 92.9839 60.6955L93.7669 60.101ZM92.1899 57.9617H91.9861V58.9449H92.1899V57.9617ZM91.4945 58.4533V70.049H92.4777V58.4533H91.4945ZM91.9861 69.5574H89.5966V70.5406H91.9861V69.5574ZM98.3026 61.0565C99.7598 61.0565 101.027 60.6433 102.075 59.7994L101.458 59.0336C100.605 59.7209 99.5623 60.0734 98.3026 60.0734V61.0565ZM102.075 59.7994C103.102 58.9719 103.872 57.8649 104.393 56.4981L103.474 56.1481C103.007 57.3746 102.332 58.3298 101.458 59.0336L102.075 59.7994ZM104.393 56.4981C104.911 55.1379 105.166 53.6327 105.166 51.9886H104.183C104.183 53.5305 103.944 54.9149 103.474 56.1481L104.393 56.4981ZM105.166 51.9886C105.166 50.3447 104.911 48.8505 104.392 47.5132L103.476 47.8691C103.944 49.0756 104.183 50.4464 104.183 51.9886H105.166ZM104.393 47.5147C103.872 46.1611 103.108 45.0665 102.093 44.2514L101.477 45.0181C102.339 45.7096 103.008 46.6526 103.475 47.8676L104.393 47.5147ZM102.093 44.2514C101.054 43.4178 99.78 43.0132 98.3026 43.0132V43.9964C99.5914 43.9964 100.639 44.3451 101.477 45.0181L102.093 44.2514ZM98.3026 43.0132C96.8515 43.0132 95.5927 43.4045 94.5558 44.2094L95.1587 44.986C95.9989 44.3338 97.037 43.9964 98.3026 43.9964V43.0132ZM94.559 44.2069C93.538 44.9861 92.7718 46.0591 92.2503 47.402L93.1668 47.758C93.6332 46.557 94.2995 45.6418 95.1555 44.9885L94.559 44.2069ZM92.2503 47.402C91.73 48.7418 91.476 50.2737 91.476 51.9886H92.4592C92.4592 50.3692 92.6992 48.9621 93.1668 47.758L92.2503 47.402ZM91.476 51.9886C91.476 53.6919 91.7302 55.2285 92.2491 56.5907L93.1679 56.2407C92.6989 55.0096 92.4592 53.5948 92.4592 51.9886H91.476ZM92.2497 56.5922C92.7705 57.9462 93.535 59.0359 94.5526 59.8394L95.1619 59.0677C94.3025 58.3892 93.6345 57.4538 93.1674 56.2392L92.2497 56.5922ZM94.5551 59.8413C95.6024 60.6574 96.8606 61.0565 98.3026 61.0565V60.0734C97.0526 60.0734 96.0139 59.7316 95.1594 59.0658L94.5551 59.8413ZM111.158 62.3062H110.666C110.666 62.5777 110.886 62.7977 111.158 62.7977V62.3062ZM111.158 41.5969V41.1053C110.886 41.1053 110.666 41.3254 110.666 41.5969H111.158ZM113.547 41.5969H114.039C114.039 41.3254 113.819 41.1053 113.547 41.1053V41.5969ZM113.547 62.3062V62.7977C113.819 62.7977 114.039 62.5777 114.039 62.3062H113.547ZM111.084 37.5588L110.736 37.9064C110.74 37.9105 110.745 37.9146 110.749 37.9186L111.084 37.5588ZM111.084 35.1137L110.749 34.7538L110.743 34.7598L111.084 35.1137ZM113.622 35.1137L113.28 35.4676L113.622 35.1137ZM113.622 37.5588L113.963 37.9127L113.969 37.9064L113.622 37.5588ZM111.65 62.3062V41.5969H110.666V62.3062H111.65ZM111.158 42.0885H113.547V41.1053H111.158V42.0885ZM113.056 41.5969V62.3062H114.039V41.5969H113.056ZM113.547 61.8146H111.158V62.7977H113.547V61.8146ZM112.362 37.5673C111.991 37.5673 111.685 37.4468 111.419 37.199L110.749 37.9186C111.199 38.3376 111.745 38.5505 112.362 38.5505V37.5673ZM111.431 37.2112C111.176 36.956 111.057 36.6667 111.057 36.3177H110.074C110.074 36.9319 110.3 37.47 110.736 37.9064L111.431 37.2112ZM111.057 36.3177C111.057 35.9854 111.173 35.7108 111.425 35.4676L110.743 34.7598C110.303 35.1834 110.074 35.7115 110.074 36.3177H111.057ZM111.419 35.4735C111.685 35.2257 111.991 35.1052 112.362 35.1052V34.122C111.745 34.122 111.199 34.3349 110.749 34.7539L111.419 35.4735ZM112.362 35.1052C112.733 35.1052 113.029 35.2252 113.28 35.4676L113.963 34.7598C113.523 34.3353 112.979 34.122 112.362 34.122V35.1052ZM113.28 35.4676C113.533 35.7108 113.649 35.9854 113.649 36.3177H114.632C114.632 35.7115 114.402 35.1834 113.963 34.7598L113.28 35.4676ZM113.649 36.3177C113.649 36.6667 113.529 36.956 113.274 37.2112L113.969 37.9064C114.406 37.47 114.632 36.9319 114.632 36.3177H113.649ZM113.28 37.2049C113.029 37.4472 112.733 37.5673 112.362 37.5673V38.5505C112.979 38.5505 113.523 38.3372 113.963 37.9127L113.28 37.2049ZM121.679 61.417L121.395 61.8181L121.399 61.8212L121.679 61.417ZM118.697 57.6382L118.246 57.8344L118.247 57.8373L118.697 57.6382ZM121.698 42.6713L121.979 43.0742L121.98 43.0736L121.698 42.6713ZM129.311 42.0044L129.073 42.4348L129.081 42.4389L129.311 42.0044ZM131.33 43.653L130.941 43.9538L130.945 43.9583L131.33 43.653ZM132.515 45.5609L132.066 45.7589C132.144 45.9373 132.321 46.0525 132.515 46.0525V45.5609ZM132.719 45.5609V46.0525C132.991 46.0525 133.211 45.8324 133.211 45.5609H132.719ZM132.719 34.7062V34.2146C132.448 34.2146 132.228 34.4347 132.228 34.7062H132.719ZM135.109 34.7062H135.6C135.6 34.4347 135.38 34.2146 135.109 34.2146V34.7062ZM135.109 62.3062V62.7977C135.38 62.7977 135.6 62.5777 135.6 62.3062H135.109ZM132.793 62.3062H132.302C132.302 62.5777 132.522 62.7977 132.793 62.7977V62.3062ZM132.793 58.4533H133.285C133.285 58.1818 133.065 57.9617 132.793 57.9617V58.4533ZM132.515 58.4533V57.9617C132.319 57.9617 132.142 58.0784 132.064 58.2586L132.515 58.4533ZM129.292 62.0839L129.522 62.5184L129.527 62.5157L129.292 62.0839ZM131.997 56.4157L131.539 56.2369L131.538 56.2392L131.997 56.4157ZM129.848 44.5977L129.547 44.9861L129.552 44.9904L129.848 44.5977ZM120.772 47.6911L120.313 47.5147L120.312 47.5171L120.772 47.6911ZM120.79 56.3231L120.331 56.4981L120.79 56.3231ZM122.939 59.4165L122.628 59.7974L122.631 59.7994L122.939 59.4165ZM126.143 62.2591C124.543 62.2591 123.154 61.8403 121.959 61.0128L121.399 61.8212C122.773 62.772 124.36 63.2423 126.143 63.2423V62.2591ZM121.964 61.016C120.773 60.1723 119.832 58.9871 119.146 57.4392L118.247 57.8373C118.995 59.5248 120.041 60.8588 121.395 61.8181L121.964 61.016ZM119.148 57.4421C118.476 55.8979 118.133 54.0899 118.133 52.0071H117.15C117.15 54.197 117.51 56.1432 118.246 57.8344L119.148 57.4421ZM118.133 52.0071C118.133 49.938 118.482 48.1439 119.164 46.6133L118.267 46.2127C117.517 47.8928 117.15 49.8282 117.15 52.0071H118.133ZM119.164 46.6133C119.849 45.0784 120.79 43.9057 121.979 43.0742L121.416 42.2684C120.062 43.2151 119.014 44.5369 118.267 46.2127L119.164 46.6133ZM121.98 43.0736C123.175 42.2348 124.563 41.8107 126.162 41.8107V40.8275C124.377 40.8275 122.789 41.3048 121.415 42.2689L121.98 43.0736ZM126.162 41.8107C127.378 41.8107 128.339 42.0295 129.073 42.4348L129.549 41.5741C128.628 41.0655 127.489 40.8275 126.162 40.8275V41.8107ZM129.081 42.4389C129.868 42.8555 130.484 43.3623 130.941 43.9538L131.719 43.3522C131.164 42.6347 130.433 42.0424 129.541 41.57L129.081 42.4389ZM130.945 43.9583C131.443 44.5874 131.814 45.1877 132.066 45.7589L132.965 45.363C132.673 44.6993 132.254 44.0276 131.715 43.3477L130.945 43.9583ZM132.515 46.0525H132.719V45.0693H132.515V46.0525ZM133.211 45.5609V34.7062H132.228V45.5609H133.211ZM132.719 35.1978H135.109V34.2146H132.719V35.1978ZM134.617 34.7062V62.3062H135.6V34.7062H134.617ZM135.109 61.8146H132.793V62.7977H135.109V61.8146ZM133.285 62.3062V58.4533H132.302V62.3062H133.285ZM132.793 57.9617H132.515V58.9449H132.793V57.9617ZM132.064 58.2586C131.812 58.8425 131.441 59.4552 130.942 60.0964L131.718 60.7C132.257 60.0076 132.675 59.3236 132.967 58.648L132.064 58.2586ZM130.942 60.0964C130.47 60.7033 129.846 61.2232 129.057 61.6521L129.527 62.5157C130.419 62.0307 131.153 61.4269 131.718 60.7L130.942 60.0964ZM129.062 61.6494C128.313 62.0462 127.348 62.2591 126.143 62.2591V63.2423C127.458 63.2423 128.593 63.0106 129.522 62.5183L129.062 61.6494ZM126.421 61.0565C127.863 61.0565 129.117 60.6574 130.153 59.8394L129.543 59.0677C128.703 59.7316 127.671 60.0734 126.421 60.0734V61.0565ZM130.153 59.8394C131.17 59.0359 131.935 57.9462 132.456 56.5922L131.538 56.2392C131.071 57.4538 130.403 58.3892 129.543 59.0677L130.153 59.8394ZM132.455 56.5945C132.987 55.2312 133.248 53.6932 133.248 51.9886H132.265C132.265 53.5935 132.019 55.0069 131.539 56.2369L132.455 56.5945ZM133.248 51.9886C133.248 50.2737 132.994 48.7418 132.474 47.402L131.557 47.758C132.025 48.9621 132.265 50.3692 132.265 51.9886H133.248ZM132.474 47.402C131.951 46.0575 131.178 44.984 130.144 44.2051L129.552 44.9904C130.42 45.6439 131.091 46.5586 131.557 47.758L132.474 47.402ZM130.15 44.2094C129.113 43.4051 127.861 43.0132 126.421 43.0132V43.9964C127.673 43.9964 128.706 44.3332 129.547 44.986L130.15 44.2094ZM126.421 43.0132C124.955 43.0132 123.683 43.4185 122.634 44.2494L123.244 45.0201C124.097 44.3445 125.146 43.9964 126.421 43.9964V43.0132ZM122.634 44.2494C121.605 45.0644 120.834 46.1595 120.313 47.5147L121.23 47.8676C121.697 46.6542 122.371 45.7117 123.244 45.0201L122.634 44.2494ZM120.312 47.5171C119.806 48.8533 119.558 50.3461 119.558 51.9886H120.541C120.541 50.445 120.774 49.0729 121.231 47.8652L120.312 47.5171ZM119.558 51.9886C119.558 53.6327 119.813 55.1379 120.331 56.4981L121.25 56.1481C120.78 54.9149 120.541 53.5305 120.541 51.9886H119.558ZM120.331 56.4981C120.851 57.8633 121.614 58.9698 122.628 59.7974L123.25 59.0356C122.387 58.3319 121.717 57.3761 121.25 56.1481L120.331 56.4981ZM122.631 59.7994C123.679 60.644 124.953 61.0565 126.421 61.0565V60.0734C125.148 60.0734 124.1 59.7203 123.247 59.0336L122.631 59.7994Z" fill="#021824" mask="url(#path-5-outside-1_330_910)"/>
<mask id="path-7-outside-2_330_910" maskUnits="userSpaceOnUse" x="142.344" y="33.3062" width="55" height="30" fill="black">
<rect fill="white" x="142.344" y="33.3062" width="55" height="30"/>
<path d="M143.567 62.3062V34.7062H153.421C155.557 34.7062 157.33 35.1013 158.737 35.8917C160.145 36.6697 161.201 37.7379 161.905 39.0962C162.609 40.4423 162.961 41.9612 162.961 43.653C162.961 45.3448 162.609 46.8699 161.905 48.2283C161.201 49.5744 160.139 50.6425 158.719 51.4329C157.311 52.2109 155.533 52.5999 153.384 52.5999H146.641V49.0804H152.995C154.366 49.0804 155.471 48.8458 156.311 48.3765C157.163 47.9072 157.78 47.2651 158.163 46.4501C158.558 45.6227 158.756 44.6903 158.756 43.653C158.756 42.6034 158.558 41.6772 158.163 40.8745C157.78 40.0595 157.163 39.4235 156.311 38.9666C155.459 38.5097 154.347 38.2812 152.976 38.2812H147.734V62.3062H143.567ZM165.906 62.3062V41.5969H169.777V44.9126H170C170.382 43.8012 171.049 42.9244 172 42.2823C172.963 41.6278 174.05 41.3005 175.26 41.3005C175.507 41.3005 175.797 41.3129 176.131 41.3376C176.477 41.3499 176.754 41.3685 176.964 41.3932V45.246C176.804 45.1966 176.514 45.1472 176.094 45.0978C175.686 45.0485 175.273 45.0238 174.853 45.0238C173.902 45.0238 173.05 45.2275 172.296 45.635C171.556 46.0302 170.969 46.5797 170.537 47.2836C170.117 47.9752 169.907 48.7778 169.907 49.6917V62.3062H165.906ZM186.856 62.7322C184.917 62.7322 183.219 62.2876 181.762 61.3985C180.317 60.5094 179.193 59.2621 178.391 57.6568C177.6 56.0514 177.205 54.1867 177.205 52.0627C177.205 49.9139 177.6 48.0369 178.391 46.4315C179.193 44.8138 180.317 43.5604 181.762 42.6713C183.219 41.7821 184.917 41.3376 186.856 41.3376C188.807 41.3376 190.505 41.7821 191.95 42.6713C193.395 43.5604 194.518 44.8138 195.321 46.4315C196.124 48.0369 196.525 49.9139 196.525 52.0627C196.525 54.1867 196.124 56.0514 195.321 57.6568C194.518 59.2621 193.395 60.5094 191.95 61.3985C190.505 62.2876 188.807 62.7322 186.856 62.7322ZM186.856 59.3424C188.128 59.3424 189.178 59.009 190.005 58.3421C190.832 57.6753 191.444 56.7923 191.839 55.6933C192.246 54.5819 192.45 53.3717 192.45 52.0627C192.45 50.729 192.246 49.5064 191.839 48.395C191.444 47.2836 190.832 46.3945 190.005 45.7276C189.178 45.0608 188.128 44.7274 186.856 44.7274C185.596 44.7274 184.553 45.0608 183.725 45.7276C182.91 46.3945 182.299 47.2836 181.892 48.395C181.484 49.5064 181.28 50.729 181.28 52.0627C181.28 53.3717 181.484 54.5819 181.892 55.6933C182.299 56.7923 182.91 57.6753 183.725 58.3421C184.553 59.009 185.596 59.3424 186.856 59.3424Z"/>
</mask>
<path d="M143.567 62.3062V34.7062H153.421C155.557 34.7062 157.33 35.1013 158.737 35.8917C160.145 36.6697 161.201 37.7379 161.905 39.0962C162.609 40.4423 162.961 41.9612 162.961 43.653C162.961 45.3448 162.609 46.8699 161.905 48.2283C161.201 49.5744 160.139 50.6425 158.719 51.4329C157.311 52.2109 155.533 52.5999 153.384 52.5999H146.641V49.0804H152.995C154.366 49.0804 155.471 48.8458 156.311 48.3765C157.163 47.9072 157.78 47.2651 158.163 46.4501C158.558 45.6227 158.756 44.6903 158.756 43.653C158.756 42.6034 158.558 41.6772 158.163 40.8745C157.78 40.0595 157.163 39.4235 156.311 38.9666C155.459 38.5097 154.347 38.2812 152.976 38.2812H147.734V62.3062H143.567ZM165.906 62.3062V41.5969H169.777V44.9126H170C170.382 43.8012 171.049 42.9244 172 42.2823C172.963 41.6278 174.05 41.3005 175.26 41.3005C175.507 41.3005 175.797 41.3129 176.131 41.3376C176.477 41.3499 176.754 41.3685 176.964 41.3932V45.246C176.804 45.1966 176.514 45.1472 176.094 45.0978C175.686 45.0485 175.273 45.0238 174.853 45.0238C173.902 45.0238 173.05 45.2275 172.296 45.635C171.556 46.0302 170.969 46.5797 170.537 47.2836C170.117 47.9752 169.907 48.7778 169.907 49.6917V62.3062H165.906ZM186.856 62.7322C184.917 62.7322 183.219 62.2876 181.762 61.3985C180.317 60.5094 179.193 59.2621 178.391 57.6568C177.6 56.0514 177.205 54.1867 177.205 52.0627C177.205 49.9139 177.6 48.0369 178.391 46.4315C179.193 44.8138 180.317 43.5604 181.762 42.6713C183.219 41.7821 184.917 41.3376 186.856 41.3376C188.807 41.3376 190.505 41.7821 191.95 42.6713C193.395 43.5604 194.518 44.8138 195.321 46.4315C196.124 48.0369 196.525 49.9139 196.525 52.0627C196.525 54.1867 196.124 56.0514 195.321 57.6568C194.518 59.2621 193.395 60.5094 191.95 61.3985C190.505 62.2876 188.807 62.7322 186.856 62.7322ZM186.856 59.3424C188.128 59.3424 189.178 59.009 190.005 58.3421C190.832 57.6753 191.444 56.7923 191.839 55.6933C192.246 54.5819 192.45 53.3717 192.45 52.0627C192.45 50.729 192.246 49.5064 191.839 48.395C191.444 47.2836 190.832 46.3945 190.005 45.7276C189.178 45.0608 188.128 44.7274 186.856 44.7274C185.596 44.7274 184.553 45.0608 183.725 45.7276C182.91 46.3945 182.299 47.2836 181.892 48.395C181.484 49.5064 181.28 50.729 181.28 52.0627C181.28 53.3717 181.484 54.5819 181.892 55.6933C182.299 56.7923 182.91 57.6753 183.725 58.3421C184.553 59.009 185.596 59.3424 186.856 59.3424Z" fill="#021824"/>
<path d="M143.567 62.3062H143.075C143.075 62.5777 143.295 62.7977 143.567 62.7977V62.3062ZM143.567 34.7062V34.2146C143.295 34.2146 143.075 34.4347 143.075 34.7062H143.567ZM158.737 35.8917L158.497 36.3204L158.5 36.3219L158.737 35.8917ZM161.905 39.0962L161.468 39.3224L161.469 39.324L161.905 39.0962ZM161.905 48.2283L162.34 48.4561L162.341 48.4545L161.905 48.2283ZM158.719 51.4329L158.957 51.8631L158.958 51.8624L158.719 51.4329ZM146.641 52.5999H146.15C146.15 52.8714 146.37 53.0914 146.641 53.0914V52.5999ZM146.641 49.0804V48.5888C146.37 48.5888 146.15 48.8089 146.15 49.0804H146.641ZM156.311 48.3765L156.074 47.9459L156.071 47.9474L156.311 48.3765ZM158.163 46.4501L157.719 46.2382L157.718 46.2411L158.163 46.4501ZM158.163 40.8745L157.718 41.0835L157.722 41.0916L158.163 40.8745ZM147.734 38.2812V37.7896C147.463 37.7896 147.243 38.0097 147.243 38.2812H147.734ZM147.734 62.3062V62.7977C148.006 62.7977 148.226 62.5777 148.226 62.3062H147.734ZM144.058 62.3062V34.7062H143.075V62.3062H144.058ZM143.567 35.1978H153.421V34.2146H143.567V35.1978ZM153.421 35.1978C155.499 35.1978 157.182 35.5825 158.497 36.3203L158.978 35.463C157.477 34.6202 155.615 34.2146 153.421 34.2146V35.1978ZM158.5 36.3219C159.827 37.0555 160.811 38.0547 161.468 39.3224L162.341 38.8701C161.59 37.421 160.463 36.2838 158.975 35.4614L158.5 36.3219ZM161.469 39.324C162.132 40.5921 162.469 42.0314 162.469 43.653H163.452C163.452 41.891 163.085 40.2925 162.34 38.8684L161.469 39.324ZM162.469 43.653C162.469 45.2746 162.132 46.7208 161.468 48.0021L162.341 48.4545C163.085 47.0191 163.452 45.4151 163.452 43.653H162.469ZM161.469 48.0005C160.813 49.2555 159.822 50.2562 158.48 51.0033L158.958 51.8624C160.456 51.0289 161.589 49.8932 162.34 48.4561L161.469 48.0005ZM158.481 51.0026C157.166 51.7291 155.476 52.1083 153.384 52.1083V53.0914C155.589 53.0914 157.456 52.6926 158.957 51.8631L158.481 51.0026ZM153.384 52.1083H146.641V53.0914H153.384V52.1083ZM147.133 52.5999V49.0804H146.15V52.5999H147.133ZM146.641 49.572H152.995V48.5888H146.641V49.572ZM152.995 49.572C154.416 49.572 155.613 49.3296 156.551 48.8056L156.071 47.9474C155.329 48.3619 154.315 48.5888 152.995 48.5888V49.572ZM156.548 48.8071C157.483 48.292 158.177 47.5757 158.608 46.6591L157.718 46.2411C157.383 46.9545 156.842 47.5225 156.074 47.9459L156.548 48.8071ZM158.607 46.6619C159.037 45.7602 159.247 44.754 159.247 43.653H158.264C158.264 44.6267 158.079 45.4852 157.719 46.2382L158.607 46.6619ZM159.247 43.653C159.247 42.541 159.038 41.5384 158.604 40.6574L157.722 41.0916C158.079 41.816 158.264 42.6657 158.264 43.653H159.247ZM158.608 40.6655C158.177 39.7476 157.481 39.0363 156.543 38.5333L156.078 39.3998C156.845 39.8107 157.384 40.3713 157.718 41.0835L158.608 40.6655ZM156.543 38.5333C155.596 38.0255 154.396 37.7896 152.976 37.7896V38.7728C154.298 38.7728 155.321 38.9939 156.078 39.3998L156.543 38.5333ZM152.976 37.7896H147.734V38.7728H152.976V37.7896ZM147.243 38.2812V62.3062H148.226V38.2812H147.243ZM147.734 61.8146H143.567V62.7977H147.734V61.8146ZM165.906 62.3062H165.414C165.414 62.5777 165.634 62.7977 165.906 62.7977V62.3062ZM165.906 41.5969V41.1053C165.634 41.1053 165.414 41.3254 165.414 41.5969H165.906ZM169.777 41.5969H170.269C170.269 41.3254 170.049 41.1053 169.777 41.1053V41.5969ZM169.777 44.9126H169.286C169.286 45.1841 169.506 45.4042 169.777 45.4042V44.9126ZM170 44.9126V45.4042C170.209 45.4042 170.396 45.2711 170.464 45.0727L170 44.9126ZM172 42.2823L172.275 42.6897L172.276 42.6889L172 42.2823ZM176.131 41.3376L176.095 41.8278C176.101 41.8283 176.107 41.8286 176.113 41.8289L176.131 41.3376ZM176.964 41.3932H177.456C177.456 41.1439 177.269 40.9341 177.022 40.9049L176.964 41.3932ZM176.964 45.246L176.82 45.7159C176.969 45.7618 177.131 45.7341 177.256 45.6415C177.382 45.5488 177.456 45.402 177.456 45.246H176.964ZM176.094 45.0978L176.035 45.5859L176.036 45.5861L176.094 45.0978ZM172.296 45.635L172.528 46.0688L172.53 46.0674L172.296 45.635ZM170.537 47.2836L170.118 47.0264L170.117 47.0285L170.537 47.2836ZM169.907 62.3062V62.7977C170.178 62.7977 170.399 62.5777 170.399 62.3062H169.907ZM166.397 62.3062V41.5969H165.414V62.3062H166.397ZM165.906 42.0885H169.777V41.1053H165.906V42.0885ZM169.286 41.5969V44.9126H170.269V41.5969H169.286ZM169.777 45.4042H170V44.421H169.777V45.4042ZM170.464 45.0727C170.813 44.0595 171.415 43.2706 172.275 42.6897L171.725 41.8749C170.683 42.5783 169.951 43.5429 169.535 44.7525L170.464 45.0727ZM172.276 42.6889C173.155 42.092 174.144 41.7921 175.26 41.7921V40.8089C173.956 40.8089 172.772 41.1635 171.724 41.8757L172.276 42.6889ZM175.26 41.7921C175.492 41.7921 175.769 41.8037 176.095 41.8278L176.167 40.8473C175.826 40.822 175.523 40.8089 175.26 40.8089V41.7921ZM176.113 41.8289C176.453 41.841 176.716 41.8589 176.907 41.8814L177.022 40.9049C176.793 40.878 176.5 40.8589 176.148 40.8463L176.113 41.8289ZM176.473 41.3932V45.246H177.456V41.3932H176.473ZM177.109 44.7762C176.901 44.7121 176.569 44.6588 176.151 44.6096L176.036 45.5861C176.458 45.6357 176.707 45.6812 176.82 45.7159L177.109 44.7762ZM176.153 44.6098C175.725 44.558 175.292 44.5322 174.853 44.5322V45.5153C175.253 45.5153 175.647 45.5389 176.035 45.5859L176.153 44.6098ZM174.853 44.5322C173.829 44.5322 172.895 44.7521 172.063 45.2027L172.53 46.0674C173.204 45.7029 173.974 45.5153 174.853 45.5153V44.5322ZM172.065 45.2013C171.248 45.6368 170.597 46.2467 170.118 47.0264L170.956 47.5408C171.341 46.9127 171.863 46.4235 172.528 46.0688L172.065 45.2013ZM170.117 47.0285C169.644 47.8065 169.415 48.6998 169.415 49.6917H170.399C170.399 48.8559 170.59 48.1438 170.957 47.5387L170.117 47.0285ZM169.415 49.6917V62.3062H170.399V49.6917H169.415ZM169.907 61.8146H165.906V62.7977H169.907V61.8146ZM181.762 61.3985L181.504 61.8172L181.506 61.8181L181.762 61.3985ZM178.391 57.6568L177.95 57.8739L177.951 57.8766L178.391 57.6568ZM178.391 46.4315L177.95 46.213L177.95 46.2144L178.391 46.4315ZM181.762 42.6713L181.506 42.2516L181.504 42.2526L181.762 42.6713ZM195.321 46.4315L194.881 46.65L194.881 46.6514L195.321 46.4315ZM195.321 57.6568L195.761 57.8766L195.321 57.6568ZM191.839 55.6933L191.377 55.524L191.376 55.5269L191.839 55.6933ZM191.839 48.395L191.376 48.5597L191.377 48.5643L191.839 48.395ZM183.725 45.7276L183.417 45.3449L183.414 45.3472L183.725 45.7276ZM181.892 55.6933L181.43 55.8625L181.431 55.8642L181.892 55.6933ZM183.725 58.3421L183.414 58.7226L183.417 58.7249L183.725 58.3421ZM186.856 62.2406C184.995 62.2406 183.388 61.8148 182.018 60.9789L181.506 61.8181C183.05 62.7605 184.839 63.2238 186.856 63.2238V62.2406ZM182.02 60.9798C180.657 60.1416 179.595 58.9653 178.83 57.4369L177.951 57.8766C178.792 59.559 179.977 60.8772 181.504 61.8172L182.02 60.9798ZM178.832 57.4396C178.08 55.9133 177.697 54.1254 177.697 52.0627H176.714C176.714 54.248 177.12 56.1895 177.95 57.8739L178.832 57.4396ZM177.697 52.0627C177.697 49.9743 178.081 48.1742 178.832 46.6487L177.95 46.2144C177.12 47.8996 176.714 49.8536 176.714 52.0627H177.697ZM178.831 46.65C179.596 45.1093 180.658 43.9276 182.02 43.0899L181.504 42.2526C179.976 43.1932 178.791 44.5184 177.95 46.213L178.831 46.65ZM182.018 43.0909C183.388 42.255 184.995 41.8292 186.856 41.8292V40.846C184.839 40.846 183.05 41.3093 181.506 42.2516L182.018 43.0909ZM186.856 41.8292C188.73 41.8292 190.336 42.2553 191.692 43.0899L192.208 42.2526C190.674 41.309 188.884 40.846 186.856 40.846V41.8292ZM191.692 43.0899C193.053 43.9276 194.116 45.1093 194.881 46.65L195.762 46.213C194.921 44.5184 193.736 43.1932 192.208 42.2526L191.692 43.0899ZM194.881 46.6514C195.644 48.1763 196.034 49.9754 196.034 52.0627H197.017C197.017 49.8525 196.604 47.8975 195.761 46.2117L194.881 46.6514ZM196.034 52.0627C196.034 54.1243 195.644 55.9112 194.881 57.4369L195.761 57.8766C196.603 56.1915 197.017 54.2491 197.017 52.0627H196.034ZM194.881 57.4369C194.117 58.9653 193.054 60.1416 191.692 60.9798L192.208 61.8172C193.735 60.8772 194.92 59.559 195.761 57.8766L194.881 57.4369ZM191.692 60.9798C190.336 61.8145 188.73 62.2406 186.856 62.2406V63.2238C188.884 63.2238 190.674 62.7608 192.208 61.8172L191.692 60.9798ZM186.856 59.834C188.217 59.834 189.382 59.4753 190.313 58.7249L189.696 57.9594C188.973 58.5426 188.039 58.8508 186.856 58.8508V59.834ZM190.313 58.7249C191.218 57.9959 191.879 57.0349 192.301 55.8596L191.376 55.5269C191.008 56.5498 190.447 57.3547 189.696 57.9594L190.313 58.7249ZM192.3 55.8625C192.73 54.6915 192.942 53.4233 192.942 52.0627H191.958C191.958 53.32 191.763 54.4723 191.377 55.524L192.3 55.8625ZM192.942 52.0627C192.942 50.6785 192.73 49.3978 192.3 48.2258L191.377 48.5643C191.762 49.615 191.958 50.7795 191.958 52.0627H192.942ZM192.302 48.2303C191.88 47.043 191.219 46.0749 190.313 45.3449L189.696 46.1104C190.445 46.7141 191.007 47.5242 191.376 48.5597L192.302 48.2303ZM190.313 45.3449C189.382 44.5944 188.217 44.2358 186.856 44.2358V45.219C188.039 45.219 188.973 45.5272 189.696 46.1104L190.313 45.3449ZM186.856 44.2358C185.506 44.2358 184.347 44.5951 183.417 45.3449L184.034 46.1104C184.758 45.5265 185.687 45.219 186.856 45.219V44.2358ZM183.414 45.3472C182.523 46.0764 181.864 47.0423 181.43 48.2258L182.353 48.5643C182.734 47.525 183.298 46.7126 184.037 46.1081L183.414 45.3472ZM181.43 48.2258C181 49.3978 180.789 50.6785 180.789 52.0627H181.772C181.772 50.7795 181.968 49.615 182.353 48.5643L181.43 48.2258ZM180.789 52.0627C180.789 53.4233 181.001 54.6915 181.43 55.8625L182.353 55.524C181.968 54.4723 181.772 53.32 181.772 52.0627H180.789ZM181.431 55.8642C181.865 57.0357 182.524 57.9944 183.414 58.7226L184.037 57.9617C183.297 57.3562 182.733 56.549 182.353 55.5224L181.431 55.8642ZM183.417 58.7249C184.347 59.4747 185.506 59.834 186.856 59.834V58.8508C185.687 58.8508 184.758 58.5433 184.034 57.9594L183.417 58.7249Z" fill="#021824" mask="url(#path-7-outside-2_330_910)"/>
<defs>
<clipPath id="clip0_330_910">
<rect y="0.961914" width="38.3437" height="61.3439" rx="0.170769" fill="white"/>
</clipPath>
</defs>
</svg>