<svg xmlns="http://www.w3.org/2000/svg" height="136" width="481" viewBox="0 0 135.14077 484.05821"><path d="M-734.43 410.058h-54v-407h254v207h-200v200zm103-97h97v97h-97v-97zm97-25v-54h-176v176h54v-122h122zm194 29h-71v93h-12v-225h75q17 0 29.5 4t20.5 12q8 7 12.5 19.5t4.5 29.5q0 13-2.5 24t-8.5 19q-5 9-14 14.5t-22 7.5l51 95h-13l-50-93zm-8-121h-63v110h63q16 0 26.5-4t16.5-11q6-8 8.5-18.5t2.5-22.5q0-14-3-24t-10-17q-7-6-17-9.5t-24-3.5zm241 193q1 7 8.5 10t15.5 3v10q-6 0-10.5-.5t-9.5-1.5q-4-2-7.5-4.5t-5.5-5.5l-19.5 6.5-47.5 6.5q-9 0-16.5-3t-12.5-9q-6-6-8.5-14.5t-2.5-20.5q0-10 2.5-18t7.5-14q5-6 13.5-9.5t20.5-4.5l61-7v-16q0-11-2.5-18.5t-6.5-11.5q-5-5-11.5-7t-15.5-2q-17 0-38.5 2.5l-21.5 2.5-1-11 21-2.5 40-2.5q12 0 21 3t15 9q6 7 8.5 16t2.5 22v92zm-71-59q-9 1-15.5 4t-10.5 7q-4 5-5.5 11.5t-1.5 13.5q0 9 2 15.5t5 11.5q4 5 9.5 7.5t12.5 2.5q24 0 44-6.5l20-6.5v-66l-60 6zm147-80h11v13l17-8 39-8q14 0 26.5 5t21.5 15q9 10 14 25t5 35q0 23-5.5 39t-16.5 26q-10 11-25 16t-33 5q-13 0-25-2l-18-3v76h-11v-234zm11 24v124q5 1 17.5 3t25.5 2q15 0 27.5-4.5t21.5-13.5q9-9 14-23.5t5-34.5q0-20-5-33t-12-21q-8-9-18-12.5t-20-3.5q-21 0-38.5 8.5l-17.5 8.5zm194-67h11v12h-11v-12zm0 43h11v160h-11v-160zm209 160h-11v-14l-16.5 8.5-38.5 8.5q-8 0-19-2t-22-9q-11-8-18.5-24.5t-7.5-45.5q0-21 5-37t15-26q10-11 25-16.5t35-5.5q11 0 23.5 1.5t18.5 2.5v-66h11v225zm-11-24v-125q-6-1-19.5-2.5t-22.5-1.5q-17 0-30 5t-21 15q-9 9-13 23.5t-4 32.5q0 24 6 38t14 21q9 7 18.5 9t16.5 2q20 0 37.5-8.5l17.5-8.5zm120-39v63h-44v-221h74q19 0 33.5 4.5t24.5 14.5q9 10 14 24.5t5 33.5q0 19-5 34t-14 26q-10 10-24.5 15.5t-33.5 5.5h-30zm29-43q9 0 15-2.5t10-7.5q4-5 6-12t2-16q0-9-2-15.5t-6-10.5q-4-5-10-7t-15-2h-29v73h29zm165-39h-1v-15h-43v160h43v-104l12-5 33-9v-41q-16 3-29 8t-15 6zm154-19q-17 0-32.5 6.5t-26.5 18.5q-11 11-18 26.5t-7 32.5q0 17 7 32.5t18 26.5q11 12 26.5 18.5t32.5 6.5q18 0 33-6.5t27-18.5q11-11 17.5-26.5t6.5-32.5q0-17-6.5-32.5t-17.5-26.5q-12-12-27-18.5t-33-6.5zm0 126q-9 0-16.5-3t-13.5-9q-6-6-9-13.5t-3-16.5q0-9 3-17t9-13q6-6 13.5-9.5t16.5-3.5q9 0 16.5 3.5t13.5 9.5q6 5 9.5 13t3.5 17q0 9-3.5 16.5t-9.5 13.5q-6 6-13.5 9t-16.5 3z" fill="#069"/></svg>