<svg width="356" height="129" viewBox="0 0 356 129" xmlns="http://www.w3.org/2000/svg"><title>Pulse</title><g fill="none" fill-rule="evenodd"><path d="M2.3 96.7V25.5h33.6c17 0 30.8 4 30.8 19.6V54c0 9.3-9.2 17.7-21.4 19.3-3.4.5-5.1.5-23.6.5v28.5H7.8c-3.1-.1-5.5-2.5-5.5-5.6zm19.4-34.4h13.7c6.4 0 12.3-1 12.3-8.4v-8.7c0-7.6-6.1-8.6-12.3-8.6H21.7v25.7zM130 63.8V45c0-10.9 8.8-19.7 19.7-19.7v38.5c0 32.2-4.1 39.6-35.5 39.6-31.3 0-35.2-8.3-35.2-39.6V25.3h.2c10.9 0 19.7 8.8 19.7 19.7v18.9c0 23.2.7 28.4 15.3 28.4 14.3-.1 15.8-4.3 15.8-28.5zM164.6 96.7V25.5h13.8c3 0 5.5 2.5 5.5 5.5v59.4h24.4c6.5 0 11.8 5.3 11.8 11.8H170c-2.9 0-5.4-2.4-5.4-5.5zM296.4 97.3V26h57.4v.1c0 6.5-5.3 11.8-11.8 11.8h-26.5v19.8H346c0 6.7-5.4 12.1-12.1 12.1h-18.4V91H342c6.5 0 11.8 5.3 11.8 11.8h-51.9c-3.1 0-5.5-2.5-5.5-5.5zM225.6 34.4c8.1-9.6 17.9-17 26.3-25.7 1.7-1.8 3.2-3.9 5.3-6.6 0 0 8.7 12.8-2.6 23.8-4.6 4.5-9.4 9-14 13.6-.8.8-1.5 1.6-2.2 2.5 0 0-1.4 1.3-3 3.6 0 0-.5.5-1.1 1.4-.6.8 0 1.9 1 1.9h3.4c.6 0 1 .5 1 1v2.6c0 .6-.5 1-1 1h-6.2c-.9 0-1.7.6-2 1.5-.4 1.5-.6 3.1-.7 4.9 0 1.1.9 2.1 2 2.1h15.5c.6 0 1 .5 1 1v2.6c0 .6-.5 1-1 1h-14.4c-1.1 0-1.9 1.1-1.5 2.1.6 1.7 1.5 3.7 2.6 5.5.3.5.9.9 1.6.9h21.1c.6 0 1 .5 1 1v2.6c0 .6-.5 1-1 1h-16.4c-.8 0-1.3 1-.7 1.6l.7.7 2.1 2.1.2.2.1.1c.9.8 3.3 3.3 3.8 5.9 0 .1 0 .3.1.4V91.9c0 .1 0 .2-.1.3v.1c0 .1-.1.2-.1.3 0 .1-.1.1-.1.2s-.1.1-.1.2c-.1.1-.1.3-.2.4 0 0-1.1-.5-2.8-1.6-.6-.3-1.1-.7-1.7-1.1-.5-.3-1-.7-1.5-1.1-10.8-8.1-20.4-17.8-22.3-31.5-1.4-9.8 2.5-17.3 7.9-23.7z" fill="#FFF" fill-rule="nonzero"/><path d="M275.1 94.3c-8.1 9.6-17.9 17-26.3 25.7-1.7 1.8-3.2 3.9-5.3 6.6 0 0-8.7-12.8 2.6-23.8 4.6-4.5 9.4-9 14-13.6.8-.8 1.5-1.6 2.2-2.5 0 0 1.4-1.3 3-3.6 0 0 .5-.5 1.1-1.4.6-.8 0-1.9-1-1.9H262c-.6 0-1-.5-1-1v-2.6c0-.6.5-1 1-1h6.2c.9 0 1.7-.6 2-1.5.4-1.5.7-3 .7-4.8 0-1.1-.9-2.1-2-2.1h-15.5c-.6 0-1-.5-1-1v-2.6c0-.6.5-1 1-1h14.4c1.1 0 1.9-1.1 1.5-2.1-.6-1.7-1.5-3.7-2.6-5.6-.3-.5-.9-.9-1.6-.9H244c-.6 0-1-.5-1-1V50c0-.6.5-1 1-1h16.4c.8 0 1.3-1 .7-1.6l-.7-.7-2.1-2.1-.2-.2-.1-.1c-.9-.8-3.3-3.3-3.8-5.9 0-.1 0-.3-.1-.4V36.8c0-.1 0-.2.1-.3v-.1c0-.1.1-.2.1-.3 0-.1.1-.1.1-.2s.1-.1.1-.2c.1-.1.1-.3.2-.4 0 0 1.1.5 2.8 1.6.6.3 1.1.7 1.7 1.1.5.3 1 .7 1.5 1.1 10.8 8.1 20.4 17.8 22.3 31.5 1.4 9.8-2.5 17.3-7.9 23.7z" fill="#FFF" fill-rule="nonzero"/></g></svg>