<!-- Generated by IcoMoon.io -->
<svg version="1.1" xmlns="http://www.w3.org/2000/svg" width="32" height="32" viewBox="0 0 32 32">
<title>affordable</title>
<path d="M25.694 14.445c-0.698 0.007-0.465-0.478-0.48-0.835-0.035-0.826-0.484-1.285-1.286-1.23-0.818 0.056-1.133 0.611-1.101 1.416 0.011 0.274 0.43 0.591-0.146 0.943-1.199-2.338-3.271-3.397-5.703-3.908-1.293-0.299-2.608-0.224-3.918-0.218-0.523-0.595-1.117-1.1-1.845-1.429-0.805 0.215-0.584 0.887-0.637 1.435-0.042 0.427 0.165 0.985-0.204 1.251-1.152 0.829-1.911 2.257-3.535 2.38-0.336 0.026-0.697-0.003-0.853 0.403-0.128 0.775 0.431 2.854 0.743 3.259 0.161 0.453 0.464 0.736 1.253 0.929s2.273 1.659 2.273 3.308c0 1.82 1.282 2.404 2.272 1.414 1.043-1.044 1.314-0.931 4.021-0.931 0.662 0 1.069 0.043 1.627 0.601 0.598 0.598 1.023 0.371 2.428 0.371 0.774 0 0.445-0.997 0.406-1.515-0.067-0.913 0.265-1.552 0.885-2.186 0.814-0.831 1.269-1.961 1.14-3.063-0.198-1.689 0.535-1.907 1.889-1.622 0.598 0.126 1.485-0.081 0.77-0.77zM11.059 15.328c-0.418-0.019-0.746-0.16-0.769-0.641-0.024-0.51 0.23-0.825 0.744-0.821 0.438 0.003 0.685 0.284 0.705 0.725 0.021 0.462-0.238 0.689-0.68 0.738zM15.445 12.136c-1.075-0.004-1.732 0.448-1.732-0.31 0-0.638 0.963-0.594 1.757-0.594 0.642 0 1.815 0.161 1.753 0.767-0.097 0.947-0.556 0.158-1.778 0.137zM24.062 14.093c-0.299 0.037-0.419-0.202-0.459-0.424-0.046-0.254 0.098-0.448 0.373-0.478 0.287-0.031 0.407 0.16 0.473 0.404-0.044 0.234-0.111 0.464-0.387 0.498z"></path>
</svg>
