<!-- Generated by IcoMoon.io -->
<svg version="1.1" xmlns="http://www.w3.org/2000/svg" width="32" height="32" viewBox="0 0 32 32">
<title>aggregator</title>
<path d="M16.028 31.628c-8.675-0.014-15.633-6.957-15.685-15.65-0.051-8.642 7.077-15.759 15.739-15.715 8.655 0.044 15.648 7.073 15.641 15.719-0.007 8.635-7.053 15.659-15.695 15.645zM2.978 15.902c-0.024 7.055 5.842 13.009 12.857 13.050 7.336 0.043 13.208-5.767 13.215-13.075 0.007-7.081-5.778-13.004-12.725-13.029-7.462-0.027-13.322 5.705-13.347 13.055zM18.783 13.259c1.047 0.577 1.874 1.236 2.53 1.933 0.079-0.024 0.164-0.038 0.251-0.038 0.112 0 0.219 0.022 0.317 0.062 0.197-0.316 0.366-0.632 0.51-0.948-0.006-0.008-0.011-0.018-0.016-0.027-1.104 0.070-2.506-0.161-3.623-1.403-0.413-0.459-0.745-0.926-1.012-1.38-0.046 0.010-0.094 0.015-0.143 0.015-0.066 0-0.129-0.010-0.189-0.027-0.168 0.144-0.336 0.298-0.505 0.465 0.048 0.113 0.075 0.236 0.075 0.366 0 0.048-0.005 0.095-0.012 0.141 0.586 0.219 1.192 0.495 1.818 0.84zM22.533 13.513c-0.546-1.457-1.567-2.682-2.875-3.485-0.423 0.179-0.892 0.423-1.386 0.757 0 0.005 0.001 0.009 0.001 0.014 0 0.189-0.077 0.359-0.202 0.482 0.265 0.416 0.601 0.858 1.027 1.318 1.078 1.163 2.256 1.371 3.21 1.259 0.027-0.143 0.111-0.264 0.225-0.344zM13.704 20.353c0.484-0.036 1.034-0.123 1.637-0.293 0.005-0.131 0.044-0.253 0.107-0.358-0.553-0.759-1.065-1.662-1.488-2.736-0.029 0.002-0.058 0.004-0.087 0.004-0.032 0-0.064-0.002-0.096-0.005-0.352 1.145-0.433 2.214-0.348 3.182 0.109 0.043 0.204 0.114 0.275 0.205zM12.672 20.358c0.057-0.073 0.128-0.134 0.21-0.178-0.023-0.994 0.093-2.124 0.453-3.356-0.315-0.185-0.527-0.526-0.527-0.918 0-0.393 0.214-0.736 0.531-0.921-0.011-0.044-0.022-0.087-0.032-0.132-0.181-0.781-0.275-1.516-0.301-2.209-0.205-0.081-0.367-0.247-0.44-0.456-1.122 0.13-2.087 0.5-2.869 0.927-0.387 0.864-0.604 1.822-0.604 2.83 0 1.486 0.468 2.861 1.264 3.99l1.101 0.204c-0-0 0.443 0.165 1.213 0.218zM12.978 21.376c-0.118-0.040-0.221-0.113-0.298-0.208-0.469-0.006-0.918-0.048-1.344-0.114 0.531 0.489 1.139 0.894 1.803 1.199-0.063-0.272-0.118-0.564-0.162-0.877zM17.475 10.134c0.040-0.007 0.080-0.011 0.122-0.011 0.095 0 0.185 0.020 0.267 0.055 0.314-0.223 0.63-0.419 0.947-0.591-0.516-0.226-1.065-0.391-1.638-0.485 0.053 0.293 0.145 0.64 0.303 1.033zM21.564 16.858c-0.1 0-0.196-0.018-0.285-0.050-0.655 0.772-1.467 1.542-2.475 2.278-0.663 0.485-1.318 0.867-1.96 1.166-0.017 0.081-0.048 0.157-0.089 0.227 0.795 0.752 1.662 1.267 2.488 1.619 1.438-0.752 2.58-1.992 3.204-3.502-0.088-0.379-0.286-1.011-0.729-1.752-0.050 0.009-0.101 0.015-0.154 0.015zM12.557 11.709c0.074-0.236 0.259-0.422 0.494-0.497 0.063-0.599 0.178-1.158 0.332-1.68-1.292 0.534-2.387 1.448-3.147 2.602 0.643-0.203 1.424-0.373 2.322-0.424zM16.366 20.805c-0.083 0.031-0.172 0.049-0.266 0.049-0.162 0-0.313-0.051-0.436-0.138-0.666 0.214-1.312 0.344-1.931 0.407-0.036 0.053-0.079 0.101-0.129 0.141 0.108 0.475 0.252 0.917 0.415 1.324 0.637 0.193 1.313 0.298 2.014 0.298 0.834 0 1.633-0.147 2.374-0.417-0.644-0.4-1.351-0.939-2.040-1.663zM22.822 14.508c-0.004-0-0.009-0-0.013-0.001-0.163 0.326-0.349 0.658-0.562 0.992 0.105 0.142 0.169 0.317 0.169 0.507 0 0.16-0.045 0.31-0.122 0.438 0.202 0.315 0.377 0.632 0.527 0.947 0.099-0.466 0.152-0.95 0.152-1.446 0-0.493-0.052-0.974-0.15-1.438zM16.1 19.332c0.223 0 0.424 0.097 0.563 0.25 1.091-0.483 2.299-1.239 3.569-2.403 0.236-0.216 0.452-0.436 0.654-0.657-0.109-0.143-0.174-0.321-0.174-0.515 0-0.141 0.035-0.273 0.095-0.39-0.853-0.947-2.129-1.94-4.038-2.752-0.171 0.21-0.431 0.344-0.723 0.344-0.086 0-0.169-0.013-0.248-0.034-0.42 0.554-0.832 1.193-1.226 1.928 0.224 0.195 0.367 0.482 0.367 0.803 0 0.371-0.19 0.698-0.478 0.889 0.014 0.041 0.027 0.081 0.042 0.122 0.344 0.979 0.79 1.796 1.295 2.479 0.093-0.041 0.196-0.064 0.304-0.064zM14.016 11.733c0.377 0.034 0.77 0.090 1.176 0.173 0.144-0.329 0.472-0.56 0.854-0.56 0.135 0 0.262 0.029 0.378 0.080 0.168-0.176 0.338-0.342 0.51-0.498-0.008-0.042-0.013-0.086-0.013-0.13 0-0.21 0.095-0.397 0.245-0.521-0.177-0.452-0.293-0.87-0.37-1.229-0.251-0.027-0.505-0.043-0.763-0.043-0.594 0-1.17 0.075-1.72 0.215-0.23 0.556-0.442 1.264-0.549 2.125 0.12 0.098 0.21 0.233 0.252 0.386zM14.011 12.161c-0.054 0.174-0.169 0.321-0.319 0.417 0.002 0.683 0.072 1.438 0.237 2.265 0.055 0.003 0.11 0.009 0.162 0.020 0.281-0.584 0.619-1.183 1.026-1.795 0.057-0.085 0.114-0.168 0.171-0.25-0.1-0.14-0.162-0.309-0.171-0.492-0.38-0.084-0.749-0.138-1.106-0.165z"></path>
</svg>
