<!-- Generated by IcoMoon.io -->
<svg version="1.1" xmlns="http://www.w3.org/2000/svg" width="32" height="32" viewBox="0 0 32 32">
<title>aggregator_inverted</title>
<path d="M16.082 0.264c-8.662-0.044-15.79 7.073-15.739 15.715 0.052 8.693 7.010 15.636 15.685 15.65 8.642 0.014 15.688-7.010 15.695-15.645 0.007-8.647-6.986-15.675-15.641-15.719zM22.533 13.513c-0.115 0.080-0.198 0.202-0.225 0.344-0.953 0.112-2.131-0.096-3.21-1.259-0.427-0.46-0.762-0.903-1.027-1.318 0.125-0.123 0.202-0.293 0.202-0.482 0-0.005-0.001-0.009-0.001-0.014 0.494-0.334 0.963-0.577 1.386-0.757 1.308 0.803 2.329 2.028 2.875 3.485zM14.571 15.103c0.394-0.735 0.806-1.374 1.226-1.928 0.079 0.022 0.162 0.034 0.248 0.034 0.292 0 0.552-0.134 0.723-0.344 1.909 0.812 3.185 1.805 4.038 2.752-0.060 0.117-0.095 0.249-0.095 0.39 0 0.194 0.066 0.372 0.174 0.515-0.202 0.221-0.418 0.441-0.654 0.657-1.271 1.164-2.478 1.92-3.569 2.403-0.139-0.153-0.339-0.25-0.563-0.25-0.108 0-0.211 0.023-0.304 0.064-0.505-0.683-0.95-1.5-1.295-2.479-0.014-0.041-0.028-0.081-0.042-0.122 0.288-0.191 0.478-0.517 0.478-0.889 0-0.321-0.142-0.608-0.367-0.803zM18.783 13.259c-0.626-0.345-1.232-0.621-1.818-0.84 0.007-0.046 0.012-0.093 0.012-0.141 0-0.13-0.027-0.254-0.075-0.366 0.169-0.166 0.338-0.321 0.505-0.465 0.060 0.018 0.123 0.027 0.189 0.027 0.049 0 0.097-0.006 0.143-0.015 0.267 0.454 0.599 0.92 1.012 1.38 1.117 1.242 2.519 1.473 3.623 1.403 0.005 0.009 0.010 0.018 0.016 0.027-0.144 0.315-0.313 0.632-0.51 0.948-0.098-0.040-0.205-0.062-0.317-0.062-0.087 0-0.172 0.013-0.251 0.038-0.655-0.697-1.483-1.356-2.53-1.933zM18.811 9.586c-0.317 0.172-0.633 0.368-0.947 0.591-0.082-0.035-0.172-0.055-0.267-0.055-0.042 0-0.082 0.004-0.122 0.011-0.157-0.392-0.25-0.74-0.303-1.033 0.573 0.095 1.122 0.259 1.638 0.485zM14.313 9.222c0.55-0.14 1.126-0.215 1.72-0.215 0.258 0 0.512 0.015 0.763 0.043 0.077 0.359 0.194 0.776 0.37 1.229-0.15 0.124-0.245 0.311-0.245 0.521 0 0.044 0.005 0.088 0.013 0.13-0.172 0.157-0.342 0.323-0.51 0.498-0.116-0.051-0.243-0.080-0.378-0.080-0.382 0-0.71 0.23-0.854 0.56-0.406-0.083-0.798-0.139-1.176-0.173-0.043-0.154-0.132-0.288-0.252-0.386 0.107-0.861 0.319-1.569 0.549-2.125zM14.011 12.161c0.357 0.028 0.726 0.081 1.106 0.165 0.009 0.183 0.071 0.352 0.171 0.492-0.058 0.082-0.115 0.164-0.171 0.25-0.406 0.612-0.745 1.212-1.026 1.795-0.053-0.011-0.107-0.017-0.162-0.020-0.165-0.827-0.235-1.582-0.237-2.265 0.151-0.096 0.265-0.243 0.319-0.417zM11.337 21.054c0.426 0.066 0.874 0.108 1.344 0.114 0.077 0.095 0.18 0.168 0.298 0.208 0.044 0.313 0.099 0.605 0.162 0.877-0.664-0.305-1.272-0.711-1.803-1.199zM13.334 16.824c-0.36 1.231-0.475 2.362-0.453 3.356-0.082 0.044-0.154 0.105-0.21 0.178-0.77-0.053-1.213-0.218-1.213-0.218l-1.101-0.204c-0.795-1.129-1.264-2.504-1.264-3.99 0-1.008 0.217-1.966 0.604-2.83 0.782-0.427 1.747-0.797 2.869-0.927 0.073 0.209 0.235 0.376 0.44 0.456 0.026 0.693 0.12 1.428 0.301 2.209 0.010 0.044 0.021 0.088 0.032 0.132-0.317 0.184-0.531 0.527-0.531 0.921 0 0.392 0.212 0.733 0.527 0.918zM13.051 11.212c-0.235 0.075-0.42 0.262-0.494 0.497-0.898 0.052-1.679 0.221-2.322 0.424 0.76-1.154 1.855-2.067 3.147-2.602-0.154 0.522-0.269 1.082-0.332 1.681zM13.777 16.966c0.032 0.003 0.064 0.005 0.096 0.005 0.029 0 0.058-0.002 0.087-0.004 0.423 1.074 0.936 1.977 1.488 2.736-0.063 0.106-0.102 0.228-0.107 0.358-0.603 0.169-1.153 0.256-1.637 0.293-0.071-0.091-0.166-0.162-0.275-0.205-0.085-0.968-0.004-2.037 0.348-3.182zM16.033 22.885c-0.7 0-1.376-0.105-2.014-0.298-0.163-0.407-0.307-0.849-0.415-1.324 0.049-0.041 0.093-0.088 0.129-0.141 0.619-0.063 1.265-0.192 1.931-0.407 0.124 0.087 0.274 0.138 0.436 0.138 0.094 0 0.183-0.018 0.266-0.049 0.689 0.724 1.396 1.263 2.040 1.663-0.741 0.27-1.54 0.417-2.374 0.417zM19.243 22.098c-0.825-0.352-1.692-0.866-2.488-1.619 0.041-0.069 0.072-0.146 0.089-0.227 0.642-0.299 1.297-0.681 1.96-1.166 1.008-0.737 1.82-1.506 2.475-2.278 0.089 0.032 0.185 0.050 0.285 0.050 0.053 0 0.104-0.005 0.154-0.015 0.443 0.741 0.642 1.373 0.729 1.752-0.625 1.51-1.766 2.75-3.204 3.502zM22.821 17.392c-0.15-0.316-0.324-0.633-0.527-0.947 0.077-0.128 0.122-0.278 0.122-0.438 0-0.19-0.063-0.366-0.169-0.507 0.213-0.334 0.398-0.665 0.562-0.992 0.004 0 0.009 0 0.013 0.001 0.098 0.464 0.15 0.945 0.15 1.438 0 0.496-0.053 0.979-0.152 1.446z"></path>
</svg>
