<!-- Generated by IcoMoon.io -->
<svg version="1.1" xmlns="http://www.w3.org/2000/svg" width="32" height="32" viewBox="0 0 32 32">
<title>agile</title>
<path d="M15.36 7.635c-5.138 0-9.302 4.165-9.302 9.302s4.165 9.303 9.302 9.303 9.302-4.165 9.302-9.302c0-5.138-4.165-9.302-9.302-9.302zM20.552 19.721c-1.967 3.798-7.303 4.289-9.933 0.915-0.442-0.567-0.441-0.566-1.091-0.247-0.299 0.147-0.593 0.307-0.903 0.423-0.347 0.13-0.566-0.043-0.455-0.393 0.365-1.147 0.757-2.286 1.171-3.416 0.112-0.307 0.426-0.379 0.727-0.28 1.083 0.358 2.161 0.731 3.239 1.103 0.151 0.052 0.299 0.138 0.302 0.327 0.002 0.187-0.147 0.273-0.287 0.346-0.365 0.191-0.729 0.387-1.104 0.554-0.315 0.14-0.297 0.293-0.105 0.537 0.723 0.92 1.889 1.471 3.541 1.475 1.383-0.069 2.686-0.855 3.408-2.477 0.2-0.45 0.411-0.555 0.868-0.405 1.146 0.376 1.188 0.451 0.625 1.538zM21.374 16.871c-0.113 0.307-0.426 0.379-0.727 0.28-1.083-0.358-2.161-0.731-3.239-1.103-0.151-0.052-0.299-0.138-0.302-0.327-0.002-0.187 0.147-0.273 0.287-0.347 0.365-0.191 0.729-0.386 1.105-0.554 0.315-0.14 0.297-0.293 0.105-0.537-0.723-0.92-1.89-1.471-3.541-1.475-1.383 0.069-2.686 0.854-3.408 2.477-0.2 0.45-0.411 0.555-0.868 0.405-1.146-0.376-1.188-0.451-0.625-1.538 1.967-3.798 7.303-4.289 9.933-0.915 0.442 0.567 0.442 0.566 1.091 0.247 0.299-0.147 0.593-0.307 0.903-0.423 0.347-0.13 0.567 0.043 0.455 0.393-0.364 1.147-0.757 2.286-1.171 3.416z"></path>
</svg>
