<!-- Generated by IcoMoon.io -->
<svg version="1.1" xmlns="http://www.w3.org/2000/svg" width="34" height="32" viewBox="0 0 34 32">
<title>archive</title>
<path d="M8 2h-6c-1.1 0-2 0.9-2 2v24c0 1.1 0.9 2 2 2h6c1.1 0 2-0.9 2-2v-24c0-1.1-0.9-2-2-2zM6 25.25c0 0.413-0.338 0.75-0.75 0.75h-0.5c-0.412 0-0.75-0.337-0.75-0.75v-0.5c0-0.413 0.338-0.75 0.75-0.75h0.5c0.412 0 0.75 0.337 0.75 0.75v0.5zM8 20h-6v-10h6v10zM8 8h-6v-2h6v2zM20 2h-6c-1.1 0-2 0.9-2 2v24c0 1.1 0.9 2 2 2h6c1.1 0 2-0.9 2-2v-24c0-1.1-0.9-2-2-2zM18 25.25c0 0.413-0.337 0.75-0.75 0.75h-0.5c-0.413 0-0.75-0.337-0.75-0.75v-0.5c0-0.413 0.337-0.75 0.75-0.75h0.5c0.413 0 0.75 0.337 0.75 0.75v0.5zM20 20h-6v-10h6v10zM20 8h-6v-2h6v2zM32 2h-6c-1.1 0-2 0.9-2 2v24c0 1.1 0.9 2 2 2h6c1.1 0 2-0.9 2-2v-24c0-1.1-0.9-2-2-2zM30 25.25c0 0.413-0.337 0.75-0.75 0.75h-0.5c-0.413 0-0.75-0.337-0.75-0.75v-0.5c0-0.413 0.337-0.75 0.75-0.75h0.5c0.413 0 0.75 0.337 0.75 0.75v0.5zM32 20h-6v-10h6v10zM32 8h-6v-2h6v2z"></path>
</svg>
