<!-- Generated by IcoMoon.io -->
<svg version="1.1" xmlns="http://www.w3.org/2000/svg" width="32" height="32" viewBox="0 0 32 32">
<title>arrow-left-3</title>
<path d="M16 0c8.837 0 16 7.163 16 16s-7.163 16-16 16-16-7.163-16-16 7.163-16 16-16zM16 29c7.18 0 13-5.82 13-13s-5.82-13-13-13-13 5.82-13 13 5.82 13 13 13zM6.586 14.586l8-8c0.781-0.781 2.047-0.781 2.828 0s0.781 2.047 0 2.828l-4.586 4.586h11.172c1.105 0 2 0.895 2 2s-0.895 2-2 2h-11.172l4.586 4.586c0.781 0.781 0.781 2.047 0 2.829-0.391 0.39-0.902 0.586-1.414 0.586s-1.024-0.195-1.414-0.586l-8-8c-0.781-0.781-0.781-2.047 0-2.828z"></path>
</svg>
