<!-- Generated by IcoMoon.io -->
<svg version="1.1" xmlns="http://www.w3.org/2000/svg" width="16" height="16" viewBox="0 0 16 16">
<title>atom</title>
<path d="M12.999 3.23v0 0zM13.032 8c1.631-1.56 2.423-3.087 1.896-4-0.301-0.521-0.99-0.77-1.929-0.77v0.75c0.659 0 1.137 0.148 1.28 0.395 0.113 0.195 0.050 0.496-0.023 0.713-0.139 0.417-0.442 0.917-0.876 1.444-0.263 0.32-0.567 0.643-0.904 0.963-0.465-0.402-0.982-0.801-1.544-1.188-0.055-0.679-0.142-1.327-0.257-1.93 0.878-0.26 1.675-0.397 2.323-0.397l0-0.75c-0 0-0 0-0 0-0.706 0-1.553 0.141-2.482 0.413-0.535-2.192-1.462-3.642-2.516-3.642s-1.981 1.45-2.516 3.642c-0.929-0.271-1.777-0.412-2.482-0.412-0.939 0-1.629 0.249-1.93 0.77-0.527 0.913 0.265 2.44 1.896 4-1.631 1.56-2.423 3.087-1.896 4 0.301 0.521 0.99 0.77 1.93 0.77 0.706 0 1.553-0.141 2.482-0.412 0.535 2.192 1.462 3.642 2.516 3.642s1.981-1.45 2.516-3.642c0.929 0.271 1.777 0.412 2.482 0.412 0.939 0 1.629-0.249 1.93-0.77 0.527-0.913-0.265-2.44-1.896-4zM11.915 8c-0.291 0.248-0.601 0.493-0.927 0.734 0.008-0.242 0.013-0.487 0.013-0.734s-0.004-0.492-0.013-0.734c0.327 0.241 0.637 0.486 0.927 0.734zM9.958 11.389c-0.36-0.128-0.728-0.274-1.098-0.435 0.213-0.113 0.426-0.232 0.64-0.355s0.424-0.25 0.63-0.378c-0.045 0.403-0.103 0.793-0.172 1.169zM9.125 9.949c-0.372 0.214-0.748 0.416-1.125 0.603-0.377-0.187-0.753-0.389-1.125-0.603-0.375-0.216-0.737-0.441-1.086-0.672-0.026-0.417-0.039-0.844-0.039-1.276s0.013-0.859 0.039-1.276c0.349-0.231 0.711-0.456 1.086-0.672 0.372-0.215 0.748-0.416 1.125-0.603 0.377 0.187 0.753 0.389 1.125 0.603 0.375 0.216 0.737 0.441 1.086 0.672 0.026 0.417 0.039 0.844 0.039 1.276s-0.013 0.859-0.039 1.276c-0.349 0.231-0.711 0.456-1.086 0.672zM5.87 10.22c0.205 0.128 0.415 0.254 0.63 0.378s0.427 0.242 0.64 0.355c-0.37 0.162-0.738 0.307-1.098 0.435-0.069-0.375-0.127-0.766-0.172-1.168zM5.013 8.734c-0.327-0.241-0.637-0.486-0.927-0.734 0.291-0.248 0.601-0.494 0.927-0.734-0.008 0.242-0.013 0.487-0.013 0.734s0.004 0.492 0.013 0.734zM6.042 4.612c0.36 0.128 0.728 0.274 1.098 0.435-0.213 0.113-0.426 0.232-0.64 0.355s-0.424 0.25-0.63 0.378c0.045-0.403 0.103-0.793 0.172-1.168zM9.5 5.402c-0.214-0.123-0.427-0.242-0.64-0.355 0.37-0.162 0.738-0.307 1.098-0.435 0.069 0.375 0.127 0.766 0.172 1.168-0.205-0.128-0.415-0.254-0.63-0.378zM6.581 2.607c0.24-0.639 0.521-1.151 0.813-1.48 0.152-0.172 0.381-0.376 0.607-0.376s0.454 0.205 0.607 0.376c0.292 0.329 0.573 0.841 0.813 1.48 0.146 0.388 0.273 0.812 0.382 1.265-0.58 0.202-1.185 0.45-1.801 0.743-0.616-0.292-1.221-0.541-1.801-0.743 0.109-0.453 0.237-0.877 0.382-1.265zM2.62 6.532c-0.434-0.527-0.736-1.026-0.876-1.444-0.073-0.218-0.135-0.518-0.023-0.713 0.143-0.247 0.621-0.395 1.28-0.395h0c0.648 0 1.445 0.137 2.323 0.397-0.115 0.603-0.202 1.251-0.257 1.93-0.561 0.387-1.079 0.787-1.544 1.188-0.338-0.321-0.641-0.643-0.904-0.963zM3.002 12.020c-0.659 0-1.137-0.148-1.28-0.395-0.113-0.195-0.050-0.496 0.023-0.713 0.139-0.417 0.442-0.917 0.876-1.444 0.263-0.32 0.567-0.643 0.904-0.963 0.465 0.402 0.982 0.801 1.544 1.188 0.055 0.679 0.142 1.327 0.257 1.93-0.878 0.26-1.675 0.397-2.323 0.397zM9.419 13.393c-0.24 0.639-0.521 1.151-0.813 1.48-0.152 0.172-0.381 0.376-0.607 0.376s-0.454-0.205-0.607-0.376c-0.292-0.329-0.573-0.841-0.813-1.48-0.146-0.388-0.273-0.812-0.382-1.265 0.58-0.202 1.185-0.45 1.801-0.743 0.616 0.292 1.221 0.541 1.801 0.743-0.109 0.453-0.236 0.877-0.382 1.265zM14.256 10.912c0.073 0.218 0.135 0.518 0.023 0.713-0.143 0.248-0.622 0.395-1.28 0.395-0.648 0-1.445-0.137-2.323-0.397 0.115-0.603 0.202-1.251 0.257-1.93 0.561-0.387 1.079-0.787 1.544-1.188 0.338 0.321 0.641 0.643 0.904 0.963 0.434 0.527 0.736 1.026 0.876 1.444z"></path>
</svg>
