<!-- Generated by IcoMoon.io -->
<svg version="1.1" xmlns="http://www.w3.org/2000/svg" width="24" height="24" viewBox="0 0 24 24">
<title>battery-charging</title>
<path d="M5 17h-2c-0.276 0-0.525-0.111-0.707-0.293s-0.293-0.431-0.293-0.707v-8c0-0.276 0.111-0.525 0.293-0.707s0.431-0.293 0.707-0.293h3.19c0.552 0 1-0.448 1-1s-0.448-1-1-1h-3.19c-0.828 0-1.58 0.337-2.121 0.879s-0.879 1.293-0.879 2.121v8c0 0.828 0.337 1.58 0.879 2.121s1.293 0.879 2.121 0.879h2c0.552 0 1-0.448 1-1s-0.448-1-1-1zM15 7h2c0.276 0 0.525 0.111 0.707 0.293s0.293 0.431 0.293 0.707v8c0 0.276-0.111 0.525-0.293 0.707s-0.431 0.293-0.707 0.293h-3.19c-0.552 0-1 0.448-1 1s0.448 1 1 1h3.19c0.828 0 1.58-0.337 2.121-0.879s0.879-1.293 0.879-2.121v-8c0-0.828-0.337-1.58-0.879-2.121s-1.293-0.879-2.121-0.879h-2c-0.552 0-1 0.448-1 1s0.448 1 1 1zM24 13v-2c0-0.552-0.448-1-1-1s-1 0.448-1 1v2c0 0.552 0.448 1 1 1s1-0.448 1-1zM10.168 5.445l-4 6c-0.306 0.46-0.182 1.080 0.277 1.387 0.172 0.115 0.367 0.169 0.555 0.168h4.131l-2.964 4.445c-0.306 0.46-0.182 1.080 0.277 1.387s1.080 0.182 1.387-0.277l4-6c0.106-0.156 0.169-0.348 0.169-0.555 0-0.552-0.448-1-1-1h-4.131l2.964-4.445c0.306-0.46 0.182-1.080-0.277-1.387s-1.080-0.182-1.387 0.277z"></path>
</svg>
