<!-- Generated by IcoMoon.io -->
<svg version="1.1" xmlns="http://www.w3.org/2000/svg" width="20" height="20" viewBox="0 0 20 20">
<title>battery-low</title>
<path d="M17.5 8h-0.5v-1.5c0-0.827-0.673-1.5-1.5-1.5h-14c-0.827 0-1.5 0.673-1.5 1.5v8c0 0.827 0.673 1.5 1.5 1.5h14c0.827 0 1.5-0.673 1.5-1.5v-1.5h0.5c0.827 0 1.5-0.673 1.5-1.5v-2c0-0.827-0.673-1.5-1.5-1.5zM16 14.5c0 0.276-0.224 0.5-0.5 0.5h-14c-0.276 0-0.5-0.224-0.5-0.5v-8c0-0.276 0.224-0.5 0.5-0.5h14c0.276 0 0.5 0.224 0.5 0.5v8zM18 11.5c0 0.276-0.224 0.5-0.5 0.5h-0.5v-3h0.5c0.276 0 0.5 0.224 0.5 0.5v2z"></path>
<path d="M2.5 14c-0.276 0-0.5-0.224-0.5-0.5v-6c0-0.276 0.224-0.5 0.5-0.5s0.5 0.224 0.5 0.5v6c0 0.276-0.224 0.5-0.5 0.5z"></path>
</svg>
