<!-- Generated by IcoMoon.io -->
<svg version="1.1" xmlns="http://www.w3.org/2000/svg" width="24" height="24" viewBox="0 0 24 24">
<title>book</title>
<path d="M6.5 1c-0.966 0-1.843 0.393-2.475 1.025s-1.025 1.509-1.025 2.475v15c0 0.966 0.393 1.843 1.025 2.475s1.509 1.025 2.475 1.025h13.5c0.552 0 1-0.448 1-1v-20c0-0.552-0.448-1-1-1zM19 18v3h-12.5c-0.414 0-0.788-0.167-1.061-0.439s-0.439-0.647-0.439-1.061 0.167-0.788 0.439-1.061 0.647-0.439 1.061-0.439zM6.5 3h12.5v13h-12.5c-0.537 0-1.045 0.121-1.5 0.337v-11.837c0-0.414 0.167-0.788 0.439-1.061s0.647-0.439 1.061-0.439z"></path>
</svg>
