<!-- Generated by IcoMoon.io -->
<svg version="1.1" xmlns="http://www.w3.org/2000/svg" width="32" height="32" viewBox="0 0 32 32">
<title>bothub</title>
<path d="M31.038 7.9h-0.012c-0.531 0.009-0.95 0.444-0.938 0.972 0.003 0.297 0.144 0.559 0.359 0.728-0.425 1.991-0.847 4.606-1.159 6.637-0.012-0.006-0.025-0.009-0.034-0.019-0.038-0.022-0.078-0.038-0.113-0.053-0.053-0.025-0.1-0.047-0.147-0.063-0.022-0.006-0.038-0.012-0.056-0.022 0.003-0.038 0.003-0.081 0.006-0.119 0.209-5.787-2.231-12.116-12.975-12.772-10.838 0.669-13.231 7.094-12.972 12.922-0.087 0.034-0.184 0.078-0.288 0.128-0.306-2.034-0.731-4.647-1.156-6.637 0.216-0.172 0.353-0.431 0.359-0.728 0.009-0.531-0.416-0.963-0.938-0.972-0.522 0-0.963 0.416-0.972 0.938-0.009 0.469 0.325 0.866 0.772 0.953 0.237 1.878 0.653 5.091 0.969 7.372-0.353 0.6-0.538 1.503-0.231 2.863 0.491 2.191 1.369 3.303 2.306 3.75 0.2 0.094 0.4 0.159 0.603 0.2 0.138 0.028 0.272 0.038 0.409 0.047 0.278 0.641 0.541 1.131 0.741 1.419 1.787 2.584 3.969 3.363 3.969 3.363h12.856c0 0 2.188-0.778 3.972-3.363 0.2-0.291 0.459-0.778 0.741-1.419h0.047c0.325-0.006 0.656-0.078 0.984-0.219 0.953-0.431 1.853-1.547 2.356-3.775 0.306-1.356 0.119-2.262-0.231-2.859 0.313-2.281 0.731-5.497 0.972-7.372 0.191-0.034 0.363-0.128 0.5-0.272 0.178-0.184 0.272-0.425 0.269-0.681-0.025-0.528-0.45-0.947-0.969-0.947zM24.153 24.856l-0.159 0.019c-2.422 0.288-4.922 0.581-7.387 0.606-0.109 0.003-0.216 0.003-0.325 0.003-1.919 0-3.819-0.163-5.762-0.347-0.694-0.063-1.406-0.137-2.106-0.212-0.047-0.003-0.094-0.006-0.197-0.009-0.088-0.003-0.281-0.006-0.409-0.022-2.275-3.356-2.759-7.878-2.85-9.113 1.475-0.603 3.137-0.878 4.716-1.109 1.547-0.228 3.197-0.387 5.041-0.497 0.534-0.034 1.088-0.050 1.65-0.050 2.578 0 5.359 0.325 8.272 0.969 0.716 0.156 1.547 0.359 2.341 0.684-0.094 1.241-0.572 5.731-2.822 9.078z"></path>
<path d="M17.881 21.806v0.766h-0.766v0.769h-2.303v-0.769h-0.766v-0.766z"></path>
<path d="M13.281 21.038h0.769v0.769h-0.769v-0.769z"></path>
<path d="M17.881 21.038h0.769v0.769h-0.769v-0.769z"></path>
<path d="M20.184 17.969h1.534v2.303h-1.534v-2.303z"></path>
<path d="M10.213 17.969h1.534v2.303h-1.534v-2.303z"></path>
</svg>
