<!-- Generated by IcoMoon.io -->
<svg version="1.1" xmlns="http://www.w3.org/2000/svg" width="24" height="24" viewBox="0 0 24 24">
<title>briefcase</title>
<path d="M9 6v-1c0-0.276 0.111-0.525 0.293-0.707s0.431-0.293 0.707-0.293h4c0.276 0 0.525 0.111 0.707 0.293s0.293 0.431 0.293 0.707v1zM9 20v-12h6v12zM7 8v12h-3c-0.276 0-0.525-0.111-0.707-0.293s-0.293-0.431-0.293-0.707v-10c0-0.276 0.111-0.525 0.293-0.707s0.431-0.293 0.707-0.293zM17 6v-1c0-0.828-0.337-1.58-0.879-2.121s-1.293-0.879-2.121-0.879h-4c-0.828 0-1.58 0.337-2.121 0.879s-0.879 1.293-0.879 2.121v1h-3c-0.828 0-1.58 0.337-2.121 0.879s-0.879 1.293-0.879 2.121v10c0 0.828 0.337 1.58 0.879 2.121s1.293 0.879 2.121 0.879h16c0.828 0 1.58-0.337 2.121-0.879s0.879-1.293 0.879-2.121v-10c0-0.828-0.337-1.58-0.879-2.121s-1.293-0.879-2.121-0.879zM17 20v-12h3c0.276 0 0.525 0.111 0.707 0.293s0.293 0.431 0.293 0.707v10c0 0.276-0.111 0.525-0.293 0.707s-0.431 0.293-0.707 0.293z"></path>
</svg>
