<!-- Generated by IcoMoon.io -->
<svg version="1.1" xmlns="http://www.w3.org/2000/svg" width="32" height="32" viewBox="0 0 32 32">
<title>bubble-replu</title>
<path d="M29 0h-26c-1.65 0-3 1.35-3 3v18c0 1.65 1.35 3 3 3h5v8l9.6-8h11.4c1.65 0 3-1.35 3-3v-18c0-1.65-1.35-3-3-3zM23.727 19.837c-0.275-1.282-0.854-2.461-1.754-3.438-1.934-2.1-4.918-2.803-7.973-2.184v5.785l-6.75-6c-1.25-1.111-1.25-1.719-1.25-2s0-0.889 1.25-2l6.75-6v6c5.519 0 9.992 3.582 9.992 8 0 0.632-0.092 1.247-0.265 1.837z"></path>
</svg>
