<!-- Generated by IcoMoon.io -->
<svg version="1.1" xmlns="http://www.w3.org/2000/svg" width="24" height="24" viewBox="0 0 24 24">
<title>calendar</title>
<path d="M7 2v1h-2c-0.828 0-1.58 0.337-2.121 0.879s-0.879 1.293-0.879 2.121v14c0 0.828 0.337 1.58 0.879 2.121s1.293 0.879 2.121 0.879h14c0.828 0 1.58-0.337 2.121-0.879s0.879-1.293 0.879-2.121v-14c0-0.828-0.337-1.58-0.879-2.121s-1.293-0.879-2.121-0.879h-2v-1c0-0.552-0.448-1-1-1s-1 0.448-1 1v1h-6v-1c0-0.552-0.448-1-1-1s-1 0.448-1 1zM20 9h-16v-3c0-0.276 0.111-0.525 0.293-0.707s0.431-0.293 0.707-0.293h2v1c0 0.552 0.448 1 1 1s1-0.448 1-1v-1h6v1c0 0.552 0.448 1 1 1s1-0.448 1-1v-1h2c0.276 0 0.525 0.111 0.707 0.293s0.293 0.431 0.293 0.707zM4 11h16v9c0 0.276-0.111 0.525-0.293 0.707s-0.431 0.293-0.707 0.293h-14c-0.276 0-0.525-0.111-0.707-0.293s-0.293-0.431-0.293-0.707z"></path>
</svg>
