<!-- Generated by IcoMoon.io -->
<svg version="1.1" xmlns="http://www.w3.org/2000/svg" width="32" height="32" viewBox="0 0 32 32">
<title>channel-twilio</title>
<path d="M9.757 12.57c0 1.506 1.221 2.726 2.726 2.726s2.726-1.221 2.726-2.726c0-1.506-1.221-2.726-2.726-2.726s-2.726 1.221-2.726 2.726zM16.779 12.57c0 1.506 1.221 2.726 2.726 2.726s2.726-1.221 2.726-2.726c0-1.506-1.221-2.726-2.726-2.726s-2.726 1.221-2.726 2.726zM9.757 19.344c0 1.506 1.221 2.726 2.726 2.726s2.726-1.221 2.726-2.726c0-1.506-1.221-2.726-2.726-2.726s-2.726 1.221-2.726 2.726zM16.779 19.344c0 1.506 1.221 2.726 2.726 2.726s2.726-1.221 2.726-2.726c0-1.506-1.221-2.726-2.726-2.726s-2.726 1.221-2.726 2.726zM15.994 1.252c-8.122 0-14.705 6.584-14.705 14.705s6.584 14.705 14.705 14.705 14.705-6.584 14.705-14.705c0-8.121-6.584-14.705-14.705-14.705zM15.994 27.989c-6.678 0-12.092-5.414-12.092-12.092s5.414-12.092 12.092-12.092 12.092 5.414 12.092 12.092-5.414 12.092-12.092 12.092z"></path>
</svg>
