<!-- Generated by IcoMoon.io -->
<svg version="1.1" xmlns="http://www.w3.org/2000/svg" width="32" height="32" viewBox="0 0 32 32">
<title>channel-nexmo</title>
<path d="M15.294 19.283l-0.898-0.296c0.281 0.137 0.58 0.241 0.898 0.296zM15.294 19.283c0.196 0.034 0.395 0.058 0.6 0.056 1.87-0.013 3.377-1.539 3.364-3.41-0.010-1.402-0.87-2.599-2.088-3.106-0.006-0.002-0.012-0.004-0.018-0.006-0.402-0.165-0.842-0.255-1.304-0.252-1.87 0.013-3.377 1.539-3.364 3.41 0.009 1.331 0.792 2.466 1.912 3.012l0.898 0.296zM20.863 23.185l2.431 2.978c0.075-0.057 0.154-0.121 0.23-0.18l-2.421-2.966c-0.078 0.058-0.159 0.112-0.24 0.168zM20.245 23.58l2.454 3.006c0.064-0.045 0.129-0.091 0.194-0.138l-2.437-2.986c-0.068 0.042-0.141 0.077-0.21 0.117zM15.078 24.738c-4.324-0.391-7.627-3.845-7.979-8.027l3.1 0.28-4.459-5.345-5.345 4.459 2.789 0.252c0.19 6.332 5.076 11.67 11.543 12.255 3.053 0.276 5.099-0.25 7.093-1.453l-2.531-3.1c-1.287 0.552-2.717 0.815-4.212 0.68zM19.658 23.902l2.497 3.059c0.077-0.049 0.154-0.1 0.231-0.151l-2.482-3.040c-0.083 0.043-0.163 0.091-0.247 0.132zM7.947 6.344l2.598 2.598c0.064-0.049 0.134-0.089 0.199-0.136l-2.62-2.62c-0.059 0.053-0.118 0.103-0.177 0.158zM8.411 5.93l2.655 2.655c0.078-0.051 0.151-0.109 0.23-0.158l-2.68-2.68c-0.067 0.057-0.138 0.124-0.205 0.183zM7.374 6.879l2.572 2.572c0.072-0.066 0.149-0.126 0.223-0.19l-2.586-2.586c-0.067 0.064-0.141 0.138-0.209 0.204zM28.531 16.793c0.005-0.074 0.042-0.689 0.040-0.926-0.048-7.014-5.773-12.662-12.787-12.614-3.168 0.022-4.951 0.713-6.866 2.254l2.73 2.73c1.237-0.682 2.65-1.084 4.163-1.095 4.662-0.032 8.492 3.565 8.836 8.145 0.015 0.201 0.033 0.401 0.035 0.606 0.002 0.313-0.013 0.622-0.043 0.926l-2.927 0.020 4.955 4.888 4.888-4.955-3.023 0.021z"></path>
</svg>
