<!-- Generated by IcoMoon.io -->
<svg version="1.1" xmlns="http://www.w3.org/2000/svg" width="32" height="32" viewBox="0 0 32 32">
<title>channel-external</title>
<path d="M17.201 7.491c0.67 0.97 1.534 1.755 2.416 2.52 0.929 0.806 1.939 1.496 3.020 2.082 0.57 0.252 1.128 0.537 1.713 0.748 0.842 0.305 1.682 0.641 2.61 0.601 0.265-0.011 0.405-0.074 0.398-0.371-0.006-0.266-0.022-0.564 0.34-0.648 0.066-0.049 0.131-0.098 0.197-0.147 0.555-0.281 0.797-0.723 0.686-1.343-0.909-2.533-2.353-4.689-4.45-6.402-0.389-0.317-0.773-0.428-1.254-0.38-1.971 0.196-3.643 1.085-5.213 2.218-0.031 0.426-0.014 0.871-0.464 1.123zM7.602 14.696c0.103-0.132 0.227-0.247 0.193-0.432-0.136-0.732-0.276-1.463-0.414-2.195-0.094-0.837-0.155-1.675-0.174-2.519-0.020-0.88-0.459-1.249-1.329-1.167-0.769 0.073-1.514 0.247-2.241 0.511-0.365 0.133-0.618 0.341-0.773 0.713-2.070 4.959-1.508 9.618 1.574 13.995 0.386 0.549 0.887 0.911 1.571 1.037 0.438 0.081 0.429-0.093 0.326-0.399 0.093-0.656-0.081-1.336 0.056-1.967 0.3-1.389 0.534-2.802 1.086-4.127 0.109-0.261 0.139-0.492-0.037-0.771-0.611-0.97-0.549-1.762 0.163-2.679zM25.999 15.903c0.759-0.295 1.072-1.070 1.481-1.807-1.924-0.024-3.632-0.464-5.19-1.431-2.101-1.088-3.892-2.562-5.417-4.365-0.152-0.18-0.273-0.39-0.486-0.513-0.121-0.032-0.242-0.064-0.362-0.097-0.307 0.285-0.623 0.563-0.92 0.858-0.448 0.445-0.368 0.939 0.201 1.202 1.306 0.604 2.514 1.373 3.734 2.131 1.515 0.942 2.863 2.077 4.16 3.285 0.505 0.137 0.981 0.305 1.449 0.579 0.366 0.215 0.968 0.306 1.35 0.157zM16.852 5.405c1.518-1.049 3.107-1.93 5.083-2.234-0.16-0.129-0.207-0.183-0.267-0.212-1.761-0.882-3.625-1.364-5.592-1.463-0.373-0.019-0.519 0.173-0.632 0.473-0.403 1.075-0.137 2.092 0.264 3.093 0.256 0.637 0.572 0.738 1.144 0.343zM29.153 14.4c-0.026-0.066-0.052-0.131-0.079-0.196-0.094 0.144-0.187 0.287-0.281 0.431 0.003 0.069-0.023 0.115-0.097 0.123-0.183 0.009-0.366 0.018-0.549 0.028-0.461 0.422-0.699 1.016-1.12 1.464-0.369 0.392-0.648 0.768-0.424 1.349 0.074 0.191 0.080 0.461 0.002 0.647-0.269 0.645-0.040 1.193 0.242 1.752 0.238 0.472 0.44 0.959 0.487 1.496 0.014 0.163 0.053 0.328 0.229 0.409 0.867-1.527 1.377-3.173 1.585-4.909 0.103-0.86 0.239-1.728 0.005-2.593zM6.963 7.275c0.437-0.455 0.465-1.058 0.588-1.62 0.149-0.688 0.438-1.328 0.628-2.023-1.809 1.090-3.271 2.503-4.35 4.341 0.907-0.278 1.824-0.373 2.747-0.424 0.182-0.010 0.273-0.155 0.388-0.275zM16.373 28.6c0 0 0 0 0 0-0.947-0.674-1.886-1.565-2.771-2.572-0.079 0.002-0.162-0-0.252-0.008-0.508-0.041-0.975-0.145-1.362-0.496-0.171-0.155-0.383-0.144-0.573-0.102-0.985 0.22-1.987 0.278-2.99 0.341-0.175-0.005-0.349-0.009-0.524-0.014-0.017 0.12-0.033 0.241-0.050 0.361 0.084 0.506 0.313 0.867 0.774 1.169 0.362 0.237 0.747 0.39 1.124 0.561 2.311 1.045 4.728 1.461 7.257 1.139-0.161-0.257-0.386-0.352-0.635-0.381zM9.18 24.943c0.407 0.082 0.786-0.125 1.167-0.134 0.608-0.015 0.99-0.014 1.097-0.82 0.057-0.432 0.085-0.727-0.155-1.063-0.126-0.177-0.226-0.374-0.341-0.559-0.684-1.098-1.162-2.299-1.711-3.463-0.019-0.070-0.025-0.147-0.059-0.209-0.082-0.151-0.111-0.401-0.318-0.384-0.159 0.013-0.196 0.24-0.246 0.392-0.44 1.324-0.865 2.652-0.958 4.058 0.022 0.344 0.068 0.689-0.079 1.020-0 0.103-0.001 0.206-0.001 0.308 0.024 0.048 0.074 0.1 0.068 0.144-0.066 0.462 0.148 0.689 0.596 0.728 0.314-0.006 0.628-0.011 0.942-0.017zM8.309 9.696c0.045 1.374 0.233 2.727 0.571 4.059-0.010 0.187 0.058 0.33 0.257 0.352 0.172 0.018 0.251-0.125 0.329-0.248 0.322-0.507 0.654-1.010 0.96-1.527 0.312-0.529 0.771-0.962 1.001-1.543 0.53-0.523 0.464-1.507-0.139-1.697-0.745-0.235-1.501-0.449-2.288-0.512-0.102 0.010-0.204 0.020-0.306 0.030 0 0-0.012 0.011-0.012 0.011-0.033 0.032-0.067 0.063-0.1 0.095-0.141 0.092-0.314 0.155-0.335 0.358 0.018 0.054 0.036 0.109 0.054 0.163 0.002 0.153 0.004 0.306 0.007 0.459zM9.15 7.735c0.005 0.109 0.18 0.081 0.286 0.076 0.655 0.153 1.309 0.305 1.963 0.458 0.35 0.267 0.649 0.217 0.977-0.080 0.35-0.317 0.783-0.46 1.265-0.326 0.169 0.047 0.324 0.072 0.422-0.119 0.293-0.267 0.585-0.534 0.878-0.8 0.059-0.319-0.114-0.727 0.339-0.897-0.013-0.067-0.025-0.134-0.038-0.201-0.021-0.047-0.042-0.093-0.063-0.139-0.133-0.378-0.293-0.749-0.395-1.135-0.255-0.96-0.324-1.905 0.293-2.784 0.245-0.349-0.077-0.288-0.253-0.281-1.679 0.065-3.29 0.433-4.832 1.105-0.231 0.101-0.38 0.268-0.493 0.485-0.467 0.897-0.809 1.836-0.972 2.836-0.131 0.255-0.194 0.543-0.001 0.763 0.274 0.313 0.6 0.57 0.624 1.038zM25.982 20.149c-0.12-0.242-0.27-0.369-0.554-0.344-0.242 0.021-0.476 0.025-0.693-0.046l-0.75-0.548c-1.212 1.022-2.634 2.1-4.091 3.048 0.021-0.004 0.041-0.007 0.064-0.011-0.158 0.213-0.326 0.271-0.508 0.305-0 0.003-0.002 0.005-0.003 0.008-0.004 0-0.007 0.001-0.011 0.002-0.102 0.177-0.269 0.24-0.507 0.302 0-0 0-0.001 0.001-0.001-1.45 0.874-2.897 1.58-4.17 1.937-0.014 0.188-0.069 0.384-0.168 0.583-0.011 0.022-0.022 0.043-0.034 0.064 0.106 0.098 0.214 0.195 0.325 0.291 0.010-0.004 0.021-0.009 0.031-0.013 0.002 0.015 0.004 0.030 0.006 0.045 0.12 0.104 0.242 0.206 0.368 0.306 0.086 0.008 0.154 0.040 0.171 0.135 0.97 0.752 2.095 1.409 3.399 1.911 0.254 0.098 0.515 0.19 0.783 0.275 2.883-0.853 5.162-2.582 6.978-4.983 0.142-0.217 0.266-0.444 0.19-0.713-0.244-0.861-0.425-1.742-0.829-2.552zM10.528 18.926c0.459 1.394 1.195 2.65 1.955 3.891 0.136 0.222 0.35 0.395 0.697 0.415 0.474 0.028 0.905 0.262 1.245 0.628 0.013 0.014 0.025 0.029 0.038 0.044 1.924-0.669 4.011-1.725 6.174-3.347 1.159-0.869 2.169-1.712 3.051-2.53-0.007-0.015-0.015-0.029-0.022-0.044-0-0-0-0-0-0 0.010 0.003 0.018 0.008 0.029 0.010 0.242-0.644 0.089-1.146-0.405-1.582-0.311-0.275-0.572-0.606-0.856-0.912l-0.001 0.002c-0.045-0.032-0.090-0.064-0.135-0.096-0.399-0.317-0.754-0.682-1.14-1.015-1.785-1.541-3.802-2.711-5.884-3.782-0.437-0.225-0.876-0.494-1.32 0.048-0.117 0.142-0.398 0.179-0.611 0.205-0.24 0.029-0.409 0.129-0.549 0.312-0.811 1.063-1.588 2.148-2.202 3.34-0.192 0.241 0.015 0.397 0.122 0.575 0.493 0.821 0.391 1.758-0.259 2.461-0.104 0.113-0.292 0.173-0.268 0.379z"></path>
</svg>
