<!-- Generated by IcoMoon.io -->
<svg version="1.1" xmlns="http://www.w3.org/2000/svg" width="32" height="32" viewBox="0 0 32 32">
<title>channel-plivo</title>
<path d="M25.077 13.689c-0.186-0.079-0.24-0.186-0.268-0.374-0.306-2.031-1.124-3.789-2.723-5.143-3.967-3.358-9.901-2.45-12.655 1.947-0.043 0.068-0.092 0.132-0.138 0.198-0.022-0.008-0.044-0.015-0.066-0.023 0-0.103 0-0.205 0-0.308-0-0.998 0.009-1.995-0.005-2.993-0.010-0.702-0.655-1.163-1.309-0.96-0.452 0.14-0.706 0.519-0.706 1.069-0.002 1.675-0.002 3.351 0 5.026 0 0.157-0.005 0.285-0.185 0.363-0.72 0.311-1.304 0.808-1.857 1.357-2.042 2.030-2.673 5.081-1.586 7.748 1.084 2.662 3.677 4.412 6.557 4.415 4.122 0.004 8.245 0.005 12.367-0.004 0.412-0.001 0.829-0.041 1.233-0.116 2.789-0.515 4.85-2.811 5.176-5.746 0.291-2.626-1.357-5.407-3.837-6.457zM27.251 20.27c-0.105 0.829-0.564 1.512-1.146 2.097-1.029 1.034-2.272 1.595-3.74 1.597-4.047 0.006-8.094 0.012-12.141-0.001-2.674-0.009-4.865-1.871-5.129-4.497-0.225-2.238 0.63-4.096 2.457-5.448 0.78-0.577 1.701-0.725 2.656-0.681 0.272 0.013 0.545 0.036 0.817 0.029 0.087-0.002 0.219-0.065 0.246-0.133 0.029-0.074-0.010-0.22-0.072-0.276-0.143-0.13-0.308-0.25-0.484-0.33-0.281-0.127-0.578-0.219-0.915-0.343 0.094-0.184 0.163-0.348 0.257-0.496 1.356-2.137 3.272-3.534 5.779-3.836 3.501-0.421 6.785 1.391 7.74 5.422 0.201 0.848 0.259 1.709 0.213 2.58-0.010 0.183-0.095 0.459 0.152 0.514 0.266 0.059 0.307-0.23 0.367-0.414 0.122-0.373 0.216-0.756 0.322-1.14 0.039 0.003 0.071-0.004 0.090 0.008 1.771 1.091 2.852 2.804 2.529 5.348zM19.044 15.323c0.187 0.010 0.375 0.002 0.563 0.002 0.179 0 0.357 0.005 0.535-0.001 0.378-0.013 0.599-0.223 0.608-0.595 0.009-0.366 0.010-0.733-0-1.098-0.010-0.345-0.22-0.565-0.566-0.578-0.384-0.015-0.77-0.015-1.154 0.002-0.332 0.014-0.537 0.227-0.548 0.563-0.013 0.384-0.014 0.77 0.001 1.155 0.013 0.332 0.229 0.534 0.561 0.551zM20.75 20.066c-0.018-0.333-0.22-0.547-0.551-0.56-0.384-0.015-0.77-0.015-1.155-0.002-0.348 0.012-0.553 0.223-0.564 0.576-0.012 0.375-0.012 0.751 0.001 1.127 0.012 0.346 0.227 0.556 0.576 0.566 0.375 0.011 0.752 0.012 1.127-0.001 0.342-0.012 0.551-0.233 0.567-0.578 0.008-0.178 0.001-0.357 0.001-0.535-0-0.197 0.008-0.395-0.002-0.591zM20.183 16.282c-0.187-0.008-0.375-0.002-0.563-0.002s-0.376-0.006-0.563 0.001c-0.35 0.014-0.563 0.213-0.575 0.563-0.014 0.384-0.014 0.77 0.001 1.154 0.012 0.317 0.223 0.534 0.535 0.547 0.393 0.016 0.789 0.015 1.183 0.001 0.313-0.011 0.534-0.228 0.546-0.537 0.016-0.393 0.015-0.789 0.001-1.182-0.012-0.328-0.232-0.531-0.565-0.545zM17.528 20.619c0-0.169 0.004-0.338-0.001-0.507-0.012-0.381-0.215-0.598-0.591-0.61-0.366-0.011-0.733-0.012-1.098 0-0.367 0.012-0.571 0.221-0.58 0.588s-0.008 0.732 0 1.098c0.008 0.35 0.214 0.57 0.557 0.582 0.384 0.014 0.77 0.014 1.154-0 0.326-0.012 0.538-0.234 0.556-0.56 0.011-0.197 0.002-0.394 0.002-0.591 0 0 0.001 0 0.001 0zM15.268 17.952c0.012 0.367 0.213 0.578 0.58 0.588s0.734 0.012 1.101-0.001c0.335-0.012 0.552-0.221 0.565-0.55 0.015-0.385 0.015-0.772-0-1.157-0.013-0.323-0.223-0.528-0.541-0.537-0.386-0.011-0.772-0.011-1.157-0-0.336 0.009-0.533 0.216-0.547 0.557-0.008 0.188-0.001 0.376-0.001 0.564-0 0.179-0.005 0.358 0.001 0.536zM12.043 14.715c0.011 0.386 0.209 0.59 0.597 0.6 0.357 0.009 0.715 0.010 1.072-0.001 0.35-0.011 0.566-0.219 0.577-0.566 0.013-0.376 0.013-0.753-0.001-1.129-0.013-0.339-0.22-0.541-0.556-0.551-0.376-0.011-0.753-0.011-1.129-0-0.353 0.010-0.547 0.215-0.56 0.574-0.007 0.178-0.001 0.357-0.001 0.536s-0.005 0.358 0.001 0.536zM15.268 14.727c0.011 0.369 0.211 0.577 0.58 0.587 0.367 0.010 0.734 0.011 1.101-0.001 0.335-0.011 0.553-0.22 0.566-0.548 0.015-0.385 0.014-0.772-0-1.157-0.012-0.32-0.223-0.528-0.541-0.538-0.385-0.012-0.772-0.012-1.157-0-0.338 0.010-0.533 0.216-0.547 0.557-0.008 0.188-0.001 0.376-0.002 0.564-0 0.179-0.005 0.357 0.001 0.536zM13.737 16.293c-0.188-0.008-0.376-0.002-0.564-0.002s-0.376-0.006-0.564 0.001c-0.342 0.013-0.551 0.207-0.562 0.542-0.012 0.385-0.012 0.771-0 1.157 0.010 0.32 0.213 0.533 0.533 0.545 0.395 0.016 0.79 0.016 1.185-0.002 0.303-0.014 0.51-0.225 0.522-0.53 0.016-0.394 0.017-0.791 0-1.185-0.013-0.32-0.228-0.513-0.55-0.527zM13.736 19.514c-0.188-0.010-0.376-0.002-0.564-0.002s-0.377-0.008-0.564 0.001c-0.354 0.017-0.553 0.217-0.562 0.574-0.009 0.367-0.009 0.734 0 1.101 0.008 0.339 0.205 0.559 0.535 0.573 0.394 0.017 0.791 0.017 1.185-0.002 0.304-0.014 0.509-0.225 0.522-0.53 0.016-0.394 0.016-0.791 0-1.185-0.013-0.315-0.229-0.512-0.551-0.53z"></path>
</svg>
