<!-- Generated by IcoMoon.io -->
<svg version="1.1" xmlns="http://www.w3.org/2000/svg" width="32" height="32" viewBox="0 0 32 32">
<title>channel-clickatell</title>
<path d="M16.020 2.935c-7.171-0.015-13.138 5.895-13.078 13.054-0.070 7.157 5.864 13.046 12.993 13.076 7.199 0.030 13.119-5.886 13.123-13.053 0.005-7.181-5.906-13.062-13.039-13.077zM15.975 26.308c-5.709-0.010-10.294-4.588-10.29-10.311 0.004-5.759 4.631-10.277 10.327-10.319 5.688 0.064 10.291 4.583 10.291 10.325-0.001 5.741-4.608 10.316-10.327 10.306zM12.715 10.39c-3.301-0.038-5.692 2.646-5.725 5.535-0.034 2.978 2.342 5.638 5.515 5.675 3.171 0.037 5.671-2.441 5.685-5.59 0.014-3.053-2.471-5.585-5.476-5.62z"></path>
</svg>
