<!-- Generated by IcoMoon.io -->
<svg version="1.1" xmlns="http://www.w3.org/2000/svg" width="47" height="32" viewBox="0 0 47 32">
<title>chatbase</title>
<path d="M15.484 14.923c0 0.989-0.802 1.791-1.791 1.791s-1.791-0.802-1.791-1.791c0-0.989 0.802-1.791 1.791-1.791s1.791 0.802 1.791 1.791zM28.533 14.923c0 0.989-0.802 1.791-1.791 1.791s-1.791-0.802-1.791-1.791c0-0.989 0.802-1.791 1.791-1.791s1.791 0.802 1.791 1.791zM36.226 14.906c0-5.992-4.853-10.845-10.846-10.845h-10.268c-5.992 0-10.845 4.853-10.845 10.845v0c0 1.61-0.016 6.562-0.016 9.203 0 0.957 0.396 1.337 0.817 1.519 0.388 0.165 1.114 0.248 1.667-0.33 0.71-0.735 1.279-2.146 1.882-1.7 1.808 1.354 4.061 2.154 6.496 2.154h10.268c5.992 0 10.845-4.853 10.845-10.845v0zM33.296 14.898c0 4.399-3.566 7.965-7.965 7.965h-10.202c-4.399 0-7.965-3.566-7.965-7.965v-0.008c0-4.399 3.566-7.965 7.965-7.965h10.202c4.399 0 7.965 3.566 7.965 7.965v0.008z"></path>
</svg>
