<!-- Generated by IcoMoon.io -->
<svg version="1.1" xmlns="http://www.w3.org/2000/svg" width="32" height="32" viewBox="0 0 32 32">
<title>checkbox-partial</title>
<path d="M29 0h-26c-1.65 0-3 1.35-3 3v26c0 1.65 1.35 3 3 3h26c1.65 0 3-1.35 3-3v-26c0-1.65-1.35-3-3-3zM28 28h-24v-24h24v24zM10 24h12c1.1 0 2-0.9 2-2v-12c0-1.1-0.9-2-2-2h-12c-1.1 0-2 0.9-2 2v12c0 1.1 0.9 2 2 2zM10 21.75h12v0.246c-0.001 0.001-0.002 0.003-0.004 0.004h-11.993c-0.001-0.001-0.003-0.002-0.004-0.004v-0.246zM10.004 10h11.993c0.001 0.001 0.003 0.002 0.004 0.004v0.246h-12v-0.246c0.001-0.001 0.002-0.002 0.004-0.004zM22 10.75v0.5h-12v-0.5h12zM22 11.75v0.5h-12v-0.5h12zM22 12.75v0.5h-12v-0.5h12zM22 13.75v0.5h-12v-0.5h12zM22 14.75v0.5h-12v-0.5h12zM22 15.75v0.5h-12v-0.5h12zM22 16.75v0.5h-12v-0.5h12zM22 17.75v0.5h-12v-0.5h12zM22 18.75v0.5h-12v-0.5h12zM22 19.75v0.5h-12v-0.5h12zM22 20.75v0.5h-12v-0.5h12z"></path>
</svg>
