<!-- Generated by IcoMoon.io -->
<svg version="1.1" xmlns="http://www.w3.org/2000/svg" width="32" height="32" viewBox="0 0 32 32">
<title>chip</title>
<path d="M29 16c0.552 0 1-0.448 1-1s-0.448-1-1-1h-3v-2h3c0.552 0 1-0.448 1-1s-0.448-1-1-1h-3v-3l-1-1h-3v-3c0-0.552-0.448-1-1-1s-1 0.448-1 1v3h-2v-3c0-0.552-0.448-1-1-1s-1 0.448-1 1v3h-2v-3c0-0.552-0.448-1-1-1s-1 0.448-1 1v3h-2v-3c0-0.552-0.448-1-1-1s-1 0.448-1 1v3h-3l-1 1v3h-3c-0.552 0-1 0.448-1 1s0.448 1 1 1h3v2h-3c-0.552 0-1 0.448-1 1s0.448 1 1 1h3v2h-3c-0.552 0-1 0.448-1 1s0.448 1 1 1h3v2h-3c-0.552 0-1 0.448-1 1s0.448 1 1 1h3v3l1 1h3v3c0 0.552 0.448 1 1 1s1-0.448 1-1v-3h2v3c0 0.552 0.448 1 1 1s1-0.448 1-1v-3h2v3c0 0.552 0.448 1 1 1s1-0.448 1-1v-3h2v3c0 0.552 0.448 1 1 1s1-0.448 1-1v-3h3l1-1v-3h3c0.552 0 1-0.448 1-1s-0.448-1-1-1h-3v-2h3c0.552 0 1-0.448 1-1s-0.448-1-1-1h-3v-2h3zM18 20h-6v-6h6v6z"></path>
</svg>
