<!-- Generated by IcoMoon.io -->
<svg version="1.1" xmlns="http://www.w3.org/2000/svg" width="32" height="32" viewBox="0 0 32 32">
<title>clickatell-inverted</title>
<path d="M15.95 10.476c-3.013 0.023-5.461 2.412-5.463 5.459-0.002 3.027 2.423 5.45 5.443 5.455 3.025 0.005 5.463-2.415 5.463-5.452s-2.434-5.428-5.444-5.462zM14.096 18.9c-1.679-0.020-2.935-1.426-2.918-3.002 0.017-1.528 1.283-2.948 3.028-2.928 1.589 0.018 2.904 1.358 2.896 2.973-0.008 1.666-1.33 2.977-3.007 2.957zM16.024 0.286c-8.662-0.044-15.79 7.073-15.739 15.715 0.052 8.693 7.010 15.636 15.685 15.65 8.642 0.014 15.688-7.010 15.695-15.645 0.007-8.647-6.986-15.675-15.641-15.719zM15.91 22.848c-3.771-0.016-6.91-3.131-6.873-6.917-0.032-3.787 3.124-6.913 6.918-6.905 3.773 0.008 6.9 3.119 6.897 6.917-0.003 3.791-3.134 6.921-6.942 6.905z"></path>
</svg>
