<!-- Generated by IcoMoon.io -->
<svg version="1.1" xmlns="http://www.w3.org/2000/svg" width="32" height="32" viewBox="0 0 32 32">
<title>clickatell</title>
<path d="M15.97 31.65c-8.675-0.014-15.633-6.957-15.685-15.65-0.051-8.642 7.077-15.759 15.739-15.715 8.655 0.044 15.648 7.073 15.641 15.719-0.007 8.635-7.053 15.659-15.695 15.645v0zM2.92 15.924c-0.024 7.055 5.842 13.009 12.857 13.050 7.336 0.043 13.208-5.767 13.215-13.075 0.007-7.081-5.778-13.004-12.725-13.029-7.462-0.027-13.322 5.705-13.347 13.055v0zM16.011 9.063c-3.807-0.008-6.976 3.13-6.944 6.931-0.037 3.8 3.114 6.927 6.899 6.943 3.822 0.016 6.965-3.125 6.968-6.931 0.003-3.813-3.136-6.935-6.923-6.943zM15.987 21.473c-3.031-0.005-5.465-2.436-5.464-5.475 0.002-3.058 2.459-5.457 5.483-5.479 3.020 0.034 5.464 2.434 5.464 5.482s-2.447 5.477-5.483 5.472zM14.256 13.021c-1.752-0.020-3.022 1.405-3.040 2.939-0.018 1.581 1.244 2.994 2.928 3.013 1.684 0.020 3.011-1.296 3.018-2.968 0.007-1.621-1.312-2.966-2.907-2.984z"></path>
</svg>
