<!-- Generated by IcoMoon.io -->
<svg version="1.1" xmlns="http://www.w3.org/2000/svg" width="32" height="32" viewBox="0 0 32 32">
<title>cloud-lightning</title>
<path d="M16.518 18.222h2.815l-6.778 6.778 1.643-4.556h-2.865l2.556-6.667h4.333l-1.704 4.444zM17.556 21.556h7.778c3.068 0 5.555-2.494 5.555-5.556 0-2.28-1.369-4.239-3.334-5.095v0c-0.051-3.331-2.767-6.016-6.11-6.016-1.176 0-2.275 0.332-3.207 0.908-1.418-1.9-3.684-3.131-6.237-3.131-4.296 0-7.778 3.482-7.778 7.778 0 0.154 0.004 0.306 0.013 0.457v0c-1.969 0.856-3.347 2.819-3.347 5.098 0 3.068 2.481 5.556 5.555 5.556h6.162l-2.828 7.778 7.778-7.778z"></path>
</svg>
