<!-- Generated by IcoMoon.io -->
<svg version="1.1" xmlns="http://www.w3.org/2000/svg" width="24" height="24" viewBox="0 0 24 24">
<title>cloud</title>
<path d="M18 11c1.105 0 2.103 0.447 2.828 1.172s1.172 1.723 1.172 2.828-0.447 2.103-1.172 2.828-1.723 1.172-2.828 1.172h-8.995c-1.463-0.008-2.853-0.461-4.005-1.258-1.334-0.922-2.348-2.304-2.784-3.992-0.483-1.872-0.163-3.761 0.748-5.305s2.408-2.739 4.28-3.223 3.761-0.163 5.305 0.748 2.739 2.408 3.223 4.28c0.115 0.435 0.505 0.75 0.968 0.75zM18 9h-0.52c-0.725-2.057-2.143-3.708-3.915-4.753-1.983-1.169-4.415-1.583-6.821-0.961s-4.334 2.16-5.503 4.143-1.582 4.415-0.961 6.821c0.56 2.169 1.867 3.951 3.583 5.137 1.478 1.023 3.261 1.603 5.132 1.613h9.005c1.657 0 3.158-0.673 4.243-1.757s1.757-2.586 1.757-4.243-0.673-3.158-1.757-4.243-2.586-1.757-4.243-1.757z"></path>
</svg>
