<!-- Generated by IcoMoon.io -->
<svg version="1.1" xmlns="http://www.w3.org/2000/svg" width="32" height="32" viewBox="0 0 32 32">
<title>cog</title>
<path d="M32 19.003v-6.006l-4.587-0.764c-0.186-0.567-0.413-1.115-0.678-1.641l2.702-3.782-4.247-4.247-3.776 2.697c-0.528-0.267-1.079-0.497-1.649-0.684l-0.763-4.575h-6.006l-0.763 4.575c-0.57 0.188-1.121 0.417-1.649 0.684l-3.776-2.697-4.247 4.247 2.702 3.782c-0.265 0.526-0.492 1.074-0.678 1.641l-4.587 0.764v6.006l4.597 0.766c0.186 0.561 0.413 1.105 0.676 1.626l-2.711 3.795 4.247 4.247 3.802-2.715c0.519 0.261 1.059 0.485 1.618 0.67l0.768 4.608h6.006l0.768-4.609c0.559-0.185 1.099-0.409 1.618-0.67l3.802 2.715 4.247-4.247-2.711-3.795c0.264-0.521 0.49-1.064 0.676-1.626l4.597-0.766zM16 20c-2.209 0-4-1.791-4-4s1.791-4 4-4c2.209 0 4 1.791 4 4s-1.791 4-4 4z"></path>
</svg>
