<!-- Generated by IcoMoon.io -->
<svg version="1.1" xmlns="http://www.w3.org/2000/svg" width="32" height="32" viewBox="0 0 32 32">
<title>coins</title>
<path d="M20.958 9.917c-0.728 0-1.439 0.071-2.128 0.206-0.055-0.041-0.11-0.082-0.168-0.122 0.851-0.588 1.338-1.271 1.338-2v-2c0-2.209-4.477-4-10-4s-10 1.791-10 4v2c0 0.729 0.487 1.412 1.338 2-0.851 0.588-1.338 1.271-1.338 2v2c0 0.729 0.487 1.412 1.338 2-0.851 0.588-1.338 1.271-1.338 2v2c0 0.729 0.487 1.412 1.338 2-0.851 0.588-1.338 1.271-1.338 2v2c0 2.209 4.477 4 10 4 1.476 0 2.876-0.129 4.137-0.358 1.878 1.477 4.246 2.358 6.821 2.358 6.098 0 11.042-4.944 11.042-11.042s-4.944-11.042-11.042-11.042zM1 6c0-0.595 0.903-1.341 2.3-1.9 1.773-0.709 4.153-1.1 6.7-1.1s4.926 0.391 6.7 1.1c1.397 0.559 2.3 1.305 2.3 1.9s-0.903 1.341-2.3 1.9c-0.577 0.231-1.218 0.428-1.908 0.588-1.431 0.334-3.073 0.512-4.791 0.512s-3.36-0.178-4.791-0.512c-0.69-0.161-1.331-0.358-1.908-0.588-1.397-0.559-2.3-1.305-2.3-1.9zM1 18c0-0.442 0.498-0.966 1.325-1.436 1.834 0.878 4.591 1.436 7.675 1.436 0.107 0 0.213-0.001 0.319-0.003-0.262 0.942-0.402 1.935-0.402 2.961 0 0.014 0 0.027 0.001 0.041-1.688-0.006-3.3-0.183-4.709-0.511-0.69-0.161-1.331-0.358-1.908-0.588-1.397-0.559-2.3-1.305-2.3-1.9zM10 27c-2.547 0-4.926-0.391-6.7-1.1-1.397-0.559-2.3-1.305-2.3-1.9 0-0.442 0.498-0.966 1.325-1.436 1.834 0.878 4.591 1.436 7.675 1.436 0.114 0 0.227-0.001 0.34-0.003 0.301 1.055 0.755 2.045 1.337 2.945-0.548 0.038-1.108 0.058-1.677 0.058zM10 15c-1.718 0-3.36-0.178-4.791-0.512-0.69-0.161-1.331-0.358-1.908-0.588-1.397-0.559-2.3-1.305-2.3-1.9 0-0.442 0.498-0.966 1.325-1.436 1.834 0.878 4.591 1.436 7.675 1.436 2.060 0 3.973-0.25 5.564-0.677-1.562 0.876-2.889 2.121-3.863 3.617-0.555 0.039-1.123 0.061-1.701 0.061zM20.958 29.992c-4.989 0-9.034-4.045-9.034-9.034s4.045-9.034 9.034-9.034c4.989 0 9.034 4.045 9.034 9.034s-4.045 9.034-9.034 9.034zM22 14h-2v2h-4v6h4v2h-4v2h4v2h2v-2h4v-6h-4v-2h4v-2h-4v-2zM20 20h-2v-2h2v2zM24 22v2h-2v-2h2z"></path>
</svg>
