<!-- Generated by IcoMoon.io -->
<svg version="1.1" xmlns="http://www.w3.org/2000/svg" width="32" height="32" viewBox="0 0 32 32">
<title>cord</title>
<path d="M27.59 12.41c-0.464-0.464-1.216-0.464-1.679 0l-4.91 4.91-6.321-6.321 4.91-4.91c0.464-0.464 0.464-1.216 0-1.679s-1.216-0.464-1.679 0l-4.91 4.91-2.91-2.91c-0.464-0.464-1.216-0.464-1.679 0s-0.464 1.216 0 1.679l2.093 2.093-4.16 4.16c-2.636 2.636-3.048 6.653-1.236 9.721l-4.521 4.521c-0.781 0.781-0.781 2.047 0 2.828 0.391 0.391 0.902 0.586 1.414 0.586s1.024-0.195 1.414-0.586l4.521-4.521c3.068 1.812 7.085 1.4 9.721-1.236l4.16-4.16 2.093 2.093c0.232 0.232 0.536 0.348 0.84 0.348s0.608-0.116 0.84-0.348c0.464-0.464 0.464-1.216 0-1.679l-2.91-2.91 4.91-4.91c0.464-0.464 0.464-1.216 0-1.679z"></path>
</svg>
