<!-- Generated by IcoMoon.io -->
<svg version="1.1" xmlns="http://www.w3.org/2000/svg" width="32" height="32" viewBox="0 0 32 32">
<title>docs-2</title>
<path d="M3.051 29.241v-26.702c0-0.445 0.157-0.823 0.47-1.135s0.693-0.467 1.141-0.467h15.031c0.447 0 0.939 0.111 1.476 0.334s0.962 0.49 1.275 0.801l5.234 5.207c0.313 0.311 0.582 0.734 0.805 1.268s0.335 1.024 0.335 1.469v19.225c0 0.445-0.157 0.823-0.47 1.135s-0.693 0.467-1.141 0.467h-22.547c-0.447 0-0.828-0.156-1.141-0.467s-0.47-0.69-0.47-1.135v-0zM5.199 28.707h21.473v-17.089h-6.979c-0.447 0-0.828-0.156-1.141-0.467s-0.47-0.69-0.47-1.135v-6.942h-12.884v25.634zM9.493 23.901v-1.068c0-0.156 0.050-0.284 0.151-0.384s0.229-0.15 0.386-0.15h11.81c0.157 0 0.285 0.050 0.386 0.15s0.151 0.228 0.151 0.384v1.068c0 0.156-0.050 0.284-0.151 0.384s-0.229 0.15-0.386 0.15h-11.81c-0.157 0-0.285-0.050-0.386-0.15s-0.151-0.228-0.151-0.384v0zM9.493 19.629v-1.068c0-0.156 0.050-0.284 0.151-0.384s0.229-0.15 0.386-0.15h11.81c0.157 0 0.285 0.050 0.386 0.15s0.151 0.228 0.151 0.384v1.068c0 0.156-0.050 0.284-0.151 0.384s-0.229 0.15-0.386 0.15h-11.81c-0.157 0-0.285-0.050-0.386-0.15s-0.151-0.228-0.151-0.384v0zM9.493 15.357v-1.068c0-0.156 0.050-0.284 0.151-0.384s0.229-0.15 0.386-0.15h11.81c0.157 0 0.285 0.050 0.386 0.15s0.151 0.228 0.151 0.384v1.068c0 0.156-0.050 0.284-0.151 0.384s-0.229 0.15-0.386 0.15h-11.81c-0.157 0-0.285-0.050-0.386-0.15s-0.151-0.228-0.151-0.384v-0zM20.23 9.482h6.308c-0.112-0.323-0.235-0.551-0.369-0.684l-5.251-5.224c-0.134-0.134-0.363-0.256-0.688-0.367v6.275z"></path>
</svg>
