<!-- Generated by IcoMoon.io -->
<svg version="1.1" xmlns="http://www.w3.org/2000/svg" width="32" height="32" viewBox="0 0 32 32">
<title>docs</title>
<path d="M3.168 29.245v-26.646c0-0.444 0.156-0.822 0.469-1.132s0.692-0.466 1.138-0.466h13.393v9.060c0 0.444 0.156 0.822 0.469 1.132s0.692 0.466 1.138 0.466h9.107v17.587c0 0.444-0.156 0.822-0.469 1.132s-0.692 0.466-1.138 0.466h-22.5c-0.446 0-0.826-0.155-1.138-0.466s-0.469-0.688-0.469-1.132v0zM9.597 23.916c0 0.155 0.050 0.283 0.151 0.383s0.229 0.15 0.385 0.15h11.786c0.156 0 0.285-0.050 0.385-0.15s0.151-0.228 0.151-0.383v-1.066c0-0.155-0.050-0.283-0.151-0.383s-0.229-0.15-0.385-0.15h-11.786c-0.156 0-0.285 0.050-0.385 0.15s-0.151 0.228-0.151 0.383v1.066zM9.597 19.652c0 0.155 0.050 0.283 0.151 0.383s0.229 0.15 0.385 0.15h11.786c0.156 0 0.285-0.050 0.385-0.15s0.151-0.228 0.151-0.383v-1.066c0-0.155-0.050-0.283-0.151-0.383s-0.229-0.15-0.385-0.15h-11.786c-0.156 0-0.285 0.050-0.385 0.15s-0.151 0.228-0.151 0.383v1.066zM9.597 15.389c0 0.155 0.050 0.283 0.151 0.383s0.229 0.15 0.385 0.15h11.786c0.156 0 0.285-0.050 0.385-0.15s0.151-0.228 0.151-0.383v-1.066c0-0.155-0.050-0.283-0.151-0.383s-0.229-0.15-0.385-0.15h-11.786c-0.156 0-0.285 0.050-0.385 0.15s-0.151 0.228-0.151 0.383v1.066zM20.311 9.527v-7.861c0.246 0.155 0.447 0.311 0.603 0.466l6.83 6.795c0.156 0.155 0.313 0.355 0.469 0.6h-7.902z"></path>
</svg>
