<!-- Generated by IcoMoon.io -->
<svg version="1.1" xmlns="http://www.w3.org/2000/svg" width="32" height="32" viewBox="0 0 32 32">
<title>dtone</title>
<path d="M13.080 11.458v-3.568h12.443v3.568l-4.029 0.053-0.018 11.396h-4.1l0.071-11.449z"></path>
<path d="M26.907 11.316l1.97-3.426h3.124v15.017h-3.55l0.036-11.591z"></path>
<path d="M12.636 12.435c-1.42-3.266-4.455-4.367-4.952-4.526h-7.917v15.017h7.455c0.675-0.124 1.74-0.018 2.946-0.888 0.284-0.213 1.775-1.314 2.609-3.39 1.189-3.053 0.053-5.787-0.142-6.213zM9.228 17.529c-0.71 1.172-1.811 1.633-2.201 1.775-1.172 0-2.325 0-3.497 0v-7.686h3.373c0.337 0.089 1.633 0.461 2.396 1.704 0.852 1.402 0.603 3.071-0.071 4.207z"></path>
</svg>
