<!-- Generated by IcoMoon.io -->
<svg version="1.1" xmlns="http://www.w3.org/2000/svg" width="32" height="32" viewBox="0 0 32 32">
<title>easy</title>
<path d="M23.926 18.867c-1.169 0.935-2.106 1.871-3.275 2.573s-2.339-0.936-2.339-5.38 0.113-5.586 0-6.403c-0.113-0.817-0.472-1.763-1.52-1.763s-1.378 1.119-1.378 1.55 0 5.13 0 6.051c0 1.61-2.346 1.735-2.346 1.735s-2.854 0.8-4.369 1.463c-1.291 0.565-1.381 2.435-1.381 2.435 0 2.105 0 1.949 0 4.521s1.871 4.679 4.912 5.146c3.041 0.468 5.847 0.701 8.888-3.509s5.613-7.017 5.847-8.186c0.234-1.169-1.871-1.169-3.041-0.234zM16.636 6.207c1.561 0 2.826 1.265 2.826 2.826 0 0.615-0.199 1.182-0.532 1.646 0.010 0.473 0.003 1.071-0.009 1.883 1.156-0.75 1.922-2.049 1.922-3.529 0-2.323-1.884-4.207-4.207-4.207s-4.207 1.883-4.207 4.207c0 1.583 0.875 2.96 2.167 3.678 0-0.624 0-1.216 0-1.726-0.486-0.508-0.786-1.194-0.786-1.953 0-1.561 1.265-2.826 2.826-2.826zM14.596 15.492c0-0.381 0-0.778 0-1.18-2.119-0.819-3.625-2.871-3.625-5.279 0-3.128 2.536-5.664 5.665-5.664s5.664 2.536 5.664 5.664c0 2.325-1.402 4.32-3.405 5.193-0.005 0.363-0.010 0.765-0.014 1.191 2.636-0.927 4.529-3.432 4.529-6.384 0-3.741-3.032-6.773-6.773-6.773s-6.774 3.033-6.774 6.773c-0 3.030 1.99 5.594 4.734 6.46z"></path>
</svg>
