<!-- Generated by IcoMoon.io -->
<svg version="1.1" xmlns="http://www.w3.org/2000/svg" width="32" height="32" viewBox="0 0 32 32">
<title>everywhere</title>
<path d="M16.746 10.715c0.416 0.602 0.953 1.090 1.5 1.565 0.577 0.501 1.205 0.929 1.876 1.293 0.354 0.156 0.701 0.333 1.064 0.465 0.523 0.189 1.045 0.398 1.621 0.373 0.165-0.007 0.252-0.046 0.247-0.23-0.004-0.165-0.014-0.35 0.211-0.402 0.041-0.030 0.082-0.061 0.122-0.091 0.345-0.175 0.495-0.449 0.426-0.835-0.564-1.573-1.461-2.913-2.764-3.977-0.241-0.197-0.48-0.266-0.779-0.236-1.224 0.122-2.263 0.674-3.238 1.377-0.019 0.264-0.009 0.541-0.288 0.698zM10.784 15.19c0.064-0.082 0.141-0.154 0.12-0.268-0.084-0.455-0.171-0.909-0.257-1.363-0.058-0.52-0.096-1.041-0.108-1.564-0.013-0.546-0.285-0.776-0.826-0.725-0.478 0.045-0.941 0.154-1.392 0.318-0.227 0.082-0.384 0.212-0.48 0.443-1.286 3.080-0.937 5.974 0.978 8.693 0.24 0.341 0.551 0.566 0.976 0.644 0.272 0.050 0.267-0.058 0.202-0.248 0.058-0.407-0.050-0.83 0.035-1.222 0.187-0.863 0.332-1.74 0.675-2.563 0.068-0.162 0.087-0.305-0.023-0.479-0.379-0.602-0.341-1.095 0.101-1.664zM22.211 15.94c0.472-0.184 0.666-0.665 0.92-1.122-1.195-0.015-2.256-0.288-3.224-0.889-1.305-0.676-2.417-1.591-3.365-2.711-0.095-0.112-0.17-0.242-0.302-0.318-0.075-0.020-0.15-0.040-0.225-0.060-0.191 0.177-0.387 0.35-0.572 0.533-0.278 0.276-0.228 0.583 0.125 0.746 0.811 0.375 1.562 0.853 2.319 1.324 0.941 0.585 1.778 1.29 2.584 2.040 0.314 0.085 0.609 0.19 0.9 0.36 0.227 0.133 0.601 0.19 0.839 0.098zM16.529 9.419c0.943-0.652 1.93-1.199 3.157-1.387-0.099-0.080-0.129-0.113-0.166-0.132-1.094-0.548-2.251-0.847-3.474-0.909-0.232-0.012-0.322 0.107-0.392 0.294-0.25 0.668-0.085 1.299 0.164 1.921 0.159 0.396 0.356 0.458 0.71 0.213zM24.17 15.006c-0.016-0.041-0.032-0.081-0.049-0.122-0.058 0.089-0.116 0.178-0.174 0.268 0.002 0.043-0.014 0.071-0.060 0.076-0.114 0.006-0.227 0.011-0.341 0.017-0.286 0.262-0.434 0.631-0.696 0.909-0.229 0.243-0.402 0.477-0.263 0.838 0.046 0.119 0.050 0.286 0.001 0.402-0.167 0.401-0.025 0.741 0.15 1.088 0.148 0.293 0.273 0.596 0.303 0.929 0.009 0.101 0.033 0.204 0.142 0.254 0.539-0.948 0.856-1.971 0.984-3.049 0.064-0.534 0.148-1.073 0.003-1.61zM10.387 10.581c0.271-0.283 0.289-0.657 0.365-1.006 0.093-0.427 0.272-0.825 0.39-1.256-1.123 0.677-2.032 1.555-2.702 2.697 0.563-0.173 1.133-0.231 1.706-0.263 0.113-0.006 0.169-0.096 0.241-0.171zM16.232 23.826c0 0 0 0 0 0-0.588-0.419-1.172-0.972-1.721-1.597-0.049 0.001-0.101-0-0.156-0.005-0.315-0.026-0.606-0.090-0.846-0.308-0.106-0.096-0.238-0.090-0.356-0.063-0.612 0.136-1.234 0.173-1.857 0.212-0.108-0.003-0.217-0.006-0.325-0.009-0.010 0.075-0.021 0.15-0.031 0.224 0.052 0.314 0.195 0.539 0.481 0.726 0.225 0.147 0.464 0.243 0.698 0.348 1.435 0.649 2.937 0.907 4.508 0.708-0.1-0.159-0.24-0.219-0.394-0.237zM11.764 21.555c0.253 0.051 0.488-0.077 0.725-0.083 0.378-0.009 0.615-0.009 0.681-0.509 0.036-0.268 0.053-0.451-0.096-0.66-0.079-0.11-0.14-0.232-0.212-0.347-0.425-0.682-0.722-1.428-1.063-2.151-0.012-0.044-0.015-0.091-0.037-0.13-0.051-0.094-0.069-0.249-0.197-0.238-0.099 0.008-0.122 0.149-0.153 0.243-0.273 0.822-0.537 1.647-0.595 2.521 0.014 0.213 0.043 0.428-0.049 0.633-0 0.064-0.001 0.128-0.001 0.192 0.015 0.030 0.046 0.062 0.042 0.089-0.041 0.287 0.092 0.428 0.37 0.452 0.195-0.003 0.39-0.007 0.585-0.010zM11.223 12.084c0.028 0.853 0.145 1.694 0.355 2.521-0.006 0.116 0.036 0.205 0.16 0.219 0.107 0.011 0.156-0.078 0.204-0.154 0.2-0.315 0.406-0.627 0.596-0.949 0.194-0.328 0.479-0.597 0.621-0.959 0.329-0.325 0.288-0.936-0.086-1.054-0.463-0.146-0.932-0.279-1.421-0.318-0.063 0.006-0.127 0.012-0.19 0.018 0 0-0.007 0.007-0.007 0.007-0.021 0.020-0.041 0.039-0.062 0.059-0.087 0.057-0.195 0.096-0.208 0.223 0.011 0.034 0.023 0.068 0.034 0.101 0.001 0.095 0.003 0.19 0.004 0.285zM11.745 10.866c0.003 0.067 0.112 0.050 0.178 0.047 0.407 0.095 0.813 0.19 1.22 0.284 0.217 0.166 0.403 0.135 0.607-0.049 0.217-0.197 0.486-0.285 0.786-0.203 0.105 0.029 0.201 0.045 0.262-0.074 0.182-0.166 0.364-0.331 0.545-0.497 0.037-0.198-0.071-0.451 0.211-0.557-0.008-0.042-0.016-0.083-0.024-0.125-0.013-0.029-0.026-0.058-0.039-0.087-0.083-0.235-0.182-0.465-0.245-0.705-0.158-0.597-0.201-1.183 0.182-1.729 0.152-0.217-0.048-0.179-0.157-0.174-1.043 0.041-2.044 0.269-3.001 0.686-0.143 0.063-0.236 0.167-0.306 0.301-0.29 0.557-0.502 1.14-0.604 1.762-0.081 0.159-0.12 0.337-0.001 0.474 0.17 0.194 0.373 0.354 0.387 0.645zM22.2 18.577c-0.075-0.15-0.168-0.229-0.344-0.214-0.151 0.013-0.296 0.015-0.43-0.028l-0.466-0.34c-0.753 0.635-1.636 1.304-2.541 1.893 0.013-0.002 0.026-0.004 0.040-0.007-0.098 0.132-0.203 0.168-0.315 0.189-0 0.002-0.001 0.003-0.002 0.005-0.002 0-0.004 0.001-0.007 0.001-0.064 0.11-0.167 0.149-0.315 0.188 0-0 0-0 0.001-0.001-0.901 0.543-1.799 0.982-2.59 1.203-0.009 0.117-0.043 0.238-0.104 0.362-0.007 0.014-0.014 0.027-0.021 0.040 0.066 0.061 0.133 0.121 0.202 0.181 0.006-0.003 0.013-0.006 0.019-0.008 0.001 0.009 0.002 0.019 0.004 0.028 0.075 0.064 0.151 0.128 0.229 0.19 0.053 0.005 0.095 0.025 0.106 0.084 0.602 0.467 1.301 0.875 2.111 1.187 0.158 0.061 0.32 0.118 0.486 0.171 1.791-0.53 3.206-1.604 4.334-3.095 0.088-0.134 0.165-0.276 0.118-0.443-0.152-0.535-0.264-1.082-0.515-1.585zM12.601 17.818c0.285 0.866 0.742 1.646 1.214 2.417 0.084 0.138 0.217 0.245 0.433 0.258 0.295 0.018 0.562 0.163 0.774 0.39 0.008 0.009 0.016 0.018 0.024 0.027 1.195-0.416 2.491-1.072 3.835-2.079 0.72-0.54 1.347-1.064 1.895-1.571-0.005-0.009-0.009-0.018-0.014-0.027-0-0-0-0-0-0 0.006 0.002 0.011 0.005 0.018 0.006 0.151-0.4 0.055-0.712-0.252-0.983-0.193-0.171-0.356-0.376-0.532-0.566l-0.001 0.001c-0.028-0.020-0.056-0.040-0.084-0.060-0.248-0.197-0.469-0.424-0.708-0.63-1.109-0.957-2.361-1.684-3.655-2.349-0.271-0.14-0.544-0.307-0.82 0.030-0.072 0.088-0.247 0.111-0.379 0.127-0.149 0.018-0.254 0.080-0.341 0.194-0.504 0.66-0.986 1.334-1.368 2.075-0.119 0.15 0.009 0.246 0.076 0.357 0.306 0.51 0.243 1.092-0.161 1.529-0.065 0.070-0.181 0.108-0.166 0.235z"></path>
</svg>
