<!-- Generated by IcoMoon.io -->
<svg version="1.1" xmlns="http://www.w3.org/2000/svg" width="32" height="32" viewBox="0 0 32 32">
<title>excel</title>
<path d="M22.798 8.416h4.296v2.067h-4.296zM22.798 11.693h4.296v2.067h-4.296zM22.798 14.97h4.296v2.067h-4.296zM22.798 18.246h4.296v2.067h-4.296zM22.798 21.523h4.296v2.067h-4.296zM17.904 4.973v-2.78l-16.483 2.78v22.269l16.483 2.78v-3.010h12.474v-22.039h-12.474zM13.091 20.522h-2.381l-1.348-2.356-1.281 2.061h-2.381l2.521-4.056-2.227-3.891h2.381l1.085 1.897 1.544-2.485h2.381l-2.784 4.479 2.489 4.35zM29.231 25.864h-11.326v-2.275h3.233v-2.067h-3.233v-1.21h3.233v-2.067h-3.233v-1.21h3.233v-2.066h-3.233v-1.21h3.233v-2.067h-3.233v-1.21h3.233v-2.067h-3.233v-2.461h11.326v19.909z"></path>
</svg>
