<!-- Generated by IcoMoon.io -->
<svg version="1.1" xmlns="http://www.w3.org/2000/svg" width="32" height="32" viewBox="0 0 32 32">
<title>facebook</title>
<path d="M29 0h-26c-1.65 0-3 1.35-3 3v26c0 1.65 1.35 3 3 3h26c1.65 0 3-1.35 3-3v-26c0-1.65-1.35-3-3-3zM29.5 25.5h-7.5v1h7.5v1h-7.5v1h7.5v1h-7.5v0.5h-6v-0.5h-13.5v-1h13.5v-1h-13.5v-1h13.5v-1h-13.5v-1h13.5v-8.5h-2.891v-4.58h2.891v-2.975c0-4.042 1.744-6.445 6.496-6.445h5.476v4.955h-4.473c-1.328-0.002-1.492 0.692-1.492 1.985l-0.007 2.48h6l-0.794 4.58h-5.206v8.5h7.5v1z"></path>
</svg>
