<!-- Generated by IcoMoon.io -->
<svg version="1.1" xmlns="http://www.w3.org/2000/svg" width="27" height="32" viewBox="0 0 27 32">
<title>facebook-official</title>
<path d="M25.911 2.286q0.625 0 1.071 0.446t0.446 1.071v24.393q0 0.625-0.446 1.071t-1.071 0.446h-6.982v-10.625h3.554l0.536-4.143h-4.089v-2.643q0-1 0.42-1.5t1.634-0.5l2.179-0.018v-3.696q-1.125-0.161-3.179-0.161-2.429 0-3.884 1.429t-1.455 4.036v3.054h-3.571v4.143h3.571v10.625h-13.125q-0.625 0-1.071-0.446t-0.446-1.071v-24.393q0-0.625 0.446-1.071t1.071-0.446h24.393z"></path>
</svg>
