<!-- Generated by IcoMoon.io -->
<svg version="1.1" xmlns="http://www.w3.org/2000/svg" width="32" height="32" viewBox="0 0 32 32">
<title>fcm</title>
<path d="M25.807 12.414c-0.907-4.589-4.952-8.050-9.807-8.050-4.14 0-7.691 2.516-9.211 6.101-3.842 0.585-6.789 3.711-6.789 7.717 0 4.418 3.582 8 8 8 0 0 16.969 0 17 0 3.866 0 7-3.134 7-7 0-3.593-2.708-6.368-6.193-6.768zM16 22.182c-0.804 0-1.455-0.651-1.455-1.455h2.909c0 0.804-0.651 1.455-1.455 1.455zM21.091 20h-10.182v-0.6l1.199-1.199v-3.292c0-1.838 1.273-3.377 2.992-3.784v-0.407c0-0.498 0.402-0.899 0.899-0.899s0.899 0.402 0.899 0.899v0.407c1.72 0.407 2.992 1.946 2.992 3.784v3.292l1.199 1.199v0.6z"></path>
</svg>
