<!-- Generated by IcoMoon.io -->
<svg version="1.1" xmlns="http://www.w3.org/2000/svg" width="24" height="24" viewBox="0 0 24 24">
<title>flow</title>
<path d="M18 16.184v-1.851c0-1.93-1.57-3.5-3.5-3.5-0.827 0-1.5-0.673-1.5-1.5v-1.517c1.161-0.415 2-1.514 2-2.816 0-1.654-1.346-3-3-3s-3 1.346-3 3c0 1.302 0.839 2.401 2 2.815v1.518c0 0.827-0.673 1.5-1.5 1.5-1.93 0-3.5 1.57-3.5 3.5v1.851c-1.161 0.415-2 1.514-2 2.816 0 1.654 1.346 3 3 3s3-1.346 3-3c0-1.302-0.839-2.401-2-2.816v-1.851c0-0.827 0.673-1.5 1.5-1.5 0.979 0 1.864-0.407 2.5-1.058 0.636 0.651 1.521 1.058 2.5 1.058 0.827 0 1.5 0.673 1.5 1.5v1.851c-1.161 0.415-2 1.514-2 2.816 0 1.654 1.346 3 3 3s3-1.346 3-3c0-1.302-0.839-2.401-2-2.816zM7 20c-0.552 0-1-0.449-1-1s0.448-1 1-1 1 0.449 1 1-0.448 1-1 1zM12 4c0.552 0 1 0.449 1 1s-0.448 1-1 1-1-0.449-1-1 0.448-1 1-1zM17 20c-0.552 0-1-0.449-1-1s0.448-1 1-1 1 0.449 1 1-0.448 1-1 1z"></path>
</svg>
