<!-- Generated by IcoMoon.io -->
<svg version="1.1" xmlns="http://www.w3.org/2000/svg" width="32" height="32" viewBox="0 0 32 32">
<title>freshchat</title>
<path d="M14.224 0.090c0.007 0.081-0.042 0.088-0.488 0.071-0.449-0.016-0.497-0.009-0.513 0.077-0.016 0.084-0.060 0.093-0.364 0.078-0.279-0.014-0.345-0.003-0.345 0.059 0 0.097-0.116 0.143-0.21 0.083-0.135-0.085-0.395-0.057-0.387 0.042 0.006 0.078-0.033 0.087-0.313 0.072-0.267-0.015-0.321-0.004-0.321 0.064 0 0.062-0.051 0.082-0.205 0.082-0.148 0-0.205 0.021-0.205 0.077 0 0.057-0.060 0.077-0.234 0.077-0.143 0-0.221 0.020-0.202 0.051s-0.056 0.054-0.189 0.057c-0.122 0.003-0.181 0.017-0.131 0.030 0.198 0.052 0.098 0.172-0.114 0.138-0.162-0.026-0.211-0.015-0.236 0.051-0.018 0.046-0.085 0.083-0.149 0.083-0.080 0-0.115 0.028-0.11 0.090 0.005 0.068-0.026 0.086-0.128 0.076-0.086-0.009-0.147 0.016-0.167 0.068-0.023 0.061-0.070 0.074-0.181 0.049-0.134-0.030-0.147-0.021-0.122 0.076 0.025 0.094 0.012 0.104-0.1 0.076-0.099-0.025-0.134-0.010-0.154 0.068s-0.058 0.095-0.161 0.075c-0.111-0.021-0.134-0.007-0.134 0.082 0 0.092-0.022 0.103-0.154 0.077-0.098-0.020-0.154-0.010-0.154 0.027 0 0.032-0.043 0.058-0.095 0.058-0.109 0-0.316 0.163-0.316 0.25 0 0.032-0.069 0.058-0.154 0.058-0.103 0-0.154 0.026-0.154 0.077 0 0.044-0.046 0.077-0.109 0.077-0.060 0-0.163 0.058-0.228 0.128s-0.146 0.128-0.178 0.128c-0.033 0-0.046 0.035-0.030 0.077 0.022 0.058-0.008 0.077-0.123 0.077-0.101 0-0.152 0.026-0.152 0.077 0 0.042-0.023 0.077-0.051 0.077s-0.051 0.035-0.051 0.079c0 0.105-0.138 0.153-0.227 0.078-0.055-0.045-0.081-0.045-0.11 0.002-0.023 0.038-0.017 0.048 0.018 0.027 0.030-0.019 0.070-0.011 0.088 0.018 0.019 0.030-0.023 0.052-0.099 0.052-0.083 0-0.131 0.029-0.131 0.077 0 0.042-0.033 0.077-0.073 0.077s-0.088 0.068-0.106 0.15c-0.038 0.175-0.246 0.33-0.383 0.286-0.053-0.017-0.111-0.007-0.128 0.022-0.019 0.031-0 0.040 0.047 0.022 0.044-0.017 0.080-0.005 0.080 0.026s-0.069 0.057-0.154 0.057c-0.103 0-0.154 0.026-0.154 0.077 0 0.042-0.025 0.077-0.055 0.077-0.071 0-0.201 0.13-0.201 0.201 0 0.030-0.035 0.055-0.077 0.055s-0.077 0.035-0.077 0.077c0 0.042-0.035 0.077-0.077 0.077s-0.077 0.035-0.077 0.077c0 0.042-0.025 0.077-0.055 0.077-0.071 0-0.201 0.13-0.201 0.201 0 0.030-0.035 0.055-0.077 0.055-0.052 0-0.077 0.052-0.077 0.159 0 0.118-0.019 0.152-0.074 0.131-0.048-0.018-0.065-0.004-0.047 0.042 0.043 0.113-0.129 0.326-0.292 0.361-0.083 0.018-0.15 0.066-0.15 0.106s-0.032 0.073-0.070 0.073c-0.043 0-0.084 0.083-0.104 0.21-0.024 0.149-0.063 0.218-0.135 0.237-0.056 0.014-0.101 0.047-0.101 0.072s-0.035 0.045-0.077 0.045c-0.051 0-0.077 0.051-0.077 0.154 0 0.085-0.024 0.154-0.054 0.154-0.099 0-0.268 0.198-0.237 0.278 0.017 0.043 0.010 0.091-0.015 0.106s-0.056-0.013-0.069-0.062c-0.015-0.056-0.026-0.037-0.030 0.051-0.004 0.093-0.034 0.141-0.089 0.141-0.063 0-0.077 0.037-0.060 0.154 0.018 0.123 0.004 0.154-0.071 0.154-0.052 0-0.094 0.036-0.094 0.080s-0.023 0.066-0.052 0.048c-0.029-0.018-0.066 0.038-0.083 0.125s-0.053 0.157-0.080 0.157c-0.026 0-0.041 0.075-0.032 0.167 0.013 0.136-0.001 0.165-0.078 0.159s-0.088 0.017-0.062 0.12c0.025 0.1 0.010 0.133-0.072 0.155s-0.097 0.054-0.071 0.158c0.029 0.115 0.019 0.127-0.079 0.101-0.103-0.027-0.109-0.015-0.079 0.146 0.026 0.141 0.017 0.175-0.051 0.175-0.064 0-0.076 0.031-0.051 0.131 0.027 0.106 0.012 0.137-0.076 0.16-0.060 0.016-0.109 0.069-0.109 0.12s-0.038 0.106-0.083 0.123c-0.066 0.025-0.077 0.075-0.051 0.236 0.029 0.181 0.021 0.204-0.071 0.204-0.080 0-0.103 0.034-0.103 0.151 0 0.083-0.023 0.165-0.051 0.183s-0.051 0.097-0.051 0.177c0 0.082-0.034 0.158-0.077 0.175-0.054 0.021-0.077 0.105-0.077 0.282 0 0.185-0.022 0.261-0.083 0.284-0.067 0.025-0.076 0.076-0.048 0.262 0.031 0.209 0.025 0.23-0.071 0.23-0.12 0-0.146 0.188-0.051 0.366 0.062 0.115-0.026 0.274-0.12 0.216-0.035-0.022-0.045 0.076-0.028 0.296 0.030 0.378 0.012 0.456-0.099 0.456-0.068 0-0.076 0.066-0.055 0.449 0.029 0.52 0.013 0.609-0.093 0.522-0.062-0.051-0.072 0.203-0.072 1.748s0.010 1.799 0.072 1.748c0.105-0.087 0.122 0.002 0.093 0.514-0.023 0.414-0.018 0.443 0.082 0.469s0.105 0.053 0.076 0.4c-0.021 0.253-0.014 0.362 0.022 0.339 0.094-0.058 0.182 0.1 0.12 0.215-0.095 0.178-0.069 0.366 0.051 0.366 0.096 0 0.103 0.021 0.071 0.23-0.028 0.186-0.019 0.236 0.048 0.262 0.060 0.023 0.083 0.099 0.083 0.284 0 0.177 0.023 0.261 0.077 0.282 0.043 0.017 0.077 0.093 0.077 0.175 0 0.080 0.023 0.16 0.051 0.177s0.051 0.1 0.051 0.183c0 0.117 0.023 0.151 0.103 0.151 0.092 0 0.099 0.023 0.071 0.204-0.026 0.162-0.015 0.211 0.051 0.236 0.046 0.018 0.083 0.073 0.083 0.123s0.049 0.104 0.109 0.12c0.088 0.023 0.102 0.054 0.076 0.16-0.025 0.101-0.013 0.131 0.051 0.131 0.067 0 0.077 0.034 0.051 0.175-0.030 0.161-0.024 0.173 0.079 0.146 0.098-0.026 0.108-0.014 0.079 0.101-0.026 0.103-0.011 0.136 0.071 0.158s0.097 0.055 0.072 0.155c-0.026 0.103-0.014 0.126 0.062 0.12s0.091 0.023 0.078 0.159c-0.009 0.092 0.006 0.167 0.032 0.167s0.062 0.071 0.080 0.157c0.018 0.087 0.054 0.143 0.083 0.125s0.052 0.004 0.052 0.048 0.042 0.080 0.094 0.080c0.075 0 0.089 0.031 0.071 0.154-0.017 0.117-0.003 0.154 0.060 0.154 0.055 0 0.085 0.048 0.089 0.141 0.004 0.088 0.015 0.107 0.030 0.051 0.013-0.050 0.044-0.078 0.069-0.062s0.032 0.063 0.015 0.106c-0.030 0.080 0.139 0.278 0.237 0.278 0.029 0 0.054 0.069 0.054 0.154 0 0.103 0.026 0.154 0.077 0.154 0.042 0 0.077 0.020 0.077 0.045s0.046 0.057 0.101 0.072c0.072 0.019 0.111 0.087 0.135 0.237 0.020 0.128 0.061 0.21 0.104 0.21 0.039 0 0.070 0.033 0.070 0.073s0.068 0.088 0.15 0.106c0.163 0.036 0.336 0.249 0.292 0.361-0.017 0.046-0.001 0.060 0.047 0.042 0.055-0.021 0.074 0.013 0.074 0.131 0 0.107 0.025 0.159 0.077 0.159 0.042 0 0.077 0.025 0.077 0.055 0 0.071 0.13 0.201 0.201 0.201 0.030 0 0.055 0.035 0.055 0.077s0.035 0.077 0.077 0.077c0.042 0 0.077 0.035 0.077 0.077s0.035 0.077 0.077 0.077c0.042 0 0.077 0.025 0.077 0.055 0 0.071 0.13 0.201 0.201 0.201 0.030 0 0.055 0.035 0.055 0.077 0 0.051 0.051 0.077 0.154 0.077 0.085 0 0.154 0.026 0.154 0.057s-0.036 0.043-0.080 0.026c-0.047-0.018-0.066-0.009-0.047 0.022 0.018 0.029 0.076 0.039 0.128 0.022 0.138-0.044 0.345 0.111 0.383 0.286 0.018 0.083 0.066 0.15 0.106 0.15s0.073 0.035 0.073 0.077c0 0.048 0.049 0.077 0.131 0.077 0.076 0 0.118 0.022 0.099 0.052-0.018 0.029-0.057 0.037-0.088 0.018-0.034-0.021-0.041-0.011-0.018 0.027 0.029 0.047 0.055 0.047 0.11 0.002 0.089-0.074 0.227-0.027 0.227 0.078 0 0.043 0.023 0.079 0.051 0.079s0.051 0.035 0.051 0.077c0 0.052 0.052 0.077 0.159 0.077 0.12 0 0.152 0.019 0.13 0.077-0.016 0.042-0.006 0.077 0.023 0.077s0.106 0.058 0.171 0.128 0.168 0.128 0.228 0.128c0.063 0 0.109 0.033 0.109 0.077 0 0.051 0.051 0.077 0.154 0.077 0.085 0 0.154 0.026 0.154 0.058 0 0.086 0.207 0.25 0.316 0.25 0.052 0 0.095 0.026 0.095 0.058 0 0.037 0.056 0.047 0.154 0.027 0.132-0.026 0.154-0.015 0.154 0.077 0 0.088 0.024 0.103 0.134 0.082 0.103-0.020 0.141-0.002 0.161 0.075 0.020 0.078 0.055 0.093 0.154 0.068 0.111-0.028 0.124-0.018 0.1 0.076-0.025 0.097-0.012 0.105 0.122 0.076 0.111-0.024 0.158-0.012 0.181 0.049 0.020 0.052 0.081 0.077 0.167 0.068 0.102-0.010 0.133 0.008 0.128 0.076-0.005 0.061 0.030 0.090 0.11 0.090 0.064 0 0.131 0.038 0.149 0.083 0.025 0.066 0.075 0.077 0.236 0.051 0.212-0.034 0.312 0.087 0.114 0.138-0.049 0.013 0.010 0.026 0.131 0.029 0.153 0.004 0.21 0.024 0.184 0.065-0.027 0.044 0.035 0.051 0.233 0.027 0.24-0.028 0.273-0.021 0.296 0.069 0.018 0.071 0.070 0.101 0.174 0.101 0.101 0 0.148 0.026 0.148 0.082 0 0.068 0.053 0.079 0.321 0.064 0.28-0.016 0.32-0.007 0.313 0.072-0.008 0.099 0.252 0.128 0.387 0.042 0.094-0.060 0.21-0.014 0.21 0.083 0 0.062 0.066 0.073 0.345 0.059 0.303-0.015 0.348-0.006 0.364 0.078 0.017 0.086 0.064 0.093 0.513 0.077 0.447-0.016 0.495-0.009 0.488 0.072-0.007 0.084 0.108 0.090 1.751 0.090s1.757-0.006 1.751-0.090c-0.007-0.081 0.042-0.088 0.5-0.071 0.393 0.015 0.498 0.005 0.468-0.044-0.067-0.108 0.084-0.15 0.421-0.118 0.277 0.026 0.322 0.018 0.322-0.054 0-0.046 0.026-0.084 0.057-0.084 0.033 0 0.042 0.038 0.023 0.090-0.027 0.072-0.021 0.077 0.030 0.026 0.035-0.035 0.162-0.064 0.282-0.064 0.186 0 0.219-0.017 0.233-0.115 0.017-0.117 0.046-0.122 0.307-0.061 0.107 0.025 0.14 0.012 0.154-0.061 0.015-0.076 0.058-0.091 0.236-0.078 0.17 0.012 0.217-0.002 0.217-0.065 0-0.060 0.053-0.081 0.205-0.081 0.149 0 0.205-0.021 0.205-0.078 0-0.062 0.042-0.071 0.202-0.045 0.189 0.030 0.2 0.025 0.172-0.081-0.028-0.108-0.019-0.111 0.208-0.077 0.193 0.029 0.243 0.020 0.269-0.047 0.019-0.050 0.091-0.083 0.18-0.083 0.098 0 0.148-0.026 0.148-0.077 0-0.042 0.043-0.077 0.097-0.077 0.055 0 0.109-0.046 0.125-0.106 0.023-0.089 0.045-0.097 0.131-0.051 0.143 0.076 0.155 0.071 0.123-0.055-0.026-0.1-0.014-0.108 0.133-0.078 0.14 0.028 0.162 0.018 0.162-0.074 0-0.087 0.023-0.101 0.122-0.076 0.095 0.024 0.129 0.007 0.15-0.076 0.023-0.090 0.053-0.101 0.185-0.072 0.090 0.020 0.157 0.014 0.157-0.014 0-0.027 0.071-0.063 0.157-0.080s0.143-0.055 0.125-0.083c-0.018-0.029-0.010-0.052 0.016-0.052s0.061-0.048 0.076-0.107c0.024-0.090 0.053-0.102 0.185-0.073 0.124 0.027 0.157 0.017 0.157-0.046 0-0.045 0.023-0.081 0.051-0.081s0.051-0.037 0.051-0.082c0-0.061 0.032-0.075 0.118-0.053 0.129 0.032 0.292-0.11 0.292-0.254 0-0.063 0.034-0.073 0.154-0.047s0.154 0.016 0.154-0.047c0-0.045 0.033-0.081 0.073-0.081s0.103-0.070 0.141-0.156c0.055-0.125 0.091-0.15 0.185-0.127 0.077 0.019 0.127 0.003 0.147-0.049 0.016-0.043 0.062-0.078 0.101-0.078s0.071-0.035 0.071-0.077 0.034-0.077 0.076-0.077c0.042 0 0.090-0.055 0.107-0.123 0.046-0.184 0.234-0.324 0.404-0.302 0.114 0.015 0.138 0.002 0.114-0.060-0.019-0.051-0.002-0.079 0.048-0.079 0.075 0 0.226-0.116 0.226-0.174 0-0.036 0.354-0.39 0.39-0.39 0.058 0 0.174-0.15 0.174-0.226 0-0.051 0.029-0.068 0.081-0.048 0.064 0.025 0.078 0 0.064-0.117-0.020-0.173 0.115-0.356 0.296-0.401 0.067-0.017 0.123-0.065 0.123-0.107s0.035-0.076 0.077-0.076 0.077-0.035 0.077-0.077 0.037-0.077 0.082-0.077c0.062 0 0.075-0.031 0.051-0.125-0.026-0.101-0.002-0.142 0.123-0.216 0.085-0.050 0.154-0.121 0.154-0.157s0.036-0.066 0.081-0.066c0.063 0 0.074-0.034 0.047-0.154s-0.016-0.154 0.047-0.154c0.144 0 0.286-0.163 0.254-0.292-0.022-0.087-0.008-0.118 0.053-0.118 0.045 0 0.082-0.023 0.082-0.051s0.036-0.051 0.080-0.051c0.059 0 0.076-0.043 0.064-0.167-0.013-0.133 0.002-0.165 0.074-0.16 0.049 0.004 0.090-0.026 0.090-0.067s0.023-0.060 0.052-0.042c0.029 0.018 0.066-0.038 0.083-0.125s0.053-0.157 0.080-0.157c0.028 0 0.034-0.068 0.014-0.157-0.029-0.132-0.017-0.162 0.072-0.185 0.083-0.022 0.1-0.055 0.076-0.15-0.025-0.1-0.011-0.122 0.078-0.122 0.092 0 0.104-0.021 0.075-0.136-0.030-0.121-0.022-0.133 0.076-0.107 0.122 0.032 0.138-0.019 0.055-0.174-0.046-0.086-0.038-0.108 0.049-0.13 0.084-0.022 0.098-0.056 0.074-0.176-0.025-0.127-0.014-0.148 0.079-0.148 0.073 0 0.109-0.032 0.109-0.097 0-0.053 0.038-0.112 0.083-0.129 0.066-0.025 0.077-0.075 0.051-0.236-0.029-0.181-0.021-0.204 0.070-0.204 0.077 0 0.103-0.034 0.103-0.131 0-0.091 0.019-0.119 0.064-0.093 0.044 0.026 0.042 0.011-0.006-0.048-0.046-0.057-0.050-0.087-0.013-0.087 0.032 0 0.058-0.067 0.058-0.148s0.030-0.16 0.067-0.174c0.040-0.015 0.072-0.127 0.080-0.274 0.008-0.16 0.041-0.264 0.092-0.293 0.061-0.034 0.071-0.095 0.045-0.27-0.031-0.204-0.024-0.225 0.072-0.225 0.12 0 0.146-0.188 0.051-0.366-0.062-0.116 0.026-0.274 0.12-0.215 0.036 0.023 0.044-0.086 0.022-0.339-0.029-0.347-0.024-0.374 0.076-0.4s0.105-0.055 0.082-0.469c-0.028-0.512-0.012-0.601 0.093-0.514 0.062 0.051 0.072-0.987 0.072-7.274 0-6.821-0.006-7.333-0.086-7.327-0.072 0.006-0.084-0.039-0.073-0.288 0.010-0.239-0.003-0.295-0.068-0.295-0.052 0-0.081-0.046-0.081-0.127 0-0.087-0.022-0.118-0.072-0.099-0.095 0.036-0.161-0.075-0.088-0.148 0.085-0.085 0.069-0.139-0.042-0.139-0.125 0-0.187-0.093-0.111-0.169 0.103-0.103 0.060-0.185-0.112-0.217-0.179-0.034-0.337-0.27-0.263-0.391 0.026-0.043 0.010-0.050-0.055-0.026-0.080 0.030-0.083 0.024-0.025-0.045 0.056-0.067 0.055-0.078-0.006-0.065-0.041 0.009-0.066-0.016-0.057-0.057 0.013-0.060 0.002-0.062-0.065-0.006-0.070 0.058-0.076 0.054-0.045-0.025 0.025-0.065 0.017-0.081-0.026-0.055-0.123 0.076-0.357-0.084-0.392-0.268-0.025-0.131-0.054-0.168-0.119-0.149-0.222 0.063-0.238 0.060-0.256-0.057-0.013-0.088-0.041-0.11-0.104-0.086-0.154 0.060-0.188 0.053-0.181-0.038 0.005-0.062-0.030-0.090-0.115-0.090-0.077 0-0.123-0.030-0.123-0.081 0-0.065-0.056-0.078-0.295-0.068-0.249 0.011-0.294-0.001-0.288-0.073 0.007-0.080-0.505-0.086-7.315-0.086-6.942 0-7.321 0.005-7.315 0.090zM21.985 9.487c0.024 0.091 0.194 0.139 0.387 0.109 0.021-0.003 0.033 0.023 0.026 0.058-0.008 0.042 0.050 0.064 0.167 0.064s0.175 0.023 0.167 0.064c-0.008 0.040 0.045 0.064 0.141 0.064 0.103 0 0.154 0.026 0.154 0.077 0 0.042 0.023 0.077 0.051 0.077s0.051 0.035 0.051 0.077c0 0.075 0.058 0.099 0.196 0.080 0.099-0.013 0.325 0.147 0.289 0.205-0.017 0.027-0.006 0.049 0.024 0.049s0.054 0.030 0.054 0.067c0 0.037 0.081 0.096 0.18 0.132s0.18 0.098 0.18 0.138 0.025 0.074 0.055 0.074c0.035 0 0.043 0.057 0.022 0.154-0.026 0.12-0.016 0.154 0.047 0.154 0.045 0 0.081 0.023 0.081 0.051s0.017 0.049 0.038 0.045c0.141-0.022 0.173 0.014 0.141 0.16-0.021 0.097-0.013 0.154 0.022 0.154 0.030 0 0.055 0.046 0.055 0.103 0 0.069 0.034 0.103 0.104 0.103 0.096 0 0.101 0.022 0.070 0.259-0.027 0.206-0.020 0.256 0.037 0.244 0.050-0.011 0.076 0.049 0.087 0.203 0.010 0.14 0.040 0.218 0.084 0.218 0.096 0 0.14 0.143 0.079 0.257-0.065 0.121-0.068 4.662-0.004 4.764 0.060 0.095 0.013 0.21-0.085 0.21-0.064 0-0.072 0.046-0.045 0.253 0.030 0.227 0.023 0.256-0.075 0.287-0.092 0.029-0.104 0.061-0.076 0.209 0.029 0.152 0.019 0.174-0.072 0.174-0.117 0-0.134 0.052-0.048 0.139 0.042 0.042 0.029 0.075-0.051 0.125-0.060 0.037-0.109 0.108-0.109 0.158s-0.035 0.090-0.077 0.090c-0.042 0-0.077 0.023-0.077 0.051s-0.035 0.051-0.077 0.051c-0.042 0-0.077 0.032-0.077 0.071s-0.036 0.085-0.081 0.102c-0.052 0.020-0.069 0.066-0.049 0.13 0.040 0.125-0.293 0.477-0.409 0.433-0.049-0.019-0.077 0.001-0.077 0.053 0 0.054-0.045 0.082-0.128 0.082-0.070 0-0.126 0.017-0.123 0.038 0.025 0.173-0.078 0.277-0.243 0.246-0.135-0.025-0.172-0.015-0.172 0.047 0 0.050-0.047 0.079-0.128 0.079-0.080 0-0.128 0.029-0.128 0.077s-0.048 0.077-0.128 0.077c-0.080 0-0.128 0.029-0.128 0.077 0 0.056-0.058 0.077-0.218 0.077-0.164 0-0.235 0.026-0.283 0.104-0.051 0.082-0.085 0.093-0.163 0.051-0.065-0.035-2.124-0.052-6.153-0.052-4.002 0-6.055-0.017-6.055-0.051 0-0.028-0.072-0.051-0.16-0.051-0.143 0-0.157-0.014-0.135-0.129 0.021-0.108 0.012-0.119-0.050-0.067-0.059 0.049-0.072 0.047-0.064-0.012 0.022-0.157-0.005-0.247-0.079-0.263-0.064-0.014-0.125-6.025-0.078-7.619 0.001-0.035 0.039-0.064 0.084-0.064 0.068 0 0.079-0.054 0.064-0.321-0.015-0.279-0.006-0.32 0.072-0.313 0.071 0.006 0.089-0.034 0.089-0.192 0-0.11 0.023-0.199 0.051-0.199s0.051-0.069 0.051-0.154c0-0.103 0.026-0.154 0.077-0.154 0.042 0 0.077-0.023 0.077-0.051s0.035-0.051 0.077-0.051c0.051 0 0.077-0.051 0.077-0.154s0.026-0.154 0.077-0.154c0.042 0 0.077-0.035 0.077-0.077s0.023-0.077 0.051-0.077c0.028 0 0.051-0.058 0.051-0.128s0.017-0.128 0.038-0.128c0.021-0 0.085-0.069 0.141-0.154 0.072-0.108 0.144-0.154 0.244-0.154 0.078 0 0.141-0.023 0.141-0.051s0.035-0.051 0.077-0.051c0.042 0 0.077-0.035 0.077-0.077s0.023-0.077 0.051-0.077c0.028 0 0.051-0.048 0.051-0.107 0-0.092 0.021-0.102 0.154-0.073 0.12 0.026 0.154 0.016 0.154-0.047 0-0.056 0.048-0.081 0.154-0.081 0.085 0 0.154-0.023 0.154-0.051s0.046-0.051 0.103-0.051c0.070 0 0.103-0.034 0.103-0.107 0-0.096 0.021-0.104 0.201-0.073 0.154 0.026 0.211 0.015 0.245-0.047 0.040-0.072 0.557-0.082 4.94-0.094 2.693-0.007 4.938-0.019 4.99-0.026 0.058-0.008 0.105 0.027 0.121 0.090zM11.95 12.705c0.127-0.050 10.083-0.041 10.004 0.009-0.109 0.069-0.031 0.196 0.145 0.234 0.087 0.019 0.157 0.067 0.157 0.107s0.035 0.073 0.077 0.073c0.058 0 0.077 0.063 0.077 0.256s-0.019 0.256-0.077 0.256c-0.051 0-0.077 0.051-0.077 0.154s-0.026 0.154-0.077 0.154c-0.042 0-0.071 0.029-0.064 0.064 0.009 0.043-0.043 0.060-0.158 0.051-0.135-0.011-0.177 0.008-0.198 0.090-0.037 0.14-9.681 0.141-9.682 0.001-0-0.052-0.053-0.077-0.162-0.077-0.192 0-0.409-0.207-0.324-0.309 0.066-0.079 0.011-0.23-0.083-0.23-0.039 0-0.071-0.046-0.071-0.103s0.029-0.097 0.064-0.090c0.038 0.008 0.070-0.053 0.080-0.149 0.011-0.112 0.048-0.17 0.121-0.189 0.058-0.015 0.095-0.058 0.083-0.095-0.024-0.073 0.047-0.163 0.166-0.209zM11.811 16.586c0.106-0.121 6.54-0.105 6.585 0.016 0.044 0.117 0.171 0.214 0.284 0.216 0.098 0.002 0.12 0.079 0.037 0.131-0.051 0.031-0.038 0.282 0.031 0.628 0.022 0.112 0.014 0.167-0.027 0.167-0.033 0-0.047-0.022-0.031-0.048s0.006-0.062-0.023-0.080c-0.029-0.018-0.052 0.014-0.052 0.072 0 0.071-0.024 0.095-0.077 0.074-0.045-0.017-0.077-0.001-0.077 0.040 0 0.058-0.569 0.070-3.385 0.070-2.545 0-3.385-0.015-3.385-0.060 0-0.033-0.027-0.069-0.060-0.080s-0.062-0.111-0.065-0.222c-0.003-0.131-0.027-0.198-0.068-0.189-0.035 0.007-0.063-0.033-0.063-0.088 0-0.069 0.025-0.092 0.077-0.072 0.060 0.023 0.077-0.012 0.077-0.158 0-0.103 0.021-0.175 0.046-0.16 0.053 0.033 0.188-0.113 0.144-0.157-0.016-0.016-0.002-0.061 0.031-0.099z"></path>
<path d="M13.804 0.087c-0.015-0.080 0.013-0.091 0.204-0.077 0.156 0.011 0.222 0.039 0.222 0.093 0 0.122-0.403 0.106-0.427-0.016zM28.843 0.056c0.044-0.072 0.115-0.071 0.16 0.001 0.044 0.071-0.089 0.16-0.15 0.099-0.024-0.024-0.029-0.070-0.010-0.1zM12.974 0.225c0-0.042 0.053-0.071 0.128-0.071 0.126 0 0.18 0.116 0.082 0.177-0.072 0.044-0.21-0.025-0.21-0.105zM12.256 0.379c0-0.042 0.053-0.071 0.128-0.071 0.133 0 0.182 0.127 0.064 0.168-0.095 0.033-0.192-0.015-0.192-0.096zM29.666 0.359c0.041-0.066 0.231-0.067 0.231-0.002 0 0.078-0.193 0.165-0.231 0.104-0.018-0.028-0.018-0.074-0-0.103zM11.702 0.5c-0.013-0.069 0.011-0.086 0.102-0.072 0.066 0.010 0.119 0.051 0.119 0.090 0 0.105-0.201 0.088-0.221-0.018zM29.949 0.51c0-0.12 0.144-0.133 0.189-0.017 0.032 0.084-0.075 0.187-0.148 0.142-0.022-0.014-0.041-0.070-0.041-0.125zM30.359 0.808c-0-0.056 0.039-0.090 0.102-0.090 0.057 0 0.103 0.034 0.103 0.077s0.035 0.077 0.077 0.077 0.077 0.035 0.077 0.077c0 0.094-0.041 0.096-0.22 0.013-0.076-0.035-0.138-0.104-0.138-0.154zM10.010 1.068c-0.012-0.063 0.011-0.078 0.089-0.058 0.058 0.015 0.106 0.061 0.106 0.102 0 0.103-0.174 0.063-0.195-0.045zM30.749 1.054c0.017-0.044 0.053-0.080 0.079-0.080s0.036 0.021 0.021 0.046c-0.035 0.056 0.096 0.171 0.142 0.125 0.019-0.019 0.034-0.009 0.034 0.021s-0.040 0.070-0.088 0.088c-0.048 0.019-0.072 0.017-0.052-0.003 0.048-0.048-0.064-0.181-0.122-0.145-0.025 0.015-0.031-0.008-0.014-0.052zM9.342 1.367c0.010 0.052 0.052 0.094 0.094 0.094 0.11 0 0.094-0.149-0.018-0.171-0.069-0.013-0.089 0.008-0.076 0.076zM30.974 1.323c0-0.023 0.035-0.041 0.077-0.041s0.077 0.035 0.077 0.077c0 0.042 0.035 0.077 0.077 0.077s0.077 0.046 0.077 0.103c0 0.152-0.168 0.127-0.244-0.036-0.035-0.076-0.064-0.157-0.064-0.179zM9.026 1.517c0 0.048 0.035 0.074 0.086 0.064 0.129-0.025 0.146-0.145 0.021-0.145-0.063 0-0.107 0.033-0.107 0.081zM8.777 1.618c0.010 0.050 0.049 0.102 0.087 0.114 0.044 0.015 0.063-0.010 0.051-0.068-0.010-0.050-0.049-0.102-0.087-0.114-0.044-0.015-0.063 0.010-0.051 0.068zM8.462 1.764c0 0.077 0.125 0.146 0.174 0.096 0.068-0.068 0.025-0.167-0.072-0.167-0.056 0-0.103 0.032-0.103 0.071zM8.214 1.932c-0.010-0.051 0.016-0.086 0.064-0.086s0.081 0.044 0.081 0.107c0 0.125-0.12 0.107-0.145-0.021zM31.361 1.895c0.050-0.081 0.2-0.035 0.219 0.068 0.012 0.061-0.016 0.089-0.086 0.089-0.118 0-0.183-0.077-0.133-0.157zM31.536 2.182c0.090-0.108 0.156-0.099 0.156 0.020 0 0.124-0.093 0.187-0.166 0.114-0.039-0.039-0.036-0.078 0.011-0.134zM7.487 2.334c0-0.042 0.035-0.077 0.077-0.077s0.077 0.035 0.077 0.077c0 0.042-0.035 0.077-0.077 0.077s-0.077-0.035-0.077-0.077zM6.633 2.906c0-0.038 0.030-0.068 0.066-0.068s0.078 0.031 0.092 0.068c0.016 0.041-0.010 0.068-0.066 0.068-0.051 0-0.092-0.031-0.092-0.068zM31.828 3.050c0.016-0.041 0.048-0.075 0.072-0.075 0.074 0 0.114 0.109 0.059 0.164-0.071 0.071-0.167 0.005-0.131-0.089zM6.199 3.192c0.009-0.093 0.211-0.079 0.211 0.014 0 0.043-0.059 0.101-0.132 0.128-0.177 0.067-0.21 0.063-0.21-0.026 0-0.059 0.016-0.063 0.071-0.017 0.039 0.033 0.067 0.038 0.062 0.012s-0.006-0.076-0.003-0.111zM5.487 3.772c0-0.052 0.047-0.080 0.132-0.080 0.177 0 0.148 0.133-0.055 0.247-0.085 0.047-0.162 0.104-0.171 0.125-0.030 0.068-0.145 0.041-0.145-0.034 0-0.040 0.031-0.060 0.068-0.046 0.044 0.017 0.068-0.013 0.068-0.085 0-0.061 0.023-0.097 0.051-0.079s0.051-0.004 0.051-0.048zM3.963 5.3c0.028 0.084 0.139 0.1 0.139 0.020 0-0.040-0.035-0.073-0.078-0.073s-0.071 0.024-0.061 0.052zM3.757 5.461c-0.086 0.098-0.082 0.282 0.007 0.282 0.073 0 0.237-0.211 0.237-0.306 0-0.078-0.169-0.061-0.244 0.024zM3.231 6.137c0-0.038 0.035-0.068 0.077-0.068 0.090 0 0.094 0.033 0.027 0.21-0.059 0.156-0.206 0.177-0.206 0.029 0-0.056 0.023-0.103 0.051-0.103s0.051-0.031 0.051-0.068zM2.821 6.727c0-0.052 0.035-0.094 0.077-0.094s0.077 0.042 0.077 0.094c0 0.052-0.035 0.094-0.077 0.094s-0.077-0.042-0.077-0.094zM2.257 7.564c0-0.042 0.032-0.077 0.071-0.077s0.085 0.035 0.101 0.077c0.020 0.052-0.003 0.077-0.071 0.077-0.055 0-0.101-0.035-0.101-0.077zM1.855 8.29c-0.013-0.069 0.008-0.089 0.076-0.076 0.052 0.010 0.094 0.052 0.094 0.094 0 0.11-0.149 0.094-0.171-0.018zM1.692 8.564c0-0.077 0.027-0.105 0.090-0.093 0.049 0.009 0.090 0.051 0.090 0.093s-0.040 0.083-0.090 0.093c-0.063 0.012-0.090-0.016-0.090-0.093zM1.551 8.833c-0.013-0.038 0.023-0.064 0.086-0.064s0.107 0.033 0.107 0.081c0 0.094-0.16 0.081-0.192-0.017zM1.436 9.128c0 0.057 0.034 0.103 0.077 0.103s0.077-0.046 0.077-0.103c0-0.057-0.034-0.103-0.077-0.103s-0.077 0.046-0.077 0.103zM1.282 9.44c0 0.073 0.028 0.101 0.089 0.089 0.134-0.026 0.149-0.196 0.017-0.196-0.073 0-0.106 0.033-0.106 0.106zM21.729 9.417c-0.088 0.088-0.029 0.173 0.121 0.173 0.122 0 0.154-0.020 0.141-0.090-0.017-0.092-0.196-0.149-0.262-0.083zM11.93 9.513c-0.020 0.052 0.003 0.077 0.072 0.077 0.056 0 0.101-0.035 0.101-0.077s-0.032-0.077-0.071-0.077c-0.039 0-0.085 0.035-0.101 0.077zM11.487 9.645c0 0.073 0.028 0.101 0.089 0.089 0.134-0.026 0.149-0.195 0.017-0.195-0.073 0-0.106 0.033-0.106 0.106zM22.271 9.659c0.027 0.082 0.122 0.095 0.122 0.017 0-0.038-0.031-0.070-0.070-0.070s-0.062 0.024-0.052 0.052zM22.564 9.769c0-0.049 0.033-0.078 0.080-0.068 0.111 0.023 0.118 0.114 0.010 0.135-0.056 0.011-0.090-0.014-0.090-0.067zM22.82 9.923c0-0.043 0.046-0.077 0.103-0.077s0.103 0.034 0.103 0.077c0 0.043-0.046 0.077-0.103 0.077s-0.103-0.034-0.103-0.077zM10.667 10.048c0-0.073 0.028-0.101 0.089-0.089 0.134 0.026 0.149 0.195 0.017 0.195-0.073 0-0.106-0.033-0.106-0.106zM0.989 10.101c0.009-0.127 0.156-0.114 0.181 0.015 0.012 0.061-0.016 0.089-0.086 0.089-0.072 0-0.101-0.031-0.095-0.104zM23.262 10.196c0.040-0.065 0.139-0.050 0.266 0.038 0.119 0.083 0.11 0.176-0.018 0.176-0.096 0-0.282-0.16-0.248-0.214zM10.026 10.564c0.056-0.084 0.143-0.154 0.192-0.154 0.11-0 0.119 0.095 0.013 0.135-0.042 0.016-0.077 0.059-0.077 0.095s-0.048 0.078-0.108 0.094c-0.059 0.016-0.093 0.053-0.074 0.083s-0.002 0.055-0.046 0.055c-0.044 0-0.080-0.035-0.080-0.077s0.017-0.077 0.038-0.077c0.021-0 0.085-0.069 0.141-0.154zM23.795 10.682c0 0.126 0.161 0.292 0.283 0.292 0.042 0 0.076-0.035 0.076-0.077s-0.023-0.077-0.051-0.077c-0.028 0-0.051-0.031-0.051-0.069s-0.058-0.095-0.128-0.127c-0.116-0.053-0.128-0.048-0.128 0.057zM24.275 11.255c-0.016 0.040 0.008 0.126 0.053 0.19s0.082 0.094 0.082 0.067 0.014-0.099 0.030-0.158c0.034-0.127-0.119-0.218-0.165-0.098zM0.599 11.316c0.057-0.058 0.12-0.038 0.12 0.037 0 0.039-0.035 0.085-0.077 0.101-0.077 0.030-0.109-0.072-0.043-0.138zM9.282 11.692c0-0.103 0.026-0.154 0.077-0.154 0.042 0 0.077 0.035 0.077 0.077s-0.023 0.077-0.051 0.077c-0.028 0-0.051 0.043-0.051 0.096s-0.035 0.125-0.077 0.16c-0.063 0.052-0.077 0.049-0.077-0.019 0-0.046 0.023-0.083 0.051-0.083s0.051-0.069 0.051-0.154zM0.423 11.818c0-0.166 0.159-0.152 0.183 0.016 0.012 0.085-0.009 0.115-0.083 0.115-0.073 0-0.1-0.035-0.1-0.131zM24.522 11.859c-0.013-0.089 0.009-0.115 0.093-0.115s0.106 0.027 0.093 0.115c-0.009 0.063-0.051 0.115-0.093 0.115s-0.084-0.052-0.093-0.115zM9.002 12.254c0.046-0.075 0.149-0.032 0.169 0.071 0.010 0.049-0.016 0.086-0.061 0.086-0.095 0-0.153-0.084-0.108-0.157zM0.308 12.382c0-0.142 0.125-0.172 0.175-0.042 0.036 0.094-0.060 0.238-0.129 0.195-0.025-0.016-0.046-0.084-0.046-0.153zM21.954 12.714c0.101-0.064 0.111-0.059 0.218 0.086 0.114 0.156 0.092 0.191-0.093 0.145-0.161-0.040-0.228-0.165-0.125-0.231zM24.82 12.821c0-0.097 0.026-0.154 0.071-0.154 0.087 0 0.141 0.125 0.101 0.231-0.054 0.139-0.172 0.086-0.172-0.077zM11.557 12.971c0.022-0.111 0.057-0.153 0.118-0.141 0.128 0.025 0.146 0.148 0.026 0.179-0.073 0.019-0.11 0.077-0.121 0.189-0.009 0.089-0.039 0.157-0.067 0.151-0.066-0.014-0.1-0.22-0.036-0.22 0.027 0 0.063-0.071 0.080-0.158zM8.843 12.995c0.060-0.238 0.183-0.145 0.183 0.137 0 0.22-0.014 0.258-0.090 0.243-0.099-0.019-0.141-0.19-0.093-0.38zM0.154 13.128c0-0.1 0.026-0.154 0.074-0.154 0.101 0 0.144 0.083 0.106 0.206-0.052 0.162-0.179 0.126-0.179-0.052zM11.436 13.667c0-0.143 0.124-0.177 0.174-0.047 0.039 0.101-0.003 0.175-0.1 0.175-0.045 0-0.074-0.051-0.074-0.128zM22.256 13.718c0 0.042 0.035 0.077 0.077 0.077s0.077-0.035 0.077-0.077c0-0.042-0.035-0.077-0.077-0.077s-0.077 0.035-0.077 0.077zM0 14.071c0-0.072 0.030-0.122 0.074-0.122 0.106 0 0.146 0.088 0.108 0.238-0.041 0.164-0.182 0.074-0.182-0.116zM11.882 14.084c0.062-0.062 0.185-0.011 0.198 0.083 0.009 0.064-0.022 0.090-0.111 0.090-0.118 0-0.166-0.095-0.088-0.173zM21.779 14.084c-0.081 0.081-0.029 0.173 0.096 0.173 0.098 0 0.128-0.023 0.115-0.089-0.018-0.093-0.149-0.145-0.211-0.084zM18.396 16.603c-0.045-0.12 0.13-0.121 0.27-0.001 0.127 0.109 0.134 0.22 0.013 0.218-0.112-0.002-0.24-0.099-0.284-0.216zM11.556 16.769c0.030-0.152 0.148-0.207 0.214-0.1 0.041 0.066-0.073 0.212-0.135 0.174-0.025-0.016-0.046 0.056-0.046 0.159 0 0.126-0.021 0.18-0.064 0.166-0.076-0.025-0.119-0.244-0.048-0.244 0.027 0 0.062-0.069 0.079-0.154zM18.695 16.969c0.091-0.147 0.176-0.032 0.176 0.236 0 0.211-0.019 0.282-0.073 0.282-0.101 0-0.179-0.394-0.103-0.518zM11.465 17.327c-0.016 0.026 0.006 0.113 0.048 0.193l0.077 0.146-0.012-0.171c-0.012-0.176-0.063-0.251-0.114-0.169zM24.82 17.769c0-0.076 0.029-0.128 0.073-0.128 0.082 0 0.129 0.096 0.094 0.192-0.043 0.117-0.166 0.069-0.166-0.064zM0.064 17.752c0.051-0.051 0.073-0.043 0.109 0.038 0.057 0.128 0.009 0.261-0.094 0.261-0.096 0-0.106-0.208-0.015-0.3zM31.818 17.813c0.027-0.107 0.046-0.119 0.107-0.068 0.098 0.081 0.098 0.306 0.001 0.306-0.106 0-0.146-0.088-0.108-0.238zM18.462 17.816c0 0.045 0.037 0.081 0.081 0.081 0.091 0 0.075-0.11-0.020-0.142-0.033-0.011-0.061 0.016-0.061 0.061zM12.034 17.88c-0.166 0.166-0.075 0.171 3.12 0.171 3.12 0 3.154-0.001 3.154-0.103 0-0.104-6.171-0.171-6.273-0.068zM24.667 18.333c0-0.094 0.027-0.128 0.103-0.128 0.125 0 0.142 0.179 0.021 0.225s-0.124 0.043-0.124-0.097zM24.513 18.714c0-0.073 0.028-0.101 0.089-0.089 0.134 0.026 0.149 0.195 0.017 0.195-0.073 0-0.106-0.033-0.106-0.106zM0.154 18.872c0-0.126 0.020-0.158 0.090-0.144 0.057 0.011 0.090 0.064 0.090 0.144s-0.033 0.133-0.090 0.144c-0.070 0.013-0.090-0.018-0.090-0.144zM31.659 18.795c0.055-0.142 0.187-0.088 0.187 0.077 0 0.104-0.026 0.154-0.079 0.154-0.093 0-0.15-0.122-0.108-0.231zM24.377 19.026c-0.017 0.085-0.051 0.154-0.076 0.154s-0.045 0.035-0.045 0.077 0.035 0.077 0.077 0.077c0.042 0 0.077-0.041 0.077-0.090s0.048-0.12 0.106-0.157c0.086-0.053 0.095-0.081 0.045-0.141-0.094-0.114-0.151-0.089-0.185 0.080zM0.343 19.469c0.059-0.059 0.176 0.097 0.141 0.189-0.049 0.129-0.176 0.105-0.176-0.034 0-0.066 0.016-0.136 0.035-0.155zM31.543 19.507c0.078-0.094 0.149-0.041 0.149 0.112 0 0.073-0.030 0.125-0.071 0.125-0.098 0-0.148-0.152-0.078-0.237zM23.808 19.789c0.007 0.025-0.056 0.105-0.14 0.178-0.112 0.097-0.137 0.148-0.096 0.189s0.107 0.007 0.242-0.129c0.21-0.21 0.232-0.285 0.083-0.285-0.056 0-0.097 0.021-0.090 0.046zM0.423 20.182c0-0.095 0.027-0.131 0.1-0.131 0.074 0 0.096 0.030 0.083 0.115-0.024 0.168-0.183 0.182-0.183 0.016zM31.394 20.166c-0.012-0.085 0.009-0.115 0.083-0.115 0.073 0 0.1 0.035 0.1 0.131 0 0.166-0.159 0.152-0.183-0.016zM8.84 20.382c0.049-0.127 0.186-0.087 0.186 0.054 0 0.077-0.029 0.128-0.074 0.128-0.095 0-0.148-0.087-0.112-0.182zM22.974 20.538c0-0.043 0.046-0.077 0.103-0.077s0.103 0.034 0.103 0.077c0 0.043-0.046 0.077-0.103 0.077s-0.103-0.034-0.103-0.077zM0.573 20.598c-0.012-0.059 0.008-0.076 0.064-0.054 0.095 0.036 0.111 0.192 0.017 0.161-0.035-0.012-0.072-0.060-0.081-0.107zM31.346 20.55c0.035-0.013 0.073-0.016 0.083-0.006 0.036 0.031-0.042 0.175-0.094 0.175-0.075 0-0.066-0.141 0.011-0.168zM9.060 20.752c-0.054 0.054-0.040 0.129 0.017 0.094 0.028-0.017 0.051 0.016 0.051 0.074 0 0.071 0.033 0.106 0.101 0.106 0.115 0 0.093-0.128-0.031-0.175-0.042-0.016-0.062-0.053-0.044-0.081 0.036-0.057-0.040-0.071-0.094-0.017zM22.154 20.949c0 0.042 0.035 0.077 0.077 0.077s0.077-0.035 0.077-0.077c0-0.042-0.035-0.077-0.077-0.077s-0.077 0.035-0.077 0.077zM21.59 21.097c0 0.096 0.127 0.14 0.199 0.068 0.092-0.092 0.067-0.14-0.071-0.14-0.075 0-0.128 0.029-0.128 0.071zM0.989 21.899c-0.005-0.073 0.023-0.104 0.095-0.104 0.070 0 0.098 0.028 0.086 0.089-0.025 0.13-0.172 0.142-0.181 0.015zM30.83 21.884c-0.012-0.061 0.016-0.089 0.086-0.089 0.072 0 0.101 0.031 0.095 0.104-0.009 0.127-0.156 0.114-0.181-0.015zM1.282 22.56c0 0.073 0.033 0.106 0.106 0.106s0.101-0.028 0.089-0.089c-0.026-0.134-0.196-0.149-0.196-0.017zM30.513 22.564c0 0.068 0.034 0.103 0.103 0.103s0.103-0.034 0.103-0.103c0-0.068-0.034-0.103-0.103-0.103s-0.103 0.034-0.103 0.103zM1.436 22.872c0 0.057 0.034 0.103 0.077 0.103s0.077-0.046 0.077-0.103c0-0.057-0.034-0.103-0.077-0.103s-0.077 0.046-0.077 0.103zM30.396 22.8c-0.050 0.050 0.019 0.174 0.096 0.174 0.039 0 0.071-0.046 0.071-0.103 0-0.097-0.1-0.139-0.167-0.072zM1.573 23.111c-0.065 0.065-0.034 0.12 0.068 0.12 0.057 0 0.103-0.034 0.103-0.077 0-0.078-0.108-0.105-0.171-0.043zM30.256 23.15c0 0.048 0.044 0.081 0.107 0.081 0.125 0 0.107-0.12-0.021-0.145-0.051-0.010-0.086 0.016-0.086 0.064zM1.692 23.436c0 0.077 0.027 0.105 0.090 0.093 0.049-0.009 0.090-0.051 0.090-0.093s-0.040-0.083-0.090-0.093c-0.063-0.012-0.090 0.016-0.090 0.093zM30.112 23.422c0.026 0.134 0.195 0.149 0.195 0.017 0-0.073-0.033-0.106-0.106-0.106s-0.101 0.028-0.089 0.089zM1.882 23.623c-0.071 0.070-0.034 0.179 0.054 0.162 0.049-0.009 0.090-0.050 0.090-0.089 0-0.081-0.091-0.127-0.144-0.073zM29.983 23.624c-0.071 0.070-0.030 0.171 0.068 0.171 0.068 0 0.103-0.034 0.103-0.103 0-0.099-0.1-0.139-0.171-0.068zM29.566 24.356c-0.045 0.073 0.012 0.157 0.108 0.157 0.045 0 0.071-0.036 0.061-0.086-0.020-0.103-0.122-0.146-0.169-0.071zM2.257 24.436c0-0.042 0.045-0.077 0.101-0.077 0.069 0 0.092 0.025 0.071 0.077-0.016 0.042-0.062 0.077-0.101 0.077s-0.071-0.035-0.071-0.077zM29.282 24.846c0-0.042 0.035-0.077 0.077-0.077s0.077 0.035 0.077 0.077c0 0.042-0.035 0.077-0.077 0.077s-0.077-0.035-0.077-0.077zM2.821 25.273c0-0.052 0.035-0.094 0.077-0.094s0.077 0.042 0.077 0.094c0 0.052-0.035 0.094-0.077 0.094s-0.077-0.042-0.077-0.094zM28.983 25.264c-0.011-0.057 0.018-0.085 0.090-0.085 0.070 0 0.106 0.033 0.106 0.098 0 0.122-0.172 0.11-0.196-0.013zM3.128 25.692c0-0.148 0.147-0.127 0.206 0.029 0.067 0.178 0.063 0.21-0.027 0.21-0.042 0-0.077-0.031-0.077-0.068s-0.023-0.068-0.051-0.068-0.051-0.046-0.051-0.103zM28.643 25.761c0.125-0.091 0.126-0.090 0.126 0.059 0 0.077-0.029 0.128-0.074 0.128-0.122 0-0.154-0.113-0.052-0.187zM3.692 26.363c0 0.126 0.114 0.253 0.227 0.253 0.103 0 0.102-0.073-0.002-0.233-0.101-0.154-0.225-0.165-0.225-0.020zM27.967 26.528c0.126-0.145 0.238-0.152 0.238-0.015 0 0.057-0.034 0.103-0.077 0.103s-0.077 0.035-0.077 0.077c0 0.091-0.136 0.104-0.166 0.015-0.011-0.034 0.026-0.115 0.082-0.18zM3.983 26.649c-0.057 0.057-0.038 0.103 0.043 0.103 0.042 0 0.077-0.031 0.077-0.068 0-0.073-0.063-0.091-0.12-0.034zM26.526 27.972c0.142-0.134 0.244-0.14 0.244-0.015 0 0.052-0.035 0.094-0.077 0.094s-0.077 0.035-0.077 0.077c0 0.043-0.046 0.077-0.103 0.077-0.136 0-0.13-0.099 0.013-0.233zM5.248 27.969c0-0.075 0.115-0.101 0.145-0.034 0.009 0.021 0.086 0.077 0.171 0.125 0.203 0.114 0.232 0.247 0.055 0.247-0.085 0-0.132-0.028-0.132-0.080 0-0.044-0.023-0.066-0.051-0.048s-0.051-0.018-0.051-0.079c0-0.072-0.024-0.102-0.068-0.085-0.038 0.014-0.068-0.006-0.068-0.046zM25.729 28.664c0.033-0.125 0.185-0.114 0.21 0.016 0.013 0.065-0.017 0.089-0.11 0.089-0.103 0-0.122-0.020-0.1-0.105zM6.068 28.691c0-0.090 0.033-0.094 0.21-0.026 0.156 0.059 0.177 0.206 0.029 0.206-0.095 0-0.128-0.056-0.106-0.175 0.005-0.026-0.023-0.021-0.062 0.012-0.055 0.046-0.071 0.042-0.071-0.017zM25.179 29.073c0-0.131 0.17-0.117 0.195 0.017 0.012 0.062-0.016 0.089-0.089 0.089s-0.106-0.033-0.106-0.106zM6.633 29.097c0-0.039 0.044-0.071 0.098-0.071s0.089 0.027 0.078 0.060c-0.029 0.086-0.177 0.096-0.177 0.012zM24.769 29.359c0-0.042 0.035-0.077 0.077-0.077s0.077 0.035 0.077 0.077c0 0.042-0.035 0.077-0.077 0.077s-0.077-0.035-0.077-0.077zM24.342 29.573c0.070-0.071 0.171-0.030 0.171 0.068 0 0.068-0.034 0.103-0.103 0.103-0.099 0-0.139-0.1-0.068-0.171zM7.487 29.666c0-0.042 0.035-0.077 0.077-0.077s0.077 0.035 0.077 0.077c0 0.042-0.035 0.077-0.077 0.077s-0.077-0.035-0.077-0.077zM8.239 29.983c0.065-0.065 0.12-0.034 0.12 0.068 0 0.057-0.034 0.103-0.077 0.103-0.078 0-0.105-0.108-0.043-0.171zM23.624 29.983c-0.071 0.070-0.030 0.171 0.068 0.171 0.068 0 0.103-0.034 0.103-0.103 0-0.099-0.1-0.139-0.171-0.068zM8.526 30.139c0.087-0.031 0.141 0.005 0.141 0.095 0 0.041-0.046 0.074-0.103 0.074-0.112 0-0.142-0.131-0.038-0.168zM23.333 30.201c0 0.073 0.033 0.106 0.106 0.106s0.101-0.028 0.089-0.089c-0.026-0.134-0.195-0.149-0.195-0.017zM8.787 30.335c0.038-0.1 0.136-0.104 0.136-0.005 0 0.082-0.093 0.158-0.138 0.113-0.016-0.016-0.015-0.064 0.002-0.108zM23.035 30.345c0.026 0.134 0.195 0.149 0.195 0.017 0-0.073-0.033-0.106-0.106-0.106s-0.101 0.028-0.089 0.089zM22.8 30.396c0.050-0.050 0.174 0.019 0.174 0.096 0 0.039-0.046 0.071-0.103 0.071-0.097 0-0.139-0.1-0.072-0.167zM9.026 30.483c0 0.048 0.044 0.081 0.107 0.081 0.125 0 0.107-0.12-0.021-0.145-0.051-0.010-0.086 0.016-0.086 0.064zM9.369 30.546c-0.070 0.070-0.034 0.179 0.055 0.162 0.049-0.009 0.090-0.050 0.090-0.089 0-0.081-0.091-0.127-0.144-0.073zM10.034 30.855c0.060-0.060 0.171-0.037 0.171 0.037 0 0.039-0.046 0.083-0.103 0.098-0.099 0.026-0.143-0.060-0.068-0.134zM21.752 30.906c-0.014-0.073 0.009-0.090 0.101-0.077 0.066 0.009 0.127 0.059 0.137 0.111 0.014 0.073-0.009 0.090-0.101 0.077-0.066-0.009-0.127-0.059-0.137-0.111zM21.385 31.051c0-0.049 0.033-0.078 0.080-0.068 0.111 0.023 0.118 0.114 0.010 0.135-0.056 0.011-0.090-0.014-0.090-0.067zM10.754 31.109c0.062-0.062 0.193-0.010 0.211 0.084 0.013 0.066-0.017 0.089-0.115 0.089-0.125 0-0.177-0.092-0.096-0.173zM20.974 31.205c0 0.042 0.035 0.077 0.077 0.077s0.077-0.035 0.077-0.077c0-0.042-0.035-0.077-0.077-0.077s-0.077 0.035-0.077 0.077zM20.53 31.311c-0.038 0.1 0.008 0.146 0.109 0.107s0.102-0.117 0-0.155c-0.045-0.017-0.092 0.003-0.109 0.048zM20.085 31.367c0.042-0.042 0.041-0.042 0.141-0.003 0.137 0.052 0.101 0.225-0.047 0.225-0.124 0-0.181-0.135-0.094-0.222zM11.728 31.417c0.058-0.058 0.195-0.012 0.195 0.066 0 0.039-0.052 0.079-0.115 0.089-0.112 0.017-0.159-0.075-0.079-0.154zM12.321 31.524c0.095-0.033 0.192 0.015 0.192 0.096 0 0.042-0.053 0.071-0.128 0.071-0.133 0-0.182-0.127-0.064-0.168zM19.436 31.607c0-0.038 0.021-0.068 0.046-0.068s0.058 0.031 0.072 0.068c0.014 0.038-0.006 0.068-0.046 0.068s-0.072-0.031-0.072-0.068zM13.039 31.675c0.099-0.039 0.165-0.009 0.183 0.085 0.012 0.062-0.020 0.086-0.115 0.086-0.137 0-0.186-0.124-0.068-0.171zM18.724 31.686c0.108-0.070 0.273-0.030 0.292 0.070 0.013 0.069-0.018 0.090-0.137 0.090-0.174 0-0.261-0.090-0.154-0.16zM13.832 31.826c0.069-0.069 0.399-0.011 0.399 0.071 0 0.054-0.065 0.082-0.218 0.093-0.21 0.015-0.289-0.056-0.181-0.163zM17.72 31.843c0.053-0.086 0.303-0.034 0.322 0.067 0.013 0.069-0.018 0.090-0.138 0.090-0.163 0-0.241-0.066-0.184-0.157z"></path>
</svg>
