<!-- Generated by IcoMoon.io -->
<svg version="1.1" xmlns="http://www.w3.org/2000/svg" width="32" height="32" viewBox="0 0 32 32">
<title>github</title>
<path d="M8.233 23.73c0 0.845 0.715 1.268 2.146 1.268 1.252 0 1.878-0.439 1.878-1.317 0-0.829-0.683-1.244-2.048-1.244-1.317-0-1.975 0.43-1.975 1.292zM26.667 0h-21.333c-2.934 0-5.334 2.4-5.334 5.334v21.332c0 2.936 2.4 5.334 5.334 5.334h21.333c2.933 0 5.333-2.398 5.333-5.334v-21.332c0-2.934-2.399-5.334-5.333-5.334zM14.867 12.781c-0.228 0.081-0.553 0.171-0.975 0.268 0.13 0.374 0.195 0.723 0.195 1.049 0 1.040-0.313 1.947-0.939 2.719s-1.435 1.231-2.426 1.378c-0.65 0.098-0.975 0.447-0.975 1.049 0 0.211 0.106 0.423 0.317 0.634 0.276 0.309 0.683 0.504 1.219 0.585 2.325 0.358 3.487 1.325 3.487 2.902 0 2.52-1.504 3.78-4.511 3.78-1.236 0-2.252-0.22-3.048-0.658-1.008-0.553-1.512-1.422-1.512-2.609 0-1.366 0.756-2.3 2.268-2.804v-0.049c-0.553-0.341-0.829-0.862-0.829-1.561 0-0.91 0.26-1.48 0.78-1.707v-0.049c-0.52-0.179-0.984-0.585-1.39-1.22-0.455-0.683-0.683-1.414-0.683-2.195 0-1.171 0.415-2.146 1.244-2.926 0.797-0.732 1.748-1.097 2.853-1.097 0.797 0 1.536 0.195 2.219 0.585 0.78 0 1.683-0.195 2.707-0.585l-0 2.512zM18.818 21.219h-2.756c0.033-0.325 0.049-0.878 0.049-1.658v-7.584c0-0.764-0.016-1.293-0.049-1.585h2.756c-0.033 0.309-0.049 0.821-0.049 1.536v7.486c0 0.829 0.016 1.431 0.049 1.805zM18.635 7.953c-0.333 0.358-0.728 0.536-1.183 0.536-0.471 0-0.874-0.179-1.207-0.536s-0.5-0.78-0.5-1.268c0-0.504 0.167-0.935 0.5-1.293s0.736-0.537 1.207-0.537c0.455 0 0.849 0.179 1.183 0.537s0.5 0.788 0.5 1.293c0 0.488-0.167 0.91-0.5 1.268zM26.303 20.901c-0.602 0.325-1.325 0.488-2.171 0.488-1.187 0-2.008-0.422-2.463-1.268-0.342-0.634-0.512-1.634-0.512-2.999v-4.365h0.024v-0.049l-0.366-0.024c-0.211 0-0.488 0.024-0.829 0.073v-2.365h1.195v-0.951c0-0.455-0.024-0.821-0.073-1.098h2.829c-0.048 0.309-0.073 0.658-0.073 1.049v1h2.121v2.365c-0.081 0-0.232-0.008-0.451-0.024s-0.427-0.025-0.622-0.025h-1.049v4.536c0 1.090 0.358 1.634 1.073 1.634 0.504 0 0.959-0.138 1.366-0.415v2.439zM10.038 12.513c-1.024 0-1.536 0.602-1.536 1.805 0 1.122 0.512 1.683 1.536 1.683 0.992 0 1.488-0.569 1.488-1.707 0-0.472-0.114-0.878-0.341-1.219-0.276-0.374-0.659-0.561-1.146-0.561z"></path>
</svg>
