<!-- Generated by IcoMoon.io -->
<svg version="1.1" xmlns="http://www.w3.org/2000/svg" width="32" height="32" viewBox="0 0 32 32">
<title>global</title>
<path d="M27.314 4.686c-3.022-3.022-7.040-4.686-11.314-4.686s-8.292 1.664-11.314 4.686c-3.022 3.022-4.686 7.040-4.686 11.314s1.664 8.292 4.686 11.314c3.022 3.022 7.040 4.686 11.314 4.686 2.399 0 4.706-0.518 6.858-1.541 0.998-0.474 1.422-1.667 0.948-2.665s-1.667-1.422-2.665-0.948c-1.612 0.766-3.342 1.154-5.142 1.154-6.617 0-12-5.383-12-12s5.383-12 12-12 12 5.383 12 12v2c0 1.103-0.897 2-2 2s-2-0.897-2-2v-8c0-1.105-0.895-2-2-2-0.812 0-1.51 0.484-1.824 1.179-1.216-0.748-2.647-1.179-4.176-1.179-4.411 0-8 3.589-8 8s3.589 8 8 8c2.091 0 3.997-0.807 5.423-2.125 1.101 1.299 2.744 2.125 4.577 2.125 3.308 0 6-2.692 6-6v-2c0-4.274-1.664-8.292-4.686-11.314zM16 20c-2.206 0-4-1.794-4-4s1.794-4 4-4c2.206 0 4 1.794 4 4s-1.794 4-4 4z"></path>
</svg>
