<!-- Generated by IcoMoon.io -->
<svg version="1.1" xmlns="http://www.w3.org/2000/svg" width="24" height="24" viewBox="0 0 24 24">
<title>inbox</title>
<path d="M21 13v5c0 0.276-0.111 0.525-0.293 0.707s-0.431 0.293-0.707 0.293h-16c-0.276 0-0.525-0.111-0.707-0.293s-0.293-0.431-0.293-0.707v-5h4.465l1.703 2.555c0.182 0.27 0.486 0.445 0.832 0.445h4c0.326-0.002 0.64-0.158 0.832-0.445l1.703-2.555zM6.344 5.558c0.066-0.131 0.16-0.246 0.272-0.337 0.172-0.139 0.387-0.221 0.624-0.221h9.513c0.15 0.001 0.295 0.034 0.426 0.094 0.201 0.092 0.37 0.249 0.477 0.464l2.725 5.442h-4.381c-0.346 0-0.65 0.175-0.832 0.445l-1.703 2.555h-2.93l-1.703-2.555c-0.192-0.287-0.506-0.443-0.832-0.445h-4.381zM4.556 4.662l-3.441 6.872c-0.031 0.059-0.056 0.121-0.075 0.187-0.028 0.094-0.041 0.188-0.040 0.279v6c0 0.828 0.337 1.58 0.879 2.121s1.293 0.879 2.121 0.879h16c0.828 0 1.58-0.337 2.121-0.879s0.879-1.293 0.879-2.121v-6c0-0.151-0.033-0.293-0.091-0.417-0.005-0.010-0.010-0.021-0.015-0.031l-0.009-0.018-3.441-6.872c-0.315-0.634-0.829-1.111-1.433-1.387-0.388-0.177-0.812-0.272-1.244-0.275h-9.527c-0.711 0-1.367 0.249-1.883 0.667-0.331 0.268-0.605 0.606-0.801 0.995z"></path>
</svg>
