<!-- Generated by IcoMoon.io -->
<svg version="1.1" xmlns="http://www.w3.org/2000/svg" width="32" height="32" viewBox="0 0 32 32">
<title>instant</title>
<path d="M7.024 12.199c-0.19-0.168-0.359-0.317-0.55-0.486-0.391 0.426-0.743 0.292-1.071-0.113-0.099-0.122-0.215-0.23-0.333-0.334-0.371-0.326-0.36-0.623 0.004-0.963 0.524-0.489 1.024-1.004 1.523-1.519 0.288-0.297 0.557-0.328 0.846-0.012 0.13 0.142 0.262 0.284 0.409 0.407 0.377 0.315 0.552 0.646 0.060 1.066 0.215 0.161 0.395 0.295 0.626 0.468 1.292-1.053 2.815-1.863 4.611-2.336-1.298-1.198-1.796-2.627-1.518-4.291 0.18-1.074 0.74-1.947 1.579-2.641 1.638-1.354 4.14-1.314 5.738 0.097 1.028 0.907 1.536 2.047 1.536 3.422 0 1.352-0.568 2.448-1.578 3.409 1.764 0.48 3.287 1.258 4.652 2.389 0.098-0.083 0.187-0.162 0.279-0.237 0.082-0.066 0.168-0.128 0.185-0.141-0.060-0.338-0.227-0.671-0.125-0.826 0.243-0.369 0.591-0.683 0.946-0.956 0.094-0.072 0.416 0.025 0.543 0.142 0.577 0.534 1.128 1.098 1.674 1.665 0.098 0.102 0.22 0.338 0.178 0.394-0.302 0.391-0.613 0.789-0.992 1.099-0.123 0.101-0.455-0.054-0.806-0.111-0.057 0.070-0.198 0.244-0.376 0.463 2.382 3 3.212 6.44 2.346 10.225-0.648 2.835-2.225 5.097-4.58 6.804-4.503 3.264-10.988 2.744-14.935-1.083-4.169-4.043-4.968-10.93-0.871-16.002zM16.007 10.966c-4.833 0.001-8.797 3.969-8.797 8.807-0.001 4.819 3.979 8.805 8.803 8.817 4.815 0.012 8.815-3.98 8.816-8.797 0.001-4.88-3.946-8.829-8.822-8.828zM17.078 7.675c1.401-0.518 2.173-1.962 1.864-3.396-0.307-1.426-1.701-2.452-3.175-2.335s-2.646 1.361-2.729 2.896c-0.068 1.249 0.865 2.589 1.991 2.808 0-0.302 0-0.596 0-0.89 0-0.291 0-0.583 0-0.856-0.669-0.158-0.68-0.172-0.682-0.777-0.001-0.227 0.011-0.455-0.003-0.681-0.021-0.348 0.139-0.542 0.478-0.547 0.821-0.012 1.642-0.011 2.463-0.002 0.317 0.003 0.471 0.188 0.467 0.507-0.003 0.21-0.017 0.421 0.005 0.628 0.055 0.508-0.076 0.861-0.679 0.845 0 0.614 0 1.187 0 1.801zM17.223 20.971c-0.522 0.518-1.191 0.656-1.766 0.394-0.606-0.276-0.991-0.749-0.949-1.428 0.049-0.782 0.182-1.559 0.289-2.336 0.215-1.556 0.445-3.111 0.652-4.668 0.050-0.38 0.21-0.642 0.598-0.66 0.414-0.020 0.557 0.265 0.608 0.638 0.303 2.213 0.611 4.426 0.928 6.638 0.082 0.573-0.031 1.072-0.361 1.423z"></path>
</svg>
