<!-- Generated by IcoMoon.io -->
<svg version="1.1" xmlns="http://www.w3.org/2000/svg" width="32" height="32" viewBox="0 0 32 32">
<title>jiochat</title>
<path d="M14.24 0.064c-2.037 0.309-3.627 0.768-5.12 1.483-4.608 2.208-7.84 6.4-8.875 11.52-0.267 1.344-0.267 4.523 0 5.867 1.013 5.024 4.171 9.184 8.661 11.403 2.389 1.184 4.256 1.611 7.093 1.611s4.683-0.427 7.093-1.611c4.491-2.219 7.723-6.496 8.661-11.477 0.256-1.376 0.256-4.341 0-5.717-1.216-6.453-6.112-11.445-12.576-12.832-0.971-0.213-4.128-0.363-4.939-0.245zM20.619 8.277c0.427 0.096 1.227 0.384 1.781 0.651 0.864 0.416 1.152 0.619 1.92 1.408 1.472 1.483 2.080 2.965 2.069 5.024-0.011 0.928-0.064 1.269-0.299 1.973-0.725 2.112-2.251 3.669-4.32 4.384-0.416 0.149-1.067 0.299-1.451 0.331l-0.693 0.064v1.44c0 1.557-0.085 1.835-0.587 1.835-0.139 0-1.056-0.64-2.261-1.589l-2.027-1.579-1.749-0.053c-1.547-0.053-1.856-0.096-2.656-0.363-2.091-0.693-3.712-2.315-4.416-4.427-1.259-3.755 1.131-8.096 5.003-9.067 1.067-0.267 8.512-0.288 9.685-0.032zM10.816 14.379c-0.32 0.256-0.469 0.587-0.469 1.035 0 0.309 0.085 0.48 0.363 0.757 0.309 0.309 0.437 0.363 0.843 0.363 0.576 0 0.971-0.277 1.141-0.8 0.16-0.469-0.011-1.024-0.395-1.333-0.352-0.277-1.163-0.288-1.483-0.021zM15.136 14.496c-0.245 0.245-0.309 0.405-0.309 0.757 0 0.811 0.437 1.28 1.184 1.28 0.715 0 1.152-0.459 1.163-1.205 0-0.427-0.053-0.565-0.309-0.832-0.267-0.267-0.395-0.309-0.864-0.309s-0.597 0.043-0.864 0.309zM19.701 14.4c-0.384 0.309-0.555 0.864-0.395 1.333 0.171 0.523 0.565 0.8 1.141 0.8 0.896 0 1.493-0.949 1.088-1.739-0.32-0.619-1.28-0.832-1.835-0.395z"></path>
</svg>
