<!-- Generated by IcoMoon.io -->
<svg version="1.1" xmlns="http://www.w3.org/2000/svg" width="32" height="32" viewBox="0 0 32 32">
<title>junebug</title>
<path d="M19.081 12.705c-2.035 0-3.544 1.494-3.544 3.743v6.547c0 0.085 0 0.185-0.014 0.256-0.085 0.541-0.555 0.954-1.124 0.954-0.541 0-0.982-0.37-1.11-0.882-0.014-0.1-0.029-0.213-0.029-0.342v-13.862c0.014-2.249-1.551-3.743-3.586-3.743s-3.544 1.494-3.544 3.743v10.276h0.014v3.487c0 0.085 0 0.185-0.014 0.256-0.085 0.541-0.555 0.954-1.124 0.954-0.541 0-0.982-0.37-1.11-0.882-0.014-0.1-0.029-0.213-0.029-0.342v-2.875h-0.014c-0.043-0.64-0.584-1.153-1.238-1.153s-1.196 0.512-1.238 1.153v0 2.761c0 2.235 1.551 3.743 3.601 3.743 2.035 0 3.544-1.494 3.544-3.743v-4.213h-0.014v-9.536c0-0.1 0-0.185 0.014-0.27v0.171c0-0.626 0.512-1.139 1.139-1.139 0.455 0 0.854 0.27 1.025 0.669 0.057 0.157 0.085 0.342 0.085 0.555v13.876c0 2.235 1.551 3.743 3.601 3.743 2.035 0 3.544-1.494 3.544-3.743v-6.533c0-0.1 0-0.185 0.014-0.27v0.171c0-0.626 0.512-1.139 1.139-1.139 0.455 0 0.854 0.27 1.025 0.669 0.057 0.157 0.085 0.342 0.085 0.555v9.038h0.014c0 0.683 0.555 1.238 1.238 1.238s1.238-0.555 1.238-1.238v-8.909c0.014-2.249-1.551-3.743-3.586-3.743zM30.624 19.992v-3.444c0-2.277-1.295-3.814-3.345-3.814-2.021 0-3.473 1.537-3.473 3.814v6.262c0 2.306 1.466 3.814 3.473 3.814 2.049 0 3.345-1.509 3.345-3.786v-0.37c-0.014-0.612-0.512-1.096-1.124-1.096-0.626 0-1.124 0.498-1.124 1.124v0 0.697c0 0.726-0.313 1.238-1.067 1.238-0.697 0-1.067-0.498-1.067-1.238v-3.202h4.383zM26.24 16.178c0-0.754 0.399-1.267 1.067-1.267 0.697 0 1.039 0.498 1.039 1.267v2.391h-2.106v-2.391z"></path>
</svg>
