<!-- Generated by IcoMoon.io -->
<svg version="1.1" xmlns="http://www.w3.org/2000/svg" width="25" height="32" viewBox="0 0 25 32">
<title>kannel</title>
<path d="M20.363 14.995c-0.372-0.688-0.816-1.339-1.226-2.007-0.060-0.097-0.117-0.195-0.183-0.305 1.248-0.319 1.976-1.173 2.043-2.347 0.058-1.021-0.603-2.026-1.574-2.388-0.665-0.248-1.319-0.214-1.961 0.092-0.638 0.304-1.027 0.832-1.323 1.465-0.387-2.163-0.144-4.336-0.274-6.553-0.819 0.642-1.592 1.258-2.378 1.858-0.185 0.141-0.257 0.285-0.252 0.521 0.018 0.733 0.006 1.467 0.006 2.226-1.664 0-3.337 0-5.029 0 0-0.604-0.034-1.183 0.010-1.755 0.041-0.537-0.081-0.943-0.57-1.227-0.23-0.133-0.417-0.342-0.625-0.513-0.439-0.362-0.879-0.722-1.353-1.112-0.117 2.178 0.134 4.308-0.226 6.471-0.922-1.326-1.878-1.76-3.032-1.416-0.983 0.292-1.691 1.205-1.739 2.228-0.030 0.627 0.147 1.183 0.535 1.676 0.392 0.497 0.924 0.764 1.521 0.902-0.477 0.787-0.956 1.541-1.4 2.316-0.558 0.975-0.822 2.042-0.851 3.159-0.037 1.423 0.554 2.64 1.427 3.694 0.914 1.104 1.933 2.123 2.908 3.177 0.566 0.613 1.050 1.263 1.092 2.146 0.012 0.264 0.072 0.527 0.112 0.799 3.215 0 6.406 0 9.651 0 0.022-0.15 0.048-0.281 0.059-0.414 0.067-0.832 0.228-1.625 0.839-2.257 0.375-0.388 0.738-0.788 1.096-1.192 0.788-0.89 1.629-1.741 2.34-2.69 1.563-2.084 1.574-4.304 0.356-6.555zM12.716 8.215c0.193 0 0.362 0 0.582 0-0.015 0.96 0.157 1.942-0.582 2.863 0-1.009 0-1.918 0-2.863zM13.367 13.432c0.167 0 0.361 0.006 0.555-0.001 0.565-0.022 0.911 0.276 1.147 0.757 0.355 0.723 0.386 1.493 0.281 2.263-0.231 1.701-0.685 3.328-1.714 4.745-0.043 0.060-0.076 0.128-0.125 0.181-0.174 0.189-0.341 0.159-0.387-0.095-0.052-0.286-0.046-0.583-0.068-0.906-0.11-0.013-0.205-0.025-0.329-0.040 0-2.917 0-5.825 0-8.734 0.025-0.007 0.049-0.015 0.074-0.022 0.186 0.608 0.372 1.217 0.566 1.853zM11.111 8.222c0.309 0 0.599 0 0.944 0 0 4.033 0 8.063 0 12.12-0.295 0-0.607 0-0.944 0 0-4.037 0-8.069 0-12.12zM9.419 8.223c0.362 0 0.699 0 1.054 0 0 4.042 0 8.071 0 12.122-0.361 0-0.698 0-1.054 0 0-4.044 0-8.073 0-12.122zM8.213 8.239c0.069-0.018 0.103-0.033 0.137-0.034 0.134-0.003 0.268-0.001 0.428-0.001 0 0.963 0 1.91 0 2.965-0.775-0.94-0.587-1.948-0.565-2.93zM8.696 11.678c0.032 0.008 0.064 0.017 0.095 0.025 0 2.868 0 5.737 0 8.652-0.123 0.010-0.228 0.019-0.379 0.032 0 0.261 0.017 0.506-0.007 0.746-0.012 0.117-0.101 0.227-0.154 0.34-0.113-0.058-0.26-0.088-0.335-0.177-0.576-0.684-0.99-1.468-1.226-2.322-0.238-0.858-0.401-1.738-0.562-2.615-0.132-0.719 0.011-1.411 0.302-2.079 0.249-0.571 0.668-0.855 1.29-0.844 0.146 0.002 0.293 0 0.423 0 0.187-0.595 0.37-1.176 0.553-1.758zM16.71 20.932c-0.655 0.514-1.364 0.958-2.024 1.466-0.305 0.235-0.571 0.529-0.821 0.825-0.541 0.639-0.306 1.786 0.832 1.823 0 0.217 0 0.434 0 0.682-0.688 0-1.37 0-2.055 0-0.154-0.616-0.649-0.943-1.717-0.996-0.966-0.047-1.566 0.302-1.856 1.023-0.643 0-1.293 0-1.944 0-0.072 0-0.144 0-0.243 0 0-0.25 0-0.473 0-0.727 0.542 0.043 0.869-0.207 1.036-0.698 0.169-0.496 0.008-0.921-0.347-1.233-0.624-0.547-1.302-1.032-1.943-1.561-0.519-0.428-1.071-0.833-1.511-1.334-0.905-1.031-1.1-2.291-0.694-3.551 0.475-1.475 1.067-2.92 1.704-4.335 0.823-1.828 1.182-3.723 1.135-5.714-0.018-0.758-0.003-1.516-0.003-2.367 0.478 0.376 0.894 0.689 1.288 1.027 0.068 0.059 0.062 0.225 0.060 0.341-0.015 1.093-0.047 2.186-0.051 3.279-0.003 0.847-0.002 1.699 0.549 2.425 0.036 0.047 0.044 0.143 0.024 0.202-0.151 0.437-0.312 0.871-0.471 1.307-1.236 0.151-1.88 0.827-2.106 2.19-0.185 1.117 0.035 2.191 0.295 3.269 0.291 1.207 0.754 2.328 1.517 3.314 0.119 0.153 0.252 0.308 0.409 0.417 0.444 0.309 1.026 0.093 1.173-0.428 0.053-0.187 0.070-0.383 0.107-0.598 1.124 0 2.261 0 3.411 0 0.019 0.165 0.026 0.322 0.056 0.475 0.061 0.311 0.229 0.527 0.549 0.624 0.325 0.098 0.587 0.003 0.792-0.238 0.659-0.773 1.187-1.64 1.473-2.607 0.286-0.97 0.464-1.974 0.645-2.971 0.136-0.753-0.005-1.487-0.302-2.193-0.34-0.809-0.877-1.325-1.815-1.236-0.17-0.482-0.335-0.941-0.488-1.403-0.023-0.071-0.021-0.184 0.020-0.237 0.523-0.671 0.508-1.464 0.509-2.247 0.002-1.118-0.027-2.235-0.019-3.353 0-0.152 0.104-0.342 0.221-0.446 0.356-0.318 0.741-0.602 1.153-0.931 0.013 0.128 0.030 0.216 0.030 0.305 0.004 0.749 0.033 1.499 0.002 2.247-0.075 1.849 0.312 3.596 1.051 5.286 0.583 1.334 1.123 2.687 1.665 4.039 0.73 1.823 0.254 3.621-1.296 4.836z"></path>
</svg>
