<!-- Generated by IcoMoon.io -->
<svg version="1.1" xmlns="http://www.w3.org/2000/svg" width="32" height="32" viewBox="0 0 32 32">
<title>lamp</title>
<path d="M16 0c-5.336 0-9.666 4.271-9.666 9.534 0 2.631 1.568 5.39 3.362 8.373s0.376 6.281 6.481 6.192c5.851-0.086 4.334-2.767 6.039-5.751s3.45-6.184 3.45-8.815c0-5.263-4.331-9.534-9.666-9.534zM11.942 24.951v2.538c1.247 0.405 2.618 0.631 4.058 0.631s2.811-0.225 4.058-0.63v-2.345c-0.697 0.642-1.84 0.819-3.881 0.853-2.264 0.037-3.492-0.238-4.234-1.046zM11.985 29.066c0.157 0.857 0.831 2.934 4.016 2.934s3.859-2.077 4.016-2.934c-1.802 0.551-2.624 0.581-4.016 0.581s-2.214-0.030-4.016-0.581z"></path>
</svg>
