<!-- Generated by IcoMoon.io -->
<svg version="1.1" xmlns="http://www.w3.org/2000/svg" width="32" height="32" viewBox="0 0 32 32">
<title>language</title>
<path d="M31.605 17.41c-0.998-2.733-3.787-4.363-7.459-4.363-0.142 0-0.282 0.005-0.419 0.011l-0.024-3.299c0 0 5.454-0.942 5.638-0.974s0.214-0.19 0.176-0.368c-0.037-0.178-0.267-1.414-0.301-1.563-0.045-0.208-0.165-0.203-0.331-0.174s-5.202 0.739-5.202 0.739-0.018-3.126-0.019-3.326c-0.002-0.2-0.112-0.254-0.31-0.251-0.2 0.003-1.474 0.022-1.642 0.026-0.168 0.002-0.261 0.078-0.258 0.238s0.053 3.69 0.053 3.69-4.899 0.846-5.034 0.869-0.272 0.086-0.24 0.229c0.030 0.142 0.304 1.749 0.333 1.875 0.027 0.126 0.114 0.203 0.299 0.171s4.68-0.808 4.68-0.808l0.056 3.229c-1.723 0.453-2.882 1.318-3.61 2.085-1.229 1.291-1.931 3.019-1.931 4.741 0 2.541 1.552 4.046 3.723 4.312 5.061 0.619 8.19-4.894 9.232-7.542 1.757 2.408 0.411 6.966-3.35 9.566-0.067 0.050-0.155 0.206-0.051 0.331s0.864 1.059 0.99 1.213c0.126 0.15 0.33 0.091 0.41 0.034 4.016-2.763 5.856-7.219 4.59-10.688zM19.786 22.509c-1.544-0.194-1.509-1.462-1.509-2.325 0-1.237 0.523-2.528 1.4-3.45 0.538-0.565 1.2-0.994 1.966-1.278l0.131 6.843c-0.613 0.21-1.275 0.298-1.989 0.21zM23.67 21.626l0.072-6.574c0.134-0.006 0.267-0.016 0.403-0.016 1.237 0 2.392 0.232 3.018 0.579s-1.637 4.339-3.493 6.011zM9.349 9.357c-0.048-0.15-0.163-0.23-0.312-0.23h-3.12c-0.147 0-0.264 0.080-0.31 0.23-0.658 2.078-5.57 17.587-5.594 17.666-0.027 0.085-0.018 0.122 0.099 0.122h2.773c0.12 0 0.158-0.037 0.181-0.115 0.026-0.082 1.614-5.309 1.614-5.309h5.594c0 0 1.589 5.229 1.613 5.309 0.026 0.078 0.061 0.115 0.182 0.115h2.771c0.118 0 0.128-0.037 0.099-0.122-0.021-0.078-4.931-15.587-5.59-17.666zM5.163 19.466l2.315-8.4 2.314 8.4h-4.629z"></path>
</svg>
