<!-- Generated by IcoMoon.io -->
<svg version="1.1" xmlns="http://www.w3.org/2000/svg" width="24" height="24" viewBox="0 0 24 24">
<title>layers</title>
<path d="M12 3.118l7.764 3.882-7.764 3.882-7.764-3.882zM11.553 1.106l-10 5c-0.494 0.247-0.694 0.847-0.447 1.341 0.101 0.203 0.261 0.356 0.447 0.447l10 5c0.292 0.146 0.62 0.136 0.894 0l10-5c0.494-0.247 0.694-0.848 0.447-1.342-0.101-0.202-0.262-0.355-0.447-0.447l-10-5c-0.292-0.146-0.62-0.136-0.894 0zM1.553 17.894l10 5c0.292 0.146 0.62 0.136 0.894 0l10-5c0.494-0.247 0.694-0.848 0.447-1.342s-0.848-0.694-1.342-0.447l-9.552 4.777-9.553-4.776c-0.494-0.247-1.095-0.047-1.342 0.447s-0.047 1.095 0.447 1.342zM1.553 12.894l10 5c0.292 0.146 0.62 0.136 0.894 0l10-5c0.494-0.247 0.694-0.848 0.447-1.342s-0.848-0.694-1.342-0.447l-9.552 4.777-9.553-4.776c-0.494-0.247-1.095-0.047-1.342 0.447s-0.047 1.095 0.447 1.342z"></path>
</svg>
