<!-- Generated by IcoMoon.io -->
<svg version="1.1" xmlns="http://www.w3.org/2000/svg" width="32" height="32" viewBox="0 0 32 32">
<title>line</title>
<path d="M13.333 13.133c-0.133 0-0.244 0.044-0.333 0.133s-0.133 0.244-0.133 0.422v3.667c0 0.2 0.044 0.333 0.133 0.422s0.2 0.133 0.333 0.133c0.133 0 0.267-0.044 0.333-0.133 0.089-0.089 0.133-0.244 0.133-0.422v-3.667c0-0.2-0.044-0.333-0.133-0.422-0.067-0.089-0.178-0.133-0.333-0.133zM18.333 13.133c-0.133 0-0.244 0.044-0.311 0.133s-0.111 0.222-0.111 0.4v2.756l-1.8-2.733c-0.044-0.089-0.089-0.156-0.156-0.222s-0.089-0.133-0.133-0.178c-0.044-0.044-0.089-0.089-0.156-0.111s-0.133-0.044-0.222-0.044c-0.111 0-0.2 0.022-0.311 0.089-0.089 0.067-0.156 0.133-0.2 0.222s-0.044 0.2-0.044 0.356v3.578c0 0.178 0.044 0.311 0.111 0.4 0.089 0.089 0.178 0.133 0.311 0.133s0.244-0.044 0.311-0.133c0.089-0.089 0.133-0.222 0.133-0.4v-2.711l1.756 2.711c0.044 0.067 0.111 0.156 0.156 0.222s0.111 0.133 0.156 0.178c0.067 0.044 0.133 0.089 0.2 0.111s0.133 0.044 0.222 0.044c0.333 0 0.511-0.2 0.511-0.6v-3.644c0-0.178-0.044-0.311-0.111-0.4-0.089-0.111-0.178-0.156-0.311-0.156zM11.756 17.067h-1.911v-3.378c0-0.2-0.044-0.333-0.133-0.422s-0.2-0.133-0.333-0.133c-0.133 0-0.244 0.044-0.333 0.133s-0.133 0.244-0.133 0.422v3.578c0 0.2 0.044 0.356 0.133 0.444s0.244 0.133 0.444 0.133h2.267c0.156 0 0.267-0.044 0.356-0.111s0.111-0.156 0.111-0.267c0-0.111-0.044-0.2-0.133-0.289-0.067-0.067-0.2-0.111-0.333-0.111zM16 0.022c-8.822 0-15.978 7.156-15.978 15.978s7.156 15.978 15.978 15.978c8.822 0 15.978-7.156 15.978-15.978 0.022-8.822-7.133-15.978-15.978-15.978zM25.644 17.044c-0.489 1.378-1.4 2.6-2.6 3.578-1.733 1.622-3.711 2.889-4.978 3.778-2.333 1.667-2.822 1.533-3.044 1.333-0.222-0.222 0.422-1.2 0.467-2.089 0.022-0.489-0.467-0.622-0.6-0.667-5.044-0.467-8.978-4.044-8.978-8.378 0-4.644 4.511-8.422 10.067-8.422s10.067 3.778 10.067 8.422c0.067 0.867-0.111 1.689-0.4 2.444zM22.911 17.089h-2.2v-1.311h1.956c0.156 0 0.244-0.044 0.311-0.089 0.067-0.067 0.111-0.156 0.111-0.267s-0.044-0.2-0.111-0.244c-0.067-0.067-0.178-0.089-0.311-0.089h-1.956v-1.133h2.111c0.156 0 0.267-0.044 0.333-0.089 0.067-0.067 0.111-0.156 0.111-0.267s-0.044-0.2-0.111-0.267c-0.067-0.067-0.178-0.089-0.333-0.089h-2.489c-0.133 0-0.244 0.022-0.333 0.067s-0.156 0.111-0.178 0.178c-0.044 0.089-0.067 0.2-0.067 0.333v3.489c0 0.2 0.044 0.356 0.133 0.444s0.244 0.133 0.444 0.133h2.556c0.156 0 0.267-0.044 0.333-0.111s0.111-0.156 0.111-0.267c0-0.111-0.044-0.2-0.111-0.267-0.044-0.111-0.156-0.156-0.311-0.156z"></path>
</svg>
