<!-- Generated by IcoMoon.io -->
<svg version="1.1" xmlns="http://www.w3.org/2000/svg" width="32" height="32" viewBox="0 0 32 32">
<title>list</title>
<path d="M4 0c-2.209 0-4 1.791-4 4s1.791 4 4 4 4-1.791 4-4-1.791-4-4-4zM4 6.75c-1.516 0-2.75-1.234-2.75-2.75s1.234-2.75 2.75-2.75 2.75 1.234 2.75 2.75-1.234 2.75-2.75 2.75zM4 12c-2.209 0-4 1.791-4 4s1.791 4 4 4 4-1.791 4-4c0-2.209-1.791-4-4-4zM4 18.75c-1.516 0-2.75-1.234-2.75-2.75s1.234-2.75 2.75-2.75 2.75 1.234 2.75 2.75-1.234 2.75-2.75 2.75zM4 24c-2.209 0-4 1.791-4 4s1.791 4 4 4 4-1.791 4-4-1.791-4-4-4zM4 30.75c-1.516 0-2.75-1.234-2.75-2.75s1.234-2.75 2.75-2.75 2.75 1.234 2.75 2.75-1.234 2.75-2.75 2.75zM12 2h20v4h-20zM12 14h20v4h-20zM12 26h20v4h-20z"></path>
</svg>
