<!-- Generated by IcoMoon.io -->
<svg version="1.1" xmlns="http://www.w3.org/2000/svg" width="32" height="32" viewBox="0 0 32 32">
<title>location2</title>
<path d="M16 0c-5.523 0-10 4.477-10 10 0 10 10 18 10 18s10-8 10-18c0-5.523-4.477-10-10-10zM16 16.125c-3.383 0-6.125-2.742-6.125-6.125s2.742-6.125 6.125-6.125 6.125 2.742 6.125 6.125-2.742 6.125-6.125 6.125zM12.125 10c0 2.14 1.735 3.875 3.875 3.875s3.875-1.735 3.875-3.875-1.735-3.875-3.875-3.875c-2.14 0-3.875 1.735-3.875 3.875zM24.57 21.801c-0.443 0.696-0.902 1.356-1.364 1.976 0.073 0.034 0.146 0.069 0.217 0.105 1.521 0.761 2.202 1.612 2.202 2.118s-0.681 1.358-2.202 2.118c-1.915 0.957-4.621 1.507-7.423 1.507s-5.508-0.549-7.423-1.507c-1.521-0.761-2.202-1.612-2.202-2.118s0.681-1.358 2.202-2.118c0.071-0.035 0.144-0.070 0.217-0.105-0.462-0.62-0.921-1.28-1.364-1.976-2.121 1.082-3.429 2.564-3.429 4.199 0 3.314 5.373 6 12 6s12-2.686 12-6c0-1.635-1.308-3.117-3.43-4.199z"></path>
</svg>
