<!-- Generated by IcoMoon.io -->
<svg version="1.1" xmlns="http://www.w3.org/2000/svg" width="32" height="32" viewBox="0 0 32 32">
<title>login-2</title>
<path d="M5.037 4.709c7.556 0 14.976 0 22.453 0 0 7.523 0 14.969 0 22.492-7.459 0-14.879 0-22.398 0 0 0.875-0.095 1.69 0.023 2.471 0.161 1.058 1.018 1.622 2.267 1.626 3.341 0.009 6.683 0.003 10.024 0.003 3.887 0 7.774 0.003 11.661-0.001 1.82-0.002 2.55-0.726 2.551-2.537 0.003-8.524 0.003-17.048 0-25.571-0-1.86-0.725-2.564-2.628-2.565-7.092-0.002-14.184-0.002-21.276-0-2.010 0-2.676 0.68-2.678 2.72-0.001 0.405-0 0.809-0 1.362zM12.523 24.839c0-1.848 0-3.77 0-5.802-4.119 0-8.152 0-12.235 0 0-2.073 0-4.033 0-6.107 4.043 0 8.076 0 12.189 0 0-2.038 0-3.966 0-5.749 2.956 2.956 5.944 5.945 8.857 8.858-2.815 2.811-5.809 5.801-8.811 8.8z"></path>
</svg>
