<!-- Generated by IcoMoon.io -->
<svg version="1.1" xmlns="http://www.w3.org/2000/svg" width="32" height="32" viewBox="0 0 32 32">
<title>loop-2</title>
<path d="M27.313 4.687c-2.895-2.896-6.895-4.687-11.313-4.687-6.859 0-12.709 4.316-14.984 10.381l3.746 1.405c1.706-4.548 6.094-7.786 11.238-7.786 3.314 0 6.313 1.344 8.485 3.515l-4.485 4.485h12v-12l-4.687 4.687zM16 28c-3.314 0-6.313-1.343-8.485-3.515l4.485-4.485h-12v12l4.687-4.687c2.895 2.896 6.894 4.687 11.313 4.687 6.859 0 12.709-4.316 14.984-10.381l-3.746-1.405c-1.706 4.548-6.094 7.786-11.238 7.786z"></path>
</svg>
