<!-- Generated by IcoMoon.io -->
<svg version="1.1" xmlns="http://www.w3.org/2000/svg" width="32" height="32" viewBox="0 0 32 32">
<title>luis</title>
<path d="M24.253 29.857c-0.521-4.3 2.237-1.129 2.367-4.3 0.239-5.365-0.217-6.364 1.346-9.752-3.128-3.453 0.956-10.795-3.258-11.273-0.608-0.109-0.456-0.152-0.478-0.76 0.174-0.521-0.369-1.368 0.239-1.629 2.324-0.413 4.213 0.847 4.844 3.041 0.782 3.345-0.782 8.123 1.325 9.426 0.695 0.369 1.26 0.217 1.346 1.216 0 0.565 0.022 1.238-0.673 1.325-4.822 1.825 2.346 13.444-7.059 12.706z"></path>
<path d="M7.747 2.121c-0.217 0.651 0.5 2.346-0.478 2.411-4.279 0.456-0.174 9.231-3.497 11.511 3.497 3.301-0.804 11.338 3.671 11.468 0.587 0.217 0.087 1.346 0.261 1.998 0.022 1.021-2.563 0.217-2.911 0.043-3.909-1.955-1.564-7.602-2.607-11.012-0.261-1.412-2.346-0.956-2.194-2.737 0.043-1.042 1.803-1.216 2.085-1.955 1.477-4.822-2.020-12.141 5.669-11.728z"></path>
</svg>
