<!-- Generated by IcoMoon.io -->
<svg version="1.1" xmlns="http://www.w3.org/2000/svg" width="20" height="20" viewBox="0 0 20 20">
<title>menu</title>
<path d="M17.5 6h-15c-0.276 0-0.5-0.224-0.5-0.5s0.224-0.5 0.5-0.5h15c0.276 0 0.5 0.224 0.5 0.5s-0.224 0.5-0.5 0.5z"></path>
<path d="M17.5 11h-15c-0.276 0-0.5-0.224-0.5-0.5s0.224-0.5 0.5-0.5h15c0.276 0 0.5 0.224 0.5 0.5s-0.224 0.5-0.5 0.5z"></path>
<path d="M17.5 16h-15c-0.276 0-0.5-0.224-0.5-0.5s0.224-0.5 0.5-0.5h15c0.276 0 0.5 0.224 0.5 0.5s-0.224 0.5-0.5 0.5z"></path>
</svg>
