<!-- Generated by IcoMoon.io -->
<svg version="1.1" xmlns="http://www.w3.org/2000/svg" width="32" height="32" viewBox="0 0 32 32">
<title>meter-slow</title>
<path d="M16 8c-8.837 0-16 7.163-16 16h2c0-3.638 1.619-6.898 4.176-9.098l6.776 8.47c-0.042 0.203-0.063 0.413-0.063 0.628 0 1.718 1.393 3.111 3.111 3.111s3.111-1.393 3.111-3.111-1.393-3.111-3.111-3.111c-0.215 0-0.425 0.022-0.628 0.064l-8.373-6.699c1.97-1.418 4.388-2.253 7.001-2.253 6.627 0 12 5.373 12 12h6c0-8.836-7.163-16-16-16z"></path>
</svg>
