<!-- Generated by IcoMoon.io -->
<svg version="1.1" xmlns="http://www.w3.org/2000/svg" width="24" height="24" viewBox="0 0 24 24">
<title>mic</title>
<path d="M12 2c0.553 0 1.051 0.223 1.414 0.586s0.586 0.861 0.586 1.414v8c0 0.553-0.223 1.051-0.586 1.414s-0.861 0.586-1.414 0.586-1.051-0.223-1.414-0.586-0.586-0.861-0.586-1.414v-8c0-0.553 0.223-1.051 0.586-1.414s0.861-0.586 1.414-0.586zM12 0c-1.104 0-2.106 0.449-2.828 1.172s-1.172 1.724-1.172 2.828v8c0 1.104 0.449 2.106 1.172 2.828s1.724 1.172 2.828 1.172 2.106-0.449 2.828-1.172 1.172-1.724 1.172-2.828v-8c0-1.104-0.449-2.106-1.172-2.828s-1.724-1.172-2.828-1.172zM8 24h8c0.552 0 1-0.448 1-1s-0.448-1-1-1h-3v-2.062c1.809-0.226 3.432-1.056 4.657-2.281 1.446-1.447 2.343-3.448 2.343-5.657v-2c0-0.552-0.448-1-1-1s-1 0.448-1 1v2c0 1.657-0.67 3.156-1.757 4.243s-2.586 1.757-4.243 1.757-3.156-0.67-4.243-1.757-1.757-2.586-1.757-4.243v-2c0-0.552-0.448-1-1-1s-1 0.448-1 1v2c0 2.209 0.897 4.21 2.343 5.657 1.225 1.225 2.847 2.055 4.657 2.281v2.062h-3c-0.552 0-1 0.448-1 1s0.448 1 1 1z"></path>
</svg>
