<!-- Generated by IcoMoon.io -->
<svg version="1.1" xmlns="http://www.w3.org/2000/svg" width="32" height="32" viewBox="0 0 32 32">
<title>mobile-2</title>
<path d="M21 0c-0.552 0-1 0.448-1 1v3h-11c-0.552 0-1 0.448-1 1v26c0 0.552 0.448 1 1 1h12c0.552 0 1-0.448 1-1v-30c0-0.552-0.448-1-1-1zM12 30h-2v-2h2v2zM12 26h-2v-2h2v2zM12 22h-2v-2h2v2zM16 30h-2v-2h2v2zM16 26h-2v-2h2v2zM16 22h-2v-2h2v2zM20 30h-2v-2h2v2zM20 26h-2v-2h2v2zM20 22h-2v-2h2v2zM20 17c0 0.552-0.448 1-1 1h-8c-0.552 0-1-0.448-1-1v-10c0-0.552 0.448-1 1-1h8c0.552 0 1 0.448 1 1v10z"></path>
</svg>
