<!-- Generated by IcoMoon.io -->
<svg version="1.1" xmlns="http://www.w3.org/2000/svg" width="32" height="32" viewBox="0 0 32 32">
<title>more_inverted</title>
<path d="M16.031 0.261c-8.662-0.044-15.79 7.073-15.739 15.715 0.052 8.693 7.010 15.636 15.685 15.65 8.642 0.014 15.688-7.010 15.695-15.645 0.007-8.647-6.986-15.675-15.641-15.719zM9.262 17.83c-1.033 0-1.871-0.838-1.871-1.871s0.838-1.871 1.871-1.871 1.871 0.838 1.871 1.871-0.838 1.871-1.871 1.871zM15.834 17.83c-1.033 0-1.871-0.838-1.871-1.871s0.838-1.871 1.871-1.871 1.871 0.838 1.871 1.871-0.838 1.871-1.871 1.871zM22.405 17.83c-1.033 0-1.871-0.838-1.871-1.871s0.838-1.871 1.871-1.871 1.871 0.838 1.871 1.871-0.838 1.871-1.871 1.871z"></path>
</svg>
