<!-- Generated by IcoMoon.io -->
<svg version="1.1" xmlns="http://www.w3.org/2000/svg" width="32" height="32" viewBox="0 0 32 32">
<title>more</title>
<path d="M15.977 31.625c-8.675-0.014-15.633-6.957-15.685-15.65-0.051-8.642 7.077-15.759 15.739-15.715 8.655 0.044 15.648 7.073 15.641 15.719-0.007 8.635-7.053 15.659-15.695 15.645zM2.927 15.899c-0.024 7.055 5.842 13.009 12.857 13.050 7.336 0.043 13.208-5.767 13.215-13.076 0.007-7.081-5.778-13.004-12.725-13.029-7.462-0.027-13.322 5.705-13.347 13.055zM7.391 15.959c-0 0.003-0 0.007-0 0.011 0 1.033 0.838 1.871 1.871 1.871s1.871-0.838 1.871-1.871c0-0.004 0-0.008 0-0.011 0-0.003 0-0.006 0-0.010 0-1.033-0.838-1.871-1.871-1.871s-1.871 0.838-1.871 1.871c0 0.004 0 0.008 0 0.011zM13.963 15.959c0 0.003 0 0.007 0 0.011 0 1.033 0.838 1.871 1.871 1.871s1.871-0.838 1.871-1.871c0-0.004 0-0.008 0-0.011 0-0.003 0-0.006 0-0.010 0-1.033-0.838-1.871-1.871-1.871s-1.871 0.838-1.871 1.871c0 0.004 0 0.008 0 0.011zM20.534 15.959c0 1.033 0.838 1.871 1.871 1.871s1.871-0.838 1.871-1.871c0-1.033-0.838-1.871-1.871-1.871s-1.871 0.838-1.871 1.871z"></path>
</svg>
