<!-- Generated by IcoMoon.io -->
<svg version="1.1" xmlns="http://www.w3.org/2000/svg" width="32" height="32" viewBox="0 0 32 32">
<title>mtarget</title>
<path d="M2.074 8.833c-0.305-0.547-0.327-0.827-0.512-1.372-0.271-0.797-1.195-0.091-1.268-1.118-0.071-1.006 0.992-0.572 1.233-1.207 0.067-0.178 0.090-0.498 0.276-0.939 0.473-1.123 1.254-2.047 2.329-2.634 0.823-0.449 1.421-0.482 1.618-0.585 0.45-0.234 0.112-1.284 1.129-1.125 0.827 0.13 0.382 0.87 0.871 1.125 0.197 0.103 0.795 0.136 1.618 0.585 1.494 0.815 2.435 2.251 2.661 3.922 0.496 0.023 1.098 0.072 1.179 0.687 0.021 0.159-0.014 0.366-0.090 0.506-0.294 0.54-0.818 0.184-1.076 0.551-0.071 0.101-0.311 1.084-0.603 1.604-0.859 1.524-2.236 2.428-3.96 2.661 0 0.256 0.031 0.71-0.1 0.924-0.228 0.374-1.030 0.374-1.258 0-0.131-0.215-0.1-0.669-0.1-0.924-1.709-0.241-3.098-1.141-3.945-2.661zM21.984 2.138c2.383 0.003 4.202 1.823 4.206 4.206 0 0 0 21.201 0 21.201-0.004 2.653-1.985 4.287-4.549 4.292 0 0-11.244 0-11.244 0-2.555-0.004-4.545-1.651-4.549-4.292 0 0 0-13.648 0-13.648s1.030 0.078 1.030 0.078c0 0 0.773-0.078 0.773-0.078s0 7.811 0 7.811c0 0 0 1.717 0 1.717 0.003 0.184-0.003 0.409 0.137 0.549 0.165 0.165 0.503 0.136 0.721 0.137 0 0 12.188 0 12.188 0s2.833 0 2.833 0c0.218-0.001 0.556 0.027 0.721-0.137s0.136-0.503 0.137-0.721c0 0 0-16.566 0-16.566-0.018-1.517-0.942-2.572-2.489-2.575 0 0-8.24 0-8.24 0-0.187 0-0.488 0.020-0.645-0.088-0.149-0.103-0.282-0.432-0.365-0.599-0.209-0.421-0.513-0.844-0.621-1.288 0 0 9.957 0 9.957 0zM3.101 5.485c0.31 0.027 0.6 0.058 0.839 0.283 0.385 0.364 0.313 0.912-0.155 1.161-0.209 0.111-0.454 0.098-0.683 0.1 0.25 1.593 1.498 2.444 2.918 2.918 0.001-0.267-0.023-0.536 0.137-0.767 0.37-0.536 1.306-0.518 1.322 0.682 1.349-0.122 2.778-1.475 2.918-2.833-0.27-0.003-0.53 0.013-0.763-0.149-0.44-0.306-0.424-0.862 0-1.174 0.236-0.173 0.566-0.198 0.849-0.221-0.5-1.499-1.338-2.661-3.004-2.918 0 0.233 0.023 0.561-0.088 0.769-0.264 0.496-0.9 0.545-1.222 0.080-0.173-0.248-0.149-0.561-0.149-0.849-1.394 0.215-2.787 1.475-2.918 2.918zM14.86 11.336c0.653 0.177 0.882 0.44 1.116 0.461 0.213 0.019 0.667-0.28 0.944-0.37 0.578-0.188 1.197-0.276 1.803-0.276 1.694-0.003 3.481 0.378 4.054 2.232 0.103 0.336 0.148 0.68 0.152 1.030 0 0 0 6.438 0 6.438-0.001 0.33 0.019 0.646-0.173 0.936-0.388 0.588-1.288 0.526-1.66 0.076-0.246-0.299-0.227-0.65-0.227-1.011 0 0 0-3.348 0-3.348s0-2.489 0-2.489c-0.003-0.488-0.021-0.811-0.362-1.198-0.806-0.914-2.606-0.809-3.242 0.254-0.191 0.32-0.172 0.589-0.173 0.944 0 0 0 5.837 0 5.837-0.009 0.758-0.304 1.457-1.202 1.356-0.768-0.086-0.857-0.637-0.858-1.27 0 0 0-5.665 0-5.665-0.002-1.215-0.474-2.027-1.803-2.059-1.226-0.029-2.054 0.5-2.060 1.802 0 0 0 5.837 0 5.837-0.001 0.33 0.019 0.646-0.173 0.936-0.388 0.588-1.288 0.526-1.66 0.076-0.246-0.299-0.227-0.65-0.227-1.011 0 0 0-5.064 0-5.064 0-0.936-0.093-1.973 0.342-2.833 0.58-1.143 1.56-1.546 2.748-1.765 0.733-0.094 1.948-0.046 2.661 0.148zM7.65 26.257c0 1.134-0.136 2.339 0.86 3.142 0.943 0.762 2.684 0.549 3.861 0.549 0 0 9.27 0 9.27 0 0.393-0.001 0.644-0.005 1.030-0.111 1.833-0.498 1.717-2.079 1.717-3.58 0 0-16.738 0-16.738 0z"></path>
</svg>
