<!-- Generated by IcoMoon.io -->
<svg version="1.1" xmlns="http://www.w3.org/2000/svg" width="32" height="32" viewBox="0 0 32 32">
<title>nav-pricing</title>
<path d="M15.977 31.625c-8.675-0.014-15.633-6.957-15.685-15.65-0.051-8.642 7.077-15.759 15.739-15.715 8.655 0.044 15.648 7.073 15.641 15.719-0.007 8.635-7.053 15.659-15.695 15.645zM2.927 15.899c-0.024 7.055 5.842 13.009 12.857 13.050 7.336 0.043 13.208-5.767 13.215-13.076 0.007-7.081-5.778-13.004-12.725-13.029-7.462-0.027-13.322 5.705-13.347 13.055zM19.617 13.792c-0.001-0.103-0.006-0.205-0.015-0.306h0.92v-0.593h-1.023c-0.41-1.561-1.831-2.713-3.521-2.713s-3.11 1.152-3.521 2.713h-1.023v0.593h0.92c-0.009 0.101-0.014 0.203-0.015 0.306h-1.5v8.518h10.279v-8.518h-1.5zM15.977 11.225c1.107 0 2.051 0.693 2.425 1.668h-4.849c0.373-0.975 1.318-1.668 2.425-1.668zM13.403 13.486h5.148c0.013 0.1 0.020 0.202 0.021 0.306h-5.191c0.001-0.104 0.009-0.206 0.021-0.306z"></path>
</svg>
