<!-- Generated by IcoMoon.io -->
<svg version="1.1" xmlns="http://www.w3.org/2000/svg" width="32" height="32" viewBox="0 0 32 32">
<title>nav-triggers</title>
<path d="M11.127 21.223c-0.318-1.661-0.941-3.486-0.94-5.311 0.001-1.807 0.632-3.614 0.947-5.218-3.216 2.516-3.227 7.916-0.007 10.529zM20.473 10.37c2.028 3.782 1.979 7.399 0.043 11.146 3.649-2.538 3.651-8.553-0.043-11.146zM16.162 14.156c-0.942-0.072-1.867 0.754-1.922 1.716-0.054 0.944 0.787 1.856 1.747 1.893 0.907 0.035 1.772-0.738 1.859-1.661 0.089-0.944-0.715-1.874-1.684-1.948zM13.575 19.562c-0.956-2.409-0.983-4.759 0.055-7.313-2.887 1.714-2.611 6.056-0.055 7.313zM18.521 12.364c0.948 2.399 0.984 4.746-0.061 7.3 3.055-1.876 2.442-6.218 0.061-7.3zM15.977 31.625c-8.675-0.014-15.633-6.957-15.685-15.65-0.051-8.642 7.077-15.759 15.739-15.715 8.655 0.044 15.648 7.073 15.641 15.719-0.007 8.635-7.053 15.659-15.695 15.645zM2.927 15.899c-0.024 7.055 5.842 13.009 12.857 13.050 7.336 0.043 13.208-5.767 13.215-13.076 0.007-7.081-5.778-13.004-12.725-13.029-7.462-0.027-13.322 5.705-13.347 13.055z"></path>
</svg>
