<!-- Generated by IcoMoon.io -->
<svg version="1.1" xmlns="http://www.w3.org/2000/svg" width="32" height="32" viewBox="0 0 32 32">
<title>nav-docs-inverted</title>
<path d="M1.094 15.905c0 8.249 6.695 14.936 14.953 14.936s14.953-6.687 14.953-14.936-6.695-14.936-14.953-14.936c-8.258 0-14.953 6.687-14.953 14.936zM11.094 20.715v-9.778c0-0.163 0.059-0.302 0.176-0.416s0.259-0.171 0.427-0.171h5.022v3.325c0 0.163 0.059 0.302 0.176 0.416s0.259 0.171 0.427 0.171h3.415v6.454c0 0.163-0.059 0.301-0.176 0.416s-0.259 0.171-0.427 0.171h-8.438c-0.167 0-0.31-0.057-0.427-0.171s-0.176-0.253-0.176-0.415v0zM13.505 18.759c0 0.057 0.019 0.104 0.056 0.141s0.086 0.055 0.144 0.055h4.42c0.059 0 0.107-0.018 0.145-0.055s0.056-0.084 0.056-0.141v-0.391c0-0.057-0.019-0.104-0.056-0.141s-0.086-0.055-0.145-0.055h-4.42c-0.059 0-0.107 0.018-0.144 0.055s-0.056 0.084-0.056 0.141v0.391zM13.505 17.194c0 0.057 0.019 0.104 0.056 0.141s0.086 0.055 0.144 0.055h4.42c0.059 0 0.107-0.018 0.145-0.055s0.056-0.084 0.056-0.141v-0.391c0-0.057-0.019-0.104-0.056-0.141s-0.086-0.055-0.145-0.055h-4.42c-0.059 0-0.107 0.018-0.144 0.055s-0.056 0.084-0.056 0.141v0.391zM13.505 15.63c0 0.057 0.019 0.104 0.056 0.141s0.086 0.055 0.144 0.055h4.42c0.059 0 0.107-0.018 0.145-0.055s0.056-0.084 0.056-0.141v-0.391c0-0.057-0.019-0.104-0.056-0.141s-0.086-0.055-0.145-0.055h-4.42c-0.059 0-0.107 0.018-0.144 0.055s-0.056 0.084-0.056 0.141v0.391zM17.523 13.479v-2.885c0.092 0.057 0.167 0.114 0.226 0.171l2.561 2.493c0.059 0.057 0.117 0.13 0.176 0.22h-2.963z"></path>
</svg>
