<!-- Generated by IcoMoon.io -->
<svg version="1.1" xmlns="http://www.w3.org/2000/svg" width="32" height="32" viewBox="0 0 32 32">
<title>nav-contacts-inverted</title>
<path d="M13.188 15.445c0.997-0.653 1.239-1.502 0.683-2.258-0.498-0.674-1.486-0.813-2.076-0.219-0.255 0.256-0.437 0.66-0.494 1.021-0.11 0.708 0.408 1.122 0.942 1.486-1.511 0.836-1.823 2.21-1.92 3.746 1.624 0 3.187 0 4.746 0 0.074-1.636-0.533-2.857-1.88-3.776zM16.996 19.236c1.579 0 3.127 0 4.704 0 0-0.317 0-0.6 0-0.915-1.579 0-3.127 0-4.704 0 0 0.316 0 0.599 0 0.915zM21.693 15.486c-1.587 0-3.135 0-4.704 0 0 0.309 0 0.579 0 0.899 1.604 0 3.152 0 4.704 0 0-0.324 0-0.609 0-0.899zM16.032 1.104c-8.192 0-14.832 6.64-14.832 14.832s6.64 14.832 14.832 14.832c8.192 0 14.832-6.64 14.832-14.832s-6.64-14.832-14.832-14.832zM23.596 18.997c-0.003 1.369-0.759 2.129-2.121 2.135-1.814 0.007-3.628 0.002-5.441 0.002-1.795 0-3.591 0.003-5.384-0.002-1.441-0.003-2.18-0.746-2.183-2.193-0.005-2.011-0.005-4.022 0-6.034 0.003-1.408 0.752-2.163 2.152-2.165 3.609-0.005 7.217-0.005 10.826 0 1.401 0.002 2.149 0.755 2.154 2.163 0.005 2.031 0.006 4.062-0.002 6.093zM17.007 13.54c1.591 0 3.138 0 4.706 0 0-0.312 0-0.582 0-0.895-1.613 0-3.161 0-4.706 0 0 0.326 0 0.61 0 0.895z"></path>
</svg>
