<!-- Generated by IcoMoon.io -->
<svg version="1.1" xmlns="http://www.w3.org/2000/svg" width="32" height="32" viewBox="0 0 32 32">
<title>nav-learn-inverted</title>
<path d="M15.999 0.296c-8.662-0.044-15.79 7.073-15.739 15.715 0.052 8.693 7.010 15.636 15.685 15.65 8.642 0.014 15.688-7.010 15.695-15.645 0.007-8.647-6.986-15.675-15.641-15.719zM20.728 19.708c-1.172 1.127-2.736 1.772-4.639 1.772-1.755 0-3.483-0.504-4.639-1.429v-2.528c0-0.095 0.018-0.184 0.044-0.27 1.974 0.984 3.869 1.813 4.656 1.813 0.773 0 2.606-0.866 4.508-1.894 0.044 0.109 0.069 0.227 0.069 0.351v2.184zM23.192 18.405h-0.989v-3.928c-1.71 1.036-5.133 3.034-6.114 3.034-1.351 0-7.382-3.501-7.382-3.501s6.323-3.557 7.382-3.533c1.059 0.023 7.102 3.392 7.102 3.392l0 4.537zM15.666 13.953c0 0.105 0.288 0.562 0.288 0.562s0.267-0.478 0.268-0.562c0.002-0.084-0.28-0.584-0.28-0.584s-0.277 0.477-0.277 0.584z"></path>
</svg>
