<!-- Generated by IcoMoon.io -->
<svg version="1.1" xmlns="http://www.w3.org/2000/svg" width="32" height="32" viewBox="0 0 32 32">
<title>nav-home</title>
<path d="M15.997 1.105c-8.158 0-14.771 6.613-14.771 14.771s6.612 14.771 14.771 14.771c8.158 0 14.771-6.613 14.771-14.771s-6.613-14.771-14.771-14.771zM15.997 27.889c-6.634 0-12.014-5.379-12.014-12.013s5.379-12.014 12.014-12.014c6.634 0 12.014 5.379 12.014 12.014s-5.379 12.013-12.014 12.013zM20.36 10.312h-1.704v2.341l-2.664-2.662-7.098 6.992v0.411h1.769v4.364h4.436v-2.633h1.788v2.633h4.436v-4.364h1.778v-0.411l-2.742-2.625z"></path>
</svg>
