<!-- Generated by IcoMoon.io -->
<svg version="1.1" xmlns="http://www.w3.org/2000/svg" width="32" height="32" viewBox="0 0 32 32">
<title>nav-channels-inverted</title>
<path d="M16.025 0.394c-8.624-0.027-15.576 6.915-15.578 15.556-0.003 8.622 6.962 15.586 15.577 15.575 8.569-0.011 15.506-6.945 15.532-15.524 0.026-8.638-6.882-15.58-15.531-15.607zM21.119 20.81c-1.14 1.281-2.285 1.246-3.715 0.648-3.819-1.599-6.31-4.323-7.276-8.364-0.099-0.412 0.141-0.918 0.272-1.367 0.052-0.177 0.213-0.345 0.365-0.466 0.569-0.456 1.272-1.354 1.71-1.242 1.085 0.276 1.949 1.165 2.271 2.305 0.089 0.315-0.291 0.907-0.618 1.169-1.22 0.977-1.323 1.59-0.26 2.749 0.606 0.66 1.234 1.307 1.908 1.896 0.382 0.335 0.876 0.544 1.465 0.898 0.421-0.404 0.827-0.712 1.131-1.101 0.781-0.997 0.992-1.061 2.031-0.357 0.3 0.203 0.58 0.448 0.826 0.713 1.032 1.112 0.897 1.388-0.11 2.52z"></path>
</svg>
