<!-- Generated by IcoMoon.io -->
<svg version="1.1" xmlns="http://www.w3.org/2000/svg" width="32" height="32" viewBox="0 0 32 32">
<title>nav-learn</title>
<path d="M15.945 31.661c-8.675-0.014-15.633-6.957-15.685-15.65-0.051-8.642 7.077-15.759 15.739-15.715 8.655 0.044 15.648 7.073 15.641 15.719-0.007 8.635-7.053 15.659-15.695 15.645zM2.895 15.934c-0.024 7.055 5.842 13.009 12.857 13.050 7.336 0.043 13.208-5.767 13.215-13.075 0.007-7.081-5.778-13.004-12.725-13.029-7.462-0.027-13.322 5.705-13.347 13.055zM16.151 19.067c-0.787 0-2.683-0.829-4.656-1.813-0.026 0.086-0.044 0.176-0.044 0.27v2.528c1.156 0.925 2.884 1.429 4.639 1.429 1.902 0 3.467-0.645 4.639-1.772v-2.184c0-0.124-0.025-0.242-0.069-0.351-1.902 1.028-3.735 1.894-4.508 1.894zM16.090 10.477c-1.059-0.023-7.382 3.533-7.382 3.533s6.031 3.501 7.382 3.501c0.98 0 4.404-1.998 6.114-3.034v3.928h0.989v-4.537c-0 0-6.043-3.368-7.102-3.392zM15.954 14.515c0 0-0.288-0.457-0.288-0.562 0-0.107 0.277-0.584 0.277-0.584s0.281 0.5 0.28 0.584c-0.002 0.084-0.268 0.562-0.268 0.562z"></path>
</svg>
