<!-- Generated by IcoMoon.io -->
<svg version="1.1" xmlns="http://www.w3.org/2000/svg" width="32" height="32" viewBox="0 0 32 32">
<title>nav-campaigns-inverted</title>
<path d="M16.083 0.251c-8.662-0.044-15.79 7.073-15.739 15.715 0.052 8.693 7.010 15.636 15.685 15.65 8.642 0.014 15.688-7.010 15.695-15.645 0.007-8.646-6.986-15.675-15.641-15.719zM16.203 23.824c-0.056 0.001-0.113 0.002-0.169 0.002s-0.113-0.001-0.169-0.002c-3.551-0.090-6.402-2.997-6.402-6.57 0-1.683 0.633-3.218 1.673-4.38l-0.338-0.281-0.043 0.051c-0.104 0.125-0.29 0.142-0.415 0.038l-0.283-0.235c-0.125-0.104-0.142-0.29-0.038-0.415l0.659-0.793c0.104-0.125 0.29-0.142 0.415-0.038l0.283 0.235c0.125 0.104 0.142 0.29 0.038 0.415l-0.043 0.051 0.411 0.341c0.789-0.67 1.738-1.158 2.782-1.396 0.295-0.067 0.598-0.115 0.907-0.141v-1.194h-0.363c-0.081 0-0.147-0.066-0.147-0.147v-1.177c0-0.081 0.066-0.147 0.147-0.147h1.851c0.081 0 0.147 0.066 0.147 0.147v1.177c0 0.081-0.066 0.147-0.147 0.147h-0.363v1.194c0.309 0.026 0.612 0.074 0.907 0.141 1.072 0.245 2.044 0.752 2.846 1.45l0.476-0.396-0.043-0.051c-0.104-0.125-0.087-0.311 0.038-0.415l0.283-0.235c0.125-0.104 0.311-0.087 0.415 0.038l0.659 0.793c0.104 0.125 0.087 0.311-0.038 0.415l-0.283 0.235c-0.125 0.104-0.311 0.087-0.415-0.038l-0.043-0.051-0.412 0.342c1.008 1.155 1.619 2.665 1.619 4.319 0 3.573-2.851 6.48-6.402 6.57zM16.034 12.455c-2.656 0-4.809 2.153-4.809 4.809s2.153 4.809 4.809 4.809c2.656 0 4.809-2.153 4.809-4.809s-2.153-4.809-4.809-4.809zM16.034 18.285c-0.564 0-1.021-0.457-1.021-1.021s1.021-4.083 1.021-4.083 1.021 3.519 1.021 4.083c0 0.564-0.457 1.021-1.021 1.021z"></path>
</svg>
