<!-- Generated by IcoMoon.io -->
<svg version="1.1" xmlns="http://www.w3.org/2000/svg" width="32" height="32" viewBox="0 0 32 32">
<title>nav-orgs</title>
<path d="M15.969 31.623c-8.675-0.014-15.633-6.957-15.685-15.65-0.051-8.642 7.077-15.759 15.739-15.715 8.655 0.044 15.648 7.073 15.641 15.719-0.007 8.635-7.053 15.659-15.695 15.645zM2.919 15.897c-0.024 7.055 5.842 13.009 12.857 13.050 7.336 0.043 13.208-5.767 13.215-13.075 0.007-7.081-5.778-13.004-12.725-13.029-7.462-0.027-13.322 5.705-13.347 13.055zM20.337 20.948v-10.36c0-0.145-0.118-0.262-0.262-0.262l-8.352-0c-0.145 0-0.262 0.118-0.262 0.262v10.36h-0.607v0.607h2.565v-1.897c0 0 0.23-0.394 0.788-0.394s0.82 0.394 0.82 0.394v1.897h1.793v-1.897c0 0 0.23-0.394 0.788-0.394s0.82 0.394 0.82 0.394v1.897h2.669v-0.607l-0.759 0zM13.736 17.549h-1.138v-2.056h1.138v2.056zM13.736 14.438h-1.138v-2.056h1.138v2.056zM15.595 17.549h-1.138v-2.056h1.138v2.056zM15.595 14.438h-1.138v-2.056h1.138v2.056zM17.492 17.549h-1.138l0-2.056h1.138l-0 2.056zM17.492 14.438h-1.138v-2.056h1.138v2.056zM19.313 17.549h-1.138v-2.056h1.138v2.056zM19.313 14.438h-1.138v-2.056h1.138v2.056z"></path>
</svg>
