<!-- Generated by IcoMoon.io -->
<svg version="1.1" xmlns="http://www.w3.org/2000/svg" width="32" height="32" viewBox="0 0 32 32">
<title>nav-login</title>
<path d="M16.034 1.019c-8.245-0.002-14.966 6.698-14.96 14.91 0.007 8.209 6.749 14.933 14.967 14.926 8.239-0.006 14.959-6.72 14.946-14.932-0.013-8.25-6.687-14.902-14.954-14.904zM15.885 28.095c-7.010-0.209-12.233-5.734-12.014-12.707 0.207-6.578 5.886-11.835 12.575-11.641 6.742 0.195 11.954 5.853 11.756 12.763-0.183 6.399-5.901 11.777-12.318 11.585zM21.549 21.301c-3.768 0-7.506 0-11.265 0 0.090-0.77 0.579-1.25 1.127-1.671 0.882-0.677 1.861-1.176 2.93-1.492 0.437-0.13 0.588-0.632 0.355-1.021-0.3-0.503-0.55-1.035-0.825-1.552-0.047-0.089-0.103-0.182-0.178-0.245-0.385-0.319-0.505-0.847-0.319-1.309 0.076-0.189 0.098-0.404 0.12-0.61 0.058-0.531 0.047-1.075 0.165-1.591 0.134-0.584 0.56-0.972 1.126-1.174 0.748-0.268 1.509-0.274 2.255-0.005 0.826 0.298 1.2 0.952 1.293 1.788 0.028 0.253-0.001 0.512 0.024 0.766 0.031 0.311 0.064 0.626 0.146 0.926 0.123 0.446 0.002 0.916-0.344 1.203-0.085 0.071-0.148 0.175-0.2 0.275-0.262 0.495-0.488 1.011-0.782 1.485-0.269 0.433-0.135 0.924 0.345 1.074 1.273 0.398 2.44 0.989 3.405 1.93 0.333 0.325 0.58 0.704 0.62 1.223z"></path>
</svg>
