<!-- Generated by IcoMoon.io -->
<svg version="1.1" xmlns="http://www.w3.org/2000/svg" width="32" height="32" viewBox="0 0 32 32">
<title>nav-blog-inverted</title>
<path d="M16.039 0.258c-8.662-0.044-15.79 7.073-15.739 15.715 0.052 8.693 7.010 15.636 15.685 15.65 8.642 0.014 15.688-7.010 15.695-15.645 0.007-8.647-6.986-15.675-15.641-15.719zM21.329 10.89c-0.070 0.091-0.212 0.137-0.33 0.178-0.791 0.269-1.584 0.531-2.376 0.796 0.012 0.044 0.023 0.087 0.035 0.131 0.649 0 1.298 0 2.026 0-0.272 0.489-0.519 0.954-0.794 1.401-0.038 0.062-0.214 0.066-0.322 0.056-1.23-0.116-2.28 0.384-3.322 0.955 0.995-0.050 1.984-0.126 3.017 0.138-0.297 0.489-0.571 0.942-0.849 1.4-1.411-0.344-2.59 0.249-3.772 0.861 1.003-0.040 2.002-0.115 2.999 0.137-0.928 1.542-3.232 2.237-4.854 1.461-0.075 0.113-0.157 0.229-0.23 0.351-0.619 1.031-1.264 2.048-1.841 3.102-0.256 0.468-0.559 0.634-1.083 0.492 0.011-0.071 0.012-0.159 0.040-0.238 1.155-3.238 2.696-6.258 5.045-8.809 1.531-1.662 3.318-2.945 5.553-3.485 0.654-0.158 1.331-0.218 2.076-0.335-0.382 0.534-0.689 0.979-1.018 1.408z"></path>
</svg>
