<!-- Generated by IcoMoon.io -->
<svg version="1.1" xmlns="http://www.w3.org/2000/svg" width="32" height="32" viewBox="0 0 32 32">
<title>nav-channels</title>
<path d="M0.447 15.95c0.002-8.641 6.954-15.583 15.578-15.556 8.649 0.027 15.557 6.969 15.531 15.607-0.026 8.579-6.964 15.513-15.532 15.524-8.614 0.011-15.579-6.953-15.577-15.575zM28.865 16.030c0.142-6.917-5.517-12.857-12.397-13.014-7.358-0.168-13.223 5.444-13.349 12.775-0.119 6.931 5.593 12.832 12.561 12.977 7.201 0.15 13.036-5.487 13.184-12.738zM17.241 19.035c0.421-0.404 0.827-0.712 1.131-1.101 0.781-0.997 0.992-1.061 2.031-0.357 0.3 0.203 0.58 0.448 0.826 0.713 1.032 1.112 0.897 1.388-0.11 2.52-1.14 1.281-2.285 1.246-3.715 0.648-3.819-1.599-6.31-4.323-7.276-8.364-0.099-0.412 0.141-0.918 0.272-1.367 0.052-0.177 0.213-0.345 0.365-0.466 0.569-0.456 1.272-1.354 1.71-1.242 1.085 0.276 1.949 1.165 2.271 2.305 0.089 0.315-0.291 0.907-0.618 1.169-1.22 0.978-1.323 1.59-0.26 2.749 0.606 0.66 1.234 1.307 1.908 1.896 0.382 0.335 0.876 0.544 1.465 0.898z"></path>
</svg>
