<!-- Generated by IcoMoon.io -->
<svg version="1.1" xmlns="http://www.w3.org/2000/svg" width="32" height="32" viewBox="0 0 32 32">
<title>nav-dashboard</title>
<path d="M15.977 31.625c-8.675-0.014-15.633-6.957-15.685-15.65-0.051-8.642 7.077-15.759 15.739-15.715 8.655 0.044 15.648 7.073 15.641 15.719-0.007 8.635-7.053 15.659-15.695 15.645zM2.927 15.899c-0.024 7.055 5.842 13.009 12.857 13.050 7.336 0.043 13.208-5.767 13.215-13.076 0.007-7.081-5.778-13.004-12.725-13.029-7.462-0.027-13.322 5.705-13.347 13.055zM16.116 9.957c1.774 0.006 3.383 0.855 4.456 2.168l0.903-0.78c-1.31-1.561-3.272-2.557-5.469-2.568-1.949-0.010-3.728 0.774-5.029 2.044-0.185 0.105-0.309 0.295-0.309 0.512 0 0.331 0.287 0.6 0.641 0.6 0.258 0 0.48-0.143 0.582-0.349 1.089-1.018 2.572-1.633 4.227-1.627zM23.12 13.266l-0.6-0.653-5.631 5.175c-0.213-0.12-0.458-0.188-0.72-0.188-0.813 0-1.472 0.659-1.472 1.472s0.659 1.472 1.472 1.472 1.472-0.659 1.472-1.472c0-0.228-0.052-0.444-0.145-0.637l5.624-5.168z"></path>
</svg>
