<!-- Generated by IcoMoon.io -->
<svg version="1.1" xmlns="http://www.w3.org/2000/svg" width="32" height="32" viewBox="0 0 32 32">
<title>nav-analytics</title>
<path d="M16.034 1.141c-8.141 0-14.739 6.599-14.739 14.739s6.598 14.739 14.739 14.739c8.14 0 14.739-6.599 14.739-14.739s-6.599-14.739-14.739-14.739zM16.034 27.867c-6.621 0-11.988-5.367-11.988-11.987s5.367-11.987 11.988-11.987c6.62 0 11.987 5.367 11.987 11.987s-5.367 11.987-11.987 11.987zM9.398 21.267c4.44 0 8.843 0 13.27 0 0-0.528 0-1.027 0-1.575-4.448 0-8.863 0-13.27 0 0 0.55 0 1.061 0 1.575zM20.158 10.491c-0.528 0-1.027 0-1.573 0 0 2.78 0 5.527 0 8.262 0.551 0 1.062 0 1.573 0 0-2.772 0-5.505 0-8.262zM15.146 12.994c-0.531 0-1.029 0-1.57 0 0 1.951 0 3.862 0 5.758 0.553 0 1.064 0 1.57 0 0-1.938 0-3.837 0-5.758zM17.645 15.513c-0.549 0-1.059 0-1.587 0 0 1.089 0 2.14 0 3.253 0.55 0 1.061 0 1.587 0 0-1.104 0-2.181 0-3.253zM12.638 16.345c-0.546 0-1.055 0-1.581 0 0 0.82 0 1.605 0 2.419 0.535 0 1.045 0 1.581 0 0-0.842 0-1.629 0-2.419z"></path>
</svg>
