<!-- Generated by IcoMoon.io -->
<svg version="1.1" xmlns="http://www.w3.org/2000/svg" width="32" height="32" viewBox="0 0 32 32">
<title>nav-blog</title>
<path d="M15.985 31.623c-8.675-0.014-15.633-6.957-15.685-15.65-0.051-8.642 7.077-15.759 15.739-15.715 8.655 0.044 15.648 7.073 15.641 15.719-0.007 8.635-7.053 15.659-15.695 15.645zM2.935 15.896c-0.024 7.055 5.842 13.009 12.857 13.050 7.336 0.043 13.208-5.767 13.215-13.075 0.007-7.081-5.778-13.004-12.725-13.029-7.462-0.027-13.322 5.705-13.347 13.055zM19.263 14.544c-0.297 0.489-0.571 0.942-0.849 1.4-1.411-0.344-2.59 0.249-3.772 0.861 1.003-0.040 2.002-0.115 2.999 0.137-0.928 1.542-3.232 2.237-4.854 1.461-0.075 0.113-0.157 0.229-0.23 0.351-0.619 1.031-1.264 2.048-1.841 3.102-0.256 0.468-0.559 0.634-1.083 0.492 0.011-0.071 0.012-0.159 0.040-0.238 1.155-3.238 2.696-6.258 5.045-8.809 1.531-1.662 3.318-2.945 5.553-3.485 0.654-0.158 1.331-0.218 2.076-0.335-0.382 0.534-0.689 0.979-1.018 1.408-0.070 0.091-0.212 0.137-0.33 0.178-0.791 0.269-1.584 0.531-2.376 0.796 0.012 0.044 0.023 0.087 0.035 0.131 0.649 0 1.298 0 2.026 0-0.272 0.489-0.519 0.954-0.794 1.401-0.038 0.062-0.214 0.066-0.322 0.056-1.23-0.116-2.28 0.384-3.322 0.955 0.995-0.050 1.984-0.126 3.017 0.138z"></path>
</svg>
