<!-- Generated by IcoMoon.io -->
<svg version="1.1" xmlns="http://www.w3.org/2000/svg" width="32" height="32" viewBox="0 0 32 32">
<title>nav-contacts</title>
<path d="M16.009 1.12c-8.151 0-14.759 6.608-14.759 14.759s6.608 14.759 14.759 14.759 14.759-6.608 14.759-14.759c0-8.151-6.608-14.759-14.759-14.759zM16.009 27.883c-6.63 0-12.004-5.374-12.004-12.004s5.374-12.004 12.004-12.004 12.004 5.375 12.004 12.004c0 6.63-5.374 12.004-12.004 12.004zM21.394 10.709c-3.591-0.005-7.181-0.005-10.773 0-1.393 0.002-2.139 0.753-2.142 2.154-0.005 2.002-0.005 4.003 0 6.004 0.003 1.44 0.738 2.179 2.172 2.182 1.785 0.005 3.571 0.002 5.358 0.002 1.805 0 3.61 0.005 5.415-0.002 1.356-0.006 2.108-0.763 2.111-2.125 0.008-2.022 0.006-4.043 0.002-6.064-0.005-1.401-0.749-2.151-2.143-2.152zM10.327 19.148c0.097-1.528 0.407-2.896 1.911-3.727-0.532-0.363-1.047-0.774-0.938-1.479 0.057-0.36 0.238-0.762 0.492-1.016 0.587-0.59 1.571-0.452 2.066 0.218 0.553 0.752 0.312 1.597-0.68 2.247 1.341 0.914 1.945 2.129 1.871 3.757-1.551 0-3.107 0-4.723 0zM16.961 15.432c1.562 0 3.102 0 4.681 0 0 0.289 0 0.572 0 0.895-1.545 0-3.086 0-4.681 0 0-0.318 0-0.587 0-0.895zM21.65 19.163c-1.57 0-3.11 0-4.681 0 0-0.314 0-0.596 0-0.91 1.57 0 3.11 0 4.681 0 0 0.313 0 0.595 0 0.91zM21.662 13.495c-1.56 0-3.099 0-4.683 0 0-0.283 0-0.566 0-0.89 1.537 0 3.078 0 4.683 0 0 0.311 0 0.58 0 0.89z"></path>
</svg>
