<!-- Generated by IcoMoon.io -->
<svg version="1.1" xmlns="http://www.w3.org/2000/svg" width="32" height="32" viewBox="0 0 32 32">
<title>nav-android</title>
<path d="M16.003 1.191c-8.126 0-14.713 6.586-14.713 14.713s6.587 14.713 14.713 14.713c8.126 0 14.713-6.587 14.713-14.713s-6.587-14.713-14.713-14.713zM16.003 27.87c-6.608 0-11.967-5.358-11.967-11.966s5.358-11.967 11.967-11.967 11.967 5.358 11.967 11.967c0 6.608-5.358 11.966-11.967 11.966zM10.565 13.129c-0.499 0-0.904 0.405-0.904 0.904v3.588c0 0.499 0.405 0.904 0.904 0.904s0.905-0.405 0.905-0.904v-3.588c0-0.499-0.405-0.904-0.905-0.904zM11.978 18.995c0 0.748 0.607 1.355 1.355 1.355h0.452v1.967h0.004c0.037 0.466 0.426 0.833 0.9 0.833 0.476 0 0.864-0.367 0.9-0.833h0.004v-1.967h0.876v1.967h0.004c0.036 0.466 0.425 0.833 0.9 0.833s0.864-0.367 0.9-0.833h0.004v-1.967h0.416c0.748 0 1.355-0.607 1.355-1.355v-5.41h-8.070v5.41zM21.442 13.129c-0.499 0-0.904 0.405-0.904 0.904v3.588c0 0.499 0.405 0.904 0.904 0.904s0.904-0.405 0.904-0.904v-3.588c0-0.499-0.405-0.904-0.904-0.904zM17.661 9.871l0.599-1.076c0.023-0.046 0.006-0.103-0.041-0.126-0.045-0.024-0.102-0.006-0.125 0.040l-0.612 1.099c-0.456-0.153-0.95-0.237-1.469-0.237-0.525 0-1.026 0.086-1.485 0.243l-0.614-1.105c-0.023-0.046-0.081-0.064-0.126-0.040-0.046 0.023-0.065 0.080-0.041 0.126l0.603 1.083c-1.399 0.543-2.372 1.748-2.372 3.15h8.070c-0-1.407-0.981-2.617-2.387-3.157zM14.205 12.312c-0.373 0-0.678-0.304-0.678-0.678s0.304-0.679 0.678-0.679c0.375 0 0.679 0.304 0.679 0.679s-0.304 0.678-0.679 0.678zM17.821 12.312c-0.374 0-0.678-0.304-0.678-0.678s0.304-0.679 0.678-0.679c0.374 0 0.679 0.304 0.679 0.679s-0.304 0.678-0.679 0.678z"></path>
</svg>
