<!-- Generated by IcoMoon.io -->
<svg version="1.1" xmlns="http://www.w3.org/2000/svg" width="32" height="32" viewBox="0 0 32 32">
<title>nav-locations</title>
<path d="M15.995 31.677c-8.675-0.014-15.633-6.957-15.685-15.65-0.051-8.642 7.077-15.759 15.739-15.715 8.655 0.044 15.648 7.073 15.641 15.719-0.007 8.635-7.053 15.659-15.695 15.645zM2.945 15.951c-0.024 7.056 5.842 13.009 12.857 13.050 7.336 0.043 13.208-5.767 13.215-13.075 0.007-7.081-5.778-13.004-12.725-13.029-7.462-0.027-13.322 5.705-13.347 13.055zM21.9 10.101c1.575 1.576 2.443 3.671 2.443 5.899s-0.868 4.324-2.443 5.9c-1.576 1.575-3.671 2.443-5.9 2.443s-4.324-0.868-5.899-2.443c-1.576-1.576-2.444-3.671-2.444-5.9s0.868-4.324 2.444-5.899 3.671-2.443 5.899-2.443c2.228 0 4.324 0.868 5.9 2.443zM21.161 21.162c1.028-1.028 1.711-2.308 1.993-3.7-0.22 0.323-0.43 0.443-0.56-0.281-0.133-1.179-1.217-0.426-1.898-0.845-0.717 0.484-2.329-0.94-2.055 0.665 0.423 0.724 2.281-0.969 1.355 0.563-0.591 1.069-2.162 3.437-1.957 4.664 0.025 1.789-1.827 0.373-2.466-0.22-0.43-1.188-0.147-3.265-1.269-3.847-1.219-0.053-2.265-0.164-2.737-1.527-0.284-0.975 0.302-2.426 1.347-2.65 1.529-0.961 2.075 1.125 3.51 1.164 0.445-0.466 1.659-0.614 1.76-1.137-0.942-0.166 1.194-0.791-0.091-1.146-0.708 0.083-1.165 0.735-0.788 1.286-1.372 0.32-1.417-1.986-2.736-1.259-0.033 1.15-2.154 0.373-0.733 0.14 0.488-0.213-0.796-0.831-0.102-0.719 0.341-0.019 1.488-0.421 1.178-0.691 0.639-0.397 1.176 0.95 1.801-0.031 0.451-0.754-0.189-0.893-0.755-0.511-0.319-0.357 0.563-1.129 1.342-1.462 0.259-0.111 0.507-0.171 0.697-0.155 0.392 0.453 1.117 0.531 1.155-0.054-0.971-0.465-2.041-0.711-3.149-0.711-1.591 0-3.104 0.505-4.356 1.44 0.336 0.154 0.528 0.346 0.204 0.591-0.252 0.75-1.274 1.758-2.171 1.615-0.466 0.803-0.773 1.688-0.904 2.616 0.751 0.249 0.924 0.741 0.763 0.905-0.383 0.334-0.618 0.807-0.739 1.325 0.245 1.497 0.948 2.875 2.041 3.969 1.379 1.378 3.212 2.137 5.162 2.137s3.783-0.759 5.161-2.137h-0.001z"></path>
</svg>
