<!-- Generated by IcoMoon.io -->
<svg version="1.1" xmlns="http://www.w3.org/2000/svg" width="32" height="32" viewBox="0 0 32 32">
<title>nav-groups-inverted</title>
<path d="M16.123 1.118c-8.075-0.13-14.817 6.48-14.987 14.692-0.168 8.118 6.475 14.952 14.69 15.112 8.079 0.158 14.955-6.431 15.099-14.468 0.152-8.514-6.301-15.201-14.802-15.337zM10.414 18.571c-0.877 0.007-1.753 0.004-2.665 0.004 0.111-0.943 0.723-1.405 1.481-1.725 0.341-0.144 0.707-0.23 1.062-0.343-0.13-0.323-0.275-0.641-0.386-0.97-0.188-0.555-0.094-1.089 0.19-1.59 0.379-0.669 1.085-0.677 1.461-0.011 0.407 0.72 0.409 1.455-0.055 2.145-0.239 0.354-0.22 0.489 0.227 0.564 0.359 0.061 0.7 0.221 1.016 0.325-0.71 0.523-1.377 1.019-2.049 1.507-0.077 0.056-0.187 0.092-0.281 0.093zM10.892 20.604c0.006-1.397 1.397-2.43 4.142-2.998-0.093-0.247-0.128-0.516-0.273-0.698-0.981-1.233-1.076-3.368-0.183-4.663 0.789-1.144 2.053-1.146 2.844-0.004 0.895 1.292 0.804 3.435-0.178 4.662-0.142 0.178-0.191 0.429-0.3 0.685 1.93 0.431 3.666 0.87 4.268 3.016-3.492 0-6.907 0-10.321 0zM21.613 18.57c-0.11-0.001-0.236-0.047-0.326-0.112-0.664-0.479-1.321-0.969-2.023-1.486 0.312-0.103 0.667-0.261 1.039-0.331 0.42-0.079 0.433-0.213 0.211-0.54-0.468-0.688-0.498-1.431-0.065-2.136 0.143-0.233 0.473-0.498 0.706-0.488 0.262 0.011 0.599 0.263 0.75 0.505 0.427 0.684 0.4 1.422-0.055 2.090-0.276 0.406-0.17 0.482 0.261 0.581 0.951 0.216 1.805 0.604 2.103 1.666 0.018 0.064 0.017 0.134 0.032 0.257-0.913 0-1.773 0.004-2.633-0.005z"></path>
</svg>
