<!-- Generated by IcoMoon.io -->
<svg version="1.1" xmlns="http://www.w3.org/2000/svg" width="32" height="32" viewBox="0 0 32 32">
<title>nav-flows-inverted</title>
<path d="M15.027 21.373c0.628 0 1.219 0 1.813 0 0-0.616 0-1.196 0-1.796-0.644 0-1.235 0-1.813 0 0 0.628 0 1.218 0 1.796zM16.828 9.415c-0.623 0-1.213 0-1.806 0 0 0.623 0 1.213 0 1.82 0.611 0 1.191 0 1.806 0 0-0.637 0-1.228 0-1.82zM9.487 21.373c0.628 0 1.218 0 1.813 0 0-0.616 0-1.196 0-1.796-0.644 0-1.235 0-1.813 0 0 0.628 0 1.218 0 1.796zM16.123 1.118c-8.075-0.13-14.817 6.48-14.987 14.692-0.168 8.118 6.475 14.952 14.69 15.112 8.079 0.158 14.955-6.431 15.099-14.468 0.152-8.514-6.301-15.201-14.802-15.337zM23.299 21.402c-0.006 0.647-0.253 0.901-0.888 0.907-0.631 0.006-1.261 0.006-1.892 0-0.636-0.007-0.882-0.26-0.888-0.907-0.005-0.584-0.002-1.169-0.001-1.753 0.002-0.738 0.142-0.904 0.9-1.044 0-0.896 0-1.797 0-2.728-1.222 0-2.428 0-3.663 0 0 0.909 0 1.809 0 2.708 0.805 0.202 0.893 0.318 0.893 1.175 0 0.554 0.005 1.108-0.001 1.661-0.007 0.621-0.255 0.88-0.86 0.888-0.661 0.009-1.323 0.011-1.984-0.001-0.555-0.010-0.812-0.272-0.822-0.832-0.011-0.584-0.003-1.169-0.003-1.753 0.001-0.818 0.105-0.951 0.905-1.133 0-0.885 0-1.774 0-2.703-1.206 0-2.412 0-3.658 0 0 0.877 0 1.776 0 2.68 0.862 0.294 0.884 0.325 0.884 1.303 0 0.538 0.009 1.077-0.003 1.615-0.012 0.556-0.271 0.814-0.831 0.823-0.677 0.011-1.354 0.012-2.030-0.001-0.53-0.011-0.791-0.273-0.802-0.804-0.014-0.615-0.005-1.23-0.003-1.846 0.001-0.745 0.142-0.914 0.923-1.056 0-0.861-0-1.733 0-2.604 0.001-1.375 0.595-1.973 1.96-1.974 1.168-0.001 2.336-0 3.542-0 0-0.612 0-1.203 0-1.799-0.846-0.271-0.885-0.325-0.885-1.259-0-0.538-0.006-1.077 0.002-1.615 0.008-0.592 0.259-0.855 0.837-0.864 0.677-0.011 1.354-0.013 2.030 0.001 0.529 0.011 0.787 0.275 0.798 0.808 0.013 0.615 0.004 1.23 0.003 1.846-0.002 0.742-0.144 0.91-0.898 1.047 0 0.588 0 1.18 0 1.836 0.311 0 0.613-0 0.915 0 0.969 0 1.938-0.011 2.907 0.003 1.010 0.015 1.674 0.676 1.689 1.685 0.014 0.952 0.003 1.905 0.003 2.849 0.869 0.265 0.923 0.338 0.924 1.226 0 0.538 0.004 1.077-0.001 1.615zM20.564 21.377c0.624 0 1.214 0 1.819 0 0-0.613 0-1.192 0-1.803-0.64 0-1.231 0-1.819 0 0 0.624 0 1.215 0 1.803z"></path>
</svg>
