<!-- Generated by IcoMoon.io -->
<svg version="1.1" xmlns="http://www.w3.org/2000/svg" width="32" height="32" viewBox="0 0 32 32">
<title>nav-pricing-inverted</title>
<path d="M15.977 11.225c-1.107 0-2.051 0.693-2.425 1.668h4.849c-0.373-0.975-1.318-1.668-2.425-1.668zM13.403 13.486c-0.013 0.1-0.020 0.202-0.021 0.306h5.191c-0.001-0.104-0.009-0.206-0.021-0.306h-5.148zM16.031 0.261c-8.662-0.044-15.79 7.073-15.739 15.715 0.052 8.693 7.010 15.636 15.685 15.65 8.642 0.014 15.688-7.010 15.695-15.645 0.007-8.647-6.986-15.675-15.641-15.719zM21.116 22.31h-10.279v-8.518h1.5c0.001-0.103 0.006-0.205 0.015-0.306h-0.92v-0.593h1.023c0.41-1.561 1.831-2.713 3.521-2.713s3.11 1.152 3.521 2.713h1.023v0.593h-0.92c0.009 0.101 0.014 0.203 0.015 0.306h1.5l0 8.518z"></path>
</svg>
