<!-- Generated by IcoMoon.io -->
<svg version="1.1" xmlns="http://www.w3.org/2000/svg" width="32" height="32" viewBox="0 0 32 32">
<title>nav-android-inverted</title>
<path d="M14.23 10.943c-0.373 0-0.678 0.304-0.678 0.679s0.304 0.678 0.678 0.678c0.375 0 0.679-0.304 0.679-0.678s-0.304-0.679-0.679-0.679zM16.029 1.178c-8.127 0-14.716 6.588-14.716 14.716s6.588 14.716 14.716 14.716c8.127 0 14.716-6.588 14.716-14.716s-6.588-14.716-14.716-14.716zM11.495 17.61c0 0.5-0.405 0.904-0.905 0.904s-0.904-0.405-0.904-0.904v-3.588c0-0.499 0.405-0.904 0.904-0.904s0.905 0.405 0.905 0.904v3.588zM20.075 18.985c0 0.748-0.607 1.356-1.355 1.356h-0.416v1.968h-0.004c-0.037 0.466-0.425 0.833-0.9 0.833s-0.864-0.367-0.9-0.833h-0.004v-1.968h-0.876v1.968h-0.004c-0.037 0.466-0.424 0.833-0.9 0.833-0.475 0-0.864-0.367-0.9-0.833h-0.004v-1.968h-0.453c-0.748 0-1.356-0.607-1.356-1.356v-5.411h8.072v5.411zM12.003 13.017c0-1.403 0.973-2.608 2.372-3.151l-0.603-1.083c-0.024-0.046-0.005-0.103 0.041-0.126 0.045-0.024 0.102-0.006 0.126 0.040l0.614 1.105c0.46-0.156 0.96-0.243 1.486-0.243 0.519 0 1.013 0.083 1.469 0.237l0.612-1.099c0.024-0.046 0.080-0.064 0.125-0.040 0.047 0.023 0.065 0.080 0.041 0.126l-0.599 1.076c1.407 0.54 2.387 1.751 2.387 3.158h-8.072zM22.372 17.61c0 0.5-0.405 0.904-0.904 0.904s-0.904-0.405-0.904-0.904v-3.588c0-0.499 0.405-0.904 0.904-0.904s0.904 0.405 0.904 0.904v3.588zM17.847 10.943c-0.374 0-0.679 0.304-0.679 0.679s0.304 0.678 0.679 0.678c0.374 0 0.679-0.304 0.679-0.678s-0.304-0.679-0.679-0.679z"></path>
</svg>
