<!-- Generated by IcoMoon.io -->
<svg version="1.1" xmlns="http://www.w3.org/2000/svg" width="32" height="32" viewBox="0 0 32 32">
<title>nav-dashboard-inverted</title>
<path d="M16.031 0.261c-8.662-0.044-15.79 7.073-15.739 15.715 0.052 8.693 7.010 15.636 15.685 15.65 8.642 0.014 15.688-7.010 15.695-15.645 0.007-8.647-6.986-15.675-15.641-15.719zM11.307 11.933c-0.354 0-0.641-0.268-0.641-0.6 0-0.217 0.124-0.407 0.309-0.512 1.301-1.27 3.080-2.054 5.029-2.044 2.197 0.011 4.159 1.008 5.469 2.568l-0.903 0.78c-1.073-1.312-2.681-2.161-4.456-2.168-1.656-0.006-3.138 0.609-4.227 1.627-0.102 0.206-0.323 0.349-0.582 0.349zM17.641 19.072c0 0.813-0.659 1.472-1.472 1.472s-1.472-0.659-1.472-1.472c0-0.813 0.659-1.472 1.472-1.472 0.262 0 0.507 0.069 0.72 0.188l5.631-5.175 0.6 0.653-5.624 5.168c0.093 0.193 0.145 0.409 0.145 0.637z"></path>
</svg>
