<!-- Generated by IcoMoon.io -->
<svg version="1.1" xmlns="http://www.w3.org/2000/svg" width="32" height="32" viewBox="0 0 32 32">
<title>nav-messages-inverted</title>
<path d="M16.004 1.189c-8.119 0-14.7 6.581-14.7 14.701s6.581 14.701 14.7 14.701c8.12 0 14.701-6.582 14.701-14.701s-6.582-14.701-14.701-14.701zM23.008 11.216c-2.395 1.803-4.67 3.515-6.996 5.265-2.289-1.721-4.583-3.444-7.005-5.265 4.736 0 9.282 0 14.001 0zM8.513 11.31c1.826 1.638 3.589 3.218 5.41 4.851-1.833 1.263-3.587 2.472-5.41 3.729 0-2.879 0-5.657 0-8.58zM8.592 20.562c2.103-1.276 4.073-2.472 6.090-3.695 0.431 0.373 0.869 0.752 1.336 1.157 0.445-0.395 0.866-0.77 1.309-1.163 2.006 1.216 3.988 2.419 6.103 3.702-4.993 0-9.824 0-14.838 0zM23.497 19.884c-1.828-1.26-3.584-2.471-5.395-3.721 1.802-1.619 3.563-3.202 5.395-4.848 0 2.885 0 5.675 0 8.569z"></path>
</svg>
