<!-- Generated by IcoMoon.io -->
<svg version="1.1" xmlns="http://www.w3.org/2000/svg" width="32" height="32" viewBox="0 0 32 32">
<title>nav-analytics-inverted</title>
<path d="M16.047 1.099c-8.145 0-14.748 6.603-14.748 14.748s6.603 14.748 14.748 14.748c8.145 0 14.748-6.603 14.748-14.748s-6.603-14.748-14.748-14.748zM18.599 10.455c0.546 0 1.045 0 1.574 0 0 2.759 0 5.494 0 8.267-0.511 0-1.022 0-1.574 0 0-2.737 0-5.485 0-8.267zM16.071 15.48c0.528 0 1.038 0 1.588 0 0 1.072 0 2.15 0 3.255-0.526 0-1.037 0-1.588 0 0-1.113 0-2.165 0-3.255zM13.588 12.959c0.542 0 1.040 0 1.571 0 0 1.922 0 3.822 0 5.761-0.506 0-1.017 0-1.571 0 0-1.897 0-3.809 0-5.761zM11.068 16.312c0.527 0 1.035 0 1.582 0 0 0.79 0 1.578 0 2.421-0.536 0-1.046 0-1.582 0 0-0.815 0-1.601 0-2.421zM22.686 21.237c-4.43 0-8.836 0-13.278 0 0-0.514 0-1.026 0-1.576 4.41 0 8.828 0 13.278 0 0 0.549 0 1.048 0 1.576z"></path>
</svg>
