<!-- Generated by IcoMoon.io -->
<svg version="1.1" xmlns="http://www.w3.org/2000/svg" width="32" height="32" viewBox="0 0 32 32">
<title>nav-campaigns</title>
<path d="M16.029 31.616c-8.675-0.014-15.633-6.957-15.685-15.65-0.051-8.642 7.077-15.759 15.739-15.715 8.655 0.044 15.648 7.073 15.641 15.719-0.007 8.635-7.053 15.659-15.695 15.645zM2.979 15.89c-0.024 7.055 5.842 13.009 12.857 13.050 7.336 0.043 13.208-5.767 13.215-13.075 0.007-7.081-5.778-13.004-12.725-13.029-7.462-0.027-13.322 5.705-13.347 13.055zM20.987 12.936l0.412-0.342 0.043 0.051c0.104 0.125 0.29 0.142 0.415 0.038l0.283-0.235c0.125-0.104 0.142-0.29 0.038-0.415l-0.659-0.793c-0.104-0.125-0.29-0.142-0.415-0.038l-0.283 0.235c-0.125 0.104-0.142 0.29-0.038 0.415l0.043 0.051-0.476 0.396c-0.801-0.698-1.773-1.205-2.846-1.45-0.295-0.067-0.598-0.115-0.907-0.141v-1.194h0.363c0.081 0 0.147-0.066 0.147-0.147v-1.177c0-0.081-0.066-0.147-0.147-0.147h-1.851c-0.081 0-0.147 0.066-0.147 0.147v1.177c0 0.081 0.066 0.147 0.147 0.147h0.363v1.194c-0.309 0.026-0.612 0.074-0.907 0.141-1.044 0.239-1.993 0.726-2.782 1.396l-0.411-0.341 0.043-0.051c0.104-0.125 0.087-0.311-0.038-0.415l-0.283-0.235c-0.125-0.104-0.311-0.087-0.415 0.038l-0.659 0.793c-0.104 0.125-0.087 0.311 0.038 0.415l0.283 0.235c0.125 0.104 0.311 0.087 0.415-0.038l0.043-0.051 0.338 0.281c-1.040 1.163-1.673 2.697-1.673 4.38 0 3.573 2.851 6.48 6.402 6.57 0.056 0.001 0.113 0.002 0.169 0.002s0.113-0.001 0.169-0.002c3.551-0.090 6.402-2.997 6.402-6.57-0-1.653-0.611-3.164-1.619-4.319zM16.034 22.074c-2.656 0-4.809-2.153-4.809-4.809s2.153-4.809 4.809-4.809 4.809 2.153 4.809 4.809c-0 2.656-2.153 4.809-4.809 4.809zM15.013 17.264c0 0.564 0.457 1.021 1.021 1.021s1.021-0.457 1.021-1.021c0-0.564-1.021-4.083-1.021-4.083s-1.021 3.519-1.021 4.083z"></path>
</svg>
