<!-- Generated by IcoMoon.io -->
<svg version="1.1" xmlns="http://www.w3.org/2000/svg" width="32" height="32" viewBox="0 0 32 32">
<title>nav-flows</title>
<path d="M16.034 1.019c-8.245-0.002-14.966 6.698-14.96 14.91 0.007 8.209 6.749 14.933 14.967 14.926 8.239-0.006 14.959-6.72 14.946-14.932-0.013-8.25-6.687-14.902-14.954-14.904zM15.885 28.095c-7.010-0.209-12.233-5.734-12.014-12.707 0.207-6.578 5.886-11.835 12.575-11.641 6.742 0.195 11.954 5.853 11.756 12.763-0.183 6.399-5.901 11.777-12.318 11.585zM22.415 18.598c0-0.982 0.010-1.941-0.003-2.9-0.014-1.020-0.677-1.683-1.69-1.71-0.341-0.009-0.682-0.002-1.022-0.002-0.94-0-1.88 0-2.842 0 0-0.652 0-1.25 0-1.843 0.778-0.153 0.906-0.31 0.907-1.095 0.001-0.589 0.006-1.178-0.002-1.766-0.008-0.614-0.266-0.867-0.887-0.874-0.651-0.007-1.301-0.009-1.952 0.001-0.589 0.009-0.845 0.268-0.854 0.859-0.009 0.557-0.002 1.115-0.002 1.673 0 0.9 0.069 0.993 0.896 1.226 0 0.598 0 1.193 0 1.819-1.24 0-2.447-0.002-3.653 0.001-1.253 0.002-1.889 0.636-1.893 1.883-0.002 0.911-0 1.823-0 2.725-0.788 0.148-0.928 0.312-0.93 1.054-0.001 0.604-0.006 1.208 0.002 1.813 0.008 0.596 0.262 0.859 0.845 0.868 0.666 0.010 1.332 0.010 1.998 0 0.586-0.009 0.841-0.27 0.85-0.864 0.008-0.558 0.002-1.115 0.002-1.673-0-0.895-0.062-0.979-0.894-1.224 0-0.908 0-1.814 0-2.711 1.251 0 2.465 0 3.691 0 0 0.931 0 1.826 0 2.716-0.828 0.213-0.913 0.326-0.914 1.186-0 0.573-0.007 1.147 0.002 1.72 0.010 0.587 0.269 0.842 0.863 0.85 0.666 0.008 1.332 0.011 1.998-0.001 0.56-0.010 0.82-0.272 0.83-0.835 0.011-0.589 0.003-1.177 0.003-1.766-0-0.826-0.109-0.964-0.904-1.14 0-0.904 0-1.811 0-2.74 1.24 0 2.455 0 3.693 0 0 0.933 0 1.84 0 2.744-0.781 0.163-0.905 0.314-0.906 1.094-0.001 0.604-0.009 1.208 0.003 1.812 0.011 0.56 0.272 0.821 0.835 0.831 0.666 0.011 1.332 0.010 1.998 0.001 0.591-0.008 0.849-0.266 0.858-0.855 0.009-0.604 0.003-1.208 0.002-1.812-0.001-0.753-0.143-0.924-0.93-1.065z"></path>
</svg>
