<!-- Generated by IcoMoon.io -->
<svg version="1.1" xmlns="http://www.w3.org/2000/svg" width="32" height="32" viewBox="0 0 32 32">
<title>nav-triggers-inverted</title>
<path d="M16.031 0.261c-8.662-0.044-15.79 7.073-15.739 15.715 0.052 8.693 7.010 15.636 15.685 15.65 8.642 0.014 15.688-7.010 15.695-15.645 0.007-8.647-6.986-15.675-15.641-15.719zM11.127 21.223c-3.22-2.613-3.21-8.013 0.007-10.529-0.315 1.604-0.946 3.411-0.947 5.218-0.001 1.825 0.622 3.65 0.94 5.31zM13.575 19.562c-2.556-1.257-2.832-5.599 0.055-7.313-1.039 2.555-1.011 4.904-0.055 7.313zM17.846 16.104c-0.087 0.923-0.952 1.696-1.859 1.661-0.959-0.037-1.801-0.949-1.747-1.893 0.055-0.962 0.98-1.787 1.922-1.716 0.969 0.074 1.773 1.004 1.684 1.948zM18.46 19.664c1.045-2.554 1.009-4.901 0.061-7.3 2.381 1.082 2.994 5.424-0.061 7.3zM20.516 21.515c1.936-3.747 1.985-7.364-0.043-11.146 3.695 2.592 3.692 8.607 0.043 11.146z"></path>
</svg>
