<!-- Generated by IcoMoon.io -->
<svg version="1.1" xmlns="http://www.w3.org/2000/svg" width="32" height="32" viewBox="0 0 32 32">
<title>nav-groups</title>
<path d="M16.034 1.019c-8.245-0.002-14.966 6.698-14.96 14.91 0.007 8.209 6.749 14.933 14.967 14.926 8.239-0.006 14.959-6.72 14.946-14.932-0.013-8.25-6.687-14.902-14.954-14.904zM15.885 28.095c-7.010-0.209-12.233-5.734-12.014-12.707 0.207-6.578 5.886-11.835 12.575-11.641 6.742 0.195 11.954 5.853 11.756 12.763-0.183 6.399-5.901 11.777-12.318 11.585zM16.945 17.588c1.93 0.431 3.666 0.87 4.268 3.016-3.492 0-6.907 0-10.321 0 0.006-1.397 1.397-2.43 4.142-2.998-0.093-0.247-0.128-0.516-0.273-0.698-0.981-1.233-1.076-3.368-0.183-4.663 0.789-1.144 2.053-1.146 2.844-0.004 0.895 1.292 0.804 3.435-0.178 4.662-0.142 0.178-0.191 0.429-0.3 0.685zM12.745 16.971c-0.71 0.523-1.377 1.019-2.049 1.507-0.077 0.056-0.187 0.092-0.281 0.093-0.877 0.007-1.753 0.004-2.665 0.004 0.111-0.943 0.723-1.405 1.481-1.725 0.341-0.144 0.707-0.23 1.062-0.343-0.13-0.323-0.275-0.641-0.386-0.97-0.188-0.555-0.094-1.089 0.19-1.59 0.379-0.669 1.085-0.677 1.461-0.011 0.407 0.72 0.409 1.455-0.055 2.145-0.239 0.354-0.22 0.489 0.227 0.564 0.359 0.061 0.7 0.221 1.016 0.325zM24.245 18.575c-0.913 0-1.773 0.004-2.633-0.005-0.11-0.001-0.236-0.047-0.326-0.112-0.664-0.479-1.321-0.969-2.023-1.486 0.312-0.103 0.667-0.261 1.039-0.331 0.42-0.079 0.433-0.213 0.211-0.54-0.468-0.688-0.498-1.431-0.065-2.136 0.143-0.233 0.473-0.498 0.706-0.488 0.262 0.011 0.599 0.263 0.75 0.505 0.427 0.684 0.4 1.422-0.055 2.090-0.276 0.406-0.17 0.482 0.261 0.581 0.951 0.216 1.805 0.604 2.103 1.666 0.018 0.064 0.017 0.134 0.032 0.257z"></path>
</svg>
