<!-- Generated by IcoMoon.io -->
<svg version="1.1" xmlns="http://www.w3.org/2000/svg" width="32" height="32" viewBox="0 0 32 32">
<title>nav-docs</title>
<path d="M16.026 30.841c-8.258-0.013-14.883-6.619-14.932-14.89-0.049-8.222 6.737-14.994 14.984-14.951 8.24 0.042 14.898 6.729 14.891 14.956-0.007 8.216-6.715 14.899-14.942 14.886v0zM3.602 15.879c-0.023 6.713 5.561 12.377 12.24 12.416 6.985 0.041 12.574-5.487 12.581-12.441 0.006-6.737-5.501-12.373-12.114-12.397-7.104-0.026-12.683 5.428-12.707 12.421v0zM11.094 20.715v-9.778c0-0.163 0.059-0.302 0.176-0.416s0.259-0.171 0.427-0.171h5.022v3.325c0 0.163 0.059 0.302 0.176 0.416s0.259 0.171 0.427 0.171h3.415v6.454c0 0.163-0.059 0.301-0.176 0.416s-0.259 0.171-0.427 0.171h-8.438c-0.167 0-0.31-0.057-0.427-0.171s-0.176-0.253-0.176-0.415v0zM13.505 18.759c0 0.057 0.019 0.104 0.056 0.141s0.086 0.055 0.144 0.055h4.42c0.059 0 0.107-0.018 0.145-0.055s0.056-0.084 0.056-0.141v-0.391c0-0.057-0.019-0.104-0.056-0.141s-0.086-0.055-0.145-0.055h-4.42c-0.059 0-0.107 0.018-0.144 0.055s-0.056 0.084-0.056 0.141v0.391zM13.505 17.194c0 0.057 0.019 0.104 0.056 0.141s0.086 0.055 0.144 0.055h4.42c0.059 0 0.107-0.018 0.145-0.055s0.056-0.084 0.056-0.141v-0.391c0-0.057-0.019-0.104-0.056-0.141s-0.086-0.055-0.145-0.055h-4.42c-0.059 0-0.107 0.018-0.144 0.055s-0.056 0.084-0.056 0.141v0.391zM13.505 15.63c0 0.057 0.019 0.104 0.056 0.141s0.086 0.055 0.144 0.055h4.42c0.059 0 0.107-0.018 0.145-0.055s0.056-0.084 0.056-0.141v-0.391c0-0.057-0.019-0.104-0.056-0.141s-0.086-0.055-0.145-0.055h-4.42c-0.059 0-0.107 0.018-0.144 0.055s-0.056 0.084-0.056 0.141v0.391zM17.523 13.479v-2.885c0.092 0.057 0.167 0.114 0.226 0.171l2.561 2.493c0.059 0.057 0.117 0.13 0.176 0.22h-2.963z"></path>
</svg>
