<!-- Generated by IcoMoon.io -->
<svg version="1.1" xmlns="http://www.w3.org/2000/svg" width="32" height="32" viewBox="0 0 32 32">
<title>nav-orgs-inverted</title>
<path d="M14.457 15.492h1.138v2.056h-1.138zM14.457 12.382h1.138v2.056h-1.138zM12.598 12.382h1.138v2.056h-1.138zM16.354 15.492h1.138v2.056h-1.138zM12.598 15.492h1.138v2.056h-1.138zM18.175 15.492h1.138v2.056h-1.138zM16.354 12.382h1.138v2.056h-1.138zM18.175 12.382h1.138v2.056h-1.138zM16.023 0.258c-8.662-0.044-15.79 7.073-15.739 15.715 0.052 8.693 7.010 15.636 15.685 15.65 8.642 0.014 15.688-7.010 15.695-15.645 0.007-8.647-6.986-15.675-15.641-15.719zM21.096 21.555h-2.669v-1.897c0 0-0.262-0.394-0.82-0.394s-0.788 0.394-0.788 0.394v1.897h-1.793v-1.897c0 0-0.262-0.394-0.82-0.394s-0.788 0.394-0.788 0.394v1.897h-2.565v-0.607h0.607v-10.36c0-0.145 0.118-0.262 0.262-0.262h8.352c0.145 0 0.262 0.118 0.262 0.262v10.36h0.759l0 0.607z"></path>
</svg>
