<!-- Generated by IcoMoon.io -->
<svg version="1.1" xmlns="http://www.w3.org/2000/svg" width="32" height="32" viewBox="0 0 32 32">
<title>nexmo_inverted</title>
<path d="M16.024 0.286c-8.662-0.044-15.79 7.073-15.739 15.715 0.052 8.693 7.010 15.636 15.685 15.65 8.642 0.014 15.688-7.010 15.695-15.645 0.007-8.647-6.986-15.675-15.641-15.719zM12.123 10.618l1.403 1.403c-0.042 0.025-0.080 0.056-0.121 0.083l-1.39-1.39c0.035-0.031 0.072-0.066 0.107-0.096zM11.865 10.847l1.371 1.371c-0.034 0.025-0.071 0.046-0.104 0.071l-1.36-1.36c0.031-0.029 0.062-0.055 0.093-0.083zM11.582 11.104l1.354 1.354c-0.039 0.033-0.079 0.065-0.117 0.099l-1.346-1.346c0.036-0.034 0.074-0.073 0.11-0.107zM15.322 22.587c-3.386-0.306-5.943-3.1-6.043-6.415l-1.46-0.132 2.798-2.334 2.334 2.798-1.623-0.147c0.185 2.189 1.913 3.998 4.177 4.202 0.782 0.071 1.531-0.067 2.205-0.356l1.325 1.623c-1.043 0.63-2.115 0.905-3.713 0.761zM14.148 15.972c-0.007-0.979 0.782-1.778 1.761-1.785 0.242-0.002 0.472 0.046 0.683 0.132 0.003 0.001 0.006 0.002 0.010 0.003 0.637 0.265 1.088 0.892 1.093 1.626 0.007 0.979-0.782 1.778-1.761 1.785-0.107 0.001-0.212-0.012-0.314-0.029-0.166-0.029-0.323-0.083-0.47-0.155-0.587-0.286-0.996-0.88-1.001-1.577zM19.21 21.723l-1.307-1.601c0.044-0.021 0.086-0.046 0.129-0.069l1.299 1.591c-0.040 0.027-0.081 0.053-0.121 0.079zM19.495 21.527l-1.285-1.574c0.036-0.021 0.075-0.039 0.11-0.061l1.276 1.563c-0.034 0.024-0.068 0.049-0.101 0.072zM19.806 21.305l-1.273-1.559c0.042-0.029 0.084-0.058 0.125-0.088l1.267 1.553c-0.040 0.031-0.081 0.064-0.12 0.095zM21.572 18.983l-2.594-2.559 1.532-0.010c0.016-0.16 0.024-0.321 0.023-0.485-0.001-0.107-0.010-0.212-0.018-0.317-0.18-2.398-2.185-4.28-4.626-4.264-0.792 0.005-1.531 0.216-2.179 0.573l-1.429-1.429c1.002-0.807 1.936-1.169 3.594-1.18 3.672-0.025 6.669 2.931 6.694 6.603 0.001 0.124-0.019 0.446-0.021 0.485l1.583-0.011-2.559 2.594zM15.619 17.703l-0.47-0.155c0.147 0.072 0.303 0.126 0.47 0.155z"></path>
</svg>
