<!-- Generated by IcoMoon.io -->
<svg version="1.1" xmlns="http://www.w3.org/2000/svg" width="32" height="32" viewBox="0 0 32 32">
<title>nexmo</title>
<path d="M15.97 31.65c-8.675-0.014-15.633-6.957-15.685-15.65-0.051-8.642 7.077-15.759 15.739-15.715 8.655 0.044 15.648 7.073 15.641 15.719-0.007 8.635-7.053 15.659-15.695 15.645zM2.92 15.924c-0.024 7.055 5.842 13.009 12.857 13.050 7.336 0.043 13.208-5.767 13.215-13.075 0.007-7.081-5.778-13.004-12.725-13.029-7.462-0.027-13.322 5.705-13.347 13.055zM15.619 17.703l-0.47-0.155c0.147 0.072 0.303 0.126 0.47 0.155zM15.619 17.703c0.102 0.018 0.207 0.030 0.314 0.029 0.979-0.007 1.768-0.806 1.761-1.785-0.005-0.734-0.455-1.361-1.093-1.626-0.003-0.001-0.006-0.002-0.010-0.003-0.211-0.086-0.441-0.134-0.682-0.132-0.979 0.007-1.768 0.806-1.761 1.785 0.005 0.697 0.414 1.291 1.001 1.577l0.47 0.155zM18.534 19.746l1.273 1.559c0.040-0.030 0.080-0.064 0.12-0.094l-1.267-1.553c-0.041 0.030-0.084 0.059-0.125 0.088zM18.21 19.953l1.285 1.574c0.034-0.024 0.067-0.048 0.101-0.072l-1.276-1.563c-0.036 0.022-0.074 0.040-0.11 0.061zM15.505 20.559c-2.264-0.205-3.992-2.013-4.177-4.202l1.623 0.147-2.334-2.798-2.798 2.334 1.46 0.132c0.099 3.315 2.657 6.109 6.043 6.415 1.598 0.144 2.669-0.131 3.713-0.761l-1.325-1.623c-0.674 0.289-1.423 0.426-2.205 0.356zM17.903 20.121l1.307 1.601c0.040-0.026 0.081-0.052 0.121-0.079l-1.299-1.591c-0.043 0.023-0.085 0.048-0.129 0.069zM11.772 10.93l1.36 1.36c0.033-0.026 0.070-0.047 0.104-0.071l-1.371-1.371c-0.031 0.028-0.062 0.054-0.093 0.083zM12.016 10.713l1.39 1.39c0.041-0.027 0.079-0.057 0.121-0.083l-1.403-1.403c-0.035 0.030-0.072 0.065-0.107 0.096zM11.473 11.21l1.346 1.346c0.038-0.034 0.078-0.066 0.117-0.099l-1.354-1.354c-0.035 0.033-0.074 0.072-0.11 0.107zM22.548 16.4c0.003-0.039 0.022-0.361 0.021-0.485-0.025-3.672-3.022-6.628-6.694-6.603-1.659 0.011-2.592 0.373-3.594 1.18l1.429 1.429c0.648-0.357 1.387-0.568 2.179-0.573 2.44-0.017 4.446 1.866 4.626 4.264 0.008 0.105 0.017 0.21 0.018 0.317 0.001 0.164-0.007 0.326-0.023 0.485l-1.532 0.010 2.594 2.559 2.559-2.594-1.583 0.011z"></path>
</svg>
