<!-- Generated by IcoMoon.io -->
<svg version="1.1" xmlns="http://www.w3.org/2000/svg" width="32" height="32" viewBox="0 0 32 32">
<title>numerical</title>
<path d="M5.538 20.776h1.403v-3.682c0-0.18 0.005-0.369 0.015-0.566l-0.827 0.686c-0.053 0.043-0.107 0.074-0.16 0.093s-0.105 0.028-0.155 0.028c-0.087 0-0.165-0.019-0.233-0.058s-0.119-0.079-0.153-0.123l-0.491-0.651 2.274-1.909h1.282v6.181h1.202v1.122l-4.158 0v-1.122zM15.823 9.819c0.361 0 0.685 0.053 0.974 0.158s0.535 0.251 0.739 0.438 0.36 0.41 0.468 0.669c0.108 0.259 0.163 0.544 0.163 0.854 0 0.267-0.038 0.514-0.113 0.741s-0.178 0.443-0.308 0.649-0.281 0.404-0.453 0.596c-0.172 0.192-0.355 0.387-0.549 0.584l-1.428 1.463c0.184-0.053 0.365-0.096 0.544-0.128s0.346-0.048 0.503-0.048h1.363c0.167 0 0.299 0.046 0.396 0.138s0.145 0.213 0.145 0.363v0.902h-5.13v-0.501c0-0.097 0.020-0.2 0.060-0.311s0.11-0.21 0.21-0.301l2.104-2.119c0.18-0.18 0.337-0.352 0.471-0.516s0.244-0.325 0.331-0.483c0.087-0.159 0.152-0.317 0.195-0.476s0.065-0.326 0.065-0.503c0-0.291-0.069-0.513-0.208-0.669s-0.35-0.233-0.634-0.233c-0.117 0-0.224 0.017-0.321 0.050s-0.184 0.079-0.261 0.135c-0.077 0.057-0.143 0.124-0.198 0.2s-0.099 0.16-0.133 0.251c-0.053 0.15-0.121 0.259-0.203 0.326s-0.193 0.1-0.333 0.1c-0.033 0-0.069-0.002-0.108-0.005s-0.078-0.008-0.118-0.015l-0.822-0.145c0.053-0.364 0.156-0.681 0.308-0.952s0.341-0.496 0.566-0.676c0.225-0.18 0.483-0.315 0.774-0.403s0.603-0.133 0.937-0.133zM24.496 4.782c0.361 0 0.681 0.051 0.962 0.153s0.518 0.24 0.711 0.413c0.194 0.174 0.341 0.375 0.441 0.604s0.15 0.47 0.15 0.724c0 0.23-0.023 0.433-0.070 0.609s-0.116 0.327-0.208 0.456c-0.092 0.129-0.205 0.238-0.341 0.328s-0.29 0.165-0.463 0.225c0.808 0.28 1.212 0.83 1.212 1.648 0 0.387-0.070 0.725-0.21 1.012s-0.328 0.526-0.564 0.716c-0.235 0.19-0.508 0.333-0.819 0.428s-0.634 0.143-0.972 0.143c-0.347 0-0.656-0.038-0.927-0.113s-0.511-0.192-0.721-0.351c-0.21-0.159-0.395-0.361-0.554-0.609s-0.296-0.541-0.413-0.882l0.691-0.28c0.060-0.027 0.119-0.045 0.178-0.055s0.116-0.015 0.173-0.015c0.107 0 0.203 0.021 0.288 0.063s0.149 0.103 0.193 0.183c0.15 0.277 0.31 0.478 0.478 0.604s0.366 0.188 0.594 0.188c0.174 0 0.325-0.029 0.453-0.088s0.235-0.133 0.321-0.225c0.085-0.092 0.149-0.196 0.193-0.313s0.065-0.235 0.065-0.356c0-0.157-0.011-0.298-0.033-0.423s-0.083-0.233-0.183-0.323c-0.1-0.090-0.251-0.159-0.453-0.208s-0.483-0.073-0.844-0.073v-1.072c0.304 0 0.549-0.023 0.736-0.070s0.331-0.111 0.433-0.193c0.102-0.082 0.169-0.181 0.203-0.298s0.050-0.245 0.050-0.386c0-0.287-0.069-0.508-0.208-0.664s-0.35-0.233-0.634-0.233c-0.117 0-0.224 0.017-0.321 0.050s-0.184 0.079-0.261 0.135-0.143 0.124-0.198 0.2c-0.055 0.077-0.099 0.16-0.133 0.25-0.053 0.15-0.121 0.259-0.203 0.326s-0.193 0.1-0.333 0.1c-0.033 0-0.069-0.002-0.108-0.005s-0.078-0.008-0.118-0.015l-0.822-0.145c0.053-0.364 0.156-0.681 0.308-0.952s0.341-0.496 0.566-0.676c0.225-0.18 0.483-0.315 0.774-0.403s0.603-0.133 0.937-0.133zM4.275 24.403h6.68v4.592h-6.68zM12.65 19.81h6.68v9.185h-6.68zM21.061 14.8h6.68v14.195h-6.68z"></path>
</svg>
