<!-- Generated by IcoMoon.io -->
<svg version="1.1" xmlns="http://www.w3.org/2000/svg" width="24" height="24" viewBox="0 0 24 24">
<title>paperclip</title>
<path d="M20.733 10.343l-9.19 9.19c-0.977 0.977-2.256 1.465-3.538 1.465s-2.561-0.488-3.538-1.465-1.465-2.256-1.465-3.538 0.488-2.561 1.465-3.538l9.19-9.19c0.586-0.586 1.353-0.879 2.123-0.879s1.536 0.293 2.123 0.879 0.879 1.353 0.879 2.123-0.293 1.536-0.879 2.123l-9.2 9.19c-0.196 0.196-0.451 0.294-0.708 0.294s-0.512-0.098-0.708-0.293-0.293-0.45-0.293-0.708 0.098-0.512 0.293-0.708l8.49-8.48c0.391-0.39 0.391-1.023 0.001-1.414s-1.023-0.391-1.414-0.001l-8.49 8.48c-0.586 0.586-0.879 1.356-0.879 2.122s0.293 1.536 0.879 2.122 1.356 0.879 2.122 0.879 1.536-0.293 2.122-0.879l9.2-9.19c0.977-0.977 1.465-2.258 1.465-3.537s-0.489-2.561-1.465-3.537-2.258-1.465-3.537-1.465-2.561 0.489-3.537 1.465l-9.19 9.19c-1.367 1.367-2.051 3.161-2.051 4.952s0.684 3.585 2.051 4.952 3.161 2.051 4.952 2.051 3.585-0.684 4.952-2.051l9.19-9.19c0.391-0.391 0.391-1.024 0-1.414s-1.024-0.391-1.414 0z"></path>
</svg>
