<!-- Generated by IcoMoon.io -->
<svg version="1.1" xmlns="http://www.w3.org/2000/svg" width="20" height="20" viewBox="0 0 20 20">
<title>papers</title>
<path d="M10.5 9h-3c-0.276 0-0.5-0.224-0.5-0.5v-4c0-0.276 0.224-0.5 0.5-0.5h3c0.276 0 0.5 0.224 0.5 0.5v4c0 0.276-0.224 0.5-0.5 0.5zM8 8h2v-3h-2v3z"></path>
<path d="M5.5 5h-2c-0.276 0-0.5-0.224-0.5-0.5s0.224-0.5 0.5-0.5h2c0.276 0 0.5 0.224 0.5 0.5s-0.224 0.5-0.5 0.5z"></path>
<path d="M5.5 7h-2c-0.276 0-0.5-0.224-0.5-0.5s0.224-0.5 0.5-0.5h2c0.276 0 0.5 0.224 0.5 0.5s-0.224 0.5-0.5 0.5z"></path>
<path d="M5.5 9h-2c-0.276 0-0.5-0.224-0.5-0.5s0.224-0.5 0.5-0.5h2c0.276 0 0.5 0.224 0.5 0.5s-0.224 0.5-0.5 0.5z"></path>
<path d="M10.5 11h-7c-0.276 0-0.5-0.224-0.5-0.5s0.224-0.5 0.5-0.5h7c0.276 0 0.5 0.224 0.5 0.5s-0.224 0.5-0.5 0.5z"></path>
<path d="M10.5 13h-7c-0.276 0-0.5-0.224-0.5-0.5s0.224-0.5 0.5-0.5h7c0.276 0 0.5 0.224 0.5 0.5s-0.224 0.5-0.5 0.5z"></path>
<path d="M16.5 5h-0.5v-0.5c0-0.827-0.673-1.5-1.5-1.5h-0.5v-0.5c0-0.827-0.673-1.5-1.5-1.5h-11c-0.827 0-1.5 0.673-1.5 1.5v12c0 0.827 0.673 1.5 1.5 1.5h0.5v0.5c0 0.827 0.673 1.5 1.5 1.5h0.5v0.5c0 0.827 0.673 1.5 1.5 1.5h11c0.827 0 1.5-0.673 1.5-1.5v-12c0-0.827-0.673-1.5-1.5-1.5zM1 14.5v-12c0-0.276 0.224-0.5 0.5-0.5h11c0.276 0 0.5 0.224 0.5 0.5v12c0 0.276-0.224 0.5-0.5 0.5h-11c-0.276 0-0.5-0.224-0.5-0.5zM3 16.5v-0.5h9.5c0.827 0 1.5-0.673 1.5-1.5v-10.5h0.5c0.276 0 0.5 0.224 0.5 0.5v12c0 0.276-0.224 0.5-0.5 0.5h-11c-0.276 0-0.5-0.224-0.5-0.5zM17 18.5c0 0.276-0.224 0.5-0.5 0.5h-11c-0.276 0-0.5-0.224-0.5-0.5v-0.5h9.5c0.827 0 1.5-0.673 1.5-1.5v-10.5h0.5c0.276 0 0.5 0.224 0.5 0.5v12z"></path>
</svg>
