<!-- Generated by IcoMoon.io -->
<svg version="1.1" xmlns="http://www.w3.org/2000/svg" width="32" height="32" viewBox="0 0 32 32">
<title>pencil</title>
<path d="M24.815 7.185c-1.121 1.843-1.407 3.543-0.593 4.357 1.172 1.172 4.179 0.064 6.718-2.475s3.646-5.546 2.475-6.717c-0.814-0.814-2.513-0.528-4.326 0.574 1.090-1.824 1.376-3.524 0.563-4.337-1.172-1.172-4.179-0.064-6.718 2.475s-3.646 5.546-2.475 6.717c0.814 0.814 2.513 0.528 4.326-0.574zM12.243 25.436l14.102-14.102c0.851 0.476 1.699 0.817 2.51 1.003l-14.856 14.856-14 4.808 4.808-14 14.856-14.856c0.073 0.324 0.171 0.654 0.295 0.99 0.184 0.5 0.423 1.010 0.709 1.519l-14.103 14.103 1.679 1.679 13.791-13.791c0.34 0.418 0.708 0.826 1.101 1.219 0.396 0.396 0.804 0.765 1.218 1.103l-13.79 13.79 1.679 1.679z"></path>
</svg>
