<!-- Generated by IcoMoon.io -->
<svg version="1.1" xmlns="http://www.w3.org/2000/svg" width="32" height="32" viewBox="0 0 32 32">
<title>phone2</title>
<path d="M22 20c2-2 8 4 8 6s-6 6-6 6c-4 0-12.109-4.109-16-8s-8-12-8-16c0 0 4-6 6-6s8 6 6 8c-2 2-4 2-4 4s2 4 4 6c2 2 4 4 6 4s2-2 4-4zM20 8c-1.401 0-2.633 0.721-3.348 1.812 0.493-0.2 1.032-0.312 1.598-0.312 2.347 0 4.25 1.903 4.25 4.25 0 0.565-0.111 1.104-0.312 1.598 1.091-0.714 1.812-1.947 1.812-3.348 0-2.209-1.791-4-4-4zM21 4c-2.119 0-4.017 0.941-5.301 2.428 1.050-0.591 2.261-0.928 3.551-0.928 4.004 0 7.25 3.246 7.25 7.25 0 1.29-0.337 2.501-0.928 3.551 1.487-1.284 2.428-3.182 2.428-5.301 0-3.866-3.134-7-7-7zM23 0c-2.595 0-4.933 1.099-6.575 2.856 1.405-0.861 3.057-1.357 4.825-1.357 5.109 0 9.25 4.142 9.25 9.251 0 1.77-0.498 3.424-1.36 4.83 1.76-1.643 2.86-3.982 2.86-6.58 0-4.971-4.029-9-9-9z"></path>
</svg>
