<!-- Generated by IcoMoon.io -->
<svg version="1.1" xmlns="http://www.w3.org/2000/svg" width="32" height="32" viewBox="0 0 32 32">
<title>plivo</title>
<path d="M15.97 31.65c-8.675-0.014-15.633-6.957-15.685-15.65-0.051-8.642 7.077-15.759 15.739-15.715 8.655 0.044 15.648 7.073 15.641 15.719-0.007 8.635-7.053 15.659-15.695 15.645v0zM2.92 15.924c-0.024 7.055 5.842 13.009 12.857 13.050 7.336 0.043 13.208-5.767 13.215-13.075 0.007-7.081-5.778-13.004-12.725-13.029-7.462-0.027-13.322 5.705-13.347 13.055v0zM8-495.969v1023.938zM24-495.969v1023.938zM-495.969 8h1023.938zM-495.969 24h1023.938zM15.969-495.969v1023.938zM-495.969 16h1023.938zM11.775 12.389c0.155-0.216 0.299-0.439 0.465-0.645 1.832-2.272 5.205-2.559 7.429-0.643 0.967 0.833 1.463 1.904 1.65 3.14 0.017 0.115 0.050 0.183 0.164 0.232 1.523 0.649 2.538 2.352 2.363 3.954-0.199 1.82-1.461 3.231-3.186 3.552-0.249 0.046-0.506 0.071-0.759 0.072-2.536 0.005-5.072 0.005-7.608 0.002-1.766-0.002-3.358-1.074-4.026-2.701-0.671-1.635-0.295-3.507 0.947-4.758 0.341-0.344 0.703-0.656 1.152-0.85 0.114-0.049 0.127-0.13 0.127-0.235-0.002-0.996-0.001-1.992-0.001-2.987 0-0.064-0.002-0.128 0.002-0.191 0.023-0.344 0.294-0.6 0.627-0.595 0.336 0.005 0.606 0.263 0.611 0.609 0.008 0.619 0.003 1.239 0.003 1.858 0 0.061 0 0.122 0 0.183 0.013 0.001 0.026 0.002 0.039 0.003zM12.063 13.598c0.217 0.078 0.389 0.127 0.549 0.202 0.123 0.057 0.248 0.131 0.342 0.227 0.115 0.117 0.067 0.229-0.096 0.251-0.085 0.012-0.173 0.009-0.259-0.001-1.169-0.135-2.095 0.277-2.744 1.258-0.625 0.945-0.89 1.97-0.539 3.088 0.344 1.095 1.426 2.181 3.126 2.174 2.437-0.010 4.874-0.002 7.311-0.003 0.426-0 0.844-0.059 1.238-0.23 0.874-0.38 1.575-0.961 1.793-1.918 0.287-1.261-0.197-2.646-1.53-3.412-0.007-0.004-0.021 0.003-0.043 0.006-0.066 0.234-0.127 0.475-0.203 0.71-0.035 0.108-0.066 0.275-0.22 0.231-0.058-0.017-0.107-0.193-0.1-0.293 0.041-0.589-0.012-1.169-0.162-1.738-0.738-2.802-3.202-3.502-4.982-3.169-1.191 0.223-2.159 0.871-2.93 1.8-0.204 0.245-0.36 0.53-0.552 0.819zM18.113 15.483c-0.11-0-0.219 0.004-0.329-0.001-0.214-0.010-0.35-0.135-0.358-0.345-0.009-0.236-0.008-0.473-0-0.71 0.007-0.206 0.132-0.336 0.338-0.345 0.236-0.011 0.474-0.011 0.71-0.001 0.22 0.009 0.348 0.147 0.353 0.369 0.006 0.219 0.006 0.439 0 0.658-0.006 0.237-0.143 0.368-0.385 0.375-0.11 0.003-0.219 0.001-0.329 0zM18.139 18.046c0.11 0 0.22-0.005 0.329 0.001 0.214 0.011 0.349 0.137 0.357 0.346 0.009 0.236 0.009 0.474-0 0.71-0.007 0.2-0.142 0.335-0.343 0.343-0.236 0.009-0.474 0.009-0.71 0-0.211-0.008-0.34-0.142-0.346-0.356-0.007-0.231-0.007-0.462 0-0.693 0.007-0.215 0.136-0.34 0.351-0.351 0.121-0.006 0.242-0.001 0.364-0.001zM18.128 16.065c0.115 0 0.231-0.004 0.346 0.001 0.204 0.008 0.342 0.133 0.35 0.333 0.010 0.242 0.010 0.485 0 0.727-0.008 0.198-0.147 0.332-0.348 0.339-0.236 0.008-0.473 0.009-0.71-0.001-0.202-0.008-0.333-0.141-0.34-0.344-0.008-0.231-0.008-0.462-0.001-0.692 0.006-0.233 0.138-0.356 0.374-0.362 0.11-0.003 0.219-0 0.329-0zM16.148 18.047c0.115 0 0.231-0.005 0.346 0.001 0.204 0.011 0.339 0.136 0.347 0.337 0.010 0.242 0.010 0.485 0 0.727-0.008 0.191-0.142 0.326-0.334 0.334-0.242 0.010-0.485 0.010-0.727 0.001-0.202-0.008-0.33-0.144-0.336-0.347-0.006-0.236-0.007-0.473 0-0.71 0.006-0.204 0.133-0.329 0.34-0.342 0.121-0.007 0.242-0.001 0.363-0.002zM14.157 14.090c0.116 0 0.231-0.004 0.347 0.001 0.209 0.009 0.34 0.127 0.348 0.333 0.010 0.237 0.009 0.474 0 0.711-0.008 0.203-0.14 0.333-0.345 0.341-0.231 0.009-0.463 0.008-0.694 0.001-0.216-0.007-0.34-0.136-0.345-0.354-0.006-0.225-0.006-0.451-0-0.676 0.006-0.229 0.127-0.347 0.359-0.355 0.11-0.004 0.22-0.001 0.329-0zM16.141 14.090c0.116 0 0.231-0.004 0.347 0.001 0.207 0.009 0.34 0.131 0.348 0.334 0.010 0.236 0.009 0.474 0 0.71-0.007 0.194-0.137 0.329-0.329 0.338-0.242 0.011-0.486 0.011-0.728 0.001-0.196-0.008-0.32-0.14-0.325-0.336-0.007-0.231-0.006-0.462-0.001-0.693 0.005-0.228 0.128-0.347 0.359-0.354 0.11-0.004 0.22-0.001 0.33-0zM13.469 16.767c0-0.127-0.007-0.255 0.002-0.381 0.012-0.18 0.132-0.303 0.313-0.309 0.248-0.008 0.497-0.008 0.745-0 0.192 0.006 0.315 0.135 0.323 0.338 0.009 0.231 0.009 0.462 0.001 0.693-0.008 0.211-0.141 0.343-0.354 0.351-0.225 0.008-0.451 0.007-0.676 0-0.223-0.007-0.347-0.139-0.355-0.363-0.004-0.11-0.001-0.22-0.001-0.329 0.001 0 0.001 0 0.002 0zM16.145 16.074c0.116 0 0.231-0.004 0.347 0.001 0.206 0.009 0.337 0.13 0.345 0.336 0.009 0.231 0.008 0.462 0.001 0.693-0.007 0.212-0.139 0.347-0.351 0.354-0.231 0.009-0.462 0.009-0.693 0-0.213-0.008-0.336-0.141-0.34-0.359-0.005-0.22-0.004-0.439-0-0.659 0.004-0.241 0.124-0.361 0.364-0.367 0.11-0.003 0.22-0.001 0.329-0zM14.161 19.442c-0.121 0-0.243 0.007-0.364-0.001-0.197-0.014-0.321-0.138-0.327-0.335-0.007-0.237-0.007-0.474-0-0.711 0.006-0.209 0.13-0.332 0.34-0.338 0.231-0.007 0.463-0.007 0.694-0 0.214 0.006 0.342 0.134 0.35 0.35 0.008 0.219 0.006 0.439 0.001 0.659-0.006 0.241-0.14 0.371-0.381 0.378-0.104 0.003-0.208 0-0.312 0-0-0-0-0.001-0-0.002z"></path>
</svg>
