<!-- Generated by IcoMoon.io -->
<svg version="1.1" xmlns="http://www.w3.org/2000/svg" width="32" height="32" viewBox="0 0 32 32">
<title>prometheus</title>
<path d="M15.999 0c-8.836 0-16 7.163-16 16s7.164 16 16 16 16-7.163 16-16-7.164-16-16-16zM15.999 29.945c-2.514 0-4.553-1.68-4.553-3.75h9.1c0 2.071-2.038 3.75-4.553 3.75zM23.524 24.953h-15.045v-2.727h15.045zM23.471 20.823h-14.947l-0.149-0.172c-1.54-1.87-1.902-2.85-2.254-3.84-0.006-0.033 1.867 0.383 3.195 0.681 0 0 0.684 0.158 1.682 0.34-0.959-1.125-1.528-2.553-1.528-4.015 0-3.207 2.46-6.010 1.572-8.275 0.864 0.070 1.787 1.823 1.85 4.563 0.918-1.269 1.303-3.586 1.303-5.007 0-1.471 0.97-3.18 1.939-3.239-0.865 1.425 0.224 2.645 1.191 5.675 0.363 1.138 0.317 3.053 0.596 4.267 0.093-2.523 0.526-6.202 2.127-7.473-0.706 1.6 0.105 3.603 0.659 4.565 0.895 1.553 1.436 2.73 1.436 4.95 0 1.492-0.551 2.896-1.48 4 1.056-0.198 1.786-0.377 1.786-0.377l3.431-0.67c0-0-0.498 2.050-2.414 4.025z"></path>
</svg>
