<!-- Generated by IcoMoon.io -->
<svg version="1.1" xmlns="http://www.w3.org/2000/svg" width="32" height="32" viewBox="0 0 32 32">
<title>public</title>
<path d="M23.875 23.188c1.75-1.875 2.813-4.438 2.813-7.188 0-4.438-2.75-8.313-6.688-9.875v0.563c0 1.438-1.25 2.625-2.688 2.625h-2.625v2.688c0 0.75-0.625 1.313-1.375 1.313h-2.625v2.688h8c0.75 0 1.313 0.563 1.313 1.313v4h1.313c1.188 0 2.188 0.813 2.563 1.875zM14.688 26.563v-2.563c-1.438 0-2.688-1.25-2.688-2.688v-1.313l-6.375-6.375c-0.188 0.75-0.313 1.563-0.313 2.375 0 5.438 4.125 9.938 9.375 10.563zM16 2.688c7.375 0 13.313 5.938 13.313 13.313s-5.938 13.313-13.313 13.313-13.313-5.938-13.313-13.313 5.938-13.313 13.313-13.313z"></path>
</svg>
