<!-- Generated by IcoMoon.io -->
<svg version="1.1" xmlns="http://www.w3.org/2000/svg" width="32" height="32" viewBox="0 0 32 32">
<title>puzzle</title>
<path d="M29.948 8.008h-5.264c-1.357-0.002-2.709-0.094-1.391-2.421 1.321-2.331 2.254-5.595-3.050-5.595s-4.371 3.264-3.050 5.595c1.319 2.327-0.034 2.418-1.391 2.421h-5.746c-1.129 0-2.052 0.924-2.052 2.052v6.387c0 1.36 0.369 2.72-1.962 1.399s-6.042-2.254-6.042 3.050c0 5.303 3.711 4.371 6.042 3.050s1.962 0.039 1.962 1.399v4.611c0 1.129 0.924 2.052 2.052 2.052h5.738c1.36 0 2.72-0.544 1.399-2.875s-2.254-5.595 3.050-5.595 4.371 3.264 3.050 5.595c-1.321 2.331 0.039 2.875 1.399 2.875h5.256c1.129 0 2.052-0.924 2.052-2.052v-19.896c0-1.129-0.923-2.052-2.052-2.052z"></path>
</svg>
