<!-- Generated by IcoMoon.io -->
<svg version="1.1" xmlns="http://www.w3.org/2000/svg" width="32" height="32" viewBox="0 0 32 32">
<title>quick-reply</title>
<path d="M27.854 7.632c-0.939 0-1.879-0.014-2.804 0-0.752 0.014-1.257 0.477-1.33 1.142-0.072 0.621 0.347 1.185 1.026 1.373 0.13 0.043 0.275 0.072 0.419 0.072 1.821 0 3.642 0.014 5.478 0 0.303 0 0.621-0.072 0.867-0.275 0.491-0.39 0.607-0.911 0.434-1.489-0.159-0.549-0.578-0.824-1.127-0.824-0.997-0.014-1.98 0-2.963 0zM27.868 12.835c-0.939 0-1.879-0.014-2.804 0-0.752 0.014-1.315 0.52-1.344 1.214-0.029 0.679 0.491 1.33 1.228 1.344 1.966 0.043 3.931 0.043 5.897 0 0.766-0.014 1.214-0.607 1.171-1.359-0.043-0.737-0.52-1.185-1.344-1.185-0.939-0.029-1.864-0.014-2.804-0.014zM27.883 18.052c-0.939 0-1.879 0-2.818 0-0.752 0.014-1.272 0.448-1.359 1.127-0.087 0.636 0.39 1.228 1.098 1.402 0.202 0.043 0.434 0.072 0.636 0.072 1.633 0 3.281 0.014 4.914 0 1.026-0.014 1.59-0.448 1.648-1.228 0.043-0.809-0.419-1.344-1.228-1.359-0.968-0.029-1.922-0.014-2.89-0.014zM0.192 8.774c0.087 3.555 0.029 7.125 0.029 10.68 0 2.067 1.2 3.266 3.266 3.281 2.269 0 4.524 0.014 6.793 0 0.448 0 0.766 0.116 1.069 0.448 0.968 1.012 1.966 1.98 2.963 2.963 0.231 0.231 0.463 0.52 0.867 0.347 0.376-0.159 0.39-0.52 0.405-0.867 0.014-0.824 0.014-1.633 0-2.457-0.014-0.376 0.116-0.52 0.491-0.506 0.752 0.014 1.489 0.014 2.24 0 1.792-0.029 2.948-1.185 2.963-3.006 0.014-3.006 0-6.012 0-9.018 0-0.752 0.014-1.489 0-2.24-0.029-1.662-1.113-2.862-2.775-2.89-2.601-0.058-5.203-0.014-7.79-0.014 0-0.014 0-0.014 0-0.029-2.385 0-4.769 0.058-7.154-0.014-2.182-0.058-3.411 1.416-3.367 3.324zM13.387 14.078c0.014-0.665 0.621-1.243 1.272-1.228 0.65 0.029 1.243 0.636 1.214 1.286s-0.621 1.214-1.286 1.214c-0.694-0.014-1.214-0.578-1.2-1.272zM9.557 14.049c0.043-0.65 0.665-1.214 1.301-1.2 0.621 0.014 1.243 0.65 1.228 1.272 0 0.665-0.665 1.257-1.33 1.214-0.665-0.029-1.243-0.665-1.2-1.286zM5.785 14.15c-0.029-0.665 0.52-1.272 1.185-1.301 0.65-0.029 1.257 0.535 1.272 1.2 0.014 0.694-0.491 1.257-1.171 1.286s-1.257-0.506-1.286-1.185z"></path>
</svg>
