<!-- Generated by IcoMoon.io -->
<svg version="1.1" xmlns="http://www.w3.org/2000/svg" width="24" height="24" viewBox="0 0 24 24">
<title>radio</title>
<path d="M15 12c0-0.828-0.337-1.58-0.879-2.121s-1.293-0.879-2.121-0.879-1.58 0.337-2.121 0.879-0.879 1.293-0.879 2.121 0.337 1.58 0.879 2.121 1.293 0.879 2.121 0.879 1.58-0.337 2.121-0.879 0.879-1.293 0.879-2.121zM13 12c0 0.276-0.111 0.525-0.293 0.707s-0.431 0.293-0.707 0.293-0.525-0.111-0.707-0.293-0.293-0.431-0.293-0.707 0.111-0.525 0.293-0.707 0.431-0.293 0.707-0.293 0.525 0.111 0.707 0.293 0.293 0.431 0.293 0.707zM15.533 8.468c0.977 0.976 1.466 2.254 1.466 3.535s-0.487 2.559-1.462 3.536c-0.39 0.391-0.39 1.024 0.001 1.414s1.024 0.39 1.414-0.001c1.366-1.367 2.048-3.161 2.047-4.951s-0.686-3.583-2.053-4.949c-0.391-0.39-1.024-0.39-1.414 0.001s-0.39 1.024 0.001 1.414zM8.467 15.532c-0.977-0.975-1.466-2.253-1.467-3.534s0.487-2.559 1.462-3.536c0.39-0.391 0.39-1.024-0.001-1.414s-1.024-0.39-1.414 0.001c-1.365 1.366-2.048 3.16-2.047 4.95s0.686 3.583 2.053 4.949c0.391 0.39 1.024 0.39 1.414-0.001s0.39-1.024-0.001-1.414zM18.363 5.637c1.757 1.758 2.635 4.059 2.635 6.364 0 2.304-0.878 4.605-2.635 6.362-0.39 0.391-0.39 1.024 0 1.414s1.024 0.39 1.414 0c2.147-2.147 3.22-4.963 3.221-7.776 0-2.815-1.074-5.631-3.221-7.778-0.39-0.391-1.024-0.391-1.414 0s-0.391 1.024 0 1.414zM5.637 18.363c-1.757-1.758-2.635-4.059-2.635-6.364 0-2.304 0.878-4.605 2.635-6.362 0.39-0.391 0.39-1.024 0-1.414s-1.024-0.39-1.414 0c-2.147 2.147-3.22 4.963-3.221 7.776s1.074 5.63 3.221 7.778c0.39 0.391 1.024 0.391 1.414 0s0.391-1.024 0-1.414z"></path>
</svg>
