<!-- Generated by IcoMoon.io -->
<svg version="1.1" xmlns="http://www.w3.org/2000/svg" width="151" height="32" viewBox="0 0 151 32">
<title>rapidpro</title>
<path d="M24.434 26.82h-3.375v-25.435h15.898v12.914h-12.523zM30.86 20.724h6.097v6.096h-6.097v-6.096zM36.957 19.198v-3.375h-10.997v10.996h3.374v-7.621zM49.032 20.996h-4.428v5.809h-0.722v-14.027h4.667c2.787 0 4.17 1.202 4.17 4.009 0 2.225-0.763 3.706-2.907 4.109l3.167 5.91h-0.823l-3.125-5.809zM48.55 13.46h-3.945v6.852h3.945c2.627 0 3.407-1.383 3.407-3.526 0-2.326-1.060-3.327-3.407-3.327zM63.633 25.485c0.060 0.582 0.821 0.782 1.501 0.841l-0.039 0.642c-0.861 0-1.625-0.181-2.064-0.803 0 0-1.863 0.823-4.13 0.823-1.561 0-2.545-0.981-2.545-2.926 0-1.704 0.783-2.684 2.767-2.886l3.807-0.399v-1.043c0-1.743-0.762-2.445-2.222-2.445-1.465 0-3.79 0.341-3.79 0.341l-0.060-0.662c0 0 2.246-0.361 3.85-0.361 2.023 0 2.925 1.061 2.925 3.127v5.752zM59.203 21.797c-1.563 0.16-2.105 1.022-2.105 2.264 0 1.464 0.703 2.285 1.825 2.285 1.985 0 4.007-0.801 4.007-0.801v-4.109l-3.727 0.361zM68.373 16.787h0.699v0.842c0 0 1.644-1.023 3.467-1.023 2.445 0 4.187 1.623 4.187 5.050 0 3.709-1.901 5.331-5.008 5.331-1.083 0-2.184-0.181-2.647-0.28v4.71h-0.699v-14.629zM69.073 18.309v7.758c0.441 0.079 1.564 0.278 2.647 0.278 2.585 0 4.267-1.304 4.267-4.75 0-3.186-1.722-4.349-3.446-4.349s-3.468 1.063-3.468 1.063zM81.158 14.131h0.702v0.75h-0.702v-0.75zM81.158 16.787h0.702v10.019h-0.702v-10.019zM94.273 26.805h-0.702v-0.84c0 0-1.643 1.021-3.469 1.021-1.239 0-4.144-0.181-4.144-5.050 0-3.448 1.682-5.331 4.966-5.331 0.944 0 2.145 0.16 2.647 0.24v-4.068h0.702v14.027zM93.572 25.305v-7.817c-0.52-0.060-1.864-0.241-2.647-0.241-2.846 0-4.265 1.704-4.265 4.75 0 3.988 2.321 4.348 3.442 4.348 1.725 0 3.469-1.041 3.469-1.041zM101.093 22.858v3.947h-2.767v-13.826h4.585c3.205 0 4.85 1.623 4.85 4.828 0 3.209-1.645 5.051-4.85 5.051h-1.819zM102.89 20.193c1.385 0 2.064-0.883 2.064-2.385 0-1.482-0.68-2.165-2.064-2.165h-1.798v4.55h1.798zM113.165 17.728c-0.016 0.013-0.027 0.020-0.027 0.020v-0.942h-2.685v9.999h2.685v-6.493c0 0 1.023-0.521 2.785-0.86v-2.572c-1.334 0.22-2.572 0.764-2.758 0.848zM122.827 16.566c-2.895 0-5.241 2.345-5.241 5.24 0 2.893 2.346 5.241 5.241 5.241s5.241-2.348 5.241-5.241c0-2.895-2.346-5.24-5.241-5.24zM122.827 24.45c-1.466 0-2.655-1.188-2.655-2.654s1.189-2.654 2.655-2.654 2.654 1.189 2.654 2.654c0 1.466-1.189 2.654-2.654 2.654z"></path>
</svg>
