<!-- Generated by IcoMoon.io -->
<svg version="1.1" xmlns="http://www.w3.org/2000/svg" width="36" height="32" viewBox="0 0 36 32">
<title>rocketchat</title>
<path d="M31.881 12.415l0.001 0.001c-0-0-0-0-0-0.001s-0-0-0-0.001zM10.953 1.352c1.121 0.623 2.18 1.41 3.085 2.285 1.458-0.264 2.962-0.397 4.487-0.397 4.566 0 8.896 1.198 12.19 3.373 1.706 1.127 3.062 2.464 4.030 3.974 1.078 1.683 1.624 3.493 1.624 5.432 0 1.887-0.546 3.697-1.624 5.38-0.968 1.511-2.324 2.848-4.030 3.974-3.294 2.175-7.623 3.372-12.19 3.372-1.525 0-3.029-0.133-4.487-0.397-0.905 0.875-1.964 1.663-3.085 2.285-5.988 2.999-10.953 0.071-10.953 0.071s4.617-3.92 3.866-7.356c-2.066-2.117-3.185-4.671-3.185-7.381 0-2.658 1.12-5.212 3.185-7.33 0.751-3.435-3.864-7.355-3.866-7.356 0.001-0.001 4.966-2.929 10.953 0.071zM7.375 21.955c0.579 1.849 0.24 3.933-1.017 6.252-0.060 0.111-0.116 0.223-0.177 0.334 1.078-0.090 2.168-0.387 3.272-0.93 0.833-0.47 1.632-1.065 2.313-1.724l1.254-1.212c1.716 0.463 3.598 0.719 5.573 0.719 8.012 0 14.507-4.208 14.507-9.4s-6.495-9.4-14.507-9.4c-8.012 0-14.507 4.208-14.507 9.4 0 2.262 1.233 4.338 3.288 5.96z"></path>
<path d="M11.653 18.094c-1.181 0-2.138-0.954-2.138-2.13s0.957-2.13 2.137-2.13c1.181 0 2.137 0.954 2.137 2.13s-0.957 2.13-2.137 2.13zM18.535 18.094c-1.18 0-2.137-0.954-2.137-2.13s0.957-2.13 2.137-2.13c1.18 0 2.137 0.954 2.137 2.13s-0.957 2.13-2.137 2.13zM25.416 18.094c-1.18 0-2.137-0.954-2.137-2.13s0.957-2.13 2.137-2.13c1.18 0 2.137 0.954 2.137 2.13s-0.957 2.13-2.137 2.13z"></path>
</svg>
