<!-- Generated by IcoMoon.io -->
<svg version="1.1" xmlns="http://www.w3.org/2000/svg" width="24" height="24" viewBox="0 0 24 24">
<title>shield-off</title>
<path d="M20.645 14.296c0.241-0.776 0.358-1.567 0.355-2.3v-6.996c0-0.426-0.267-0.79-0.649-0.936l-8-3c-0.236-0.088-0.484-0.082-0.701 0l-3.16 1.18c-0.517 0.192-0.78 0.768-0.587 1.286s0.769 0.78 1.287 0.587l2.809-1.049 7.001 2.625v6.311c0.002 0.522-0.082 1.111-0.265 1.7-0.164 0.527 0.131 1.088 0.659 1.251s1.088-0.131 1.251-0.659zM5 6.414l11.231 11.231c-1.189 1.207-2.63 2.314-4.262 3.199-1.209-0.69-4.402-2.702-6.019-5.531-0.079-0.138-0.153-0.276-0.223-0.417-0.456-0.911-0.727-1.878-0.727-2.896zM0.293 1.707l2.824 2.825c-0.075 0.142-0.116 0.302-0.117 0.468v7c0 1.382 0.369 2.655 0.938 3.791 0.087 0.175 0.179 0.346 0.276 0.515 2.351 4.114 7.34 6.589 7.34 6.589 0.298 0.149 0.636 0.135 0.914-0.010 1.985-1.047 3.74-2.366 5.178-3.825l4.648 4.648c0.391 0.391 1.024 0.391 1.414 0s0.391-1.024 0-1.414l-22.001-22.001c-0.391-0.391-1.024-0.391-1.414 0s-0.391 1.024 0 1.414z"></path>
</svg>
