<!-- Generated by IcoMoon.io -->
<svg version="1.1" xmlns="http://www.w3.org/2000/svg" width="32" height="32" viewBox="0 0 32 32">
<title>signalwire</title>
<path d="M20.434 31.262l9.038-9.038c-0.957 0.957-2.552 0.957-3.615 0l-1.808-1.701-7.231 7.231c-0.957 0.957-0.957 2.552 0 3.615v0c1.063 0.957 2.658 0.957 3.615-0.106z"></path>
<path d="M20.434 9.783l9.038 9.038c-0.957-0.957-2.552-0.957-3.615 0l-1.808 1.701-7.231-7.231c-0.957-0.957-0.957-2.552 0-3.615v0c1.063-0.957 2.658-0.957 3.615 0.106z"></path>
<path d="M29.472 22.33v0c0.957-0.957 0.957-2.552 0-3.615v0c-0.957-0.957-2.552-0.957-3.615 0l-1.808 1.808 1.808 1.808c0.957 0.957 2.552 0.957 3.615 0z"></path>
<path d="M11.502 0.744l-9.038 9.038c0.957-0.957 2.552-0.957 3.615 0l1.808 1.808 7.231-7.231c0.957-0.957 0.957-2.552 0-3.615v0c-1.063-0.957-2.658-0.957-3.615 0z"></path>
<path d="M11.502 22.33l-9.038-9.038c0.957 0.957 2.552 0.957 3.615 0l1.808-1.808 7.231 7.231c0.957 0.957 0.957 2.552 0 3.615v0c-1.063 0.957-2.658 0.957-3.615 0z"></path>
<path d="M2.463 9.783v0c-0.957 0.957-0.957 2.552 0 3.615v0c0.957 0.957 2.552 0.957 3.615 0l1.808-1.808-1.808-1.808c-1.063-1.063-2.658-1.063-3.615 0z"></path>
</svg>
