<!-- Generated by IcoMoon.io -->
<svg version="1.1" xmlns="http://www.w3.org/2000/svg" width="24" height="24" viewBox="0 0 24 24">
<title>speaker</title>
<path d="M10 7.081v9.839l-3.375-2.7c-0.17-0.137-0.388-0.22-0.625-0.22h-3v-4h3c0.218 0.001 0.439-0.071 0.625-0.219zM10.375 4.219l-4.726 3.781h-3.649c-0.552 0-1 0.448-1 1v6c0 0.552 0.448 1 1 1h3.649l4.726 3.781c0.431 0.345 1.061 0.275 1.406-0.156 0.148-0.185 0.22-0.407 0.219-0.625v-14c0-0.552-0.448-1-1-1-0.237 0-0.455 0.083-0.625 0.219zM14.833 9.167c0.781 0.781 1.171 1.803 1.171 2.828s-0.39 2.047-1.171 2.828c-0.39 0.391-0.39 1.024 0 1.414s1.024 0.39 1.414 0c1.171-1.171 1.757-2.708 1.757-4.242s-0.586-3.071-1.757-4.242c-0.39-0.391-1.024-0.391-1.414 0s-0.391 1.024 0 1.414z"></path>
</svg>
