<!-- Generated by IcoMoon.io -->
<svg version="1.1" xmlns="http://www.w3.org/2000/svg" width="32" height="32" viewBox="0 0 32 32">
<title>tag</title>
<path d="M27.992 4.008h-8.016c-0.178 0-0.648 0.085-1.214 0.319s-0.958 0.506-1.084 0.632l-13.26 13.26 9.361 9.361 13.26-13.26c0.126-0.126 0.398-0.518 0.632-1.084s0.319-1.036 0.319-1.213v-8.016zM28.994 0v0c1.653 0 3.006 1.353 3.006 3.006v9.018c0 1.653-0.956 3.962-2.125 5.131l-13.968 13.968c-0.585 0.584-1.355 0.877-2.126 0.877s-1.541-0.292-2.125-0.877l-10.778-10.778c-1.169-1.169-1.169-3.082 0-4.251l13.968-13.968c1.169-1.169 3.478-2.126 5.131-2.126h9.018zM20 9c0 1.657 1.343 3 3 3s3-1.343 3-3c0-1.657-1.343-3-3-3s-3 1.343-3 3z"></path>
</svg>
