<!-- Generated by IcoMoon.io -->
<svg version="1.1" xmlns="http://www.w3.org/2000/svg" width="34" height="32" viewBox="0 0 34 32">
<title>tags</title>
<path d="M31 2h-7c-1.65 0-3.955 0.955-5.121 2.121l-11.757 11.757c-1.167 1.167-1.167 3.076 0 4.243l8.757 8.757c1.167 1.167 3.076 1.167 4.243 0l11.757-11.757c1.167-1.167 2.121-3.471 2.121-5.121v-7c0-1.65-1.35-3-3-3zM27 12c-1.657 0-3-1.343-3-3s1.343-3 3-3 3 1.343 3 3-1.343 3-3 3zM2.707 18.707l10.699 10.699c-1.133 0.599-2.577 0.423-3.528-0.528l-8.757-8.757c-1.167-1.167-1.167-3.076 0-4.243l11.757-11.757c1.167-1.167 3.471-2.121 5.121-2.121l-15.293 15.293c-0.389 0.389-0.389 1.025 0 1.414z"></path>
</svg>
