<!-- Generated by IcoMoon.io -->
<svg version="1.1" xmlns="http://www.w3.org/2000/svg" width="34" height="32" viewBox="0 0 34 32">
<title>tags-2</title>
<path d="M30 6h-6c-0.178 0-0.647 0.085-1.211 0.319s-0.956 0.506-1.082 0.631l-11.050 11.050 7.343 7.343 11.050-11.050c0.126-0.126 0.397-0.517 0.631-1.082s0.319-1.034 0.319-1.211v-6zM31 2v0c1.65 0 3 1.35 3 3v7c0 1.65-0.955 3.955-2.121 5.121l-11.757 11.757c-0.583 0.583-1.352 0.875-2.121 0.875s-1.538-0.292-2.121-0.875l-8.757-8.757c-1.167-1.167-1.167-3.076 0-4.243l11.757-11.757c1.167-1.167 3.471-2.121 5.121-2.121h7zM2.707 18.707l10.699 10.699c-1.133 0.599-2.577 0.423-3.528-0.528l-8.757-8.757c-1.167-1.167-1.167-3.076 0-4.243l11.757-11.757c1.167-1.167 3.471-2.121 5.121-2.121l-15.293 15.293c-0.389 0.389-0.389 1.025 0 1.414zM24 10c0 1.105 0.895 2 2 2s2-0.895 2-2c0-1.105-0.895-2-2-2s-2 0.895-2 2z"></path>
</svg>
