<!-- Generated by IcoMoon.io -->
<svg version="1.1" xmlns="http://www.w3.org/2000/svg" width="32" height="32" viewBox="0 0 32 32">
<title>template</title>
<path d="M32 26v-24h-22v2.309l-5.238 0.736 0.34 2.421-5.102 1.463 6.615 23.070 20.377-5.843 1.117-0.157h3.891zM12 4h18v20h-18v-20zM10 6.14v19.86h5.086l-5.441 0.765-2.836-20.177 3.191-0.448zM7.858 29.758l-5.616-19.586 3.115-0.893 2.745 19.533 5.994-0.842-6.238 1.789zM14 6h14v2h-14zM14 10h14v2h-14zM14 14h14v2h-14zM14 18h10v2h-10z"></path>
</svg>
