<!-- Generated by IcoMoon.io -->
<svg version="1.1" xmlns="http://www.w3.org/2000/svg" width="24" height="24" viewBox="0 0 24 24">
<title>tool</title>
<path d="M15.407 6.993l3.77-3.756c0.081-0.079 0.152-0.18 0.205-0.296 0.227-0.504 0.002-1.096-0.501-1.322-0.263-0.118-0.532-0.22-0.807-0.306-1.582-0.492-3.34-0.428-4.963 0.307-1.761 0.797-3.033 2.234-3.664 3.909-0.554 1.467-0.617 3.124-0.087 4.697l-6.447 6.447c-0.609 0.609-0.914 1.41-0.914 2.207s0.305 1.598 0.914 2.207 1.41 0.914 2.207 0.914 1.598-0.305 2.207-0.914l6.448-6.448c0.050 0.017 0.1 0.033 0.151 0.049 1.582 0.492 3.34 0.428 4.963-0.307 1.761-0.797 3.033-2.234 3.664-3.909s0.624-3.594-0.173-5.355c-0.045-0.103-0.114-0.205-0.204-0.295-0.391-0.391-1.024-0.391-1.414 0l-3.756 3.77zM13.986 5.6c-0.383 0.39-0.573 0.9-0.572 1.406 0.002 0.502 0.192 1.007 0.571 1.394l1.607 1.608c0.398 0.39 0.907 0.58 1.413 0.579 0.502-0.002 1.007-0.192 1.394-0.571l2.574-2.574c0.090 0.796-0.015 1.593-0.291 2.326-0.452 1.199-1.359 2.222-2.617 2.792-1.16 0.525-2.412 0.571-3.545 0.219-0.197-0.061-0.391-0.135-0.579-0.22-0.387-0.174-0.827-0.082-1.118 0.205l-6.91 6.91c-0.219 0.219-0.504 0.328-0.793 0.328s-0.574-0.109-0.793-0.328-0.328-0.504-0.328-0.793 0.109-0.574 0.328-0.793l6.91-6.91c0.301-0.301 0.37-0.746 0.204-1.119-0.569-1.258-0.575-2.626-0.123-3.825s1.359-2.222 2.617-2.792c0.852-0.386 1.755-0.513 2.623-0.413z"></path>
</svg>
