<!-- Generated by IcoMoon.io -->
<svg version="1.1" xmlns="http://www.w3.org/2000/svg" width="32" height="32" viewBox="0 0 32 32">
<title>transferto</title>
<path d="M8.911 1.553c-1.485 0.72-3.421 2.025-4.231 2.925l-1.575 1.62h8.416c4.636 0 8.416-0.18 8.416-0.36 0-0.225-0.585-0.81-1.35-1.35-0.72-0.585-1.35-1.17-1.35-1.395 0-0.18 0.765-0.9 1.665-1.53l1.71-1.215h-4.501c-4.051 0-4.771 0.135-7.201 1.305zM22.188 7.719c0.27 0.63 0.45 1.35 0.45 1.575s-4.411 0.405-10.802 0.405c-12.107 0-11.027-0.315-11.882 3.241l-0.27 1.26h11.477c7.831 0 11.477 0.135 11.477 0.495 0 0.27-0.225 0.855-0.45 1.35-0.27 0.45-0.405 0.855-0.27 0.855 0.090 0 2.25-1.215 4.771-2.655l4.591-2.655-4.501-2.52c-2.475-1.395-4.636-2.52-4.771-2.52s-0.045 0.54 0.18 1.17zM4.906 17.755c-5.086 3.061-5.266 2.34 1.485 6.076 2.43 1.35 3.646 1.8 3.466 1.35-0.135-0.405-0.405-1.215-0.54-1.8l-0.27-1.080h21.693l0.45-1.17c0.27-0.63 0.45-1.62 0.45-2.25v-1.080h-22.594l0.315-1.35c0.18-0.765 0.225-1.35 0.135-1.35-0.090 0.045-2.115 1.215-4.591 2.655zM13.187 27.702c1.665 1.35 1.665 1.35-0.63 3.061l-1.305 0.99h4.096c4.996 0 8.101-1.035 10.982-3.601l1.935-1.755h-16.653l1.575 1.305z"></path>
</svg>
