<!-- Generated by IcoMoon.io -->
<svg version="1.1" xmlns="http://www.w3.org/2000/svg" width="32" height="32" viewBox="0 0 32 32">
<title>twilio_original</title>
<path d="M9.347 12.345c0 1.604 1.301 2.905 2.905 2.905s2.905-1.301 2.905-2.905c0-1.604-1.301-2.905-2.905-2.905s-2.905 1.301-2.905 2.905zM16.83 12.345c0 1.604 1.301 2.905 2.905 2.905s2.905-1.301 2.905-2.905c0-1.604-1.301-2.905-2.905-2.905s-2.905 1.301-2.905 2.905zM9.347 19.563c0 1.604 1.301 2.905 2.905 2.905s2.905-1.301 2.905-2.905c0-1.604-1.301-2.905-2.905-2.905s-2.905 1.301-2.905 2.905zM16.83 19.563c0 1.604 1.301 2.905 2.905 2.905s2.905-1.301 2.905-2.905c0-1.604-1.301-2.905-2.905-2.905s-2.905 1.301-2.905 2.905zM15.994 0.285c-8.654 0-15.669 7.015-15.669 15.669s7.015 15.669 15.669 15.669 15.669-7.015 15.669-15.669c0-8.654-7.015-15.669-15.669-15.669zM15.994 27.134c-6.174 0-11.18-5.005-11.18-11.18s5.005-11.18 11.18-11.18 11.18 5.005 11.18 11.18c0 6.174-5.005 11.18-11.18 11.18z"></path>
</svg>
