<!-- Generated by IcoMoon.io -->
<svg version="1.1" xmlns="http://www.w3.org/2000/svg" width="32" height="32" viewBox="0 0 32 32">
<title>user-restore</title>
<path d="M9.561 18.25c-0.031 0.173-0.074 0.348-0.135 0.5h3.105c-0.043-0.164-0.078-0.332-0.104-0.5h-2.866zM0.587 24.25c-0.108 0.165-0.203 0.332-0.283 0.5h12.187c0.352-0.176 0.708-0.344 1.059-0.5h-12.963zM2.572 22.25c-0.216 0.162-0.424 0.329-0.622 0.5h12.681c-0.091-0.159-0.181-0.326-0.268-0.5h-11.792zM8.643 19.25c-0.4 0.101-0.918 0.271-1.5 0.5h5.778c-0.085-0.158-0.161-0.324-0.229-0.5h-4.049zM4.075 21.25c-0.27 0.16-0.537 0.327-0.797 0.5h10.853c-0.070-0.162-0.137-0.328-0.199-0.5h-9.857zM0.112 25.25c-0.049 0.166-0.082 0.332-0.098 0.5h10.678c0.020-0.012 0.039-0.025 0.059-0.037 0.255-0.157 0.52-0.312 0.791-0.463h-11.431zM0.958 23.75h13.817c0.136-0.050 0.27-0.099 0.401-0.144-0.079-0.112-0.159-0.231-0.239-0.356h-13.524c-0.163 0.164-0.314 0.331-0.454 0.5zM7.767 4.75h8.466c-0.136-0.176-0.289-0.344-0.462-0.5h-7.542c-0.173 0.156-0.326 0.324-0.462 0.5zM6.775 7.75h9.66c0.245-0.112 0.5-0.211 0.766-0.296-0.006-0.068-0.014-0.136-0.023-0.204h-10.358c-0.021 0.169-0.036 0.336-0.046 0.5zM4.97 20.75h8.734c-0.167-0.146-0.322-0.314-0.463-0.5h-7.262c-0.33 0.153-0.669 0.32-1.009 0.5zM8.366 15.75h4.377c0.025-0.053 0.052-0.106 0.079-0.158-0.010-0.107-0.020-0.221-0.028-0.342h-4.692c0.084 0.175 0.173 0.342 0.263 0.5zM7.022 13.25c0.149 0.129 0.316 0.205 0.495 0.205 0.016 0.1 0.036 0.198 0.058 0.295h5.196c0.008-0.163 0.020-0.33 0.036-0.5h-5.785zM6.8 9.25c0.016 0.189 0.033 0.357 0.048 0.5h7.172c0.12-0.171 0.251-0.338 0.393-0.5h-7.613zM6.759 8.25c-0.001 0.174 0.003 0.341 0.010 0.5h8.136c0.201-0.181 0.414-0.348 0.639-0.5h-8.785zM7.024 6.25c-0.048 0.166-0.089 0.333-0.122 0.5h10.197c-0.033-0.167-0.074-0.334-0.122-0.5h-9.952zM7.438 5.25c-0.091 0.163-0.171 0.33-0.24 0.5h9.604c-0.069-0.17-0.149-0.337-0.24-0.5h-9.125zM12.376 17.25h-2.935c0.121 0.136 0.196 0.21 0.196 0.21s-0.001 0.117-0.014 0.29h2.753c-0.009-0.168-0.009-0.335-0-0.5zM10.21 3.25c-0.496 0.12-0.922 0.29-1.289 0.5h6.158c-0.366-0.21-0.792-0.38-1.286-0.5h-3.583zM8.674 16.25c0.123 0.186 0.243 0.353 0.356 0.5h3.402c0.029-0.171 0.069-0.339 0.118-0.5h-3.876zM12.758 14.25h-5.051c0.053 0.172 0.112 0.338 0.176 0.5h4.883c-0.006-0.16-0.009-0.326-0.008-0.5zM6.467 12.25c0.047 0.178 0.11 0.348 0.186 0.5h6.217c0.025-0.165 0.055-0.332 0.091-0.5h-6.494zM6.787 10.25c-0.132 0.14-0.23 0.311-0.298 0.5h6.961c0.077-0.168 0.161-0.335 0.254-0.5h-6.917zM6.381 11.25c-0.016 0.164-0.016 0.332-0.001 0.5h6.705c0.047-0.167 0.101-0.334 0.162-0.5h-6.866zM22.969 25.168c-0.592-0.093-0.606-1.708-0.606-1.708s1.74-1.708 2.119-4.005c1.020 0 1.65-2.442 0.63-3.301 0.043-0.904 1.311-7.099-5.112-7.099s-5.155 6.195-5.112 7.099c-1.020 0.859-0.39 3.301 0.63 3.301 0.379 2.297 2.12 4.005 2.12 4.005s-0.014 1.615-0.606 1.708c-1.908 0.301-9.031 3.416-9.031 6.832h24c0-3.416-7.124-6.531-9.031-6.832z"></path>
</svg>
