<!-- Generated by IcoMoon.io -->
<svg version="1.1" xmlns="http://www.w3.org/2000/svg" width="32" height="32" viewBox="0 0 32 32">
<title>user-add</title>
<path d="M28 18v-4h-4v4h-4v4h4v4h4v-4h4v-4zM24 26.421c-2.605-2.411-7.007-4.218-8.537-4.461-0.691-0.11-0.707-2.010-0.707-2.010s2.030-2.010 2.473-4.713c1.19 0 1.926-2.873 0.735-3.884 0.050-1.064 1.53-8.354-5.964-8.354s-6.014 7.29-5.965 8.354c-1.19 1.011-0.455 3.884 0.735 3.884 0.442 2.703 2.473 4.713 2.473 4.713s-0.016 1.9-0.707 2.010c-1.529 0.243-5.931 2.050-8.537 4.461v3.579h24v-3.579z"></path>
</svg>
