<!-- Generated by IcoMoon.io -->
<svg version="1.1" xmlns="http://www.w3.org/2000/svg" width="34" height="32" viewBox="0 0 34 32">
<title>user-block</title>
<path d="M13.625 23c0 1.793 0.418 3.49 1.16 5h-14.785v-3.579c2.605-2.411 7.007-4.218 8.537-4.461 0.691-0.11 0.707-2.010 0.707-2.010s-2.030-2.010-2.473-4.713c-1.19 0-1.925-2.873-0.735-3.884-0.050-1.064-1.53-8.354 5.964-8.354s6.014 7.29 5.964 8.354c1.191 1.011 0.455 3.884-0.735 3.884-0.133 0.814-0.411 1.564-0.733 2.216-0.639 0.719-1.188 1.518-1.63 2.382-0.069 0.075-0.11 0.115-0.11 0.115s0 0.037 0.003 0.1c-0.726 1.497-1.134 3.176-1.134 4.949zM25 14c-4.971 0-9 4.029-9 9s4.029 9 9 9 9-4.029 9-9-4.029-9-9-9zM18.375 23c0-3.653 2.972-6.625 6.625-6.625 1.398 0 2.697 0.436 3.767 1.178l-9.214 9.214c-0.743-1.070-1.178-2.369-1.178-3.767zM25 29.625c-1.398 0-2.697-0.436-3.767-1.178l9.214-9.214c0.743 1.070 1.178 2.369 1.178 3.767 0 3.653-2.972 6.625-6.625 6.625z"></path>
</svg>
