<!-- Generated by IcoMoon.io -->
<svg version="1.1" xmlns="http://www.w3.org/2000/svg" width="32" height="32" viewBox="0 0 32 32">
<title>users</title>
<path d="M18 20.12v-0.923c1.196-1.038 2-2.976 2-5.197 0-3.314-1.791-6-4-6s-4 2.686-4 6c0 2.221 0.805 4.16 2 5.197v0.923c-4.564 0.556-8 2.977-8 5.88h20c0-2.903-3.436-5.324-8-5.88zM10.053 19.050c-0.835-0.51-1.887-0.863-3.052-0.994v-0.459c0.598-0.519 1-1.487 1-2.598 0-1.657-0.895-3-2-3s-2 1.343-2 3c0 1.11 0.402 2.079 1 2.598v0.458c-2.838 0.317-5 1.962-5 3.944h5.607c1.064-1.226 2.601-2.246 4.445-2.95zM27 18.056v-0.458c0.598-0.519 1-1.487 1-2.598 0-1.657-0.895-3-2-3s-2 1.343-2 3c0 1.11 0.402 2.079 1 2.598v0.459c-1.166 0.131-2.218 0.484-3.053 0.994 1.845 0.703 3.381 1.724 4.445 2.95h5.607c0-1.982-2.162-3.627-5-3.944z"></path>
</svg>
