<!-- Generated by IcoMoon.io -->
<svg version="1.1" xmlns="http://www.w3.org/2000/svg" width="32" height="32" viewBox="0 0 32 32">
<title>viber</title>
<path d="M5.002 0.276c-0.61 0.067-1.297 0.286-1.9 0.6-1.418 0.748-2.472 2.203-2.752 3.806-0.061 0.34-0.064 0.798-0.064 11.385v11.032l0.078 0.344c0.485 2.193 2.035 3.742 4.227 4.227l0.344 0.078h22.164l0.344-0.078c2.193-0.485 3.742-2.035 4.227-4.227l0.078-0.344v-11.032c0-10.587-0.003-11.045-0.064-11.385-0.084-0.492-0.253-0.987-0.509-1.499-0.798-1.607-2.402-2.718-4.2-2.914-0.411-0.044-21.575-0.040-21.972 0.007zM17.037 5.878c1.159 0.145 2.095 0.424 3.123 0.926 1.011 0.495 1.657 0.963 2.513 1.816 0.802 0.805 1.246 1.415 1.718 2.361 0.657 1.32 1.031 2.89 1.095 4.618 0.024 0.59 0.007 0.721-0.128 0.889-0.256 0.327-0.819 0.273-1.011-0.094-0.061-0.121-0.078-0.226-0.098-0.697-0.034-0.724-0.084-1.192-0.185-1.752-0.398-2.193-1.448-3.944-3.126-5.201-1.398-1.051-2.843-1.563-4.736-1.674-0.64-0.037-0.751-0.061-0.896-0.172-0.269-0.212-0.283-0.711-0.024-0.943 0.158-0.145 0.269-0.165 0.819-0.148 0.286 0.010 0.707 0.044 0.936 0.071zM9.337 6.242c0.118 0.040 0.3 0.135 0.404 0.202 0.64 0.424 2.422 2.705 3.005 3.843 0.333 0.65 0.445 1.132 0.34 1.489-0.108 0.384-0.286 0.586-1.085 1.229-0.32 0.259-0.62 0.525-0.667 0.596-0.121 0.175-0.219 0.519-0.219 0.761 0.003 0.563 0.367 1.583 0.845 2.368 0.371 0.61 1.034 1.391 1.691 1.991 0.771 0.707 1.452 1.189 2.22 1.57 0.987 0.492 1.59 0.616 2.031 0.411 0.111-0.050 0.229-0.118 0.266-0.148 0.034-0.030 0.293-0.347 0.576-0.697 0.546-0.687 0.67-0.798 1.044-0.926 0.475-0.162 0.96-0.118 1.448 0.131 0.37 0.192 1.179 0.694 1.701 1.058 0.687 0.482 2.156 1.681 2.355 1.92 0.35 0.431 0.411 0.984 0.175 1.593-0.249 0.643-1.219 1.849-1.896 2.365-0.613 0.465-1.048 0.643-1.62 0.67-0.472 0.024-0.667-0.017-1.27-0.266-4.729-1.95-8.505-4.861-11.503-8.859-1.566-2.088-2.759-4.254-3.574-6.501-0.475-1.31-0.499-1.88-0.108-2.55 0.168-0.283 0.886-0.984 1.408-1.374 0.869-0.647 1.27-0.886 1.59-0.953 0.219-0.047 0.6-0.010 0.842 0.077zM17.27 8.32c2.045 0.3 3.628 1.25 4.665 2.792 0.583 0.869 0.947 1.89 1.071 2.984 0.044 0.401 0.044 1.132-0.003 1.253-0.044 0.115-0.185 0.269-0.306 0.333-0.131 0.067-0.411 0.061-0.566-0.020-0.259-0.131-0.337-0.34-0.337-0.906 0-0.872-0.226-1.792-0.616-2.506-0.445-0.815-1.091-1.489-1.88-1.957-0.677-0.404-1.677-0.704-2.59-0.778-0.33-0.027-0.512-0.094-0.637-0.239-0.192-0.219-0.212-0.515-0.050-0.761 0.175-0.273 0.445-0.317 1.25-0.195zM17.987 10.863c0.664 0.141 1.172 0.394 1.607 0.802 0.559 0.529 0.866 1.169 1 2.088 0.091 0.6 0.054 0.835-0.158 1.031-0.199 0.182-0.566 0.189-0.788 0.017-0.162-0.121-0.212-0.249-0.249-0.596-0.044-0.461-0.125-0.785-0.263-1.085-0.296-0.637-0.819-0.967-1.701-1.075-0.414-0.050-0.539-0.098-0.674-0.256-0.246-0.293-0.152-0.768 0.189-0.943 0.128-0.064 0.182-0.071 0.465-0.054 0.175 0.010 0.434 0.040 0.573 0.071z"></path>
</svg>
