<!-- Generated by IcoMoon.io -->
<svg version="1.1" xmlns="http://www.w3.org/2000/svg" width="32" height="32" viewBox="0 0 32 32">
<title>vk</title>
<path d="M28.483 19.677c0 0 2.587 2.555 3.227 3.738 0.018 0.026 0.026 0.045 0.029 0.056 0.261 0.437 0.325 0.779 0.197 1.032-0.216 0.418-0.947 0.627-1.195 0.645 0 0-4.445 0-4.573 0-0.318 0-0.981-0.083-1.787-0.64-0.616-0.43-1.229-1.139-1.822-1.832-0.886-1.029-1.653-1.922-2.429-1.922-0.099 0-0.195 0.016-0.288 0.048-0.587 0.186-1.333 1.022-1.333 3.251 0 0.698-0.55 1.094-0.936 1.094 0 0-1.997 0-2.094 0-0.714 0-4.429-0.25-7.723-3.723-4.037-4.253-7.662-12.784-7.698-12.859-0.226-0.552 0.248-0.853 0.76-0.853h4.618c0.619 0 0.821 0.374 0.962 0.71 0.163 0.386 0.768 1.928 1.76 3.661 1.606 2.819 2.594 3.966 3.382 3.966 0.149 0 0.29-0.037 0.422-0.112 1.030-0.566 0.838-4.246 0.79-5.005 0-0.147-0.002-1.643-0.53-2.366-0.378-0.518-1.021-0.72-1.41-0.794 0.104-0.15 0.325-0.381 0.608-0.517 0.706-0.352 1.981-0.403 3.246-0.403h0.702c1.373 0.019 1.728 0.107 2.227 0.234 1.005 0.24 1.024 0.891 0.936 3.109-0.026 0.634-0.053 1.347-0.053 2.187 0 0.179-0.008 0.379-0.008 0.582-0.030 1.138-0.070 2.419 0.733 2.946 0.102 0.064 0.222 0.099 0.347 0.099 0.278 0 1.112 0 3.373-3.88 0.992-1.714 1.76-3.734 1.813-3.886 0.045-0.085 0.179-0.323 0.342-0.419 0.125-0.077 0.291-0.090 0.378-0.090h5.432c0.592 0 0.994 0.090 1.072 0.314 0.131 0.363-0.026 1.472-2.506 4.826-0.418 0.558-0.784 1.042-1.106 1.464-2.248 2.95-2.248 3.099 0.133 5.339z"></path>
</svg>
