<!-- Generated by IcoMoon.io -->
<svg version="1.1" xmlns="http://www.w3.org/2000/svg" width="32" height="32" viewBox="0 0 32 32">
<title>wit</title>
<path d="M10.203 3.154c-0.272 19.718 1.252 15.101-3.105 16.459 0.012-1.299 0-2.751 0-4.097 0.661-0.72 0.897-1.83 1.015-2.869 0.142-1.606-0.142-3.105-1.015-4.345 0.071-1.004-0.118-2.054 0.071-3.034 0.791-1.027 1.913-1.547 3.034-2.113z"></path>
<path d="M27.429 3.969c-0.638-1.393-2.078-0.968-3.282-1.134-13.307-0.425-13.141-1.901-13.082 3.082 0 3.011 0 10.083 0 12.374 0 0.437 0 0.697 0 0.72 5.313 0.083 11.028 0.224 16.494 0.354-0.118-5.101 0.213-10.308-0.13-15.396zM16.685 11.738c-2.090 0.744-3.412-2.255-1.582-3.235 2.468-1.181 3.79 2.090 1.582 3.235zM25.032 11.218c-1.57 1.629-3.896-0.248-3.011-2.090 1.653-2.125 4.416-0.118 3.011 2.090z"></path>
<path d="M6.578 9.317c1.417 0.697 0.968 4.439 0.26 5.266-1.665 0.638-1.5-5.101-0.26-5.266z"></path>
<path d="M7.499 20.274c7.899 0.071 15.798 0.153 23.709 0.39 1.169 0.531 0.555 2.479 0.708 3.448 0 2.232-0.012 4.404 0 6.636-8.962-0.012-17.935-0.012-26.896 0 0.213-9.587-0.933-10.78 2.479-10.473z"></path>
<path d="M3.496 20.805c0.449 0.106 0.673 0.543 0.673 0.98 0.012 2.987-0.012 5.974 0.012 8.962-1.393-0.012-2.798-0.012-4.191 0 0.224-6.966-1.24-9.575 3.507-9.941z"></path>
</svg>
