<!-- Generated by IcoMoon.io -->
<svg version="1.1" xmlns="http://www.w3.org/2000/svg" width="32" height="32" viewBox="0 0 32 32">
<title>wrench</title>
<path d="M30.056 22.866l-11.65-9.507c-0.386-0.315-0.761-0.597-1.119-0.843 0.459-1.080 0.713-2.268 0.713-3.516 0-4.971-4.029-9-9-9-0.909 0-1.787 0.135-2.614 0.386l5.614 5.614v6h-6l-5.614-5.614c-0.251 0.827-0.386 1.705-0.386 2.614 0 4.971 4.029 9 9 9 1.248 0 2.436-0.254 3.516-0.713 0.246 0.358 0.528 0.733 0.843 1.119l9.507 11.65c1.978 2.424 5.396 2.606 7.596 0.406s2.017-5.618-0.406-7.596zM27 30l-3-3 3-3 3 3-3 3z"></path>
</svg>
